<?xml version="1.0" standalone="no"?>
<!DOCTYPE svg PUBLIC "-//W3C//DTD SVG 1.1//EN" "http://www.w3.org/Graphics/SVG/1.1/DTD/svg11.dtd" >
<svg xmlns="http://www.w3.org/2000/svg">
<metadata></metadata>
<defs>
<font id="avertaextrathin_italic" horiz-adv-x="1200" >
<font-face units-per-em="2048" ascent="1581" descent="-467" />
<missing-glyph horiz-adv-x="485" />
<glyph horiz-adv-x="0" />
<glyph horiz-adv-x="682" />
<glyph unicode=" "  horiz-adv-x="485" />
<glyph unicode="&#x09;" horiz-adv-x="485" />
<glyph unicode="&#xa0;" horiz-adv-x="485" />
<glyph unicode="!" horiz-adv-x="409" d="M180 369l133 1138h52l-148 -1138h-37zM170 94q23 0 38 -15t15 -38q0 -25 -16 -41t-39 -16q-25 0 -39 15t-14 40q0 24 15.5 39.5t39.5 15.5z" />
<glyph unicode="&#x22;" horiz-adv-x="493" d="M291 1454h55l-133 -444h-43zM449 1454h55l-131 -444h-43z" />
<glyph unicode="#" horiz-adv-x="1153" d="M969 1343h45l-121 -464h254l-6 -43h-260l-99 -383h277l-6 -45h-285l-117 -459h-45l119 459h-352l-119 -459h-43l119 459h-244l6 45h248l100 383h-266l6 43h271l120 464h45l-120 -464h354zM838 836h-355l-100 -383h354z" />
<glyph unicode="$" horiz-adv-x="1046" d="M664 1360q87 -9 167 -48.5t138 -103.5l-35 -37q-61 67 -145.5 104.5t-174.5 37.5q-144 0 -238.5 -77t-94.5 -204q0 -24 3.5 -45.5t13.5 -41.5t17.5 -36t26.5 -34.5t29 -30t36.5 -29t37 -25.5t43 -26.5t42 -23.5t45.5 -25q49 -27 75 -41t68.5 -40.5t66 -45.5t53.5 -47.5 t45 -55t26 -60t11 -69.5q0 -163 -112.5 -262.5t-295.5 -99.5h-16l-31 -250h-43l31 254q-105 11 -202.5 65.5t-158.5 147.5l39 35q68 -103 169 -153t212 -50q161 0 259.5 85.5t98.5 225.5q0 42 -18.5 80.5t-39.5 64.5t-70 60.5t-77 50.5t-94 52q-12 7 -18 10q-50 27 -79 43.5 t-72.5 45t-69 54t-51.5 59t-38 72t-12 82.5q0 148 107 241t280 93h3l30 260h43z" />
<glyph unicode="%" horiz-adv-x="1861" d="M1346 1452l-742 -1466l-41 16l742 1468zM555 1460q160 0 264.5 -100t104.5 -260q0 -183 -120 -304.5t-292 -121.5q-156 0 -258 102t-102 262q0 175 117.5 298.5t285.5 123.5zM555 1415q-150 0 -254 -110.5t-104 -266.5q0 -140 89.5 -229.5t225.5 -89.5q154 0 260.5 109.5 t106.5 271.5q0 140 -91 227.5t-233 87.5zM1380 778q160 0 264.5 -99.5t104.5 -260.5q0 -182 -120 -303t-292 -121q-156 0 -258 102t-102 262q0 174 117.5 297t285.5 123zM1380 733q-150 0 -254 -110t-104 -265q0 -140 89 -229.5t226 -89.5q155 0 261 108.5t106 270.5 q0 141 -91 228t-233 87z" />
<glyph unicode="&#x26;" horiz-adv-x="1456" d="M1436 850l-6 -47h-363q-8 -134 -35.5 -252t-79 -221t-124 -177t-175 -116.5t-225.5 -42.5q-155 0 -249.5 94t-94.5 254q0 168 88.5 298t222.5 183q-62 30 -102.5 93t-40.5 149q0 165 113 281t294 116q133 0 213.5 -69t94.5 -185l-45 -14q-11 102 -79.5 161.5t-185.5 59.5 q-164 0 -261 -101.5t-97 -252.5q0 -86 51 -148.5t129 -62.5h957zM430 39q263 0 418.5 207t173.5 557h-510q-71 0 -141 -37.5t-123 -99.5t-86 -147t-33 -175q0 -135 79.5 -220t221.5 -85z" />
<glyph unicode="'" horiz-adv-x="335" d="M291 1454h55l-133 -444h-43z" />
<glyph unicode="(" horiz-adv-x="464" d="M188 346q0 -287 93 -606l-43 -21q-95 314 -95 619q0 307 84 610.5t240 550.5l35 -20q-151 -245 -232.5 -540t-81.5 -593z" />
<glyph unicode=")" horiz-adv-x="464" d="M348 870q0 -303 -78 -584.5t-233 -564.5l-39 17q150 276 227.5 549.5t77.5 576.5q0 338 -100 613l41 24q104 -268 104 -631z" />
<glyph unicode="*" horiz-adv-x="784" d="M684 969l-201 147l-28 -285h-43l41 285l-234 -151l-16 43l241 135l-211 135l27 41l201 -150l28 285h43l-43 -285l236 152l16 -43l-243 -135l213 -135z" />
<glyph unicode="+" horiz-adv-x="1112" d="M985 543h-399l-56 -449h-45l56 449h-404l6 45h404l55 450h45l-55 -450h399z" />
<glyph unicode="," horiz-adv-x="327" d="M104 184h58l-137 -446h-39z" />
<glyph unicode="-" horiz-adv-x="778" d="M670 606h-533l6 47h531z" />
<glyph unicode="." horiz-adv-x="364" d="M127 94q23 0 38 -15t15 -38q0 -25 -16 -41t-39 -16q-25 0 -39 15t-14 40q0 24 15.5 39.5t39.5 15.5z" />
<glyph unicode="/" horiz-adv-x="681" d="M829 1505l-927 -1741l-37 21l930 1743z" />
<glyph unicode="0" horiz-adv-x="1155" d="M698 1413q167 0 268 -132.5t101 -395.5q0 -132 -20.5 -257.5t-65 -241t-108.5 -202.5t-158 -138.5t-207 -51.5q-162 0 -266.5 133.5t-104.5 392.5q0 130 21.5 256.5t67.5 242t110.5 203t158 139.5t203.5 52zM696 1366q-101 0 -187 -50t-144.5 -133.5t-99.5 -193t-60 -228 t-19 -239.5q0 -238 92.5 -359.5t231.5 -121.5q104 0 190 50t144.5 132.5t99 192.5t58.5 227.5t18 239.5q0 243 -89.5 363t-234.5 120z" />
<glyph unicode="1" horiz-adv-x="634" d="M487 1407h48l-173 -1407h-47l162 1339l-321 -247l-27 38z" />
<glyph unicode="2" horiz-adv-x="917" d="M86 51v-4h688l-6 -47h-762l6 45l506 483q148 141 229.5 273.5t81.5 283.5q0 118 -67.5 199.5t-188.5 81.5q-118 0 -222 -68.5t-156 -185.5l-39 27q58 123 171.5 198.5t247.5 75.5q132 0 217 -92t85 -236q0 -83 -25 -164t-72 -155t-100.5 -137t-124.5 -131z" />
<glyph unicode="3" horiz-adv-x="942" d="M631 735q98 -32 150.5 -109t52.5 -188q0 -198 -125.5 -321t-321.5 -123q-149 0 -245 69.5t-126 186.5l43 18q26 -104 110 -165.5t218 -61.5q179 0 288 111t109 292q0 122 -77 195.5t-224 73.5h-133l6 47h138q156 0 252 99.5t96 258.5q0 119 -75.5 183.5t-201.5 64.5 q-211 0 -358 -182l-39 28q167 201 399 201q146 0 234 -76t88 -219q0 -140 -69.5 -240t-188.5 -139v-4z" />
<glyph unicode="4" horiz-adv-x="1001" d="M729 315h197l-6 -47h-197l-33 -268h-47l33 268h-656l7 47l790 1092h45zM682 315l121 990l-717 -990h596z" />
<glyph unicode="5" horiz-adv-x="1003" d="M973 1360h-594l-96 -553q53 35 126 51t136 16q172 0 270 -92.5t98 -269.5q0 -226 -138.5 -372t-354.5 -146q-132 0 -231 71t-132 185l43 18q34 -106 118.5 -166.5t203.5 -60.5q129 0 230 61.5t156.5 168.5t55.5 239q0 156 -84 235.5t-237 79.5q-73 0 -155 -22.5 t-124 -63.5l-41 6l117 662h639z" />
<glyph unicode="6" horiz-adv-x="1069" d="M631 868q156 0 248 -99t92 -257q0 -144 -65.5 -263.5t-176.5 -187t-242 -67.5q-172 0 -271 114.5t-99 303.5q0 166 56 337.5t151.5 315t235.5 248.5t296 137v-47q-160 -33 -300.5 -150t-232.5 -276t-133 -336l5 -2q70 108 185.5 168.5t250.5 60.5zM489 43q86 0 165.5 36 t139 97.5t95 149.5t35.5 186q0 139 -80.5 223t-220.5 84q-158 0 -278 -85.5t-175 -227.5q-4 -58 -4 -84q0 -173 85 -276t238 -103z" />
<glyph unicode="7" horiz-adv-x="905" d="M178 1407h778l-6 -49l-739 -1374l-43 18l729 1358h-725z" />
<glyph unicode="8" horiz-adv-x="1067" d="M707 762q114 -26 178.5 -108t64.5 -203q0 -201 -139.5 -329t-351.5 -128q-177 0 -277 91.5t-100 244.5t92 273.5t246 158.5q-78 20 -134.5 82.5t-56.5 169.5q0 175 118.5 287t301.5 112q150 0 236 -79.5t86 -209.5q0 -125 -75 -229t-189 -131v-2zM276 1024 q0 -119 78 -179.5t213 -60.5q149 0 253 93t104 237q0 123 -76 187.5t-209 64.5q-155 0 -259 -98.5t-104 -243.5zM469 43q184 0 308 116t124 285q0 144 -90 217.5t-242 73.5q-193 0 -316.5 -115t-123.5 -284q0 -139 93.5 -216t246.5 -77z" />
<glyph unicode="9" horiz-adv-x="1075" d="M653 1413q167 0 263 -109.5t96 -318.5q0 -164 -59.5 -335t-159.5 -313.5t-242 -247t-297 -138.5v47q122 28 237.5 106t205.5 186t154.5 240t92.5 267l-2 2q-79 -119 -198 -191.5t-269 -72.5q-148 0 -234.5 96t-86.5 248q0 145 63 267t178 194.5t258 72.5zM475 584 q143 0 270.5 79.5t215.5 243.5q2 27 2 80q-3 191 -85.5 285t-224.5 94q-127 0 -231.5 -65t-162.5 -174t-58 -236q0 -139 70 -223t204 -84z" />
<glyph unicode=":" horiz-adv-x="350" d="M231 1008q23 0 38.5 -15.5t15.5 -38.5q0 -24 -16.5 -40.5t-39.5 -16.5q-25 0 -39 15t-14 40q0 24 15.5 40t39.5 16zM121 94q23 0 38 -15t15 -38q0 -25 -16 -41t-39 -16q-25 0 -39 15t-14 40q0 24 15.5 39.5t39.5 15.5z" />
<glyph unicode=";" horiz-adv-x="358" d="M252 1008q23 0 38 -15.5t15 -38.5q0 -25 -16 -41t-39 -16q-25 0 -39 15t-14 40q0 24 15.5 40t39.5 16zM123 184h57l-137 -446h-39z" />
<glyph unicode="&#x3c;" horiz-adv-x="1058" d="M862 184l-6 -51l-739 430l4 33l846 430l-6 -49l-773 -397z" />
<glyph unicode="=" horiz-adv-x="1067" d="M1012 772h-848l6 45h848zM963 313h-848l6 45h848z" />
<glyph unicode="&#x3e;" horiz-adv-x="1052" d="M119 184l772 396l-676 397l6 49l742 -430l-5 -33l-845 -430z" />
<glyph unicode="?" horiz-adv-x="790" d="M195 1290l-29 33q68 94 160 143.5t190 49.5q134 0 211.5 -87.5t77.5 -228.5q0 -65 -16.5 -123t-51 -112t-68.5 -95t-87 -96q-11 -11 -41 -42t-41.5 -43t-34.5 -38t-33 -41.5t-23.5 -38.5t-20 -44t-9.5 -44l-17 -123h-40l16 121q3 24 10 48t14.5 42.5t23.5 42t26 38 t32.5 39.5t33.5 36.5t38 39t37 38.5q106 111 155.5 199t49.5 206q0 124 -68 190t-180 66q-94 0 -176.5 -45.5t-138.5 -130.5zM322 94q23 0 38 -15t15 -38q0 -25 -16.5 -41t-39.5 -16q-25 0 -39 15t-14 40q0 23 16 39t40 16z" />
<glyph unicode="@" horiz-adv-x="1839" d="M1006 1331q211 0 376.5 -87t260 -251.5t94.5 -380.5q0 -61 -11.5 -126.5t-41 -137.5t-73 -127.5t-114.5 -92t-158 -36.5q-70 0 -108.5 45.5t-38.5 138.5q0 7 0.5 16.5t1.5 25.5t2 30l4 35q-60 -120 -164.5 -193t-226.5 -73q-138 0 -218.5 87.5t-80.5 246.5 q0 133 50 244.5t155 183t248 71.5q90 0 171.5 -28.5t122.5 -79.5l11 102h45l-72 -582q-4 -54 -4 -71q0 -50 8.5 -82t26 -46.5t34.5 -19t44 -4.5q75 0 135.5 33t97.5 83.5t62 115.5t35 124.5t10 114.5q0 307 -190 491.5t-494 184.5q-146 0 -272 -36.5t-216.5 -100 t-160.5 -145.5t-112.5 -175.5t-63.5 -186.5t-21 -183q0 -147 50.5 -273.5t138.5 -215.5t211.5 -139t266.5 -50q277 0 467 108l29 -39q-203 -116 -496 -116q-151 0 -283 53.5t-227 148t-149.5 230t-54.5 293.5q0 75 14.5 155.5t47.5 166t81.5 164.5t121.5 150t162.5 123 t209 82.5t256.5 30.5zM817 164q141 0 263.5 125t144.5 297l26 205q-44 54 -126 83t-158 29q-98 0 -177.5 -37t-129.5 -100t-76.5 -143t-26.5 -170q0 -133 65 -211t195 -78z" />
<glyph unicode="A" horiz-adv-x="1198" d="M1026 0l-98 432h-674l-203 -432h-51l684 1454h55l336 -1454h-49zM276 479h642l-209 912h-4z" />
<glyph unicode="B" horiz-adv-x="1175" d="M786 762q115 -24 184.5 -96t69.5 -201q0 -139 -69 -246t-186.5 -163t-264.5 -56h-387l178 1454h414q68 0 125.5 -15t105 -46.5t74.5 -87t27 -131.5q0 -87 -29.5 -168.5t-92 -147.5t-149.5 -94v-2zM352 1409l-76 -627h363q163 0 267 113t104 279q0 115 -70.5 175 t-226.5 60h-361zM524 47q127 0 232.5 48.5t170 143t64.5 216.5q0 142 -88 211t-268 69h-365l-84 -688h338z" />
<glyph unicode="C" horiz-adv-x="1370" d="M1217 233q-99 -109 -236 -174t-281 -65q-250 0 -398 166t-148 448q0 165 54.5 320.5t148.5 273.5t230.5 189t291.5 71q303 0 495 -313l-41 -27q-93 156 -200.5 223.5t-249.5 67.5q-147 0 -275.5 -67.5t-216 -179.5t-138 -257t-50.5 -299q0 -264 134 -416.5t365 -152.5 q124 0 251.5 56.5t226.5 164.5z" />
<glyph unicode="D" horiz-adv-x="1349" d="M475 0h-342l178 1454h363q277 0 428 -156.5t151 -433.5q0 -249 -97 -445.5t-275 -307.5t-406 -111zM473 47q214 0 382 105.5t259.5 290.5t91.5 417q0 259 -138 404t-396 145h-318l-168 -1362h287z" />
<glyph unicode="E" horiz-adv-x="1085" d="M938 47l-4 -47h-801l178 1454h760l-4 -45h-715l-80 -657h598l-4 -47h-600l-80 -658h752z" />
<glyph unicode="F" horiz-adv-x="1048" d="M352 1409l-80 -661h646l-5 -48h-647l-86 -700h-47l178 1454h795l-4 -45h-750z" />
<glyph unicode="G" horiz-adv-x="1443" d="M1300 698l-63 -514q-101 -94 -239.5 -142t-280.5 -48q-265 0 -414 164t-149 446q0 168 54 323.5t148 274t232.5 189.5t296.5 71q273 0 461 -223l-35 -35q-174 209 -424 209q-119 0 -227 -43.5t-190.5 -120t-143 -178t-92 -221.5t-31.5 -246q0 -262 135.5 -412.5 t380.5 -150.5q129 0 255.5 43t219.5 123l53 444h-489l6 47h536z" />
<glyph unicode="H" horiz-adv-x="1335" d="M1257 1454l-176 -1454h-47l80 662h-852l-82 -662h-47l178 1454h47l-92 -745h854l90 745h47z" />
<glyph unicode="I" horiz-adv-x="462" d="M195 0h-48l179 1454h47z" />
<glyph unicode="J" horiz-adv-x="890" d="M49 225q53 -87 129 -135.5t150 -48.5q295 0 340 387l125 1026h47l-125 -1028q-27 -223 -124 -327.5t-265 -104.5q-82 0 -167.5 50.5t-140.5 141.5z" />
<glyph unicode="K" horiz-adv-x="1175" d="M1186 1454l-621 -688l453 -766h-60l-426 727h-2l-301 -334l-49 -393h-47l178 1454h47l-120 -979h6l880 979h62z" />
<glyph unicode="L" horiz-adv-x="1001" d="M907 47l-4 -47h-770l178 1454h47l-172 -1407h721z" />
<glyph unicode="M" horiz-adv-x="1630" d="M1507 1454h45l-176 -1454h-47l164 1348h-4l-676 -1031h-39l-426 1035h-4l-164 -1352h-47l178 1454h45l445 -1071h4z" />
<glyph unicode="N" horiz-adv-x="1400" d="M1276 1454h47l-178 -1454h-45l-750 1362h-4l-166 -1362h-47l178 1454h41l752 -1362h6z" />
<glyph unicode="O" horiz-adv-x="1550" d="M889 1462q257 0 410 -158t153 -446q0 -139 -32.5 -268t-96.5 -237t-152 -188.5t-205 -125.5t-249 -45q-257 0 -410 160t-153 444q0 169 53.5 326t147.5 276t233.5 190.5t300.5 71.5zM717 41q154 0 285 66t218 177.5t136 259.5t49 312q0 267 -138 412t-380 145 q-151 0 -281 -67.5t-218 -180t-137.5 -260.5t-49.5 -307q0 -262 139 -409.5t377 -147.5z" />
<glyph unicode="P" horiz-adv-x="1116" d="M741 1454q174 0 265.5 -90t91.5 -248q0 -220 -129.5 -355.5t-352.5 -135.5h-360l-76 -625h-47l178 1454h430zM618 672q202 0 317.5 123t115.5 321q0 150 -86 221.5t-228 71.5h-385l-90 -737h356z" />
<glyph unicode="Q" horiz-adv-x="1568" d="M1452 858q0 -188 -60 -355.5t-171 -287.5l163 -186l-36 -35l-162 184q-197 -184 -469 -184q-257 0 -410 160t-153 444q0 169 53.5 326t147.5 276t233.5 190.5t300.5 71.5q257 0 410 -158t153 -446zM717 41q253 0 436 172l-170 193l37 36l170 -192q103 114 159 271.5 t56 334.5q0 267 -138 412t-380 145q-151 0 -281 -67.5t-218 -180t-137.5 -260.5t-49.5 -307q0 -262 139 -409.5t377 -147.5z" />
<glyph unicode="R" horiz-adv-x="1179" d="M672 627l-2 -9l313 -618h-55l-318 625h-354l-76 -625h-47l178 1454h430q174 0 265.5 -90t91.5 -248q0 -205 -113.5 -337.5t-312.5 -151.5zM352 1409l-90 -737h356q202 0 317.5 123t115.5 321q0 150 -86 221.5t-228 71.5h-385z" />
<glyph unicode="S" horiz-adv-x="1075" d="M575 766q53 -29 81 -44.5t73.5 -44t70.5 -48.5t57 -50.5t48 -58.5t27.5 -63.5t11.5 -73.5q0 -176 -120 -282.5t-316 -106.5q-126 0 -249 57.5t-200 171.5l39 35q74 -111 182 -164t230 -53q171 0 279 92t108 248q0 32 -10 62.5t-24 54t-41.5 50t-49 44t-61.5 42 t-64.5 38.5t-71.5 40q-13 7 -20 11q-46 25 -73 40t-68.5 41t-66 46.5t-54.5 51t-46 59.5t-27 66.5t-11 78.5q0 158 114.5 257t299.5 99q106 0 205 -42.5t171 -119.5l-36 -36q-66 72 -156 110.5t-186 38.5q-156 0 -260.5 -83.5t-104.5 -219.5q0 -36 10.5 -69.5t23.5 -58 t42.5 -53t48.5 -44.5t62 -43t62.5 -38t69.5 -38z" />
<glyph unicode="T" horiz-adv-x="1015" d="M1073 1409h-432l-172 -1409h-47l172 1409h-426l4 45h907z" />
<glyph unicode="U" horiz-adv-x="1308" d="M1145 569q-35 -287 -178.5 -431t-380.5 -144q-207 0 -308.5 123t-101.5 340q0 39 8 125l109 872h47l-109 -874q-10 -78 -10 -121q0 -196 91 -307t276 -111q214 0 346.5 133t165.5 397l106 883h47z" />
<glyph unicode="V" horiz-adv-x="1181" d="M1186 1454h49l-680 -1454h-45l-328 1454h49l310 -1372h2z" />
<glyph unicode="W" horiz-adv-x="1849" d="M1843 1454h51l-602 -1454h-55l-203 1374h-4l-536 -1374h-56l-248 1454h50l231 -1372h4l537 1372h57l205 -1372h4z" />
<glyph unicode="X" horiz-adv-x="1138" d="M1186 1454l-561 -731l379 -723h-54l-354 676h-4l-520 -676h-58l555 723l-381 731h54l358 -684h2l524 684h60z" />
<glyph unicode="Y" horiz-adv-x="1036" d="M1061 1454h55l-555 -792l-80 -662h-47l80 662l-356 792h51l332 -735h4z" />
<glyph unicode="Z" horiz-adv-x="1122" d="M1087 1407l-960 -1356l-2 -4h805l-4 -47h-865l5 43l964 1364l2 2h-749l4 45h807z" />
<glyph unicode="[" horiz-adv-x="516" d="M336 1440l-207 -1686h219l-6 -41h-260l217 1770h260l-4 -43h-219z" />
<glyph unicode="\" horiz-adv-x="681" d="M98 1505l41 23l504 -1743l-41 -21z" />
<glyph unicode="]" horiz-adv-x="516" d="M414 1440h-219l4 43h262l-217 -1770h-262l6 41h219z" />
<glyph unicode="^" horiz-adv-x="882" d="M211 1024l321 430h52l217 -430h-58l-188 385l-287 -385h-57z" />
<glyph unicode="_" horiz-adv-x="935" d="M879 -102h-967l4 45h967z" />
<glyph unicode="`" horiz-adv-x="968" d="M479 1399l195 -277h-58l-196 277h59z" />
<glyph unicode="a" horiz-adv-x="1087" d="M950 991h45l-121 -991h-45l39 319h-4q-66 -145 -175.5 -235t-250.5 -90q-157 0 -248.5 111t-91.5 282q0 167 63 306t182 222.5t271 83.5q94 0 181 -32.5t135 -89.5h6zM440 39q90 0 172 48t140.5 126.5t97 176.5t51.5 200l29 221q-28 42 -71 72t-90 44t-85.5 19.5 t-73.5 5.5q-138 0 -245.5 -78t-164.5 -206.5t-57 -282.5t78 -250t219 -96z" />
<glyph unicode="b" horiz-adv-x="1116" d="M674 999q167 0 256.5 -113t89.5 -300q0 -118 -37.5 -225.5t-105 -189t-169 -129.5t-221.5 -48q-224 0 -362 96l174 1417h43l-102 -831h6q68 145 177 234t251 89zM492 39q88 0 165 29t134 81t98.5 121t62.5 150t21 168q0 170 -75 267t-226 97q-122 0 -224.5 -82 t-162.5 -206t-76 -263l-37 -288q122 -74 320 -74z" />
<glyph unicode="c" horiz-adv-x="972" d="M455 -6q-68 0 -131.5 26.5t-114.5 76t-82 127t-31 171.5q0 122 36.5 232t102 192.5t164.5 131t217 48.5q93 0 178.5 -39t139.5 -118l-39 -31q-47 72 -120.5 106.5t-158.5 34.5q-143 0 -253 -77.5t-166 -203t-56 -276.5q0 -156 91 -256t229 -100q116 0 202 38.5t152 119.5 l35 -27q-71 -91 -167 -133.5t-228 -42.5z" />
<glyph unicode="d" horiz-adv-x="1112" d="M1018 1507h45l-184 -1507h-45l38 322h-2q-68 -147 -177.5 -237.5t-252.5 -90.5q-158 0 -250 111t-92 282q0 167 63 306t182 222.5t271 83.5q95 0 183.5 -33.5t138.5 -93.5h4zM440 39q92 0 174.5 48t141.5 126.5t97.5 176t51.5 200.5l27 217q-35 57 -100 91.5t-117.5 44 t-102.5 9.5q-138 0 -245.5 -78t-164.5 -206.5t-57 -282.5t77 -250t218 -96z" />
<glyph unicode="e" horiz-adv-x="940" d="M477 39q180 0 316 158l34 -27q-140 -176 -350 -176q-170 0 -275.5 110.5t-105.5 298.5q0 162 65 298t182.5 217t262.5 81q40 0 84 -10t93 -33t80.5 -70t31.5 -112q0 -76 -50 -139t-126.5 -104t-181 -72t-200 -47t-196.5 -25q4 -162 95.5 -255t240.5 -93zM606 952 q-128 0 -233 -70t-165.5 -188.5t-66.5 -261.5q93 8 183 22.5t187.5 42t170 63.5t119.5 90.5t47 119.5q0 54 -25.5 92.5t-66.5 56.5t-77.5 25.5t-72.5 7.5z" />
<glyph unicode="f" horiz-adv-x="579" d="M705 1419q-62 49 -164 49q-82 0 -134.5 -59t-68.5 -199l-27 -219h314l-4 -45h-316l-115 -946h-45l115 946h-125l4 45h127l29 232q18 153 81 223t169 70q98 0 174 -50z" />
<glyph unicode="g" horiz-adv-x="1089" d="M948 991h45l-104 -856q-16 -131 -51 -228t-82 -157.5t-111.5 -97t-132 -50.5t-152.5 -14q-170 0 -319 76l14 49q146 -80 310 -80q77 0 137.5 12t119.5 45.5t101 89.5t74 146.5t47 212.5l26 207h-4q-69 -143 -178.5 -233t-251.5 -90q-157 0 -248.5 111.5t-91.5 283.5 q0 114 37 219t103 185.5t164 128.5t212 48q94 0 181 -32.5t135 -89.5h6zM438 70q70 0 136.5 29t118 78t94 113t69.5 134.5t39 142.5l31 246q-52 77 -143.5 108t-174.5 31q-137 0 -245.5 -77t-165 -198.5t-56.5 -260.5q0 -154 78 -250t219 -96z" />
<glyph unicode="h" horiz-adv-x="1089" d="M702 999q298 0 246 -403l-78 -596h-45l78 596q13 86 6 147.5t-22 102t-45.5 64t-64 33t-77.5 9.5q-79 0 -162 -41.5t-150 -111t-115 -166t-60 -199.5l-53 -434h-45l184 1507h43l-102 -841h4q74 149 200 241t258 92z" />
<glyph unicode="i" horiz-adv-x="419" d="M309 1352q23 0 38 -15.5t15 -38.5q0 -25 -15 -41t-40 -16q-23 0 -37 15t-14 40q0 24 15 40t38 16zM248 991h45l-123 -991h-43z" />
<glyph unicode="j" horiz-adv-x="329" d="M256 1352q23 0 38 -15.5t15 -38.5q0 -25 -15 -41t-40 -16q-23 0 -37 15t-14 40q0 24 15 40t38 16zM-227 -334q46 -33 104 -33q33 0 58.5 9t50.5 32.5t42.5 72t26.5 120.5l138 1124h45l-140 -1126q-16 -141 -67.5 -209t-157.5 -68q-61 0 -111 31z" />
<glyph unicode="k" horiz-adv-x="944" d="M668 246q55 -126 84 -164.5t69 -44.5l-12 -43q-13 0 -33 4q-42 15 -71.5 62t-70.5 143q-6 15 -9 22l-101 228q-168 -148 -340 -232l-24 -221h-45l184 1507h43l-149 -1226h8q225 122 409.5 321t247.5 389h47q-40 -131 -130.5 -261.5t-213.5 -244.5z" />
<glyph unicode="l" horiz-adv-x="403" d="M309 1507h45l-184 -1507h-45z" />
<glyph unicode="m" horiz-adv-x="1665" d="M1296 999q292 0 240 -403l-80 -596h-45l80 596q13 86 6 147.5t-22 102t-44.5 64t-62 33t-74.5 9.5q-136 0 -260.5 -139t-161.5 -334l-63 -479h-45l78 596q13 86 6.5 147.5t-21 102t-43.5 64t-61 33t-74 9.5q-93 0 -188 -69.5t-163.5 -190.5t-84.5 -258l-53 -434h-45 l121 991h45l-39 -313h2q69 145 180 233t225 88q257 0 246 -319h2q66 143 175 231t224 88z" />
<glyph unicode="n" horiz-adv-x="1089" d="M702 999q298 0 246 -403l-78 -596h-45l78 596q13 86 6 147.5t-22 102t-45.5 64t-64 33t-77.5 9.5q-78 0 -159 -40t-147.5 -106t-115 -159t-63.5 -192l-55 -455h-45l121 991h45l-39 -325h2q74 149 200 241t258 92z" />
<glyph unicode="o" horiz-adv-x="1095" d="M610 999q178 0 284.5 -106t106.5 -297q0 -126 -35.5 -236t-100.5 -191t-161 -128t-212 -47q-180 0 -289 109.5t-109 302.5q0 118 36.5 225.5t102 189t163.5 130t214 48.5zM610 952q-203 0 -336 -155.5t-133 -390.5q0 -172 95 -269.5t256 -97.5q204 0 333 154t129 403 q0 171 -91 263.5t-253 92.5z" />
<glyph unicode="p" horiz-adv-x="1114" d="M674 999q161 0 253.5 -111t92.5 -284q0 -167 -63.5 -305.5t-184 -221.5t-274.5 -83q-96 0 -185 33.5t-137 93.5h-2l-65 -527h-46l173 1397h45l-39 -317h4q68 146 177.5 235.5t250.5 89.5zM502 39q139 0 248 78t166 206.5t57 282.5q0 155 -78 250.5t-223 95.5 q-121 0 -223.5 -82t-163 -206t-76.5 -263l-29 -219q27 -43 70.5 -73t91 -44t86 -20t74.5 -6z" />
<glyph unicode="q" horiz-adv-x="1095" d="M950 991h45l-170 -1397h-45l88 725h-4q-66 -145 -175 -235t-249 -90q-158 0 -250 111t-92 282q0 167 63 306t182 222.5t271 83.5q93 0 180.5 -32.5t137.5 -89.5h4zM440 39q90 0 172.5 48t141 126.5t97 176.5t50.5 200l29 221q-28 42 -70.5 72t-89 44t-85 19.5t-73.5 5.5 q-138 0 -245.5 -78t-164.5 -206.5t-57 -282.5t77 -250t218 -96z" />
<glyph unicode="r" horiz-adv-x="557" d="M248 692q115 245 352 307l-4 -61q-152 -34 -256 -171t-127 -333l-53 -434h-45l121 991h45l-37 -299h4z" />
<glyph unicode="s" horiz-adv-x="800" d="M59 168q120 -129 293 -129q125 0 204 59t79 160q0 37 -14.5 68.5t-34.5 53t-55.5 43t-63 34t-72.5 31.5q-16 7 -24 10q-42 17 -71 31t-63 36.5t-54 47t-34 59.5t-14 76q0 114 88 182.5t211 68.5q166 0 271 -118l-31 -33q-56 60 -112.5 82t-135.5 22q-102 0 -173 -57.5 t-71 -153.5q0 -37 16 -68t48 -55.5t63.5 -41t79.5 -37.5q8 -3 41 -17t43 -18.5t39 -18.5t40 -21.5t34 -22.5t33 -27l25 -30t21.5 -35.5t11.5 -40t5 -46.5q0 -85 -48 -147.5t-121 -91.5t-161 -29q-195 0 -323 137z" />
<glyph unicode="t" horiz-adv-x="673" d="M518 115l6 -52q-94 -69 -211 -69q-103 0 -137 69.5t-18 198.5l84 684h-123l4 45h123l45 359l45 6l-45 -365h354l-4 -45h-354l-84 -684q-7 -65 -4.5 -114.5t31.5 -79t87 -29.5q106 0 201 76z" />
<glyph unicode="u" horiz-adv-x="1050" d="M905 991h45l-121 -991h-45l39 313h-4q-70 -144 -183.5 -231.5t-234.5 -87.5q-154 0 -222 96t-42 305l74 596h45l-74 -594q-13 -86 -5.5 -148t23.5 -102.5t49 -64.5t69.5 -33.5t84.5 -9.5q96 0 192.5 67.5t166 183t88.5 247.5z" />
<glyph unicode="v" horiz-adv-x="962" d="M375 -6q-142 0 -203 99.5t-33 322.5l72 575h45l-74 -573q-7 -77 -7.5 -135t11.5 -100.5t28.5 -70t43 -44t54.5 -23t63 -6.5q78 0 158.5 48.5t147 132.5t113 207.5t56.5 262.5q9 156 -16 301h49q23 -156 14 -278q-10 -146 -49.5 -269t-94.5 -204t-122 -138t-132 -82.5 t-124 -25.5z" />
<glyph unicode="w" horiz-adv-x="1382" d="M1303 991q25 -166 12 -297q-12 -141 -45.5 -259.5t-79 -198t-100.5 -135.5t-109.5 -81.5t-106.5 -25.5q-200 0 -217 244h-4q-50 -116 -133 -180t-162 -64q-272 0 -221 412l74 585h45l-74 -583q-13 -89 -7 -153t20 -106t41.5 -66.5t56.5 -34t67 -9.5q103 0 189.5 109.5 t116.5 267.5l4 28l67 547h45l-73 -594q-12 -86 -6 -148t19 -102.5t39 -64.5t54 -33.5t64 -9.5q90 0 175.5 89t144.5 242t71 330q9 138 -17 291h50z" />
<glyph unicode="x" horiz-adv-x="882" d="M877 991l-404 -493l283 -498h-58l-258 453h-4l-368 -453h-58l404 496l-285 495h55l258 -452h9l366 452h60z" />
<glyph unicode="y" horiz-adv-x="1042" d="M899 991h45l-104 -856q-16 -131 -50.5 -229t-79 -158t-105 -96.5t-120.5 -50t-133 -13.5q-149 0 -301 76l15 47q142 -78 290 -78q64 0 117.5 12t108.5 46t95.5 89t72.5 146t47 213l20 176h-4q-69 -145 -183 -233t-235 -88q-154 0 -222 96t-42 305l74 596h45l-74 -594 q-13 -86 -5.5 -148t23.5 -102.5t49 -64.5t69.5 -33.5t84.5 -9.5q99 0 197 70t167 189.5t85 254.5z" />
<glyph unicode="z" horiz-adv-x="833" d="M807 950l-737 -901v-4q199 0 289 -1.5t191.5 -11.5t162.5 -30l-15 -45q-98 30 -229 36.5t-465 6.5l4 45l740 899v2h-607l6 45h664z" />
<glyph unicode="{" horiz-adv-x="561" d="M512 1483h53l-6 -43h-51q-58 0 -101.5 -40t-52.5 -108l-63 -524q-10 -86 -37 -127.5t-98 -54.5v-4q66 -13 83 -55.5t7 -129.5l-58 -465q-12 -97 16 -137.5t95 -40.5h53l-4 -41h-51q-76 0 -120 49t-34 136l64 514q5 26 2.5 51t-11 45t-36.5 34.5t-76 18.5l4 45 q49 6 81 19.5t47 37t20.5 43.5t9.5 54l67 538q9 79 61.5 132t135.5 53z" />
<glyph unicode="|" horiz-adv-x="516" d="M360 1509h46l-216 -1745h-45z" />
<glyph unicode="}" horiz-adv-x="563" d="M379 758q-3 -38 -2.5 -68.5t29.5 -53t92 -30.5l-4 -45q-40 -3 -68.5 -14t-44 -24t-25.5 -34t-13 -37.5t-5 -41.5l-64 -514q-12 -87 -67 -135t-131 -48h-56l7 41h51q69 0 107.5 41.5t50.5 138.5l57 465q10 86 38 128.5t99 56.5q-67 14 -84 57t-6 129l63 524q9 68 -24 107 t-92 39h-54l5 43h55q81 0 121.5 -54t31.5 -133z" />
<glyph unicode="~" horiz-adv-x="1040" d="M147 502q79 157 209 157q34 0 68 -10.5t53.5 -21t50.5 -29.5q7 -4 32.5 -20t33 -20.5t27.5 -15t31.5 -14t28 -7t32.5 -3.5q46 0 88.5 32t68.5 95l37 -16q-36 -78 -90 -117t-110 -39q-14 0 -29 2.5t-26.5 5t-26 9t-23 10.5t-23.5 13t-20.5 12.5t-20.5 13.5l-18 12 q-94 61 -166 61q-105 0 -172 -125z" />
<glyph unicode="&#xa1;" horiz-adv-x="395" d="M246 897q-23 0 -38 15t-15 38q0 25 16 41.5t39 16.5q24 0 38.5 -15.5t14.5 -40.5q0 -24 -15.5 -39.5t-39.5 -15.5zM236 623l-134 -1139h-51l148 1139h37z" />
<glyph unicode="&#xa2;" horiz-adv-x="985" d="M678 1110q88 -5 166 -44t129 -114l-39 -28q-47 72 -120.5 106.5t-158.5 34.5q-143 0 -253 -77.5t-166 -203t-56 -276.5q0 -156 91 -256t229 -100q225 0 354 155l35 -26q-125 -157 -336 -175l-29 -235h-39l29 233h-20q-68 0 -131.5 27t-114.5 77t-82 128t-31 172 q0 160 60 294.5t176.5 218.5t267.5 89l31 256h39z" />
<glyph unicode="&#xa3;" horiz-adv-x="1032" d="M975 1180q-71 184 -256 184q-138 0 -229.5 -102.5t-116.5 -317.5l-17 -129h330l-6 -47h-330l-88 -721h666l-6 -47h-885l6 47h172l88 721h-133l6 47h133l17 137q16 126 54.5 218.5t93 143t115 74t130.5 23.5q209 0 295 -203z" />
<glyph unicode="&#xa4;" horiz-adv-x="917" d="M842 838q0 -88 -33.5 -168.5t-93.5 -139.5l119 -149l-31 -33l-121 154q-101 -82 -238 -82t-219 82l-155 -152l-27 33l156 152q-56 78 -56 188q0 188 119 317l-119 154l33 31l119 -152q108 90 242 90q131 0 217 -86l153 150l27 -31l-154 -152q62 -84 62 -206zM190 723 q0 -118 68.5 -187t185.5 -69q147 0 248 107.5t101 263.5q0 126 -70 201t-186 75q-146 0 -246.5 -113.5t-100.5 -277.5z" />
<glyph unicode="&#xa5;" horiz-adv-x="964" d="M1042 1407l-385 -590h236l-6 -45h-260l-103 -158l-4 -36h342l-6 -48h-342l-65 -530h-48l66 530h-348l6 48h348l4 36l-63 158h-264l6 45h239l-239 590h55l297 -737l481 737h53z" />
<glyph unicode="&#xa6;" horiz-adv-x="518" d="M360 1509h46l-89 -718h-45zM236 492h47l-90 -725h-48z" />
<glyph unicode="&#xa7;" horiz-adv-x="958" d="M537 827q144 -59 195 -93q112 -74 112 -191q0 -205 -230 -307q67 -40 103.5 -91.5t36.5 -126.5q0 -154 -101.5 -241.5t-267.5 -87.5q-112 0 -202 44.5t-142 133.5l35 35q39 -82 122 -123t185 -41q147 0 235.5 71t88.5 203q0 48 -16.5 85t-61.5 70t-71 47.5t-98 48.5 l-18 9q-11 5 -32 15q-50 23 -75 35.5t-64.5 35t-59.5 41t-42 45t-31 57.5t-9 68q0 102 62.5 181.5t164.5 113.5q-123 80 -123 209q0 143 98.5 234.5t237.5 91.5q90 0 174 -34.5t134 -90.5l-35 -35q-45 54 -120 83.5t-151 29.5q-118 0 -204 -75t-86 -198q0 -34 9 -63 t29.5 -53t39 -41t55 -36.5t58 -29.5t65.5 -29zM565 264q232 81 232 273q0 45 -17.5 79.5t-56 62.5t-73 46t-96.5 45q-21 9 -32 14q-80 35 -110 50q-105 -22 -170.5 -93.5t-65.5 -167.5q0 -36 13 -66.5t33 -52.5t56 -44.5t68.5 -39t82.5 -40.5q19 -9 28 -13q91 -45 108 -53z " />
<glyph unicode="&#xa8;" horiz-adv-x="942" d="M430 1325q25 0 40 -15t15 -38q0 -25 -16 -41.5t-41 -16.5q-23 0 -37 15.5t-14 40.5q0 23 15 39t38 16zM702 1325q23 0 38.5 -15t15.5 -38q0 -25 -16.5 -41.5t-39.5 -16.5t-38 15.5t-15 40.5q0 23 16 39t39 16z" />
<glyph unicode="&#xa9;" horiz-adv-x="1363" d="M684 1241q161 0 295 -80t210.5 -215.5t76.5 -294.5q0 -157 -77 -292.5t-212 -216.5t-295 -81q-161 0 -296 80.5t-212.5 216t-77.5 293.5t77.5 293.5t213 216t297.5 80.5zM1221 651q0 146 -71 271t-195 199.5t-271 74.5q-148 0 -273.5 -74.5t-197.5 -199.5t-72 -271 q0 -147 71.5 -272t196 -199t273.5 -74q147 0 271.5 74.5t196 199.5t71.5 271zM698 360q139 0 220 109l36 -31q-97 -123 -256 -123q-140 0 -232.5 87.5t-92.5 242.5q0 147 85.5 242.5t239.5 95.5t256 -125l-36 -29q-87 109 -220 109q-134 0 -207 -81t-73 -212 q0 -135 78.5 -210t201.5 -75z" />
<glyph unicode="&#xaa;" horiz-adv-x="739" d="M696 1407h45l-73 -592h-43l18 166h-2q-43 -80 -110 -125t-148 -45q-97 0 -154 63.5t-57 178.5q0 95 35.5 175t108.5 131.5t171 51.5q54 0 108.5 -17.5t88.5 -47.5h4zM387 858q95 0 175 78t100 192l20 158q-17 34 -70 57t-116 23q-125 0 -202 -87.5t-77 -223.5 q0 -92 44.5 -144.5t125.5 -52.5z" />
<glyph unicode="&#xab;" horiz-adv-x="753" d="M311 27h-45l-186 473l301 469h45l-297 -469zM582 27h-45l-187 473l301 469h45l-295 -469z" />
<glyph unicode="&#xac;" horiz-adv-x="1095" d="M936 383h-45l39 313h-760l6 45h803z" />
<glyph unicode="&#xad;" horiz-adv-x="778" d="M670 606h-533l6 47h531z" />
<glyph unicode="&#xae;" horiz-adv-x="1363" d="M684 1241q161 0 295 -80t210.5 -215.5t76.5 -294.5q0 -157 -77 -292.5t-212 -216.5t-295 -81q-161 0 -296 80.5t-212.5 216t-77.5 293.5t77.5 293.5t213 216t297.5 80.5zM682 106q147 0 271.5 74.5t196 199.5t71.5 271t-71 271t-195 199.5t-271 74.5q-148 0 -273.5 -74.5 t-197.5 -199.5t-72 -271q0 -147 71.5 -272t196 -199t273.5 -74zM911 801q0 -171 -178 -191l207 -286h-55l-205 284h-143v-284h-45v663h215q103 0 153.5 -51.5t50.5 -134.5zM537 942v-291h157q172 0 172 150q0 67 -41 104t-112 37h-176z" />
<glyph unicode="&#xaf;" horiz-adv-x="905" d="M305 1288h492l-9 -47h-489z" />
<glyph unicode="&#xb0;" horiz-adv-x="759" d="M496 1462q97 0 160 -64t63 -169q0 -123 -82 -213t-207 -90q-101 0 -160 60.5t-59 158.5q0 132 81.5 224.5t203.5 92.5zM496 1415q-102 0 -171 -77.5t-69 -192.5q0 -82 46 -127t128 -45q101 0 171.5 74.5t70.5 181.5q0 85 -48 135.5t-128 50.5z" />
<glyph unicode="&#xb1;" horiz-adv-x="1081" d="M997 735h-399l-55 -448h-45l55 448h-403l6 45h403l55 451h45l-55 -451h400zM905 0h-848l6 45h848z" />
<glyph unicode="&#xb2;" horiz-adv-x="616" d="M180 942v-6h422l-6 -43h-496l6 37l340 305q82 74 126 140.5t44 148.5q0 79 -42.5 126.5t-122.5 47.5q-63 0 -127 -37.5t-99 -104.5l-35 27q39 72 112.5 116t150.5 44q91 0 150 -58t59 -157q0 -90 -47.5 -167t-135.5 -155z" />
<glyph unicode="&#xb3;" horiz-adv-x="618" d="M518 1329q60 -21 91.5 -68.5t31.5 -111.5q0 -119 -80 -190.5t-201 -71.5q-97 0 -161 41.5t-88 111.5l43 17q43 -125 208 -125q105 0 169.5 59.5t64.5 157.5q0 68 -51 114t-144 46h-75l4 45h88q92 0 150.5 55.5t58.5 140.5q0 72 -45 110t-129 38q-129 0 -209 -101l-37 27 q94 119 248 119q96 0 156.5 -50t60.5 -139q0 -82 -40.5 -138t-113.5 -81v-6z" />
<glyph unicode="&#xb4;" horiz-adv-x="968" d="M709 1399h63l-262 -277h-61z" />
<glyph unicode="&#xb5;" horiz-adv-x="1091" d="M1001 51l13 -45q-40 -12 -84 -12q-52 0 -83.5 18.5t-42.5 50t-13.5 73t4.5 87.5l4 37h-2q-64 -130 -168 -198t-221 -68q-89 0 -150.5 45t-87.5 135h-4q-9 -109 -21 -211l-45 -369h-45l172 1397h45l-75 -610q-10 -79 -0.5 -137.5t28.5 -98t50.5 -63t64 -33.5t70.5 -10 q151 0 274 128.5t147 352.5l60 471h45l-94 -749q-6 -59 -7 -104t24 -72t79 -27q26 0 63 12z" />
<glyph unicode="&#xb6;" horiz-adv-x="704" d="M422 1288h182l-194 -1591h-45l190 1544h-104l-154 -1241h-45l104 854q-83 0 -136.5 46.5t-53.5 129.5q0 107 70.5 182.5t185.5 75.5z" />
<glyph unicode="&#xb7;" horiz-adv-x="329" d="M190 537q23 0 38.5 -15.5t15.5 -38.5q0 -25 -16 -41t-40 -16q-25 0 -39 15t-14 40q0 24 15.5 40t39.5 16z" />
<glyph unicode="&#xb8;" horiz-adv-x="657" d="M238 -74q135 -13 135 -125q0 -74 -55 -126t-136 -52q-47 0 -80 17l7 43q38 -15 75 -15q53 0 98.5 34.5t45.5 98.5q0 78 -144 84l9 43l2 6h2l41 78h45l-47 -84z" />
<glyph unicode="&#xb9;" horiz-adv-x="432" d="M406 1735h36l-104 -842h-43l96 776l-201 -137l-20 37z" />
<glyph unicode="&#xba;" horiz-adv-x="733" d="M479 1411q107 0 170.5 -62.5t63.5 -177.5q0 -153 -85.5 -256.5t-219.5 -103.5q-107 0 -171.5 65.5t-64.5 182.5q0 144 87 248t220 104zM477 1366q-110 0 -185 -87.5t-75 -217.5q0 -95 51 -149t142 -54q112 0 184 87t72 222q0 95 -49 147t-140 52z" />
<glyph unicode="&#xbb;" horiz-adv-x="753" d="M57 27l297 473l-182 469h47l184 -469l-301 -473h-45zM328 27l297 473l-181 469h45l187 -469l-303 -473h-45z" />
<glyph unicode="&#xbc;" horiz-adv-x="1273" d="M977 1470l41 -18l-744 -1466l-41 16zM258 612l96 777l-200 -138l-21 37l236 166h37l-105 -842h-43zM1061 201h127l-6 -43h-127l-19 -158h-43l19 158h-402l6 41l488 643h37zM1018 201l65 544l-407 -544h342z" />
<glyph unicode="&#xbd;" horiz-adv-x="1337" d="M977 1470l41 -18l-744 -1466l-41 16zM258 612l96 777l-200 -138l-21 37l236 166h37l-105 -842h-43zM788 49v-6h422l-6 -43h-495l6 37l340 305q82 74 126 140.5t44 148.5q0 79 -43 126.5t-123 47.5q-63 0 -126.5 -37t-98.5 -104l-35 26q40 72 112.5 116t149.5 44 q91 0 150 -58t59 -157q0 -90 -47.5 -167t-135.5 -155z" />
<glyph unicode="&#xbe;" horiz-adv-x="1431" d="M1135 1470l41 -18l-744 -1466l-41 16zM604 868q0 -119 -79.5 -190.5t-200.5 -71.5q-97 0 -161.5 42t-88.5 112l43 16q43 -125 209 -125q105 0 169 59.5t64 157.5q0 68 -50.5 114t-143.5 46h-76l4 45h88q92 0 150.5 56t58.5 141q0 72 -45 109.5t-129 37.5 q-129 0 -209 -100l-37 26q94 119 248 119q96 0 156.5 -49.5t60.5 -138.5q0 -82 -40.5 -138t-113.5 -81v-6q60 -21 91.5 -69t31.5 -112zM1219 201h127l-7 -43h-127l-18 -158h-43l18 158h-401l6 41l488 643h36zM1176 201l65 544l-407 -544h342z" />
<glyph unicode="&#xbf;" horiz-adv-x="718" d="M489 897q-23 0 -38 15t-15 38q0 25 16.5 41.5t39.5 16.5q24 0 38.5 -15.5t14.5 -40.5q0 -24 -15.5 -39.5t-40.5 -15.5zM616 -299q-56 -85 -138.5 -130.5t-176.5 -45.5q-112 0 -180 66t-68 190q0 117 49.5 205.5t155.5 199.5q10 11 37 38.5t38 39t33.5 36.5t32.5 39.5 t26 38t23.5 42t14.5 42.5t10 48l16 121h-40l-17 -123q-3 -23 -9.5 -44t-20 -44t-23.5 -38.5t-33 -41.5t-34.5 -38t-41.5 -43t-41 -42q-53 -55 -87 -96t-68.5 -95t-51 -112t-16.5 -123q0 -141 77.5 -228t211.5 -87q99 0 190.5 49t159.5 143z" />
<glyph unicode="&#xc0;" horiz-adv-x="1198" d="M762 1640h-57l-197 277h59zM1026 0l-98 432h-674l-203 -432h-51l684 1454h55l336 -1454h-49zM276 479h642l-209 912h-4z" />
<glyph unicode="&#xc1;" horiz-adv-x="1198" d="M1063 1917l-262 -277h-62l260 277h64zM1026 0l-98 432h-674l-203 -432h-51l684 1454h55l336 -1454h-49zM276 479h642l-209 912h-4z" />
<glyph unicode="&#xc2;" horiz-adv-x="1198" d="M549 1638h-57l251 273l7 6h47l196 -279h-57l-162 242h-2zM1026 0l-98 432h-674l-203 -432h-51l684 1454h55l336 -1454h-49zM276 479h642l-209 912h-4z" />
<glyph unicode="&#xc3;" horiz-adv-x="1198" d="M631 1823q-81 0 -135 -127l-39 16q66 156 172 156q37 0 67 -17t66 -49q4 -4 17 -15t18.5 -15.5t17 -13.5t19 -13.5t17.5 -9.5t19.5 -7t18.5 -2q35 0 69.5 32.5t59.5 96.5l37 -18q-31 -77 -75.5 -116.5t-88.5 -39.5q-28 0 -58.5 15t-48 29.5t-45.5 41.5q-67 56 -108 56z M1026 0l-98 432h-674l-203 -432h-51l684 1454h55l336 -1454h-49zM276 479h642l-209 912h-4z" />
<glyph unicode="&#xc4;" horiz-adv-x="1198" d="M618 1733q-23 0 -37 15t-14 40q0 23 15.5 39t38.5 16q25 0 40 -15t15 -38q0 -25 -16.5 -41t-41.5 -16zM891 1733q-23 0 -38 15t-15 40q0 23 16 39t39 16t38 -15t15 -38q0 -25 -16 -41t-39 -16zM1026 0l-98 432h-674l-203 -432h-51l684 1454h55l336 -1454h-49zM276 479 h642l-209 912h-4z" />
<glyph unicode="&#xc5;" horiz-adv-x="1198" d="M748 1630q-63 0 -104.5 42.5t-41.5 105.5q0 65 43 107t109 42q63 0 105 -41t42 -104q0 -65 -43.5 -108.5t-109.5 -43.5zM754 1882q-46 0 -76.5 -29.5t-30.5 -74.5q0 -44 29 -72.5t72 -28.5q47 0 77.5 29.5t30.5 75.5q0 44 -29 72t-73 28zM1026 0l-98 432h-674l-203 -432 h-51l684 1454h55l336 -1454h-49zM276 479h642l-209 912h-4z" />
<glyph unicode="&#xc6;" horiz-adv-x="1687" d="M1671 1409h-715l-79 -659h604l-4 -48h-607l-79 -655h749l-4 -47h-799l54 432h-506l-279 -432h-55l938 1454h786zM797 477l110 920h-2l-592 -920h484z" />
<glyph unicode="&#xc7;" horiz-adv-x="1370" d="M883 1413q-147 0 -275.5 -67.5t-216 -179.5t-138 -257t-50.5 -299q0 -264 134 -416.5t365 -152.5q124 0 251.5 56.5t226.5 164.5l37 -29q-99 -109 -236 -174t-281 -65h-6h-2l-37 -66l2 -2q136 -13 136 -125q0 -74 -55 -126t-136 -52q-47 0 -80 17l6 43q38 -15 76 -15 q53 0 98.5 34.5t45.5 98.5q0 78 -144 84l8 43l2 6h2l31 58l-2 4q-226 19 -358.5 182.5t-132.5 429.5q0 165 54.5 320.5t148.5 273.5t230.5 189t291.5 71q303 0 495 -313l-41 -27q-93 156 -200.5 223.5t-249.5 67.5z" />
<glyph unicode="&#xc8;" horiz-adv-x="1085" d="M659 1923l195 -276h-57l-197 276h59zM938 47l-4 -47h-801l178 1454h760l-4 -45h-715l-80 -657h598l-4 -47h-600l-80 -658h752z" />
<glyph unicode="&#xc9;" horiz-adv-x="1085" d="M858 1923h64l-263 -276h-61zM938 47l-4 -47h-801l178 1454h760l-4 -45h-715l-80 -657h598l-4 -47h-600l-80 -658h752z" />
<glyph unicode="&#xca;" horiz-adv-x="1085" d="M547 1645h-58l252 272l7 6h47l196 -278h-57l-162 241h-2zM1067 1409h-715l-80 -657h598l-4 -47h-600l-80 -658h752l-4 -47h-801l178 1454h760z" />
<glyph unicode="&#xcb;" horiz-adv-x="1085" d="M618 1849q25 0 40.5 -15t15.5 -38q0 -25 -16.5 -41t-41.5 -16q-23 0 -37 15t-14 40q0 23 15 39t38 16zM891 1849q23 0 38 -15t15 -38q0 -25 -16 -41t-39 -16t-38 15t-15 40q0 23 16 39t39 16zM938 47l-4 -47h-801l178 1454h760l-4 -45h-715l-80 -657h598l-4 -47h-600 l-80 -658h752z" />
<glyph unicode="&#xcc;" horiz-adv-x="462" d="M176 1917l195 -277h-58l-196 277h59zM195 0h-48l179 1454h47z" />
<glyph unicode="&#xcd;" horiz-adv-x="462" d="M625 1917h63l-262 -277h-61zM195 0h-48l179 1454h47z" />
<glyph unicode="&#xce;" horiz-adv-x="462" d="M571 1638l-161 242h-2l-224 -242h-57l252 273l6 6h47l197 -279h-58zM147 0l179 1454h47l-178 -1454h-48z" />
<glyph unicode="&#xcf;" horiz-adv-x="462" d="M256 1843q25 0 40 -15t15 -38q0 -25 -16 -41t-41 -16q-23 0 -37 15t-14 40q0 23 15 39t38 16zM528 1843q23 0 38.5 -15t15.5 -38q0 -24 -16 -40.5t-40 -16.5q-23 0 -38 15t-15 40q0 23 16 39t39 16zM195 0h-48l179 1454h47z" />
<glyph unicode="&#xd0;" horiz-adv-x="1349" d="M674 1454q277 0 428 -156.5t151 -433.5q0 -249 -97 -445.5t-275 -307.5t-406 -111h-342l111 899h-166l6 47h166l61 508h363zM473 47q214 0 382 105.5t259.5 290.5t91.5 417q0 259 -138 404t-396 145h-318l-57 -463h317l-4 -47h-319l-105 -852h287z" />
<glyph unicode="&#xd1;" horiz-adv-x="1400" d="M735 1823q-81 0 -135 -127l-39 16q66 156 172 156q37 0 67 -17t66 -49q4 -4 17 -15t18.5 -15.5t17 -13.5t19 -13.5t17.5 -9.5t19.5 -7t18.5 -2q35 0 69.5 32.5t59.5 96.5l37 -18q-31 -77 -75.5 -116.5t-88.5 -39.5q-28 0 -58.5 15.5t-47 29.5t-45.5 41q-67 56 -109 56z M1276 1454h47l-178 -1454h-45l-750 1362h-4l-166 -1362h-47l178 1454h41l752 -1362h6z" />
<glyph unicode="&#xd2;" horiz-adv-x="1550" d="M807 1917l194 -277h-57l-196 277h59zM889 1462q257 0 410 -158t153 -446q0 -139 -32.5 -268t-96.5 -237t-152 -188.5t-205 -125.5t-249 -45q-257 0 -410 160t-153 444q0 169 53.5 326t147.5 276t233.5 190.5t300.5 71.5zM717 41q154 0 285 66t218 177.5t136 259.5t49 312 q0 267 -138 412t-380 145q-151 0 -281 -67.5t-218 -180t-137.5 -260.5t-49.5 -307q0 -262 139 -409.5t377 -147.5z" />
<glyph unicode="&#xd3;" horiz-adv-x="1550" d="M1174 1917h63l-262 -277h-62zM889 1462q257 0 410 -158t153 -446q0 -139 -32.5 -268t-96.5 -237t-152 -188.5t-205 -125.5t-249 -45q-257 0 -410 160t-153 444q0 169 53.5 326t147.5 276t233.5 190.5t300.5 71.5zM717 41q154 0 285 66t218 177.5t136 259.5t49 312 q0 267 -138 412t-380 145q-151 0 -281 -67.5t-218 -180t-137.5 -260.5t-49.5 -307q0 -262 139 -409.5t377 -147.5z" />
<glyph unicode="&#xd4;" horiz-adv-x="1550" d="M760 1638h-58l252 273l7 6h47l196 -279h-57l-162 242h-2zM889 1462q257 0 410 -158t153 -446q0 -139 -32.5 -268t-96.5 -237t-152 -188.5t-205 -125.5t-249 -45q-257 0 -410 160t-153 444q0 169 53.5 326t147.5 276t233.5 190.5t300.5 71.5zM717 41q154 0 285 66 t218 177.5t136 259.5t49 312q0 267 -138 412t-380 145q-151 0 -281 -67.5t-218 -180t-137.5 -260.5t-49.5 -307q0 -262 139 -409.5t377 -147.5z" />
<glyph unicode="&#xd5;" horiz-adv-x="1550" d="M668 1712q66 156 172 156q37 0 67 -17t66 -49q4 -4 17 -15t18.5 -15.5t17 -13.5t19 -13.5t17.5 -9.5t19.5 -7t18.5 -2q35 0 69.5 32.5t59.5 96.5l37 -18q-31 -77 -75.5 -116.5t-88.5 -39.5q-28 0 -58.5 15t-48 29.5t-45.5 41.5q-67 56 -108 56q-81 0 -135 -127zM889 1462 q257 0 410 -158t153 -446q0 -139 -32.5 -268t-96.5 -237t-152 -188.5t-205 -125.5t-249 -45q-257 0 -410 160t-153 444q0 169 53.5 326t147.5 276t233.5 190.5t300.5 71.5zM717 41q154 0 285 66t218 177.5t136 259.5t49 312q0 267 -138 412t-380 145q-151 0 -281 -67.5 t-218 -180t-137.5 -260.5t-49.5 -307q0 -262 139 -409.5t377 -147.5z" />
<glyph unicode="&#xd6;" horiz-adv-x="1550" d="M831 1843q25 0 40.5 -15t15.5 -38q0 -25 -16.5 -41t-41.5 -16q-23 0 -37 15t-14 40q0 23 15 39t38 16zM1104 1843q23 0 38 -15t15 -38q0 -25 -16 -41t-39 -16t-38 15t-15 40q0 23 16 39t39 16zM889 1462q257 0 410 -158t153 -446q0 -139 -32.5 -268t-96.5 -237 t-152 -188.5t-205 -125.5t-249 -45q-257 0 -410 160t-153 444q0 169 53.5 326t147.5 276t233.5 190.5t300.5 71.5zM717 41q154 0 285 66t218 177.5t136 259.5t49 312q0 267 -138 412t-380 145q-151 0 -281 -67.5t-218 -180t-137.5 -260.5t-49.5 -307q0 -262 139 -409.5 t377 -147.5z" />
<glyph unicode="&#xd7;" horiz-adv-x="923" d="M725 199l-260 333l-340 -333l-31 30l344 336l-260 336l35 33l258 -336l344 336l29 -31l-344 -338l260 -336z" />
<glyph unicode="&#xd8;" horiz-adv-x="1550" d="M1481 1427l-148 -163q119 -157 119 -406q0 -139 -32.5 -268t-96.5 -237t-152 -188.5t-205 -125.5t-249 -45q-238 0 -389 139l-133 -151l-33 30l135 152q-143 159 -143 434q0 169 53.5 326t147.5 276t233.5 190.5t300.5 71.5q266 0 418 -166l141 160zM201 598 q0 -253 129 -397l944 1061q-139 151 -387 151q-151 0 -281 -67.5t-218 -180t-137.5 -260.5t-49.5 -307zM1405 856q0 229 -102 371l-943 -1059q136 -127 357 -127q154 0 285 66t218 177.5t136 259.5t49 312z" />
<glyph unicode="&#xd9;" horiz-adv-x="1308" d="M645 1917l195 -277h-58l-196 277h59zM1145 569q-35 -287 -178.5 -431t-380.5 -144q-207 0 -308.5 123t-101.5 340q0 39 8 125l109 872h47l-109 -874q-10 -78 -10 -121q0 -196 91 -307t276 -111q214 0 346.5 133t165.5 397l106 883h47z" />
<glyph unicode="&#xda;" horiz-adv-x="1308" d="M995 1917h64l-262 -277h-62zM1145 569q-35 -287 -178.5 -431t-380.5 -144q-207 0 -308.5 123t-101.5 340q0 39 8 125l109 872h47l-109 -874q-10 -78 -10 -121q0 -196 91 -307t276 -111q214 0 346.5 133t165.5 397l106 883h47z" />
<glyph unicode="&#xdb;" horiz-adv-x="1308" d="M606 1638h-57l252 273l6 6h47l197 -279h-58l-162 242h-2zM1206 1454h47l-108 -885q-35 -287 -178.5 -431t-380.5 -144q-207 0 -308.5 123t-101.5 340q0 39 8 125l109 872h47l-109 -874q-10 -78 -10 -121q0 -196 91 -307t276 -111q214 0 346.5 133t165.5 397z" />
<glyph unicode="&#xdc;" horiz-adv-x="1308" d="M678 1843q25 0 40 -15t15 -38q0 -25 -16 -41t-41 -16q-23 0 -37 15t-14 40q0 23 15 39t38 16zM950 1843q23 0 38.5 -15t15.5 -38q0 -24 -16 -40.5t-40 -16.5q-23 0 -38 15t-15 40q0 23 16 39t39 16zM1145 569q-35 -287 -178.5 -431t-380.5 -144q-207 0 -308.5 123 t-101.5 340q0 39 8 125l109 872h47l-109 -874q-10 -78 -10 -121q0 -196 91 -307t276 -111q214 0 346.5 133t165.5 397l106 883h47z" />
<glyph unicode="&#xdd;" horiz-adv-x="1036" d="M936 1917l-262 -277h-62l260 277h64zM1061 1454h55l-555 -792l-80 -662h-47l80 662l-356 792h51l332 -735h4z" />
<glyph unicode="&#xde;" horiz-adv-x="1144" d="M217 301l-37 -301h-47l178 1454h45l-37 -321h412q174 0 265 -90t91 -248q0 -220 -129.5 -357t-351.5 -137h-389zM608 348q201 0 316.5 124.5t115.5 322.5q0 150 -85.5 220t-227.5 70h-414l-90 -737h385z" />
<glyph unicode="&#xdf;" horiz-adv-x="1146" d="M1079 264q0 -128 -91 -199t-228 -71q-120 0 -196.5 36t-137.5 101l33 39q38 -42 67.5 -66t90.5 -44.5t143 -20.5q124 0 198 60.5t76 162.5q0 45 -15.5 80t-52 66.5t-71.5 53t-98 54.5q-53 28 -78.5 42.5t-63.5 42t-55 51t-29.5 59t-9.5 77.5q2 23 10 45t18 39t30 36.5 t33.5 31t41.5 30t42 27t46.5 27t44.5 25.5q81 50 125.5 102t44.5 123q0 89 -83.5 141.5t-231.5 52.5q-48 0 -95.5 -10t-96 -34t-87 -60.5t-67 -93.5t-37.5 -129l-139 -1141h-45l141 1153q11 93 53 165t103.5 114t130 63t141.5 21q161 0 259.5 -64.5t98.5 -173.5 q0 -88 -51 -149.5t-145 -118.5q-15 -9 -54.5 -32.5t-56 -34t-46 -32t-42.5 -38t-25 -39.5t-14 -48q-3 -33 7 -61.5t24 -48t43.5 -41t50 -33.5t59.5 -33q10 -5 15 -8q58 -31 88.5 -48.5t72 -47.5t61.5 -56t35 -63.5t15 -81.5z" />
<glyph unicode="&#xe0;" horiz-adv-x="1087" d="M727 1149h-57l-197 276h59zM950 991h45l-121 -991h-45l39 319h-4q-66 -145 -175.5 -235t-250.5 -90q-157 0 -248.5 111t-91.5 282q0 167 63 306t182 222.5t271 83.5q94 0 181 -32.5t135 -89.5h6zM440 39q90 0 172 48t140.5 126.5t97 176.5t51.5 200l29 221q-28 42 -71 72 t-90 44t-85.5 19.5t-73.5 5.5q-138 0 -245.5 -78t-164.5 -206.5t-57 -282.5t78 -250t219 -96z" />
<glyph unicode="&#xe1;" horiz-adv-x="1087" d="M995 1425l-262 -276h-61l260 276h63zM936 877l14 114h45l-121 -991h-45l39 319h-4q-66 -145 -175.5 -235t-250.5 -90q-157 0 -248.5 111t-91.5 282q0 167 63 306t182 222.5t271 83.5q94 0 181 -32.5t135 -89.5h6zM440 39q90 0 172 48t140.5 126.5t97 176.5t51.5 200 l29 221q-28 42 -71 72t-90 44t-85.5 19.5t-73.5 5.5q-138 0 -245.5 -78t-164.5 -206.5t-57 -282.5t78 -250t219 -96z" />
<glyph unicode="&#xe2;" horiz-adv-x="1087" d="M504 1147h-58l252 272l7 6h47l196 -278h-57l-162 242h-2zM950 991h45l-121 -991h-45l39 319h-4q-66 -145 -175.5 -235t-250.5 -90q-157 0 -248.5 111t-91.5 282q0 167 63 306t182 222.5t271 83.5q94 0 181 -32.5t135 -89.5h6zM440 39q90 0 172 48t140.5 126.5t97 176.5 t51.5 200l29 221q-28 42 -71 72t-90 44t-85.5 19.5t-73.5 5.5q-138 0 -245.5 -78t-164.5 -206.5t-57 -282.5t78 -250t219 -96z" />
<glyph unicode="&#xe3;" horiz-adv-x="1087" d="M586 1331q-81 0 -135 -127l-39 17q65 155 172 155q61 0 133 -65q4 -4 17 -15t18.5 -15.5t17 -13.5t19 -13.5t17.5 -9.5t19.5 -7t18.5 -2q35 0 69.5 32.5t59.5 96.5l37 -18q-31 -77 -75.5 -116.5t-88.5 -39.5q-28 0 -58.5 15t-48 29.5t-45.5 41.5q-66 55 -108 55zM936 877 l14 114h45l-121 -991h-45l39 319h-4q-66 -145 -175.5 -235t-250.5 -90q-157 0 -248.5 111t-91.5 282q0 167 63 306t182 222.5t271 83.5q94 0 181 -32.5t135 -89.5h6zM440 39q90 0 172 48t140.5 126.5t97 176.5t51.5 200l29 221q-28 42 -71 72t-90 44t-85.5 19.5t-73.5 5.5 q-138 0 -245.5 -78t-164.5 -206.5t-57 -282.5t78 -250t219 -96z" />
<glyph unicode="&#xe4;" horiz-adv-x="1087" d="M573 1241q-23 0 -37 15t-14 40q0 24 15 40t38 16q25 0 40.5 -15.5t15.5 -38.5q0 -25 -16.5 -41t-41.5 -16zM846 1241q-23 0 -38 15t-15 40q0 23 16 39.5t39 16.5t38 -15.5t15 -38.5q0 -25 -16 -41t-39 -16zM950 991h45l-121 -991h-45l39 319h-4q-66 -145 -175.5 -235 t-250.5 -90q-157 0 -248.5 111t-91.5 282q0 167 63 306t182 222.5t271 83.5q94 0 181 -32.5t135 -89.5h6zM440 39q90 0 172 48t140.5 126.5t97 176.5t51.5 200l29 221q-28 42 -71 72t-90 44t-85.5 19.5t-73.5 5.5q-138 0 -245.5 -78t-164.5 -206.5t-57 -282.5t78 -250 t219 -96z" />
<glyph unicode="&#xe5;" horiz-adv-x="1087" d="M702 1139q-63 0 -104 42t-41 105q0 65 43 107.5t109 42.5q63 0 105 -41.5t42 -104.5q0 -65 -44 -108t-110 -43zM709 1391q-46 0 -76.5 -29.5t-30.5 -75.5q0 -44 28.5 -72t71.5 -28q47 0 78 29t31 75q0 44 -29 72.5t-73 28.5zM950 991h45l-121 -991h-45l39 319h-4 q-66 -145 -175.5 -235t-250.5 -90q-157 0 -248.5 111t-91.5 282q0 167 63 306t182 222.5t271 83.5q94 0 181 -32.5t135 -89.5h6zM440 39q90 0 172 48t140.5 126.5t97 176.5t51.5 200l29 221q-28 42 -71 72t-90 44t-85.5 19.5t-73.5 5.5q-138 0 -245.5 -78t-164.5 -206.5 t-57 -282.5t78 -250t219 -96z" />
<glyph unicode="&#xe6;" horiz-adv-x="1335" d="M938 39q67 0 145.5 42.5t133.5 115.5l36 -27q-60 -78 -147.5 -127t-167.5 -49q-129 0 -214.5 75.5t-113.5 209.5h-4q-118 -285 -313 -285q-95 0 -159 73.5t-64 208.5q0 198 86 356.5t237.5 246.5t339.5 88q39 0 139 -17q93 49 207 49q107 0 172.5 -58t65.5 -153 q0 -68 -40 -130t-104.5 -109t-154.5 -88.5t-179.5 -70t-191.5 -52.5q13 -141 90.5 -220t200.5 -79zM1272 791q0 38 -13.5 67.5t-34 46.5t-47.5 28t-50.5 15t-47.5 4q-136 0 -236.5 -77t-150 -201t-49.5 -275v-16q97 23 181.5 50t169 65t144.5 80.5t97 97.5t37 115zM291 39 q55 0 104.5 28t87 76.5t65.5 104.5t50 123v30q0 162 57.5 298.5t161.5 213.5v2q-44 7 -92 7q-263 0 -436.5 -183t-173.5 -463q0 -105 45 -171t131 -66z" />
<glyph unicode="&#xe7;" horiz-adv-x="972" d="M616 999q93 0 178.5 -39t139.5 -118l-39 -31q-47 72 -120.5 106.5t-158.5 34.5q-143 0 -253 -77.5t-166 -203t-56 -276.5q0 -156 91 -256t229 -100q116 0 202 38.5t152 119.5l35 -27q-67 -87 -156.5 -129t-210.5 -47h-2l-37 -66l2 -2q136 -13 136 -125q0 -74 -55 -126 t-136 -52q-47 0 -80 17l6 43q37 -15 76 -15q53 0 98.5 34.5t45.5 98.5q0 78 -144 84l8 43l2 6h3l30 58v2q-138 8 -239 115.5t-101 285.5q0 122 36.5 232t102 192.5t164.5 131t217 48.5z" />
<glyph unicode="&#xe8;" horiz-adv-x="940" d="M698 1149h-57l-197 276h60zM477 39q180 0 316 158l34 -27q-140 -176 -350 -176q-170 0 -275.5 110.5t-105.5 298.5q0 162 65 298t182.5 217t262.5 81q40 0 84 -10t93 -33t80.5 -70t31.5 -112q0 -76 -50 -139t-126.5 -104t-181 -72t-200 -47t-196.5 -25q4 -162 95.5 -255 t240.5 -93zM606 952q-128 0 -233 -70t-165.5 -188.5t-66.5 -261.5q93 8 183 22.5t187.5 42t170 63.5t119.5 90.5t47 119.5q0 54 -25.5 92.5t-66.5 56.5t-77.5 25.5t-72.5 7.5z" />
<glyph unicode="&#xe9;" horiz-adv-x="940" d="M918 1425l-263 -276h-61l260 276h64zM895 774q0 -76 -50 -139t-126.5 -104t-181 -72t-200 -47t-196.5 -25q4 -162 95.5 -255t240.5 -93q180 0 316 158l34 -27q-140 -176 -350 -176q-170 0 -275.5 110.5t-105.5 298.5q0 162 65 298t182.5 217t262.5 81q40 0 84 -10t93 -33 t80.5 -70t31.5 -112zM141 432q93 8 183 22.5t187.5 42t170 63.5t119.5 90.5t47 119.5q0 54 -25.5 92.5t-66.5 56.5t-77.5 25.5t-72.5 7.5q-128 0 -233 -70t-165.5 -188.5t-66.5 -261.5z" />
<glyph unicode="&#xea;" horiz-adv-x="940" d="M436 1147h-57l252 272l6 6h47l197 -278h-58l-161 242h-3zM477 39q180 0 316 158l34 -27q-140 -176 -350 -176q-170 0 -275.5 110.5t-105.5 298.5q0 162 65 298t182.5 217t262.5 81q40 0 84 -10t93 -33t80.5 -70t31.5 -112q0 -76 -50 -139t-126.5 -104t-181 -72t-200 -47 t-196.5 -25q4 -162 95.5 -255t240.5 -93zM606 952q-128 0 -233 -70t-165.5 -188.5t-66.5 -261.5q93 8 183 22.5t187.5 42t170 63.5t119.5 90.5t47 119.5q0 54 -25.5 92.5t-66.5 56.5t-77.5 25.5t-72.5 7.5z" />
<glyph unicode="&#xeb;" horiz-adv-x="940" d="M506 1241q-23 0 -37 15t-14 40q0 24 15 40t38 16q24 0 39.5 -15t15.5 -39q0 -25 -16 -41t-41 -16zM778 1241q-23 0 -38 15t-15 40q0 23 16 39.5t39 16.5t38.5 -15.5t15.5 -38.5q0 -24 -16 -40.5t-40 -16.5zM477 39q180 0 316 158l34 -27q-140 -176 -350 -176 q-170 0 -275.5 110.5t-105.5 298.5q0 162 65 298t182.5 217t262.5 81q40 0 84 -10t93 -33t80.5 -70t31.5 -112q0 -76 -50 -139t-126.5 -104t-181 -72t-200 -47t-196.5 -25q4 -162 95.5 -255t240.5 -93zM606 952q-128 0 -233 -70t-165.5 -188.5t-66.5 -261.5q93 8 183 22.5 t187.5 42t170 63.5t119.5 90.5t47 119.5q0 54 -25.5 92.5t-66.5 56.5t-77.5 25.5t-72.5 7.5z" />
<glyph unicode="&#xec;" horiz-adv-x="419" d="M170 1427l133 -276h-53l-135 276h55zM248 991h45l-123 -991h-43z" />
<glyph unicode="&#xed;" horiz-adv-x="419" d="M543 1425h63l-262 -276h-61zM248 991h45l-123 -991h-43z" />
<glyph unicode="&#xee;" horiz-adv-x="419" d="M483 1147l-161 242h-3l-223 -242h-57l252 272l6 6h47l197 -278h-58zM127 0l121 991h45l-123 -991h-43z" />
<glyph unicode="&#xef;" horiz-adv-x="419" d="M168 1352q24 0 39.5 -15t15.5 -39q0 -25 -16 -41t-41 -16q-23 0 -37 15t-14 40q0 24 15 40t38 16zM440 1352q23 0 38.5 -15.5t15.5 -38.5q0 -24 -16 -40.5t-40 -16.5q-23 0 -38 15t-15 40q0 23 16 39.5t39 16.5zM248 991h45l-123 -991h-43z" />
<glyph unicode="&#xf0;" horiz-adv-x="1097" d="M1001 623q0 -55 -2 -86q-6 -148 -71.5 -271.5t-180.5 -197.5t-255 -74q-182 0 -290 110.5t-108 301.5q0 161 64.5 296t183.5 216t268 81q213 0 316 -147l8 -12h2q-65 311 -291 506l-176 -138l-25 35l166 129q-83 64 -176 101l21 40q111 -46 192 -110l148 115l22 -37 l-135 -107q151 -130 235 -326t84 -425zM492 39q132 0 238.5 73.5t165 199t58.5 276.5q0 169 -90.5 266.5t-253.5 97.5q-136 0 -244.5 -74.5t-166.5 -199t-58 -272.5q0 -171 94.5 -269t256.5 -98z" />
<glyph unicode="&#xf1;" horiz-adv-x="1089" d="M557 1331q-81 0 -135 -127l-39 17q65 155 172 155q61 0 133 -65q4 -4 17 -15t18.5 -15.5t17 -13.5t19 -13.5t17.5 -9.5t19.5 -7t18.5 -2q35 0 69.5 32.5t59.5 96.5l37 -18q-31 -77 -75.5 -116.5t-88.5 -39.5q-28 0 -58.5 15.5t-47 29.5t-45.5 41q-66 55 -109 55zM702 999 q298 0 246 -403l-78 -596h-45l78 596q13 86 6 147.5t-22 102t-45.5 64t-64 33t-77.5 9.5q-78 0 -159 -40t-147.5 -106t-115 -159t-63.5 -192l-55 -455h-45l121 991h45l-39 -325h2q74 149 200 241t258 92z" />
<glyph unicode="&#xf2;" horiz-adv-x="1095" d="M524 1425l195 -276h-57l-197 276h59zM610 999q178 0 284.5 -106t106.5 -297q0 -126 -35.5 -236t-100.5 -191t-161 -128t-212 -47q-180 0 -289 109.5t-109 302.5q0 118 36.5 225.5t102 189t163.5 130t214 48.5zM610 952q-203 0 -336 -155.5t-133 -390.5q0 -172 95 -269.5 t256 -97.5q204 0 333 154t129 403q0 171 -91 263.5t-253 92.5z" />
<glyph unicode="&#xf3;" horiz-adv-x="1095" d="M891 1425h63l-262 -276h-61zM610 999q178 0 284.5 -106t106.5 -297q0 -126 -35.5 -236t-100.5 -191t-161 -128t-212 -47q-180 0 -289 109.5t-109 302.5q0 118 36.5 225.5t102 189t163.5 130t214 48.5zM610 952q-203 0 -336 -155.5t-133 -390.5q0 -172 95 -269.5 t256 -97.5q204 0 333 154t129 403q0 171 -91 263.5t-253 92.5z" />
<glyph unicode="&#xf4;" horiz-adv-x="1095" d="M453 1147h-58l252 272l6 6h47l197 -278h-57l-162 242h-2zM610 999q178 0 284.5 -106t106.5 -297q0 -126 -35.5 -236t-100.5 -191t-161 -128t-212 -47q-180 0 -289 109.5t-109 302.5q0 118 36.5 225.5t102 189t163.5 130t214 48.5zM492 39q204 0 333 154t129 403 q0 171 -91 263.5t-253 92.5q-203 0 -336 -155.5t-133 -390.5q0 -172 95 -269.5t256 -97.5z" />
<glyph unicode="&#xf5;" horiz-adv-x="1095" d="M360 1221q65 155 172 155q62 0 134 -65q4 -4 17 -15t18.5 -15.5t17 -13.5t19 -13.5t17.5 -9.5t19.5 -7t18.5 -2q35 0 69.5 32.5t59.5 96.5l36 -18q-31 -78 -75 -117t-88 -39q-28 0 -58.5 15t-48 29.5t-45.5 41.5q-66 55 -108 55q-82 0 -136 -127zM610 999 q178 0 284.5 -106t106.5 -297q0 -126 -35.5 -236t-100.5 -191t-161 -128t-212 -47q-180 0 -289 109.5t-109 302.5q0 118 36.5 225.5t102 189t163.5 130t214 48.5zM610 952q-203 0 -336 -155.5t-133 -390.5q0 -172 95 -269.5t256 -97.5q204 0 333 154t129 403 q0 171 -91 263.5t-253 92.5z" />
<glyph unicode="&#xf6;" horiz-adv-x="1095" d="M524 1352q25 0 40.5 -15.5t15.5 -38.5q0 -25 -16.5 -41t-41.5 -16q-23 0 -37 15t-14 40q0 24 15 40t38 16zM797 1352q23 0 38 -15.5t15 -38.5q0 -25 -16 -41t-39 -16t-38.5 15.5t-15.5 39.5q0 23 16.5 39.5t39.5 16.5zM610 999q178 0 284.5 -106t106.5 -297 q0 -126 -35.5 -236t-100.5 -191t-161 -128t-212 -47q-180 0 -289 109.5t-109 302.5q0 118 36.5 225.5t102 189t163.5 130t214 48.5zM610 952q-203 0 -336 -155.5t-133 -390.5q0 -172 95 -269.5t256 -97.5q204 0 333 154t129 403q0 171 -91 263.5t-253 92.5z" />
<glyph unicode="&#xf7;" horiz-adv-x="1128" d="M637 1014q23 0 38 -15t15 -38q0 -25 -15.5 -41.5t-39.5 -16.5q-23 0 -37 15t-14 40q0 24 15 40t38 16zM1014 543h-848l6 45h848zM555 227q23 0 38 -15t15 -38q0 -25 -15 -41t-40 -16q-23 0 -37 15t-14 40q0 23 15 39t38 16z" />
<glyph unicode="&#xf8;" horiz-adv-x="1097" d="M1051 977l-121 -123q74 -104 74 -258q0 -169 -61 -305t-178 -216.5t-271 -80.5q-187 0 -293 112l-125 -126l-35 24l133 135q-78 108 -78 267q0 118 36.5 225.5t102 189t163.5 130t214 48.5q185 0 291 -112l115 119zM143 406q0 -140 64 -232l663 680q-88 98 -258 98 q-203 0 -336 -155.5t-133 -390.5zM956 596q0 137 -59 223l-664 -678q91 -102 261 -102q204 0 333 154t129 403z" />
<glyph unicode="&#xf9;" horiz-adv-x="1050" d="M655 1149h-57l-197 276h60zM905 991h45l-121 -991h-45l39 313h-4q-70 -144 -183.5 -231.5t-234.5 -87.5q-154 0 -222 96t-42 305l74 596h45l-74 -594q-13 -86 -5.5 -148t23.5 -102.5t49 -64.5t69.5 -33.5t84.5 -9.5q96 0 192.5 67.5t166 183t88.5 247.5z" />
<glyph unicode="&#xfa;" horiz-adv-x="1050" d="M879 1425l-263 -276h-61l260 276h64zM905 991h45l-121 -991h-45l39 313h-4q-70 -144 -183.5 -231.5t-234.5 -87.5q-154 0 -222 96t-42 305l74 596h45l-74 -594q-13 -86 -5.5 -148t23.5 -102.5t49 -64.5t69.5 -33.5t84.5 -9.5q96 0 192.5 67.5t166 183t88.5 247.5z" />
<glyph unicode="&#xfb;" horiz-adv-x="1050" d="M399 1147h-57l252 272l6 6h47l197 -278h-58l-161 242h-2zM905 991h45l-121 -991h-45l39 313h-4q-70 -144 -183.5 -231.5t-234.5 -87.5q-154 0 -222 96t-42 305l74 596h45l-74 -594q-13 -86 -5.5 -148t23.5 -102.5t49 -64.5t69.5 -33.5t84.5 -9.5q96 0 192.5 67.5t166 183 t88.5 247.5z" />
<glyph unicode="&#xfc;" horiz-adv-x="1050" d="M469 1241q-23 0 -37 15t-14 40q0 24 15 40t38 16q25 0 40 -15t15 -39q0 -25 -16 -41t-41 -16zM741 1241q-23 0 -38 15t-15 40q0 23 16 39.5t39 16.5t38.5 -15.5t15.5 -38.5q0 -24 -16.5 -40.5t-39.5 -16.5zM905 991h45l-121 -991h-45l39 313h-4q-70 -144 -183.5 -231.5 t-234.5 -87.5q-154 0 -222 96t-42 305l74 596h45l-74 -594q-13 -86 -5.5 -148t23.5 -102.5t49 -64.5t69.5 -33.5t84.5 -9.5q96 0 192.5 67.5t166 183t88.5 247.5z" />
<glyph unicode="&#xfd;" horiz-adv-x="1042" d="M893 1425l-262 -276h-62l260 276h64zM899 991h45l-104 -856q-16 -131 -50.5 -229t-79 -158t-105 -96.5t-120.5 -50t-133 -13.5q-149 0 -301 76l15 47q142 -78 290 -78q64 0 117.5 12t108.5 46t95.5 89t72.5 146t47 213l20 176h-4q-69 -145 -183 -233t-235 -88 q-154 0 -222 96t-42 305l74 596h45l-74 -594q-13 -86 -5.5 -148t23.5 -102.5t49 -64.5t69.5 -33.5t84.5 -9.5q99 0 197 70t167 189.5t85 254.5z" />
<glyph unicode="&#xfe;" horiz-adv-x="1114" d="M674 999q161 0 253.5 -111t92.5 -284q0 -167 -63.5 -305.5t-184 -221.5t-274.5 -83q-96 0 -185 33.5t-137 93.5h-2l-63 -527h-45l233 1913h43l-102 -837h4q68 147 177.5 238t252.5 91zM502 39q139 0 248 78t166 206.5t57 282.5q0 155 -78 250.5t-223 95.5 q-121 0 -223.5 -82t-163 -205.5t-76.5 -261.5h-2l-21 -167l-2 -25l-4 -29l25 -30h2v-2q55 -61 138.5 -86t156.5 -25z" />
<glyph unicode="&#xff;" horiz-adv-x="1042" d="M465 1241q-23 0 -37 15t-14 40q0 24 15 40t38 16q25 0 40 -15t15 -39q0 -25 -16 -41t-41 -16zM737 1241q-23 0 -38 15t-15 40q0 23 16 39.5t39 16.5t38.5 -15.5t15.5 -38.5q0 -24 -16.5 -40.5t-39.5 -16.5zM899 991h45l-104 -856q-16 -131 -50.5 -229t-79 -158 t-105 -96.5t-120.5 -50t-133 -13.5q-149 0 -301 76l15 47q142 -78 290 -78q64 0 117.5 12t108.5 46t95.5 89t72.5 146t47 213l20 176h-4q-69 -145 -183 -233t-235 -88q-154 0 -222 96t-42 305l74 596h45l-74 -594q-13 -86 -5.5 -148t23.5 -102.5t49 -64.5t69.5 -33.5 t84.5 -9.5q99 0 197 70t167 189.5t85 254.5z" />
<glyph unicode="&#x100;" horiz-adv-x="1198" d="M1010 1806l-9 -47h-489l6 47h492zM1026 0l-98 432h-674l-203 -432h-51l684 1454h55l336 -1454h-49zM276 479h642l-209 912h-4z" />
<glyph unicode="&#x101;" horiz-adv-x="1087" d="M965 1315l-9 -47h-489l6 47h492zM950 991h45l-121 -991h-45l39 319h-4q-66 -145 -175.5 -235t-250.5 -90q-157 0 -248.5 111t-91.5 282q0 167 63 306t182 222.5t271 83.5q94 0 181 -32.5t135 -89.5h6zM440 39q90 0 172 48t140.5 126.5t97 176.5t51.5 200l29 221 q-28 42 -71 72t-90 44t-85.5 19.5t-73.5 5.5q-138 0 -245.5 -78t-164.5 -206.5t-57 -282.5t78 -250t219 -96z" />
<glyph unicode="&#x102;" horiz-adv-x="1198" d="M731 1640q-90 0 -141.5 69t-44.5 192l43 -3q-6 -97 29.5 -154.5t115.5 -57.5q89 0 147 59.5t72 155.5l43 -3q-21 -122 -94.5 -190t-169.5 -68zM1026 0l-98 432h-674l-203 -432h-51l684 1454h55l336 -1454h-49zM276 479h642l-209 912h-4z" />
<glyph unicode="&#x103;" horiz-adv-x="1087" d="M686 1149q-90 0 -141.5 68.5t-44.5 191.5l43 -2q-6 -97 29.5 -155t115.5 -58q89 0 147 59.5t72 155.5l43 -2q-21 -122 -94.5 -190t-169.5 -68zM950 991h45l-121 -991h-45l39 319h-4q-66 -145 -175.5 -235t-250.5 -90q-157 0 -248.5 111t-91.5 282q0 167 63 306t182 222.5 t271 83.5q94 0 181 -32.5t135 -89.5h6zM440 39q90 0 172 48t140.5 126.5t97 176.5t51.5 200l29 221q-28 42 -71 72t-90 44t-85.5 19.5t-73.5 5.5q-138 0 -245.5 -78t-164.5 -206.5t-57 -282.5t78 -250t219 -96z" />
<glyph unicode="&#x104;" horiz-adv-x="1198" d="M1112 -297l4 -47q-52 -27 -117 -27q-70 0 -107.5 37t-31.5 105q8 113 164 237l-96 424h-674l-203 -432h-51l684 1454h55l336 -1454q-164 -129 -172 -231q-2 -40 22 -66.5t76 -26.5q59 0 111 27zM276 479h642l-209 912h-4z" />
<glyph unicode="&#x105;" horiz-adv-x="1087" d="M801 -324q38 0 59 6t51 21l4 -47q-52 -27 -116 -27q-70 0 -108 37t-32 105q8 115 172 243l37 305h-4q-66 -145 -175.5 -235t-250.5 -90q-157 0 -248.5 111t-91.5 282q0 167 63 306t182 222.5t271 83.5q94 0 181 -32.5t135 -89.5h6l14 114h45l-121 -991 q-164 -129 -172 -231q-2 -40 22.5 -66.5t76.5 -26.5zM440 39q90 0 172 48t140.5 126.5t97 176.5t51.5 200l29 221q-28 42 -71 72t-90 44t-85.5 19.5t-73.5 5.5q-138 0 -245.5 -78t-164.5 -206.5t-57 -282.5t78 -250t219 -96z" />
<glyph unicode="&#x106;" horiz-adv-x="1370" d="M1161 1917h64l-262 -277h-62zM1217 233q-99 -109 -236 -174t-281 -65q-250 0 -398 166t-148 448q0 165 54.5 320.5t148.5 273.5t230.5 189t291.5 71q303 0 495 -313l-41 -27q-93 156 -200.5 223.5t-249.5 67.5q-147 0 -275.5 -67.5t-216 -179.5t-138 -257t-50.5 -299 q0 -264 134 -416.5t365 -152.5q124 0 251.5 56.5t226.5 164.5z" />
<glyph unicode="&#x107;" horiz-adv-x="972" d="M874 1425h64l-262 -276h-62zM455 -6q-68 0 -131.5 26.5t-114.5 76t-82 127t-31 171.5q0 122 36.5 232t102 192.5t164.5 131t217 48.5q93 0 178.5 -39t139.5 -118l-39 -31q-47 72 -120.5 106.5t-158.5 34.5q-143 0 -253 -77.5t-166 -203t-56 -276.5q0 -156 91 -256 t229 -100q116 0 202 38.5t152 119.5l35 -27q-71 -91 -167 -133.5t-228 -42.5z" />
<glyph unicode="&#x108;" horiz-adv-x="1370" d="M760 1638h-58l252 273l7 6h47l196 -279h-57l-162 242h-2zM883 1413q-147 0 -275.5 -67.5t-216 -179.5t-138 -257t-50.5 -299q0 -264 134 -416.5t365 -152.5q124 0 251.5 56.5t226.5 164.5l37 -29q-99 -109 -236 -174t-281 -65q-250 0 -398 166t-148 448q0 165 54.5 320.5 t148.5 273.5t230.5 189t291.5 71q303 0 495 -313l-41 -27q-93 156 -200.5 223.5t-249.5 67.5z" />
<glyph unicode="&#x109;" horiz-adv-x="972" d="M451 1147h-58l252 272l6 6h47l197 -278h-57l-162 242h-2zM616 999q93 0 178.5 -39t139.5 -118l-39 -31q-47 72 -120.5 106.5t-158.5 34.5q-143 0 -253 -77.5t-166 -203t-56 -276.5q0 -156 91 -256t229 -100q116 0 202 38.5t152 119.5l35 -27q-71 -91 -167 -133.5 t-228 -42.5q-68 0 -131.5 26.5t-114.5 76t-82 127t-31 171.5q0 122 36.5 232t102 192.5t164.5 131t217 48.5z" />
<glyph unicode="&#x10a;" horiz-adv-x="1370" d="M973 1843q23 0 38 -15t15 -38q0 -25 -15 -41t-40 -16q-23 0 -37 15t-14 40q0 23 15 39t38 16zM1217 233q-99 -109 -236 -174t-281 -65q-250 0 -398 166t-148 448q0 165 54.5 320.5t148.5 273.5t230.5 189t291.5 71q303 0 495 -313l-41 -27q-93 156 -200.5 223.5 t-249.5 67.5q-147 0 -275.5 -67.5t-216 -179.5t-138 -257t-50.5 -299q0 -264 134 -416.5t365 -152.5q124 0 251.5 56.5t226.5 164.5z" />
<glyph unicode="&#x10b;" horiz-adv-x="972" d="M664 1352q23 0 38 -15.5t15 -38.5q0 -25 -15 -41t-40 -16q-23 0 -37.5 15t-14.5 40q0 23 15.5 39.5t38.5 16.5zM455 -6q-68 0 -131.5 26.5t-114.5 76t-82 127t-31 171.5q0 122 36.5 232t102 192.5t164.5 131t217 48.5q93 0 178.5 -39t139.5 -118l-39 -31 q-47 72 -120.5 106.5t-158.5 34.5q-143 0 -253 -77.5t-166 -203t-56 -276.5q0 -156 91 -256t229 -100q116 0 202 38.5t152 119.5l35 -27q-71 -91 -167 -133.5t-228 -42.5z" />
<glyph unicode="&#x10c;" horiz-adv-x="1370" d="M973 1638h-47l-193 279h55l162 -238h4l224 238h57zM883 1413q-147 0 -275.5 -67.5t-216 -179.5t-138 -257t-50.5 -299q0 -264 134 -416.5t365 -152.5q124 0 251.5 56.5t226.5 164.5l37 -29q-99 -109 -236 -174t-281 -65q-250 0 -398 166t-148 448q0 165 54.5 320.5 t148.5 273.5t230.5 189t291.5 71q303 0 495 -313l-41 -27q-93 156 -200.5 223.5t-249.5 67.5z" />
<glyph unicode="&#x10d;" horiz-adv-x="972" d="M664 1147h-48l-192 278h55l162 -237h4l223 237h58zM616 999q93 0 178.5 -39t139.5 -118l-39 -31q-47 72 -120.5 106.5t-158.5 34.5q-143 0 -253 -77.5t-166 -203t-56 -276.5q0 -156 91 -256t229 -100q116 0 202 38.5t152 119.5l35 -27q-71 -91 -167 -133.5t-228 -42.5 q-68 0 -131.5 26.5t-114.5 76t-82 127t-31 171.5q0 122 36.5 232t102 192.5t164.5 131t217 48.5z" />
<glyph unicode="&#x10e;" horiz-adv-x="1349" d="M838 1638h-47l-193 279h55l162 -238h4l223 238h58zM674 1454q277 0 428 -156.5t151 -433.5q0 -249 -97 -445.5t-275 -307.5t-406 -111h-342l178 1454h363zM473 47q214 0 382 105.5t259.5 290.5t91.5 417q0 259 -138 404t-396 145h-318l-168 -1362h287z" />
<glyph unicode="&#x10f;" horiz-adv-x="1175" d="M1262 1546h53l-98 -323h-39zM940 872l78 635h45l-184 -1507h-45l38 322h-2q-68 -147 -177.5 -237.5t-252.5 -90.5q-158 0 -250 111t-92 282q0 167 63 306t182 222.5t271 83.5q95 0 183.5 -33.5t138.5 -93.5h4zM440 39q92 0 174.5 48t141.5 126.5t97.5 176t51.5 200.5 l27 217q-35 57 -100 91.5t-117.5 44t-102.5 9.5q-138 0 -245.5 -78t-164.5 -206.5t-57 -282.5t77 -250t218 -96z" />
<glyph unicode="&#x110;" horiz-adv-x="1349" d="M674 1454q277 0 428 -156.5t151 -433.5q0 -249 -97 -445.5t-275 -307.5t-406 -111h-342l111 899h-166l6 47h166l61 508h363zM473 47q214 0 382 105.5t259.5 290.5t91.5 417q0 259 -138 404t-396 145h-318l-57 -463h317l-4 -47h-319l-105 -852h287z" />
<glyph unicode="&#x111;" horiz-adv-x="1099" d="M1151 1249l-6 -45h-119l-147 -1204h-45l38 322h-2q-68 -147 -177.5 -237.5t-252.5 -90.5q-158 0 -250 111t-92 282q0 167 63 306t182 222.5t271 83.5q95 0 183.5 -33.5t138.5 -93.5h4l41 332h-293l6 45h293l31 258h45l-31 -258h119zM440 39q92 0 174.5 48t141.5 126.5 t97.5 176t51.5 200.5l27 217q-35 57 -100 91.5t-117.5 44t-102.5 9.5q-138 0 -245.5 -78t-164.5 -206.5t-57 -282.5t77 -250t218 -96z" />
<glyph unicode="&#x112;" horiz-adv-x="1085" d="M516 1812h492l-9 -47h-489zM938 47l-4 -47h-801l178 1454h760l-4 -45h-715l-80 -657h598l-4 -47h-600l-80 -658h752z" />
<glyph unicode="&#x113;" horiz-adv-x="940" d="M897 1315l-8 -47h-490l7 47h491zM895 774q0 -76 -50 -139t-126.5 -104t-181 -72t-200 -47t-196.5 -25q4 -162 95.5 -255t240.5 -93q180 0 316 158l34 -27q-140 -176 -350 -176q-170 0 -275.5 110.5t-105.5 298.5q0 162 65 298t182.5 217t262.5 81q40 0 84 -10t93 -33 t80.5 -70t31.5 -112zM141 432q93 8 183 22.5t187.5 42t170 63.5t119.5 90.5t47 119.5q0 54 -25.5 92.5t-66.5 56.5t-77.5 25.5t-72.5 7.5q-128 0 -233 -70t-165.5 -188.5t-66.5 -261.5z" />
<glyph unicode="&#x114;" horiz-adv-x="1085" d="M729 1647q-90 0 -141.5 68.5t-44.5 191.5l43 -2q-6 -97 29.5 -155t115.5 -58q89 0 147 59.5t72 155.5l43 -2q-21 -122 -94.5 -190t-169.5 -68zM938 47l-4 -47h-801l178 1454h760l-4 -45h-715l-80 -657h598l-4 -47h-600l-80 -658h752z" />
<glyph unicode="&#x115;" horiz-adv-x="940" d="M618 1149q-90 0 -141.5 68.5t-44.5 191.5l43 -2q-6 -97 30 -155t116 -58q89 0 147 59.5t72 155.5l43 -2q-21 -122 -95 -190t-170 -68zM477 39q180 0 316 158l34 -27q-140 -176 -350 -176q-170 0 -275.5 110.5t-105.5 298.5q0 162 65 298t182.5 217t262.5 81q40 0 84 -10 t93 -33t80.5 -70t31.5 -112q0 -76 -50 -139t-126.5 -104t-181 -72t-200 -47t-196.5 -25q4 -162 95.5 -255t240.5 -93zM606 952q-128 0 -233 -70t-165.5 -188.5t-66.5 -261.5q93 8 183 22.5t187.5 42t170 63.5t119.5 90.5t47 119.5q0 54 -25.5 92.5t-66.5 56.5t-77.5 25.5 t-72.5 7.5z" />
<glyph unicode="&#x116;" horiz-adv-x="1085" d="M760 1849q23 0 38 -15t15 -38q0 -25 -15 -41t-40 -16q-23 0 -37 15t-14 40q0 23 15 39t38 16zM938 47l-4 -47h-801l178 1454h760l-4 -45h-715l-80 -657h598l-4 -47h-600l-80 -658h752z" />
<glyph unicode="&#x117;" horiz-adv-x="940" d="M647 1241q-23 0 -37 15t-14 40q0 24 15 40t38 16t38 -15.5t15 -38.5q0 -25 -15 -41t-40 -16zM477 39q180 0 316 158l34 -27q-140 -176 -350 -176q-170 0 -275.5 110.5t-105.5 298.5q0 162 65 298t182.5 217t262.5 81q40 0 84 -10t93 -33t80.5 -70t31.5 -112 q0 -76 -50 -139t-126.5 -104t-181 -72t-200 -47t-196.5 -25q4 -162 95.5 -255t240.5 -93zM606 952q-128 0 -233 -70t-165.5 -188.5t-66.5 -261.5q93 8 183 22.5t187.5 42t170 63.5t119.5 90.5t47 119.5q0 54 -25.5 92.5t-66.5 56.5t-77.5 25.5t-72.5 7.5z" />
<glyph unicode="&#x118;" horiz-adv-x="1085" d="M1067 1409h-715l-80 -657h598l-4 -47h-600l-80 -658h752l-4 -47q-164 -129 -172 -231q-2 -40 22 -66.5t76 -26.5q38 0 59.5 6t51.5 21l4 -47q-52 -27 -117 -27q-70 0 -107.5 37t-31.5 105q8 110 149 227v2h-735l178 1454h760z" />
<glyph unicode="&#x119;" horiz-adv-x="940" d="M477 39q180 0 316 158l34 -27q-91 -117 -223 -158q-90 -38 -156.5 -110t-66.5 -140q0 -38 23.5 -62t72.5 -24q61 0 111 27l6 -47q-56 -27 -119 -27q-66 0 -102.5 32.5t-36.5 94.5q0 65 42.5 128t108.5 108l2 2h-12q-170 0 -275.5 110.5t-105.5 298.5q0 162 65 298 t182.5 217t262.5 81q40 0 84 -10t93 -33t80.5 -70t31.5 -112q0 -76 -50 -139t-126.5 -104t-181 -72t-200 -47t-196.5 -25q4 -162 95.5 -255t240.5 -93zM606 952q-128 0 -233 -70t-165.5 -188.5t-66.5 -261.5q93 8 183 22.5t187.5 42t170 63.5t119.5 90.5t47 119.5 q0 54 -25.5 92.5t-66.5 56.5t-77.5 25.5t-72.5 7.5z" />
<glyph unicode="&#x11a;" horiz-adv-x="1085" d="M760 1645h-47l-193 278h55l162 -237h4l224 237h57zM1067 1409h-715l-80 -657h598l-4 -47h-600l-80 -658h752l-4 -47h-801l178 1454h760z" />
<glyph unicode="&#x11b;" horiz-adv-x="940" d="M649 1147h-47l-192 278h55l162 -237h4l223 237h57zM895 774q0 -76 -50 -139t-126.5 -104t-181 -72t-200 -47t-196.5 -25q4 -162 95.5 -255t240.5 -93q180 0 316 158l34 -27q-140 -176 -350 -176q-170 0 -275.5 110.5t-105.5 298.5q0 162 65 298t182.5 217t262.5 81 q40 0 84 -10t93 -33t80.5 -70t31.5 -112zM141 432q93 8 183 22.5t187.5 42t170 63.5t119.5 90.5t47 119.5q0 54 -25.5 92.5t-66.5 56.5t-77.5 25.5t-72.5 7.5q-128 0 -233 -70t-165.5 -188.5t-66.5 -261.5z" />
<glyph unicode="&#x11c;" horiz-adv-x="1443" d="M723 1638h-57l252 273l6 6h47l196 -279h-57l-162 242h-2zM887 1413q-119 0 -227 -43.5t-190.5 -120t-143 -178t-92 -221.5t-31.5 -246q0 -262 135.5 -412.5t380.5 -150.5q129 0 255.5 43t219.5 123l53 444h-489l6 47h536l-63 -514q-101 -94 -239.5 -142t-280.5 -48 q-265 0 -414 164t-149 446q0 168 54 323.5t148 274t232.5 189.5t296.5 71q273 0 461 -223l-35 -35q-174 209 -424 209z" />
<glyph unicode="&#x11d;" horiz-adv-x="1089" d="M467 1147h-57l252 272l6 6h47l196 -278h-57l-162 242h-2zM948 991h45l-104 -856q-16 -131 -51 -228t-82 -157.5t-111.5 -97t-132 -50.5t-152.5 -14q-170 0 -319 76l14 49q146 -80 310 -80q77 0 137.5 12t119.5 45.5t101 89.5t74 146.5t47 212.5l26 207h-4 q-69 -143 -178.5 -233t-251.5 -90q-157 0 -248.5 111.5t-91.5 283.5q0 114 37 219t103 185.5t164 128.5t212 48q94 0 181 -32.5t135 -89.5h6zM438 70q70 0 136.5 29t118 78t94 113t69.5 134.5t39 142.5l31 246q-52 77 -143.5 108t-174.5 31q-137 0 -245.5 -77t-165 -198.5 t-56.5 -260.5q0 -154 78 -250t219 -96z" />
<glyph unicode="&#x11e;" horiz-adv-x="1443" d="M905 1640q-90 0 -141.5 69t-44.5 192l43 -3q-6 -97 29.5 -154.5t115.5 -57.5q89 0 147 59.5t72 155.5l43 -3q-21 -122 -94.5 -190t-169.5 -68zM1300 698l-63 -514q-101 -94 -239.5 -142t-280.5 -48q-265 0 -414 164t-149 446q0 168 54 323.5t148 274t232.5 189.5 t296.5 71q273 0 461 -223l-35 -35q-174 209 -424 209q-119 0 -227 -43.5t-190.5 -120t-143 -178t-92 -221.5t-31.5 -246q0 -262 135.5 -412.5t380.5 -150.5q129 0 255.5 43t219.5 123l53 444h-489l6 47h536z" />
<glyph unicode="&#x11f;" horiz-adv-x="1089" d="M649 1149q-90 0 -141.5 68.5t-44.5 191.5l43 -2q-6 -97 29.5 -155t115.5 -58q89 0 147 59.5t72 155.5l43 -2q-21 -122 -94.5 -190t-169.5 -68zM948 991h45l-104 -856q-16 -131 -51 -228t-82 -157.5t-111.5 -97t-132 -50.5t-152.5 -14q-170 0 -319 76l14 49 q146 -80 310 -80q77 0 137.5 12t119.5 45.5t101 89.5t74 146.5t47 212.5l26 207h-4q-69 -143 -178.5 -233t-251.5 -90q-157 0 -248.5 111.5t-91.5 283.5q0 114 37 219t103 185.5t164 128.5t212 48q94 0 181 -32.5t135 -89.5h6zM438 70q70 0 136.5 29t118 78t94 113 t69.5 134.5t39 142.5l31 246q-52 77 -143.5 108t-174.5 31q-137 0 -245.5 -77t-165 -198.5t-56.5 -260.5q0 -154 78 -250t219 -96z" />
<glyph unicode="&#x120;" horiz-adv-x="1443" d="M936 1843q23 0 38 -15t15 -38q0 -25 -15 -41t-40 -16q-23 0 -37 15t-14 40q0 23 15 39t38 16zM1300 698l-63 -514q-101 -94 -239.5 -142t-280.5 -48q-265 0 -414 164t-149 446q0 168 54 323.5t148 274t232.5 189.5t296.5 71q273 0 461 -223l-35 -35q-174 209 -424 209 q-119 0 -227 -43.5t-190.5 -120t-143 -178t-92 -221.5t-31.5 -246q0 -262 135.5 -412.5t380.5 -150.5q129 0 255.5 43t219.5 123l53 444h-489l6 47h536z" />
<glyph unicode="&#x121;" horiz-adv-x="1089" d="M678 1241q-23 0 -37 15t-14 40q0 24 15 40t38 16t38 -15.5t15 -38.5q0 -25 -15 -41t-40 -16zM948 991h45l-104 -856q-16 -131 -51 -228t-82 -157.5t-111.5 -97t-132 -50.5t-152.5 -14q-170 0 -319 76l14 49q146 -80 310 -80q77 0 137.5 12t119.5 45.5t101 89.5t74 146.5 t47 212.5l26 207h-4q-69 -143 -178.5 -233t-251.5 -90q-157 0 -248.5 111.5t-91.5 283.5q0 114 37 219t103 185.5t164 128.5t212 48q94 0 181 -32.5t135 -89.5h6zM438 70q70 0 136.5 29t118 78t94 113t69.5 134.5t39 142.5l31 246q-52 77 -143.5 108t-174.5 31 q-137 0 -245.5 -77t-165 -198.5t-56.5 -260.5q0 -154 78 -250t219 -96z" />
<glyph unicode="&#x122;" horiz-adv-x="1443" d="M1300 698l-63 -514q-101 -94 -239.5 -142t-280.5 -48q-265 0 -414 164t-149 446q0 168 54 323.5t148 274t232.5 189.5t296.5 71q273 0 461 -223l-35 -35q-174 209 -424 209q-119 0 -227 -43.5t-190.5 -120t-143 -178t-92 -221.5t-31.5 -246q0 -262 135.5 -412.5 t380.5 -150.5q129 0 255.5 43t219.5 123l53 444h-489l6 47h536zM705 -113q0 -2 1 -14.5t1 -28.5q0 -241 -183 -252l-10 37q78 5 114 57t36 164v37h41z" />
<glyph unicode="&#x123;" horiz-adv-x="1089" d="M696 1130h-41q0 2 -1 15t-1 29q0 240 183 251l10 -36q-78 -5 -114 -57.5t-36 -164.5v-37zM948 991h45l-104 -856q-16 -131 -51 -228t-82 -157.5t-111.5 -97t-132 -50.5t-152.5 -14q-170 0 -319 76l14 49q146 -80 310 -80q77 0 137.5 12t119.5 45.5t101 89.5t74 146.5 t47 212.5l26 207h-4q-69 -143 -178.5 -233t-251.5 -90q-157 0 -248.5 111.5t-91.5 283.5q0 114 37 219t103 185.5t164 128.5t212 48q94 0 181 -32.5t135 -89.5h6zM438 70q70 0 136.5 29t118 78t94 113t69.5 134.5t39 142.5l31 246q-52 77 -143.5 108t-174.5 31 q-137 0 -245.5 -77t-165 -198.5t-56.5 -260.5q0 -154 78 -250t219 -96z" />
<glyph unicode="&#x124;" horiz-adv-x="1335" d="M627 1638h-58l252 273l6 6h47l197 -279h-57l-162 242h-2zM1210 1454h47l-176 -1454h-47l80 662h-852l-82 -662h-47l178 1454h47l-92 -745h854z" />
<glyph unicode="&#x125;" horiz-adv-x="1089" d="M377 1665h-58l252 272l7 7h47l196 -279h-57l-162 242h-2zM702 999q298 0 246 -403l-78 -596h-45l78 596q13 86 6 147.5t-22 102t-45.5 64t-64 33t-77.5 9.5q-79 0 -162 -41.5t-150 -111t-115 -166t-60 -199.5l-53 -434h-45l184 1507h43l-102 -841h4q74 149 200 241 t258 92z" />
<glyph unicode="&#x126;" horiz-adv-x="1320" d="M1335 1157l-6 -45h-112l-136 -1112h-47l80 662h-852l-82 -662h-47l137 1112h-139l6 45h137l37 297h47l-36 -297h852l36 297h47l-36 -297h114zM1120 709l49 403h-854l-49 -403h854z" />
<glyph unicode="&#x127;" horiz-adv-x="1089" d="M702 999q298 0 246 -403l-78 -596h-45l78 596q13 86 6 147.5t-22 102t-45.5 64t-64 33t-77.5 9.5q-79 0 -162 -41.5t-150 -111t-115 -166t-60 -199.5l-53 -434h-45l147 1204h-174l6 45h174l31 258h43l-31 -258h244l-6 -45h-244l-65 -538h4q74 149 200 241t258 92z" />
<glyph unicode="&#x128;" horiz-adv-x="462" d="M92 1712q66 156 172 156q37 0 67 -17t66 -49q4 -4 17 -15t18.5 -15.5t17 -13.5t19 -13.5t17.5 -9.5t19.5 -7t18.5 -2q35 0 69.5 32.5t59.5 96.5l37 -18q-31 -77 -75.5 -116.5t-88.5 -39.5q-28 0 -58.5 15.5t-47 29.5t-45.5 41q-67 56 -109 56q-81 0 -135 -127zM195 0h-48 l179 1454h47z" />
<glyph unicode="&#x129;" horiz-adv-x="419" d="M4 1221q65 155 172 155q68 0 133 -65q9 -7 29.5 -24t32.5 -26t30.5 -17.5t34.5 -8.5q35 0 69.5 32.5t59.5 96.5l37 -18q-32 -78 -76.5 -117t-89.5 -39q-27 0 -56.5 15t-47.5 30.5t-45 42.5q-25 18 -38.5 27.5t-34 17.5t-38.5 8q-79 0 -133 -127zM248 991h45l-123 -991 h-43z" />
<glyph unicode="&#x12a;" horiz-adv-x="462" d="M154 1806h491l-8 -47h-490zM195 0h-48l179 1454h47z" />
<glyph unicode="&#x12b;" horiz-adv-x="419" d="M66 1315h491l-8 -47h-490zM248 991h45l-123 -991h-43z" />
<glyph unicode="&#x12c;" horiz-adv-x="462" d="M367 1640q-90 0 -142 69t-45 192l43 -3q-6 -97 30 -154.5t116 -57.5q89 0 147 59.5t72 155.5l43 -3q-21 -122 -94.5 -190t-169.5 -68zM195 0h-48l179 1454h47z" />
<glyph unicode="&#x12d;" horiz-adv-x="419" d="M291 1149q-89 0 -139 68.5t-41 191.5l43 -2q-8 -98 25.5 -155.5t111.5 -57.5q81 0 130 59t62 156l45 -2q-20 -123 -85 -190.5t-152 -67.5zM248 991h45l-123 -991h-43z" />
<glyph unicode="&#x12e;" horiz-adv-x="462" d="M121 -324q38 0 59 6t51 21l5 -47q-52 -27 -117 -27q-70 0 -107.5 37t-31.5 105q8 118 170 241l176 1442h47l-178 -1454q-164 -129 -172 -231q-2 -40 22 -66.5t76 -26.5z" />
<glyph unicode="&#x12f;" horiz-adv-x="419" d="M309 1352q23 0 38 -15.5t15 -38.5q0 -25 -15 -41t-40 -16q-23 0 -37 15t-14 40q0 24 15 40t38 16zM170 0q-164 -129 -172 -231q-2 -40 22 -66.5t76 -26.5q38 0 59.5 6t51.5 21l4 -47q-52 -27 -117 -27q-70 0 -107.5 37t-31.5 105q8 115 174 245l119 975h45z" />
<glyph unicode="&#x130;" horiz-adv-x="462" d="M397 1843q23 0 38.5 -15t15.5 -38q0 -25 -15.5 -41t-40.5 -16q-23 0 -37 15t-14 40q0 23 15 39t38 16zM195 0h-48l179 1454h47z" />
<glyph unicode="&#x131;" horiz-adv-x="419" d="M248 991h45l-123 -991h-43z" />
<glyph unicode="&#x132;" horiz-adv-x="1353" d="M195 0h-48l179 1454h47zM512 225q53 -87 129 -135.5t150 -48.5q294 0 339 387l125 1026h48l-125 -1028q-27 -222 -124.5 -327t-265.5 -105q-82 0 -167 50.5t-140 141.5z" />
<glyph unicode="&#x133;" horiz-adv-x="749" d="M309 1352q23 0 38 -15.5t15 -38.5q0 -25 -15 -41t-40 -16q-23 0 -37 15t-14 40q0 24 15 40t38 16zM676 1352q23 0 38 -15.5t15 -38.5q0 -25 -15 -41t-40 -16q-23 0 -37 15t-14 40q0 24 15 40t38 16zM248 991h45l-123 -991h-43zM193 -334q46 -33 104 -33q33 0 58.5 9 t50.5 32.5t42.5 72t26.5 120.5l137 1124h45l-139 -1126q-16 -141 -67.5 -209t-157.5 -68q-61 0 -111 31z" />
<glyph unicode="&#x134;" horiz-adv-x="890" d="M1036 1638l-162 242h-2l-223 -242h-57l252 273l6 6h47l197 -279h-58zM668 428l125 1026h47l-125 -1028q-27 -223 -124 -327.5t-265 -104.5q-82 0 -167.5 50.5t-140.5 141.5l31 39q53 -87 129 -135.5t150 -48.5q295 0 340 387z" />
<glyph unicode="&#x135;" horiz-adv-x="329" d="M430 1147l-162 242h-2l-223 -242h-57l252 272l6 6h47l196 -278h-57zM55 -133l138 1124h45l-140 -1126q-16 -141 -67.5 -209t-157.5 -68q-61 0 -111 31l11 47q46 -33 104 -33q33 0 58.5 9t50.5 32.5t42.5 72t26.5 120.5z" />
<glyph unicode="&#x136;" horiz-adv-x="1175" d="M1186 1454l-621 -688l453 -766h-60l-426 727h-2l-301 -334l-49 -393h-47l178 1454h47l-120 -979h6l880 979h62zM487 -113h41q0 -2 1 -14.5t1 -28.5q0 -241 -182 -252l-10 37q78 5 113.5 57t35.5 164v37z" />
<glyph unicode="&#x137;" horiz-adv-x="944" d="M668 246q55 -126 84 -164.5t69 -44.5l-12 -43q-13 0 -33 4q-42 15 -71.5 62t-70.5 143q-6 15 -9 22l-101 228q-168 -148 -340 -232l-24 -221h-45l184 1507h43l-149 -1226h8q225 122 409.5 321t247.5 389h47q-40 -131 -130.5 -261.5t-213.5 -244.5zM373 -113h41 q0 -2 1 -14.5t1 -28.5q0 -241 -183 -252l-10 37q78 5 114 57t36 164v37z" />
<glyph unicode="&#x138;" horiz-adv-x="944" d="M668 246q55 -126 84 -164.5t69 -44.5l-12 -43q-13 0 -33 4q-42 15 -71.5 62t-70.5 143q-6 15 -9 22l-101 228q-168 -148 -340 -232l-24 -221h-45l121 991h45l-88 -712h4q227 122 412.5 321.5t248.5 390.5h47q-40 -131 -130.5 -261.5t-213.5 -244.5z" />
<glyph unicode="&#x139;" horiz-adv-x="1001" d="M737 1917h64l-262 -277h-62zM907 47l-4 -47h-770l178 1454h47l-172 -1407h721z" />
<glyph unicode="&#x13a;" horiz-adv-x="403" d="M586 1944h63l-262 -277h-61zM309 1507h45l-184 -1507h-45z" />
<glyph unicode="&#x13b;" horiz-adv-x="1001" d="M907 47l-4 -47h-770l178 1454h47l-172 -1407h721zM512 -113q0 -2 1 -14.5t1 -28.5q0 -241 -182 -252l-10 37q78 5 113.5 57t35.5 164v37h41z" />
<glyph unicode="&#x13c;" horiz-adv-x="403" d="M309 1507h45l-184 -1507h-45zM156 -113q0 -2 1 -14.5t1 -28.5q0 -241 -183 -252l-10 37q78 5 114 57t36 164v37h41z" />
<glyph unicode="&#x13d;" horiz-adv-x="1001" d="M631 1546h51l-96 -323h-39zM907 47l-4 -47h-770l178 1454h47l-172 -1407h721z" />
<glyph unicode="&#x13e;" horiz-adv-x="468" d="M555 1546h51l-96 -323h-41zM309 1507h45l-184 -1507h-45z" />
<glyph unicode="&#x13f;" horiz-adv-x="1001" d="M907 47l-4 -47h-770l178 1454h47l-172 -1407h721zM717 739q23 0 38 -15t15 -38q0 -25 -16 -41t-39 -16q-25 0 -39 15t-14 40q0 24 15.5 39.5t39.5 15.5z" />
<glyph unicode="&#x140;" horiz-adv-x="438" d="M309 1507h45l-184 -1507h-45zM449 610q23 0 38 -15t15 -38q0 -25 -16 -41t-40 -16q-25 0 -39 15t-14 40q0 23 15.5 39t40.5 16z" />
<glyph unicode="&#x141;" horiz-adv-x="1030" d="M217 47h721l-4 -47h-770l78 631l-187 -92l8 53l185 90l94 772h47l-92 -747l188 92l-6 -51l-188 -93z" />
<glyph unicode="&#x142;" horiz-adv-x="405" d="M393 772l-6 -51l-135 -66l-80 -655h-45l78 633l-137 -68l6 51l137 68l100 823h45l-98 -800z" />
<glyph unicode="&#x143;" horiz-adv-x="1400" d="M1028 1917l-262 -277h-61l260 277h63zM1276 1454h47l-178 -1454h-45l-750 1362h-4l-166 -1362h-47l178 1454h41l752 -1362h6z" />
<glyph unicode="&#x144;" horiz-adv-x="1089" d="M930 1425l-262 -276h-62l260 276h64zM702 999q298 0 246 -403l-78 -596h-45l78 596q13 86 6 147.5t-22 102t-45.5 64t-64 33t-77.5 9.5q-78 0 -159 -40t-147.5 -106t-115 -159t-63.5 -192l-55 -455h-45l121 991h45l-39 -325h2q74 149 200 241t258 92z" />
<glyph unicode="&#x145;" horiz-adv-x="1400" d="M1276 1454h47l-178 -1454h-45l-750 1362h-4l-166 -1362h-47l178 1454h41l752 -1362h6zM590 -113h41q0 -2 1 -14.5t1 -28.5q0 -241 -182 -252l-11 37q78 5 114 57t36 164v37z" />
<glyph unicode="&#x146;" horiz-adv-x="1089" d="M702 999q298 0 246 -403l-78 -596h-45l78 596q13 86 6 147.5t-22 102t-45.5 64t-64 33t-77.5 9.5q-78 0 -159 -40t-147.5 -106t-115 -159t-63.5 -192l-55 -455h-45l121 991h45l-39 -325h2q74 149 200 241t258 92zM442 -113h41q0 -2 1 -14.5t1 -28.5q0 -241 -182 -252 l-10 37q78 5 113.5 57t35.5 164v37z" />
<glyph unicode="&#x147;" horiz-adv-x="1400" d="M866 1638h-47l-192 279h55l162 -238h4l223 238h57zM1276 1454h47l-178 -1454h-45l-750 1362h-4l-166 -1362h-47l178 1454h41l752 -1362h6z" />
<glyph unicode="&#x148;" horiz-adv-x="1089" d="M688 1147h-47l-192 278h55l162 -237h4l223 237h57zM702 999q298 0 246 -403l-78 -596h-45l78 596q13 86 6 147.5t-22 102t-45.5 64t-64 33t-77.5 9.5q-78 0 -159 -40t-147.5 -106t-115 -159t-63.5 -192l-55 -455h-45l121 991h45l-39 -325h2q74 149 200 241t258 92z" />
<glyph unicode="&#x149;" horiz-adv-x="1280" d="M135 1110l84 344h51l-96 -344h-39zM895 999q298 0 246 -403l-78 -596h-45l78 596q13 86 6 147.5t-22 102t-45.5 64t-64 33t-77.5 9.5q-78 0 -159 -40t-147.5 -106t-115 -159t-63.5 -192l-56 -455h-45l121 991h45l-39 -325h2q73 149 200 241t259 92z" />
<glyph unicode="&#x14a;" horiz-adv-x="1400" d="M1276 1454h47l-195 -1589q-18 -142 -70 -209.5t-159 -67.5q-61 0 -111 31l11 47q46 -33 104 -33q33 0 58.5 9t50.5 32.5t42.5 72t26.5 120.5l17 137l-746 1354h-4l-168 -1358h-47l178 1454h41l752 -1362h4z" />
<glyph unicode="&#x14b;" horiz-adv-x="1046" d="M670 999q136 0 200 -94.5t39 -288.5l-98 -745q-20 -142 -71 -209.5t-154 -67.5q-61 0 -111 31l8 49q21 -15 41.5 -22.5t31.5 -8.5t34 -1q33 0 58 8.5t50 32t42.5 71t27.5 119.5l96 741q44 338 -196 338q-93 0 -190.5 -66.5t-170 -182.5t-92.5 -248l-55 -455h-45l121 991 h45l-39 -317h4q70 145 188 235t236 90z" />
<glyph unicode="&#x14c;" horiz-adv-x="1550" d="M729 1806h492l-9 -47h-489zM889 1462q257 0 410 -158t153 -446q0 -139 -32.5 -268t-96.5 -237t-152 -188.5t-205 -125.5t-249 -45q-257 0 -410 160t-153 444q0 169 53.5 326t147.5 276t233.5 190.5t300.5 71.5zM717 41q154 0 285 66t218 177.5t136 259.5t49 312 q0 267 -138 412t-380 145q-151 0 -281 -67.5t-218 -180t-137.5 -260.5t-49.5 -307q0 -262 139 -409.5t377 -147.5z" />
<glyph unicode="&#x14d;" horiz-adv-x="1095" d="M422 1315h491l-8 -47h-489zM610 999q178 0 284.5 -106t106.5 -297q0 -126 -35.5 -236t-100.5 -191t-161 -128t-212 -47q-180 0 -289 109.5t-109 302.5q0 118 36.5 225.5t102 189t163.5 130t214 48.5zM610 952q-203 0 -336 -155.5t-133 -390.5q0 -172 95 -269.5t256 -97.5 q204 0 333 154t129 403q0 171 -91 263.5t-253 92.5z" />
<glyph unicode="&#x14e;" horiz-adv-x="1550" d="M942 1640q-90 0 -141.5 69t-44.5 192l43 -3q-6 -97 29.5 -154.5t115.5 -57.5q89 0 147 59.5t72 155.5l43 -3q-21 -122 -94.5 -190t-169.5 -68zM889 1462q257 0 410 -158t153 -446q0 -139 -32.5 -268t-96.5 -237t-152 -188.5t-205 -125.5t-249 -45q-257 0 -410 160 t-153 444q0 169 53.5 326t147.5 276t233.5 190.5t300.5 71.5zM717 41q154 0 285 66t218 177.5t136 259.5t49 312q0 267 -138 412t-380 145q-151 0 -281 -67.5t-218 -180t-137.5 -260.5t-49.5 -307q0 -262 139 -409.5t377 -147.5z" />
<glyph unicode="&#x14f;" horiz-adv-x="1095" d="M635 1149q-90 0 -141.5 68.5t-44.5 191.5l43 -2q-6 -97 29.5 -155t115.5 -58q89 0 147 59.5t72 155.5l43 -2q-21 -122 -94.5 -190t-169.5 -68zM610 999q178 0 284.5 -106t106.5 -297q0 -126 -35.5 -236t-100.5 -191t-161 -128t-212 -47q-180 0 -289 109.5t-109 302.5 q0 118 36.5 225.5t102 189t163.5 130t214 48.5zM610 952q-203 0 -336 -155.5t-133 -390.5q0 -172 95 -269.5t256 -97.5q204 0 333 154t129 403q0 171 -91 263.5t-253 92.5z" />
<glyph unicode="&#x150;" horiz-adv-x="1550" d="M1071 1917h59l-264 -277h-55zM1300 1917h60l-264 -277h-54zM889 1462q257 0 410 -158t153 -446q0 -139 -32.5 -268t-96.5 -237t-152 -188.5t-205 -125.5t-249 -45q-257 0 -410 160t-153 444q0 169 53.5 326t147.5 276t233.5 190.5t300.5 71.5zM717 41q154 0 285 66 t218 177.5t136 259.5t49 312q0 267 -138 412t-380 145q-151 0 -281 -67.5t-218 -180t-137.5 -260.5t-49.5 -307q0 -262 139 -409.5t377 -147.5z" />
<glyph unicode="&#x151;" horiz-adv-x="1095" d="M758 1425h59l-264 -276h-55zM987 1425h60l-265 -276h-53zM610 999q178 0 284.5 -106t106.5 -297q0 -126 -35.5 -236t-100.5 -191t-161 -128t-212 -47q-180 0 -289 109.5t-109 302.5q0 118 36.5 225.5t102 189t163.5 130t214 48.5zM610 952q-203 0 -336 -155.5 t-133 -390.5q0 -172 95 -269.5t256 -97.5q204 0 333 154t129 403q0 171 -91 263.5t-253 92.5z" />
<glyph unicode="&#x152;" horiz-adv-x="1751" d="M1733 1409h-713l-82 -657h598l-4 -47h-598l-82 -658h752l-5 -47h-798h-92q-255 0 -404 164t-149 446q0 134 33 260t97 231.5t150 184.5t199 123.5t239 44.5h123h740zM807 47l164 1360h-99q-145 0 -271.5 -65t-212.5 -174.5t-135.5 -254.5t-49.5 -303q0 -262 134.5 -412.5 t371.5 -150.5h98z" />
<glyph unicode="&#x153;" horiz-adv-x="1511" d="M1112 39q67 0 146.5 43t134.5 115l37 -27q-60 -78 -148 -127t-170 -49q-135 0 -221.5 83.5t-110.5 229.5h-2q-54 -141 -155.5 -227t-229.5 -86q-140 0 -229.5 106.5t-89.5 292.5q0 169 61 309t164.5 218.5t226.5 78.5q121 0 199.5 -82.5t97.5 -228.5h4q59 148 170 229.5 t258 81.5q107 0 172.5 -58t65.5 -153q0 -68 -40.5 -127t-104.5 -101t-155.5 -77t-181 -57t-192.5 -39q3 -162 82 -255t211 -93zM393 39q152 0 264 142.5t127 359.5q14 190 -55 300.5t-203 110.5q-170 0 -287.5 -161.5t-117.5 -397.5q0 -167 74.5 -260.5t197.5 -93.5z M1255 952q-187 0 -303 -139t-131 -362v-17q627 108 627 357q0 38 -13.5 67.5t-34 46.5t-47.5 28t-50.5 15t-47.5 4z" />
<glyph unicode="&#x154;" horiz-adv-x="1179" d="M897 1917l-262 -277h-62l261 277h63zM672 627l-2 -9l313 -618h-55l-318 625h-354l-76 -625h-47l178 1454h430q174 0 265.5 -90t91.5 -248q0 -205 -113.5 -337.5t-312.5 -151.5zM352 1409l-90 -737h356q202 0 317.5 123t115.5 321q0 150 -86 221.5t-228 71.5h-385z" />
<glyph unicode="&#x155;" horiz-adv-x="557" d="M655 1425l-262 -276h-61l260 276h63zM248 692q115 245 352 307l-4 -61q-152 -34 -256 -171t-127 -333l-53 -434h-45l121 991h45l-37 -299h4z" />
<glyph unicode="&#x156;" horiz-adv-x="1179" d="M672 627l-2 -9l313 -618h-55l-318 625h-354l-76 -625h-47l178 1454h430q174 0 265.5 -90t91.5 -248q0 -205 -113.5 -337.5t-312.5 -151.5zM352 1409l-90 -737h356q202 0 317.5 123t115.5 321q0 150 -86 221.5t-228 71.5h-385zM459 -113h41q0 -2 1 -14.5t1 -28.5 q0 -241 -183 -252l-10 37q78 5 114 57t36 164v37z" />
<glyph unicode="&#x157;" horiz-adv-x="557" d="M248 692q115 245 352 307l-4 -61q-152 -34 -256 -171t-127 -333l-53 -434h-45l121 991h45l-37 -299h4zM102 -113h41q0 -2 1 -14.5t1 -28.5q0 -241 -182 -252l-10 37q78 5 113.5 57t35.5 164v37z" />
<glyph unicode="&#x158;" horiz-adv-x="1179" d="M735 1638h-47l-192 279h55l162 -238h4l223 238h57zM672 627l-2 -9l313 -618h-55l-318 625h-354l-76 -625h-47l178 1454h430q174 0 265.5 -90t91.5 -248q0 -205 -113.5 -337.5t-312.5 -151.5zM352 1409l-90 -737h356q202 0 317.5 123t115.5 321q0 150 -86 221.5t-228 71.5 h-385z" />
<glyph unicode="&#x159;" horiz-adv-x="557" d="M469 1147h-47l-193 278h56l161 -237h5l223 237h57zM248 692q115 245 352 307l-4 -61q-152 -34 -256 -171t-127 -333l-53 -434h-45l121 991h45l-37 -299h4z" />
<glyph unicode="&#x15a;" horiz-adv-x="1075" d="M934 1917h63l-262 -277h-61zM575 766q53 -29 81 -44.5t73.5 -44t70.5 -48.5t57 -50.5t48 -58.5t27.5 -63.5t11.5 -73.5q0 -176 -120 -282.5t-316 -106.5q-126 0 -249 57.5t-200 171.5l39 35q74 -111 182 -164t230 -53q171 0 279 92t108 248q0 32 -10 62.5t-24 54 t-41.5 50t-49 44t-61.5 42t-64.5 38.5t-71.5 40q-13 7 -20 11q-46 25 -73 40t-68.5 41t-66 46.5t-54.5 51t-46 59.5t-27 66.5t-11 78.5q0 158 114.5 257t299.5 99q106 0 205 -42.5t171 -119.5l-36 -36q-66 72 -156 110.5t-186 38.5q-156 0 -260.5 -83.5t-104.5 -219.5 q0 -36 10.5 -69.5t23.5 -58t42.5 -53t48.5 -44.5t62 -43t62.5 -38t69.5 -38z" />
<glyph unicode="&#x15b;" horiz-adv-x="800" d="M721 1425h63l-262 -276h-61zM59 168q120 -129 293 -129q125 0 204 59t79 160q0 37 -14.5 68.5t-34.5 53t-55.5 43t-63 34t-72.5 31.5q-16 7 -24 10q-42 17 -71 31t-63 36.5t-54 47t-34 59.5t-14 76q0 114 88 182.5t211 68.5q166 0 271 -118l-31 -33q-56 60 -112.5 82 t-135.5 22q-102 0 -173 -57.5t-71 -153.5q0 -37 16 -68t48 -55.5t63.5 -41t79.5 -37.5q8 -3 41 -17t43 -18.5t39 -18.5t40 -21.5t34 -22.5t33 -27l25 -30t21.5 -35.5t11.5 -40t5 -46.5q0 -85 -48 -147.5t-121 -91.5t-161 -29q-195 0 -323 137z" />
<glyph unicode="&#x15c;" horiz-adv-x="1075" d="M465 1638h-57l251 273l7 6h47l196 -279h-57l-162 242h-2zM623 1462q106 0 205 -42.5t171 -119.5l-36 -36q-66 72 -156 110.5t-186 38.5q-156 0 -260.5 -83.5t-104.5 -219.5q0 -36 10.5 -69.5t23.5 -58t42.5 -53t48.5 -44.5t62 -43t62.5 -38t69.5 -38q53 -29 81 -44.5 t73.5 -44t70.5 -48.5t57 -50.5t48 -58.5t27.5 -63.5t11.5 -73.5q0 -176 -120 -282.5t-316 -106.5q-126 0 -249 57.5t-200 171.5l39 35q74 -111 182 -164t230 -53q171 0 279 92t108 248q0 32 -10 62.5t-24 54t-41.5 50t-49 44t-61.5 42t-64.5 38.5t-71.5 40q-13 7 -20 11 q-46 25 -73 40t-68.5 41t-66 46.5t-54.5 51t-46 59.5t-27 66.5t-11 78.5q0 158 114.5 257t299.5 99z" />
<glyph unicode="&#x15d;" horiz-adv-x="800" d="M287 1147h-58l252 272l6 6h48l196 -278h-57l-162 242h-2zM426 952q-102 0 -173 -57.5t-71 -153.5q0 -37 16 -68t48 -55.5t63.5 -41t79.5 -37.5q8 -3 41 -17t43 -18.5t39 -18.5t40 -21.5t34 -22.5t33 -27l25 -30t21.5 -35.5t11.5 -40t5 -46.5q0 -85 -48 -147.5t-121 -91.5 t-161 -29q-195 0 -323 137l30 37q120 -129 293 -129q125 0 204 59t79 160q0 37 -14.5 68.5t-34.5 53t-55.5 43t-63 34t-72.5 31.5q-16 7 -24 10q-42 17 -71 31t-63 36.5t-54 47t-34 59.5t-14 76q0 114 88 182.5t211 68.5q166 0 271 -118l-31 -33q-56 60 -112.5 82t-135.5 22 z" />
<glyph unicode="&#x15e;" horiz-adv-x="1075" d="M623 1462q106 0 205 -42.5t171 -119.5l-36 -36q-66 72 -156 110.5t-186 38.5q-156 0 -260.5 -83.5t-104.5 -219.5q0 -36 10.5 -69.5t23.5 -58t42.5 -53t48.5 -44.5t62 -43t62.5 -38t69.5 -38q53 -29 81 -44.5t73.5 -44t70.5 -48.5t57 -50.5t48 -58.5t27.5 -63.5 t11.5 -73.5q0 -176 -120 -282.5t-316 -106.5h-8l-37 -66l2 -2q135 -13 135 -125q0 -74 -54.5 -126t-135.5 -52q-47 0 -80 17l6 43q38 -15 76 -15q52 0 97.5 34.5t45.5 98.5q0 78 -143 84l8 43l2 6h2l33 62q-116 11 -223 68.5t-175 158.5l39 35q74 -111 182 -164t230 -53 q171 0 279 92t108 248q0 32 -10 62.5t-24 54t-41.5 50t-49 44t-61.5 42t-64.5 38.5t-71.5 40q-13 7 -20 11q-46 25 -73 40t-68.5 41t-66 46.5t-54.5 51t-46 59.5t-27 66.5t-11 78.5q0 158 114.5 257t299.5 99z" />
<glyph unicode="&#x15f;" horiz-adv-x="800" d="M389 539q8 -3 41 -17t43 -18.5t39 -18.5t40 -21.5t34 -22.5t33 -27l25 -30t21.5 -35.5t11.5 -40t5 -46.5q0 -85 -48 -147.5t-121 -91.5t-161 -29h-12l-37 -66l2 -2q135 -13 135 -125q0 -74 -54.5 -126t-135.5 -52q-47 0 -80 17l6 43q37 -15 76 -15q52 0 97.5 34.5 t45.5 98.5q0 78 -143 84l8 43l2 6h2l33 62q-153 14 -268 135l30 37q120 -129 293 -129q125 0 204 59t79 160q0 37 -14.5 68.5t-34.5 53t-55.5 43t-63 34t-72.5 31.5q-16 7 -24 10q-42 17 -71 31t-63 36.5t-54 47t-34 59.5t-14 76q0 114 88 182.5t211 68.5q166 0 271 -118 l-31 -33q-56 60 -112.5 82t-135.5 22q-102 0 -173 -57.5t-71 -153.5q0 -37 16 -68t48 -55.5t63.5 -41t79.5 -37.5z" />
<glyph unicode="&#x160;" horiz-adv-x="1075" d="M678 1638h-47l-193 279h56l161 -238h4l224 238h57zM623 1462q106 0 205 -42.5t171 -119.5l-36 -36q-66 72 -156 110.5t-186 38.5q-156 0 -260.5 -83.5t-104.5 -219.5q0 -36 10.5 -69.5t23.5 -58t42.5 -53t48.5 -44.5t62 -43t62.5 -38t69.5 -38q53 -29 81 -44.5t73.5 -44 t70.5 -48.5t57 -50.5t48 -58.5t27.5 -63.5t11.5 -73.5q0 -176 -120 -282.5t-316 -106.5q-126 0 -249 57.5t-200 171.5l39 35q74 -111 182 -164t230 -53q171 0 279 92t108 248q0 32 -10 62.5t-24 54t-41.5 50t-49 44t-61.5 42t-64.5 38.5t-71.5 40q-13 7 -20 11 q-46 25 -73 40t-68.5 41t-66 46.5t-54.5 51t-46 59.5t-27 66.5t-11 78.5q0 158 114.5 257t299.5 99z" />
<glyph unicode="&#x161;" horiz-adv-x="800" d="M500 1147h-47l-193 278h55l162 -237h4l224 237h57zM426 952q-102 0 -173 -57.5t-71 -153.5q0 -37 16 -68t48 -55.5t63.5 -41t79.5 -37.5q8 -3 41 -17t43 -18.5t39 -18.5t40 -21.5t34 -22.5t33 -27l25 -30t21.5 -35.5t11.5 -40t5 -46.5q0 -85 -48 -147.5t-121 -91.5 t-161 -29q-195 0 -323 137l30 37q120 -129 293 -129q125 0 204 59t79 160q0 37 -14.5 68.5t-34.5 53t-55.5 43t-63 34t-72.5 31.5q-16 7 -24 10q-42 17 -71 31t-63 36.5t-54 47t-34 59.5t-14 76q0 114 88 182.5t211 68.5q166 0 271 -118l-31 -33q-56 60 -112.5 82t-135.5 22 z" />
<glyph unicode="&#x162;" horiz-adv-x="1015" d="M172 1454h907l-6 -45h-432l-170 -1397h2l-4 -6v-6h-2l-41 -72l2 -2q135 -13 135 -125q0 -74 -54.5 -126t-135.5 -52q-47 0 -80 17l6 43q37 -15 76 -15q52 0 97.5 34.5t45.5 98.5q0 78 -143 84l8 43l2 6h2l35 68l172 1407h-426z" />
<glyph unicode="&#x163;" horiz-adv-x="673" d="M287 946l-84 -684q-7 -65 -4.5 -114.5t31.5 -79t87 -29.5q106 0 201 76l6 -52q-94 -69 -211 -69h-16l-37 -66l2 -2q135 -13 135 -125q0 -74 -54.5 -126t-135.5 -52q-47 0 -80 17l6 43q38 -15 76 -15q52 0 97.5 34.5t45.5 98.5q0 78 -143 84l8 43l2 6h2l35 66 q-128 36 -98 262l84 684h-123l4 45h123l45 359l45 6l-45 -365h354l-4 -45h-354z" />
<glyph unicode="&#x164;" horiz-adv-x="1015" d="M670 1638h-47l-193 279h55l162 -238h4l223 238h58zM172 1454h907l-6 -45h-432l-172 -1409h-47l172 1409h-426z" />
<glyph unicode="&#x165;" horiz-adv-x="673" d="M596 1546h51l-96 -323h-39zM518 115l6 -52q-94 -69 -211 -69q-103 0 -137 69.5t-18 198.5l84 684h-123l4 45h123l45 359l45 6l-45 -365h354l-4 -45h-354l-84 -684q-7 -65 -4.5 -114.5t31.5 -79t87 -29.5q106 0 201 76z" />
<glyph unicode="&#x166;" horiz-adv-x="1015" d="M1073 1409h-432l-76 -612h236l-8 -47h-232l-92 -750h-47l92 750h-211l6 47h209l76 612h-426l4 45h907z" />
<glyph unicode="&#x167;" horiz-adv-x="673" d="M641 946h-354l-41 -336h307l-6 -45h-307l-37 -303q-7 -65 -4.5 -114.5t31.5 -79t87 -29.5q106 0 201 76l6 -52q-94 -69 -211 -69q-103 0 -137 69.5t-18 198.5l37 303h-107l6 45h107l41 336h-123l4 45h123l45 359l45 6l-45 -365h354z" />
<glyph unicode="&#x168;" horiz-adv-x="1308" d="M514 1712q66 156 172 156q37 0 67 -17t66 -49q4 -4 17 -15t18.5 -15.5t17 -13.5t19 -13.5t17.5 -9.5t19.5 -7t18.5 -2q35 0 69.5 32.5t59.5 96.5l37 -18q-31 -77 -75.5 -116.5t-88.5 -39.5q-28 0 -58.5 15.5t-47 29.5t-45.5 41q-67 56 -109 56q-81 0 -135 -127zM1145 569 q-35 -287 -178.5 -431t-380.5 -144q-207 0 -308.5 123t-101.5 340q0 39 8 125l109 872h47l-109 -874q-10 -78 -10 -121q0 -196 91 -307t276 -111q214 0 346.5 133t165.5 397l106 883h47z" />
<glyph unicode="&#x169;" horiz-adv-x="1050" d="M481 1331q-81 0 -135 -127l-39 17q65 155 172 155q61 0 133 -65q4 -4 17 -15t18.5 -15.5t17 -13.5t19 -13.5t17.5 -9.5t19.5 -7t18.5 -2q35 0 69.5 32.5t59.5 96.5l37 -18q-31 -77 -75.5 -116.5t-88.5 -39.5q-28 0 -58.5 15.5t-47 29.5t-45.5 41q-66 55 -109 55zM905 991 h45l-121 -991h-45l39 313h-4q-70 -144 -183.5 -231.5t-234.5 -87.5q-154 0 -222 96t-42 305l74 596h45l-74 -594q-13 -86 -5.5 -148t23.5 -102.5t49 -64.5t69.5 -33.5t84.5 -9.5q96 0 192.5 67.5t166 183t88.5 247.5z" />
<glyph unicode="&#x16a;" horiz-adv-x="1308" d="M575 1806h492l-8 -47h-490zM1145 569q-35 -287 -178.5 -431t-380.5 -144q-207 0 -308.5 123t-101.5 340q0 39 8 125l109 872h47l-109 -874q-10 -78 -10 -121q0 -196 91 -307t276 -111q214 0 346.5 133t165.5 397l106 883h47z" />
<glyph unicode="&#x16b;" horiz-adv-x="1050" d="M860 1315l-8 -47h-490l7 47h491zM905 991h45l-121 -991h-45l39 313h-4q-70 -144 -183.5 -231.5t-234.5 -87.5q-154 0 -222 96t-42 305l74 596h45l-74 -594q-13 -86 -5.5 -148t23.5 -102.5t49 -64.5t69.5 -33.5t84.5 -9.5q96 0 192.5 67.5t166 183t88.5 247.5z" />
<glyph unicode="&#x16c;" horiz-adv-x="1308" d="M788 1640q-90 0 -141.5 69t-44.5 192l43 -3q-6 -97 30 -154.5t116 -57.5q89 0 147 59.5t72 155.5l43 -3q-21 -122 -95 -190t-170 -68zM1145 569q-35 -287 -178.5 -431t-380.5 -144q-207 0 -308.5 123t-101.5 340q0 39 8 125l109 872h47l-109 -874q-10 -78 -10 -121 q0 -196 91 -307t276 -111q214 0 346.5 133t165.5 397l106 883h47z" />
<glyph unicode="&#x16d;" horiz-adv-x="1050" d="M582 1149q-90 0 -142 68.5t-45 191.5l43 -2q-6 -97 30 -155t116 -58q89 0 147 59.5t72 155.5l43 -2q-21 -122 -94.5 -190t-169.5 -68zM905 991h45l-121 -991h-45l39 313h-4q-70 -144 -183.5 -231.5t-234.5 -87.5q-154 0 -222 96t-42 305l74 596h45l-74 -594 q-13 -86 -5.5 -148t23.5 -102.5t49 -64.5t69.5 -33.5t84.5 -9.5q96 0 192.5 67.5t166 183t88.5 247.5z" />
<glyph unicode="&#x16e;" horiz-adv-x="1308" d="M811 1927q63 0 105 -41t42 -104q0 -65 -43.5 -108.5t-109.5 -43.5q-63 0 -104.5 42.5t-41.5 105.5q0 65 43 107t109 42zM811 1882q-46 0 -76 -29t-30 -75q0 -44 28.5 -72.5t71.5 -28.5q47 0 77.5 29.5t30.5 75.5q0 44 -29 72t-73 28zM1145 569q-35 -287 -178.5 -431 t-380.5 -144q-207 0 -308.5 123t-101.5 340q0 39 8 125l109 872h47l-109 -874q-10 -78 -10 -121q0 -196 91 -307t276 -111q214 0 346.5 133t165.5 397l106 883h47z" />
<glyph unicode="&#x16f;" horiz-adv-x="1050" d="M598 1139q-63 0 -104 42t-41 105q0 65 42.5 107.5t108.5 42.5q63 0 105.5 -41.5t42.5 -104.5q0 -65 -44 -108t-110 -43zM604 1391q-46 0 -76 -29.5t-30 -75.5q0 -44 28.5 -72t71.5 -28q47 0 78 29t31 75q0 44 -29.5 72.5t-73.5 28.5zM905 991h45l-121 -991h-45l39 313h-4 q-70 -144 -183.5 -231.5t-234.5 -87.5q-154 0 -222 96t-42 305l74 596h45l-74 -594q-13 -86 -5.5 -148t23.5 -102.5t49 -64.5t69.5 -33.5t84.5 -9.5q96 0 192.5 67.5t166 183t88.5 247.5z" />
<glyph unicode="&#x170;" horiz-adv-x="1308" d="M848 1917h59l-264 -277h-55zM1077 1917h60l-265 -277h-53zM1145 569q-35 -287 -178.5 -431t-380.5 -144q-207 0 -308.5 123t-101.5 340q0 39 8 125l109 872h47l-109 -874q-10 -78 -10 -121q0 -196 91 -307t276 -111q214 0 346.5 133t165.5 397l106 883h47z" />
<glyph unicode="&#x171;" horiz-adv-x="1050" d="M748 1425l-265 -276h-55l260 276h60zM713 1149h-54l259 276h59zM850 537l55 454h45l-121 -991h-45l39 313h-4q-70 -144 -183.5 -231.5t-234.5 -87.5q-154 0 -222 96t-42 305l74 596h45l-74 -594q-13 -86 -5.5 -148t23.5 -102.5t49 -64.5t69.5 -33.5t84.5 -9.5 q96 0 192.5 67.5t166 183t88.5 247.5z" />
<glyph unicode="&#x172;" horiz-adv-x="1308" d="M1206 1454h47l-108 -885q-61 -493 -434 -563q-95 -49 -159.5 -114t-68.5 -123q-3 -40 23.5 -66.5t75.5 -26.5q38 0 59 6t51 21l4 -47q-52 -27 -116 -27q-76 0 -110.5 42t-29.5 100q6 108 168 221l2 2h-24q-207 0 -308.5 123t-101.5 340q0 39 8 125l109 872h47l-109 -874 q-10 -78 -10 -121q0 -196 91 -307t276 -111q214 0 346.5 133t165.5 397z" />
<glyph unicode="&#x173;" horiz-adv-x="1050" d="M756 -324q38 0 59 6t51 21l4 -47q-52 -27 -116 -27q-70 0 -108 37t-32 105q8 115 172 243l37 299h-4q-70 -144 -183.5 -231.5t-234.5 -87.5q-154 0 -222 96t-42 305l74 596h45l-74 -594q-13 -86 -5.5 -148t23.5 -102.5t49 -64.5t69.5 -33.5t84.5 -9.5q96 0 192.5 67.5 t166 183t88.5 247.5l55 454h45l-121 -991q-164 -129 -172 -231q-2 -40 22.5 -66.5t76.5 -26.5z" />
<glyph unicode="&#x174;" horiz-adv-x="1849" d="M874 1638h-57l252 273l6 6h47l197 -279h-57l-162 242h-2zM1843 1454h51l-602 -1454h-55l-203 1374h-4l-536 -1374h-56l-248 1454h50l231 -1372h4l537 1372h57l205 -1372h4z" />
<glyph unicode="&#x175;" horiz-adv-x="1382" d="M584 1147h-58l252 272l6 6h47l197 -278h-57l-162 242h-2zM1303 991q25 -166 12 -297q-12 -141 -45.5 -259.5t-79 -198t-100.5 -135.5t-109.5 -81.5t-106.5 -25.5q-200 0 -217 244h-4q-50 -116 -133 -180t-162 -64q-272 0 -221 412l74 585h45l-74 -583q-13 -89 -7 -153 t20 -106t41.5 -66.5t56.5 -34t67 -9.5q103 0 189.5 109.5t116.5 267.5l4 28l67 547h45l-73 -594q-12 -86 -6 -148t19 -102.5t39 -64.5t54 -33.5t64 -9.5q90 0 175.5 89t144.5 242t71 330q9 138 -17 291h50z" />
<glyph unicode="&#x176;" horiz-adv-x="1036" d="M465 1638h-57l251 273l7 6h47l196 -279h-57l-162 242h-2zM1061 1454h55l-555 -792l-80 -662h-47l80 662l-356 792h51l332 -735h4z" />
<glyph unicode="&#x177;" horiz-adv-x="1042" d="M395 1147h-57l252 272l6 6h47l197 -278h-58l-161 242h-3zM899 991h45l-104 -856q-16 -131 -50.5 -229t-79 -158t-105 -96.5t-120.5 -50t-133 -13.5q-149 0 -301 76l15 47q142 -78 290 -78q64 0 117.5 12t108.5 46t95.5 89t72.5 146t47 213l20 176h-4q-69 -145 -183 -233 t-235 -88q-154 0 -222 96t-42 305l74 596h45l-74 -594q-13 -86 -5.5 -148t23.5 -102.5t49 -64.5t69.5 -33.5t84.5 -9.5q99 0 197 70t167 189.5t85 254.5z" />
<glyph unicode="&#x178;" horiz-adv-x="1036" d="M535 1733q-23 0 -37.5 15t-14.5 40q0 23 15.5 39t38.5 16q25 0 40 -15t15 -38q0 -25 -16 -41t-41 -16zM807 1733q-23 0 -38 15t-15 40q0 23 16 39t39 16t38 -15t15 -38q0 -25 -16 -41t-39 -16zM1061 1454h55l-555 -792l-80 -662h-47l80 662l-356 792h51l332 -735h4z" />
<glyph unicode="&#x179;" horiz-adv-x="1122" d="M889 1917l-262 -277h-62l260 277h64zM1087 1407l-960 -1356l-2 -4h805l-4 -47h-865l5 43l964 1364l2 2h-749l4 45h807z" />
<glyph unicode="&#x17a;" horiz-adv-x="833" d="M756 1425l-262 -276h-62l260 276h64zM807 950l-737 -901v-4q199 0 289 -1.5t191.5 -11.5t162.5 -30l-15 -45q-98 30 -229 36.5t-465 6.5l4 45l740 899v2h-607l6 45h664z" />
<glyph unicode="&#x17b;" horiz-adv-x="1122" d="M725 1733q-23 0 -37 15t-14 40q0 23 15 39t38 16t38 -15t15 -38q0 -25 -15 -41t-40 -16zM1087 1407l-960 -1356l-2 -4h805l-4 -47h-865l5 43l964 1364l2 2h-749l4 45h807z" />
<glyph unicode="&#x17c;" horiz-adv-x="833" d="M512 1241q-23 0 -37 15t-14 40q0 24 15 40t38 16t38 -15.5t15 -38.5q0 -25 -15 -41t-40 -16zM807 950l-737 -901v-4q199 0 289 -1.5t191.5 -11.5t162.5 -30l-15 -45q-98 30 -229 36.5t-465 6.5l4 45l740 899v2h-607l6 45h664z" />
<glyph unicode="&#x17d;" horiz-adv-x="1122" d="M727 1638h-47l-193 279h56l162 -238h4l223 238h57zM1087 1407l-960 -1356l-2 -4h805l-4 -47h-865l5 43l964 1364l2 2h-749l4 45h807z" />
<glyph unicode="&#x17e;" horiz-adv-x="833" d="M514 1147h-47l-193 278h56l162 -237h4l223 237h57zM807 950l-737 -901v-4q199 0 289 -1.5t191.5 -11.5t162.5 -30l-15 -45q-98 30 -229 36.5t-465 6.5l4 45l740 899v2h-607l6 45h664z" />
<glyph unicode="&#x17f;" horiz-adv-x="524" d="M705 1419q-62 49 -164 49q-82 0 -134.5 -59t-68.5 -199l-148 -1210h-45l115 946h-125l4 45h127l29 232q18 153 81 223t169 70q98 0 174 -50z" />
<glyph unicode="&#x18f;" horiz-adv-x="1306" d="M684 1462q155 0 275 -76.5t185.5 -212t65.5 -307.5q0 -181 -52 -340t-146 -277t-236.5 -186.5t-314.5 -68.5q-166 0 -270.5 86t-104.5 221q0 109 55.5 200t145 151t206.5 101.5t237 59.5t239 18q107 0 192 -12v47q0 241 -131 394t-346 153q-136 0 -242 -43.5t-170 -107.5 l-28 34q60 64 178.5 115t261.5 51zM461 41q289 0 479.5 200.5t216.5 528.5q-85 12 -188 12q-239 0 -430 -61.5t-298.5 -171.5t-107.5 -248q0 -117 92 -188.5t236 -71.5z" />
<glyph unicode="&#x192;" horiz-adv-x="923" d="M838 1468q-81 0 -140 -56.5t-92 -192.5l-61 -265h307l-12 -47h-308l-196 -801q-37 -155 -107.5 -223.5t-173.5 -68.5q-121 0 -198 80l30 34q61 -67 170 -67q172 0 234 250l192 796h-143l10 47h146l67 271q37 154 106.5 222.5t172.5 68.5q119 0 196 -80l-30 -35 q-61 67 -170 67z" />
<glyph unicode="&#x19d;" horiz-adv-x="1400" d="M1276 1454h47l-178 -1454h-45l-748 1360h-4l-182 -1495q-18 -142 -70 -209.5t-159 -67.5q-61 0 -111 31l8 47q48 -33 107 -33q33 0 58.5 9t50.5 32.5t42.5 72t26.5 120.5l14 133l178 1454h41l752 -1362h4z" />
<glyph unicode="&#x1a0;" horiz-adv-x="1654" d="M1620 1585h47l-27 -211q-18 -138 -67 -198t-127 -60q-23 0 -33 2l-2 -2q41 -112 41 -258q0 -139 -32.5 -268t-96.5 -237t-152 -188.5t-205 -125.5t-249 -45q-257 0 -410 160t-153 444q0 169 53.5 326t147.5 276t233.5 190.5t300.5 71.5q176 0 306.5 -76t197.5 -221 q27 -6 53 -6q60 0 96.5 47t50.5 170zM717 41q154 0 285 66t218 177.5t136 259.5t49 312q0 267 -138 412t-380 145q-151 0 -281 -67.5t-218 -180t-137.5 -260.5t-49.5 -307q0 -262 139 -409.5t377 -147.5z" />
<glyph unicode="&#x1a1;" horiz-adv-x="1232" d="M1202 1157h47l-26 -211q-18 -138 -67.5 -198t-127.5 -60q-23 0 -33 2l-2 -2q8 -39 8 -92q0 -126 -35.5 -236t-100.5 -191t-161 -128t-212 -47q-180 0 -289 109.5t-109 302.5q0 118 36.5 225.5t102 189t163.5 130t214 48.5q142 0 240 -68t133 -196q32 -4 45 -4 q61 0 97.5 47t50.5 170zM492 39q204 0 333 154t129 403q0 171 -91 263.5t-253 92.5q-203 0 -336 -155.5t-133 -390.5q0 -172 95 -269.5t256 -97.5z" />
<glyph unicode="&#x1af;" horiz-adv-x="1411" d="M1440 1585h47l-27 -211q-18 -138 -67 -198t-127 -60q-33 0 -54 6l-67 -553q-35 -287 -178.5 -431t-380.5 -144q-207 0 -308.5 123t-101.5 340q0 39 8 125l109 872h47l-109 -874q-10 -78 -10 -121q0 -196 91 -307t276 -111q214 0 346.5 133t165.5 397l106 883h47l-34 -291 q32 -4 47 -4q60 0 96.5 47t50.5 170z" />
<glyph unicode="&#x1b0;" horiz-adv-x="1153" d="M1143 1157h47l-27 -211q-18 -138 -67 -198t-127 -60q-8 0 -56 6l-84 -694h-45l39 313h-4q-70 -144 -183.5 -231.5t-234.5 -87.5q-154 0 -222 96t-42 305l74 596h45l-74 -594q-13 -86 -5.5 -148t23.5 -102.5t49 -64.5t69.5 -33.5t84.5 -9.5q96 0 192.5 67.5t166 183 t88.5 247.5l55 454h45l-30 -256q36 -4 49 -4q60 0 96.5 47t50.5 170z" />
<glyph unicode="&#x1e6;" horiz-adv-x="1443" d="M936 1638h-47l-193 279h56l161 -238h5l223 238h57zM887 1413q-119 0 -227 -43.5t-190.5 -120t-143 -178t-92 -221.5t-31.5 -246q0 -262 135.5 -412.5t380.5 -150.5q129 0 255.5 43t219.5 123l53 444h-489l6 47h536l-63 -514q-101 -94 -239.5 -142t-280.5 -48 q-265 0 -414 164t-149 446q0 168 54 323.5t148 274t232.5 189.5t296.5 71q273 0 461 -223l-35 -35q-174 209 -424 209z" />
<glyph unicode="&#x1e7;" horiz-adv-x="1089" d="M680 1147h-47l-193 278h56l161 -237h5l223 237h57zM948 991h45l-104 -856q-16 -131 -51 -228t-82 -157.5t-111.5 -97t-132 -50.5t-152.5 -14q-170 0 -319 76l14 49q146 -80 310 -80q77 0 137.5 12t119.5 45.5t101 89.5t74 146.5t47 212.5l26 207h-4q-69 -143 -178.5 -233 t-251.5 -90q-157 0 -248.5 111.5t-91.5 283.5q0 114 37 219t103 185.5t164 128.5t212 48q94 0 181 -32.5t135 -89.5h6zM438 70q70 0 136.5 29t118 78t94 113t69.5 134.5t39 142.5l31 246q-52 77 -143.5 108t-174.5 31q-137 0 -245.5 -77t-165 -198.5t-56.5 -260.5 q0 -154 78 -250t219 -96z" />
<glyph unicode="&#x1ea;" horiz-adv-x="1550" d="M762 -4q-158 -126 -166 -227q-2 -40 22 -66.5t76 -26.5q38 0 59.5 6t51.5 21l4 -47q-52 -27 -117 -27q-70 0 -107.5 37t-31.5 105q8 107 143 221v2q-248 6 -395 166t-147 438q0 169 53.5 326t147.5 276t233.5 190.5t300.5 71.5q257 0 410 -158t153 -446 q0 -168 -49 -320.5t-136.5 -269.5t-218.5 -190t-286 -82zM201 598q0 -262 139 -409.5t377 -147.5q154 0 285 66t218 177.5t136 259.5t49 312q0 267 -138 412t-380 145q-151 0 -281 -67.5t-218 -180t-137.5 -260.5t-49.5 -307z" />
<glyph unicode="&#x1eb;" horiz-adv-x="1095" d="M518 -6q-158 -126 -166 -225q-2 -40 22.5 -66.5t76.5 -26.5q38 0 59 6t51 21l4 -47q-52 -27 -116 -27q-70 0 -108 37t-32 105q8 109 146 223v2q-164 11 -262.5 119t-98.5 291q0 118 36.5 225.5t102 189t163.5 130t214 48.5q178 0 284.5 -106t106.5 -297 q0 -163 -57.5 -297t-168.5 -216t-257 -89zM141 406q0 -172 95 -269.5t256 -97.5q204 0 333 154t129 403q0 171 -91 263.5t-253 92.5q-203 0 -336 -155.5t-133 -390.5z" />
<glyph unicode="&#x1fa;" horiz-adv-x="1198" d="M750 1630q-63 0 -104.5 42.5t-41.5 105.5q0 65 43 107t109 42q76 0 118 -55l175 113h77l-231 -152q8 -21 8 -51q0 -65 -43.5 -108.5t-109.5 -43.5zM756 1882q-46 0 -76.5 -29.5t-30.5 -74.5q0 -44 29 -72.5t72 -28.5q47 0 77.5 29.5t30.5 75.5q0 44 -29 72t-73 28z M684 1454h55l336 -1454h-49l-98 432h-674l-203 -432h-51zM276 479h642l-209 912h-4z" />
<glyph unicode="&#x1fb;" horiz-adv-x="1089" d="M702 1139q-63 0 -104 42t-41 105q0 65 43 107.5t109 42.5q73 0 116 -56l174 111h74l-227 -148q10 -27 10 -53q0 -65 -44 -108t-110 -43zM709 1391q-46 0 -76.5 -29.5t-30.5 -75.5q0 -44 28.5 -72t71.5 -28q47 0 78 29t31 75q0 44 -29 72.5t-73 28.5zM936 877l14 114h45 l-121 -991h-45l39 319h-4q-66 -145 -175.5 -235t-250.5 -90q-157 0 -248.5 111t-91.5 282q0 167 63 306t182 222.5t271 83.5q94 0 181 -32.5t135 -89.5h6zM440 39q90 0 172 48t140.5 126.5t97 176.5t51.5 200l29 221q-28 42 -71 72t-90 44t-85.5 19.5t-73.5 5.5 q-138 0 -245.5 -78t-164.5 -206.5t-57 -282.5t78 -250t219 -96z" />
<glyph unicode="&#x1fc;" horiz-adv-x="1687" d="M1298 1917l-262 -277h-61l260 277h63zM1671 1409h-715l-79 -659h604l-4 -48h-607l-79 -655h749l-4 -47h-799l54 432h-506l-279 -432h-55l938 1454h786zM797 477l110 920h-2l-592 -920h484z" />
<glyph unicode="&#x1fd;" horiz-adv-x="1335" d="M1120 1425l-262 -276h-61l260 276h63zM938 39q67 0 145.5 42.5t133.5 115.5l36 -27q-60 -78 -147.5 -127t-167.5 -49q-129 0 -214.5 75.5t-113.5 209.5h-4q-118 -285 -313 -285q-95 0 -159 73.5t-64 208.5q0 198 86 356.5t237.5 246.5t339.5 88q39 0 139 -17 q93 49 207 49q107 0 172.5 -58t65.5 -153q0 -68 -40 -130t-104.5 -109t-154.5 -88.5t-179.5 -70t-191.5 -52.5q13 -141 90.5 -220t200.5 -79zM1272 791q0 38 -13.5 67.5t-34 46.5t-47.5 28t-50.5 15t-47.5 4q-136 0 -236.5 -77t-150 -201t-49.5 -275v-16q97 23 181.5 50 t169 65t144.5 80.5t97 97.5t37 115zM291 39q55 0 104.5 28t87 76.5t65.5 104.5t50 123v30q0 162 57.5 298.5t161.5 213.5v2q-44 7 -92 7q-263 0 -436.5 -183t-173.5 -463q0 -105 45 -171t131 -66z" />
<glyph unicode="&#x1fe;" horiz-adv-x="1550" d="M1206 1917l-262 -277h-61l260 277h63zM1481 1427l-148 -163q119 -157 119 -406q0 -139 -32.5 -268t-96.5 -237t-152 -188.5t-205 -125.5t-249 -45q-238 0 -389 139l-133 -151l-33 30l135 152q-143 159 -143 434q0 169 53.5 326t147.5 276t233.5 190.5t300.5 71.5 q266 0 418 -166l141 160zM201 598q0 -253 129 -397l944 1061q-139 151 -387 151q-151 0 -281 -67.5t-218 -180t-137.5 -260.5t-49.5 -307zM1405 856q0 229 -102 371l-943 -1059q136 -127 357 -127q154 0 285 66t218 177.5t136 259.5t49 312z" />
<glyph unicode="&#x1ff;" horiz-adv-x="1097" d="M942 1425l-262 -276h-62l261 276h63zM1051 977l-121 -123q74 -104 74 -258q0 -169 -61 -305t-178 -216.5t-271 -80.5q-187 0 -293 112l-125 -126l-35 24l133 135q-78 108 -78 267q0 118 36.5 225.5t102 189t163.5 130t214 48.5q185 0 291 -112l115 119zM143 406 q0 -140 64 -232l663 680q-88 98 -258 98q-203 0 -336 -155.5t-133 -390.5zM956 596q0 137 -59 223l-664 -678q91 -102 261 -102q204 0 333 154t129 403z" />
<glyph unicode="&#x218;" horiz-adv-x="1075" d="M575 766q53 -29 81 -44.5t73.5 -44t70.5 -48.5t57 -50.5t48 -58.5t27.5 -63.5t11.5 -73.5q0 -176 -120 -282.5t-316 -106.5q-126 0 -249 57.5t-200 171.5l39 35q74 -111 182 -164t230 -53q171 0 279 92t108 248q0 32 -10 62.5t-24 54t-41.5 50t-49 44t-61.5 42 t-64.5 38.5t-71.5 40q-13 7 -20 11q-46 25 -73 40t-68.5 41t-66 46.5t-54.5 51t-46 59.5t-27 66.5t-11 78.5q0 158 114.5 257t299.5 99q106 0 205 -42.5t171 -119.5l-36 -36q-66 72 -156 110.5t-186 38.5q-156 0 -260.5 -83.5t-104.5 -219.5q0 -36 10.5 -69.5t23.5 -58 t42.5 -53t48.5 -44.5t62 -43t62.5 -38t69.5 -38zM492 -113q0 -2 1 -14.5t1 -28.5q0 -241 -183 -252l-10 37q78 5 114 57t36 164v37h41z" />
<glyph unicode="&#x219;" horiz-adv-x="800" d="M59 168q120 -129 293 -129q125 0 204 59t79 160q0 37 -14.5 68.5t-34.5 53t-55.5 43t-63 34t-72.5 31.5q-16 7 -24 10q-42 17 -71 31t-63 36.5t-54 47t-34 59.5t-14 76q0 114 88 182.5t211 68.5q166 0 271 -118l-31 -33q-56 60 -112.5 82t-135.5 22q-102 0 -173 -57.5 t-71 -153.5q0 -37 16 -68t48 -55.5t63.5 -41t79.5 -37.5q8 -3 41 -17t43 -18.5t39 -18.5t40 -21.5t34 -22.5t33 -27l25 -30t21.5 -35.5t11.5 -40t5 -46.5q0 -85 -48 -147.5t-121 -91.5t-161 -29q-195 0 -323 137zM332 -113q0 -2 1 -14.5t1 -28.5q0 -241 -182 -252l-11 37 q78 5 114 57t36 164v37h41z" />
<glyph unicode="&#x21a;" horiz-adv-x="1015" d="M1073 1409h-432l-172 -1409h-47l172 1409h-426l4 45h907zM455 -113q0 -2 1 -14.5t1 -28.5q0 -241 -183 -252l-10 37q78 5 114 57t36 164v37h41z" />
<glyph unicode="&#x21b;" horiz-adv-x="673" d="M518 115l6 -52q-94 -69 -211 -69q-103 0 -137 69.5t-18 198.5l84 684h-123l4 45h123l45 359l45 6l-45 -365h354l-4 -45h-354l-84 -684q-7 -65 -4.5 -114.5t31.5 -79t87 -29.5q106 0 201 76zM289 -113q0 -2 1 -14.5t1 -28.5q0 -241 -182 -252l-11 37q78 5 114 57t36 164 v37h41z" />
<glyph unicode="&#x237;" horiz-adv-x="329" d="M-227 -334q46 -33 104 -33q33 0 58.5 9t50.5 32.5t42.5 72t26.5 120.5l138 1124h45l-140 -1126q-16 -141 -67.5 -209t-157.5 -68q-61 0 -111 31z" />
<glyph unicode="&#x2c6;" horiz-adv-x="995" d="M768 1120l-162 242h-2l-223 -242h-57l251 273l7 6h47l196 -279h-57z" />
<glyph unicode="&#x2c7;" horiz-adv-x="995" d="M801 1399h57l-262 -279h-47l-193 279h56l161 -238h5z" />
<glyph unicode="&#x2d8;" horiz-adv-x="897" d="M518 1122q-90 0 -141.5 68.5t-44.5 191.5l43 -2q-6 -97 29.5 -155t115.5 -58q89 0 147 59.5t72 155.5l43 -2q-21 -122 -94.5 -190t-169.5 -68z" />
<glyph unicode="&#x2d9;" horiz-adv-x="929" d="M561 1325q23 0 38 -15t15 -38q0 -25 -15.5 -41.5t-39.5 -16.5q-23 0 -37 15.5t-14 40.5q0 23 15 39t38 16z" />
<glyph unicode="&#x2da;" horiz-adv-x="854" d="M522 1409q63 0 105.5 -41t42.5 -104q0 -65 -44 -108.5t-110 -43.5q-63 0 -104 42.5t-41 105.5q0 65 42.5 107t108.5 42zM522 1364q-46 0 -76 -29t-30 -75q0 -44 28.5 -72.5t71.5 -28.5q47 0 78 29.5t31 75.5q0 44 -29 72t-74 28z" />
<glyph unicode="&#x2db;" horiz-adv-x="888" d="M526 -344q-52 -27 -116 -27q-70 0 -108 37t-32 105q8 122 191 258l24 -29q-164 -129 -172 -231q-2 -40 22.5 -66.5t76.5 -26.5q38 0 59 6t51 21z" />
<glyph unicode="&#x2dc;" horiz-adv-x="987" d="M289 1194q66 156 172 156q37 0 67 -17t66 -49q4 -4 17 -15t18.5 -15.5t17 -13.5t19 -13.5t17.5 -9.5t19.5 -7t18.5 -2q35 0 69.5 32.5t59.5 96.5l37 -18q-31 -77 -75.5 -116.5t-88.5 -39.5q-28 0 -58.5 15t-48 29.5t-45.5 41.5q-67 56 -108 56q-81 0 -135 -127z" />
<glyph unicode="&#x2dd;" horiz-adv-x="970" d="M563 1399h60l-265 -277h-55zM793 1399h59l-264 -277h-53z" />
<glyph unicode="&#x374;" horiz-adv-x="436" d="M307 1475h49l-147 -471h-47z" />
<glyph unicode="&#x375;" horiz-adv-x="436" d="M250 193h49l-147 -472h-48z" />
<glyph unicode="&#x37e;" horiz-adv-x="358" d="M252 1008q23 0 38 -15.5t15 -38.5q0 -25 -16 -41t-39 -16q-25 0 -39 15t-14 40q0 24 15.5 40t39.5 16zM123 184h57l-137 -446h-39z" />
<glyph unicode="&#x386;" horiz-adv-x="1198" d="M1026 0l-98 432h-674l-203 -432h-51l684 1454h55l336 -1454h-49zM360 1436l-184 -314h-49l182 314h51zM276 479h642l-209 912h-4z" />
<glyph unicode="&#x388;" horiz-adv-x="1089" d="M942 47l-4 -47h-801l178 1454h760l-4 -45h-715l-80 -657h598l-4 -47h-600l-80 -658h752zM100 1436h52l-185 -314h-49z" />
<glyph unicode="&#x389;" horiz-adv-x="1339" d="M1262 1454l-177 -1454h-47l80 662h-852l-82 -662h-47l178 1454h47l-92 -745h854l90 745h48zM100 1436h52l-185 -314h-49z" />
<glyph unicode="&#x38a;" horiz-adv-x="458" d="M190 0h-47l179 1454h47zM90 1436h51l-184 -314h-49z" />
<glyph unicode="&#x38c;" horiz-adv-x="1550" d="M889 1462q257 0 410 -158t153 -446q0 -139 -32.5 -268t-96.5 -237t-152 -188.5t-205 -125.5t-249 -45q-257 0 -410 160t-153 444q0 169 53.5 326t147.5 276t233.5 190.5t300.5 71.5zM209 1436h51l-184 -314h-49zM717 41q154 0 285 66t218 177.5t136 259.5t49 312 q0 267 -138 412t-380 145q-151 0 -281 -67.5t-218 -180t-137.5 -260.5t-49.5 -307q0 -262 139 -409.5t377 -147.5z" />
<glyph unicode="&#x38e;" horiz-adv-x="1040" d="M1065 1454h55l-555 -792l-80 -662h-47l80 662l-356 792h51l332 -735h4zM-172 1122l182 314h51l-184 -314h-49z" />
<glyph unicode="&#x38f;" horiz-adv-x="1484" d="M901 49v-2h375l-6 -47h-467l6 47q251 117 394 328t143 489q0 246 -136.5 397.5t-359.5 151.5q-144 0 -265.5 -62t-201.5 -166t-124 -238t-44 -281q0 -189 84 -350t231 -248q15 -10 37 -21l-6 -47h-465l6 47h379q-148 93 -231.5 259t-83.5 358q0 159 48.5 303t135.5 254 t217.5 174.5t284.5 64.5q243 0 392 -165t149 -429q0 -271 -131.5 -483.5t-360.5 -333.5zM190 1436h52l-185 -314h-49z" />
<glyph unicode="&#x390;" horiz-adv-x="489" d="M424 1462h53l-164 -313h-49zM92 1352q23 0 38 -15.5t15 -38.5q0 -25 -15 -41t-40 -16q-23 0 -37 15t-14 40q0 24 15 40t38 16zM555 1352q23 0 38 -15.5t15 -38.5q0 -25 -15 -41t-40 -16q-23 0 -37 15t-14 40q0 24 15 40t38 16zM416 23q-60 -29 -119 -29 q-74 0 -111.5 33.5t-42.5 91.5t2 135l93 737h45l-88 -719q-8 -73 -8 -125t26.5 -80t85.5 -28q54 0 107 31z" />
<glyph unicode="&#x391;" horiz-adv-x="1198" d="M1026 0l-98 432h-674l-203 -432h-51l684 1454h55l336 -1454h-49zM276 479h642l-209 912h-4z" />
<glyph unicode="&#x392;" horiz-adv-x="1175" d="M786 762q115 -24 184.5 -96t69.5 -201q0 -139 -69 -246t-186.5 -163t-264.5 -56h-387l178 1454h414q68 0 125.5 -15t105 -46.5t74.5 -87t27 -131.5q0 -87 -29.5 -168.5t-92 -147.5t-149.5 -94v-2zM352 1409l-76 -627h363q163 0 267 113t104 279q0 115 -70.5 175 t-226.5 60h-361zM524 47q127 0 232.5 48.5t170 143t64.5 216.5q0 142 -88 211t-268 69h-365l-84 -688h338z" />
<glyph unicode="&#x393;" horiz-adv-x="1011" d="M1083 1409h-731l-174 -1409h-47l180 1454h779z" />
<glyph unicode="&#x394;" horiz-adv-x="1167" d="M727 1454l324 -1411l-7 -43h-32h-1000h-12l6 43l666 1411h55zM57 47h944l-307 1350h-2z" />
<glyph unicode="&#x395;" horiz-adv-x="1085" d="M938 47l-4 -47h-801l178 1454h760l-4 -45h-715l-80 -657h598l-4 -47h-600l-80 -658h752z" />
<glyph unicode="&#x396;" horiz-adv-x="1122" d="M1087 1407l-960 -1356l-2 -4h805l-4 -47h-865l5 43l964 1364l2 2h-749l4 45h807z" />
<glyph unicode="&#x397;" horiz-adv-x="1335" d="M1257 1454l-176 -1454h-47l80 662h-852l-82 -662h-47l178 1454h47l-92 -745h854l90 745h47z" />
<glyph unicode="&#x398;" horiz-adv-x="1548" d="M895 1462q257 0 410 -158t153 -446q0 -139 -32.5 -268t-96.5 -237t-152 -188.5t-205 -125.5t-249 -45q-257 0 -410 160t-153 444q0 169 53.5 326t147.5 276t233.5 190.5t300.5 71.5zM723 41q154 0 285 66t218 177.5t136 259.5t49 312q0 267 -138 412t-380 145 q-151 0 -281 -67.5t-218 -180t-137.5 -260.5t-49.5 -307q0 -262 139 -409.5t377 -147.5zM395 698l6 47h793l-4 -47h-795z" />
<glyph unicode="&#x399;" horiz-adv-x="462" d="M195 0h-48l179 1454h47z" />
<glyph unicode="&#x39a;" horiz-adv-x="1175" d="M1186 1454l-621 -688l453 -766h-60l-426 727h-2l-301 -334l-49 -393h-47l178 1454h47l-120 -979h6l880 979h62z" />
<glyph unicode="&#x39b;" horiz-adv-x="1206" d="M1030 0l-317 1391h-4l-654 -1391h-51l684 1454h55l336 -1454h-49z" />
<glyph unicode="&#x39c;" horiz-adv-x="1630" d="M1507 1454h45l-176 -1454h-47l164 1348h-4l-676 -1031h-39l-426 1035h-4l-164 -1352h-47l178 1454h45l445 -1071h4z" />
<glyph unicode="&#x39d;" horiz-adv-x="1400" d="M1276 1454h47l-178 -1454h-45l-750 1362h-4l-166 -1362h-47l178 1454h41l752 -1362h6z" />
<glyph unicode="&#x39e;" horiz-adv-x="1134" d="M1098 1407h-838l6 47h838zM944 698h-704l6 47h704zM938 0h-862l6 49h862z" />
<glyph unicode="&#x39f;" horiz-adv-x="1550" d="M889 1462q257 0 410 -158t153 -446q0 -139 -32.5 -268t-96.5 -237t-152 -188.5t-205 -125.5t-249 -45q-257 0 -410 160t-153 444q0 169 53.5 326t147.5 276t233.5 190.5t300.5 71.5zM717 41q154 0 285 66t218 177.5t136 259.5t49 312q0 267 -138 412t-380 145 q-151 0 -281 -67.5t-218 -180t-137.5 -260.5t-49.5 -307q0 -262 139 -409.5t377 -147.5z" />
<glyph unicode="&#x3a0;" horiz-adv-x="1294" d="M311 1454h910l-181 -1454h-47l174 1409h-815l-174 -1409h-47z" />
<glyph unicode="&#x3a1;" horiz-adv-x="1116" d="M741 1454q174 0 265.5 -90t91.5 -248q0 -220 -129.5 -355.5t-352.5 -135.5h-360l-76 -625h-47l178 1454h430zM618 672q202 0 317.5 123t115.5 321q0 150 -86 221.5t-228 71.5h-385l-90 -737h356z" />
<glyph unicode="&#x3a3;" horiz-adv-x="1054" d="M1067 1409h-772l-2 -8l313 -670l-477 -680l-2 -4h772l-6 -47h-834l7 43l483 688l-316 680l7 43h831z" />
<glyph unicode="&#x3a4;" horiz-adv-x="1015" d="M1073 1409h-432l-172 -1409h-47l172 1409h-426l4 45h907z" />
<glyph unicode="&#x3a5;" horiz-adv-x="1036" d="M1061 1454h55l-555 -792l-80 -662h-47l80 662l-356 792h51l332 -735h4z" />
<glyph unicode="&#x3a6;" horiz-adv-x="1531" d="M1444 858q4 -198 -79.5 -364t-247.5 -268.5t-378 -106.5l-14 -119h-45l12 119q-245 9 -392 145t-153 371q-3 142 46.5 274t139 233.5t224 163.5t291.5 66l12 98h47l-12 -98q247 -8 396 -141.5t153 -372.5zM745 166q190 6 340.5 96.5t233 246t78.5 347.5 q-4 216 -138.5 339.5t-369.5 129.5zM197 635q5 -213 138 -338t363 -131l144 1159q-185 -7 -334 -99t-232 -247.5t-79 -343.5z" />
<glyph unicode="&#x3a7;" horiz-adv-x="1138" d="M1186 1454l-561 -731l379 -723h-54l-354 676h-4l-520 -676h-58l555 723l-381 731h54l358 -684h2l524 684h60z" />
<glyph unicode="&#x3a8;" horiz-adv-x="1470" d="M1372 1454h47l-63 -516q-35 -282 -178 -423.5t-433 -141.5h-4l-45 -373h-47l45 373q-277 0 -391.5 138.5t-79.5 428.5l66 514h47l-66 -516q-18 -122 -2 -218.5t63.5 -163t140 -101.5t228.5 -35l127 1034h47l-126 -1034h2q257 0 391 125.5t168 394.5z" />
<glyph unicode="&#x3a9;" horiz-adv-x="1478" d="M897 49v-2h375l-6 -47h-467l6 47q251 117 393.5 328t142.5 489q0 246 -136 397.5t-359 151.5q-144 0 -265.5 -62t-201.5 -166t-124 -238t-44 -281q0 -189 84 -350t231 -248q15 -10 37 -21l-6 -47h-465l6 47h379q-148 93 -231.5 259t-83.5 358q0 159 48.5 303t135.5 254 t217.5 174.5t284.5 64.5q243 0 392 -165t149 -429q0 -271 -131.5 -483.5t-360.5 -333.5z" />
<glyph unicode="&#x3aa;" horiz-adv-x="462" d="M184 1843q25 0 40.5 -15t15.5 -38q0 -25 -16.5 -41t-41.5 -16q-23 0 -37 15t-14 40q0 23 15 39t38 16zM600 1843q23 0 38 -15t15 -38q0 -25 -16 -41t-39 -16q-25 0 -39 15t-14 40q0 24 15.5 39.5t39.5 15.5zM195 0h-48l179 1454h47z" />
<glyph unicode="&#x3ab;" horiz-adv-x="1036" d="M463 1733q-23 0 -37 15t-14 40q0 23 15 39t38 16q25 0 40 -15t15 -38q0 -25 -16 -41t-41 -16zM879 1733q-25 0 -39.5 15t-14.5 40q0 24 15.5 39.5t40.5 15.5q23 0 38 -15t15 -38q0 -25 -16 -41t-39 -16zM1061 1454h55l-555 -792l-80 -662h-47l80 662l-356 792h51 l332 -735h4z" />
<glyph unicode="&#x3ac;" horiz-adv-x="1153" d="M846 1464l-164 -313h-51l162 313h53zM975 39q43 0 92 22l10 -47q-52 -20 -104 -20q-81 0 -117 68t-33 202l2 96h-4q-78 -165 -188.5 -265.5t-251.5 -100.5q-124 0 -208.5 102.5t-84.5 282.5q0 86 19.5 173.5t59 168t94.5 142.5t131 99t163 37q143 0 220.5 -113t88.5 -304 h2l168 419l43 -14l-209 -518v-186q-2 -124 21.5 -184t85.5 -60zM381 39q259 0 444 436q2 134 -24 238.5t-89 171.5t-157 67q-78 0 -147 -34.5t-118 -92t-84.5 -132t-53 -154.5t-17.5 -158q0 -151 68 -246.5t178 -95.5z" />
<glyph unicode="&#x3ad;" horiz-adv-x="880" d="M723 1464l-164 -313h-51l162 313h53zM510 952q-135 0 -227.5 -67t-92.5 -183q0 -69 56.5 -120.5t169.5 -51.5h178l-4 -45h-209q-116 0 -192 -75.5t-76 -182.5q0 -90 67 -139t191 -49q219 0 385 133l14 -43q-183 -135 -405 -135q-139 0 -217 60t-78 167q0 104 53 181.5 t147 111.5v4q-125 61 -125 184q0 133 105 215t260 82q185 0 326 -114l-19 -39q-137 106 -307 106z" />
<glyph unicode="&#x3ae;" horiz-adv-x="1089" d="M807 1464l-164 -313h-51l162 313h53zM705 999q299 0 245 -403l-131 -1002h-45l131 1002q14 86 7.5 147.5t-21.5 102t-45 64t-63.5 33t-77.5 9.5q-92 0 -190 -65t-173 -178.5t-98 -243.5l-58 -465h-45l88 725q13 93 6.5 144t-20.5 68t-41 17q-16 0 -37 -6l-2 45q21 6 39 6 q70 0 94.5 -61t5.5 -219l-6 -49h6q71 146 192 237.5t239 91.5z" />
<glyph unicode="&#x3af;" horiz-adv-x="489" d="M424 1462h53l-164 -313h-51zM416 23q-60 -29 -119 -29q-74 0 -111.5 33.5t-42.5 91.5t2 135l93 737h45l-88 -719q-8 -73 -8 -125t26.5 -80t85.5 -28q54 0 107 31z" />
<glyph unicode="&#x3b0;" horiz-adv-x="1032" d="M731 1464h53l-163 -313h-50zM399 1354q23 0 38.5 -15.5t15.5 -38.5q0 -25 -15.5 -41t-40.5 -16q-23 0 -37 15t-14 40q0 24 15 40t38 16zM862 1354q23 0 38 -15.5t15 -38.5q0 -25 -15 -41t-40 -16q-23 0 -37 15t-14 40q0 24 15 40t38 16zM412 -6q-130 0 -209 89.5 t-66 252.5q10 124 45 293t35 245q0 27 -5.5 44t-17 24t-20.5 8.5t-24 1.5q-26 0 -44 -6v45q24 8 44 8q26 0 42.5 -3t35 -14.5t27.5 -37.5t9 -67q0 -79 -36 -253.5t-46 -283.5q-10 -134 54.5 -217.5t177.5 -83.5q135 0 242.5 92t168 254t62.5 363q3 108 -19 241l45 12 q21 -120 21 -247q-2 -115 -23.5 -224.5t-65 -207t-103.5 -170.5t-145 -115.5t-185 -42.5z" />
<glyph unicode="&#x3b1;" horiz-adv-x="1153" d="M975 39q43 0 92 22l10 -47q-52 -20 -104 -20q-81 0 -117 68t-33 202l2 96h-4q-78 -165 -188.5 -265.5t-251.5 -100.5q-124 0 -208.5 102.5t-84.5 282.5q0 86 19.5 173.5t59 168t94.5 142.5t131 99t163 37q143 0 220.5 -113t88.5 -304h2l168 419l43 -14l-209 -518v-186 q-2 -124 21.5 -184t85.5 -60zM381 39q259 0 444 436q2 134 -24 238.5t-89 171.5t-157 67q-78 0 -147 -34.5t-118 -92t-84.5 -132t-53 -154.5t-17.5 -158q0 -151 68 -246.5t178 -95.5z" />
<glyph unicode="&#x3b2;" horiz-adv-x="1046" d="M1024 1223q0 -126 -77.5 -239t-219.5 -202l-2 -4q96 -45 154.5 -140.5t58.5 -199.5q0 -121 -53 -222.5t-148 -161.5t-211 -60q-85 0 -158 33t-128 96t-86 162t-31 223q0 281 78 511t216 362t306 132q148 0 225.5 -82t75.5 -208zM723 1468q-117 0 -217 -70t-168 -188 t-110 -267t-54 -314q366 72 585.5 234.5t219.5 361.5q0 110 -66.5 176.5t-189.5 66.5zM893 434q0 102 -61 192.5t-158 123.5q-202 -112 -502 -172q-2 -23 -2 -70q0 -217 97 -343t259 -126q107 0 192 56t130 146t45 193z" />
<glyph unicode="&#x3b3;" horiz-adv-x="954" d="M922 991q-26 -129 -74.5 -259.5t-97.5 -227.5t-123 -212t-120.5 -179t-121.5 -162q-3 -148 -29 -357h-49q50 360 -2 725q-73 633 -211 633q-9 0 -33 -4v45q3 1 15.5 3.5t17.5 2.5q96 0 157 -161.5t101 -511.5q23 -149 29 -297h4q64 84 113.5 153.5t111.5 170t107.5 194 t88 210.5t66.5 234h50z" />
<glyph unicode="&#x3b4;" horiz-adv-x="1060" d="M672 1468q-140 -1 -222.5 -64.5t-82.5 -166.5q0 -127 163 -205q136 -62 177 -82q135 -66 197.5 -156t62.5 -231q0 -159 -61 -288.5t-173.5 -205t-255.5 -75.5q-182 0 -284.5 114.5t-102.5 292.5q0 198 111 353.5t303 238.5v2q-182 89 -182 242q0 121 95 199.5t255 79.5 q190 0 332 -121l-21 -43q-83 67 -156 91.5t-155 24.5zM920 563q0 124 -55.5 207t-188.5 148q-18 9 -58 26.5t-55 24.5q-200 -74 -313 -224t-113 -344q0 -164 92 -263t248 -99q193 0 318 149t125 375z" />
<glyph unicode="&#x3b5;" horiz-adv-x="880" d="M510 952q-135 0 -227.5 -67t-92.5 -183q0 -69 56.5 -120.5t169.5 -51.5h178l-4 -45h-209q-116 0 -192 -75.5t-76 -182.5q0 -90 67 -139t191 -49q219 0 385 133l14 -43q-183 -135 -405 -135q-139 0 -217 60t-78 167q0 104 53 181.5t147 111.5v4q-125 61 -125 184 q0 133 105 215t260 82q185 0 326 -114l-19 -39q-137 106 -307 106z" />
<glyph unicode="&#x3b6;" horiz-adv-x="804" d="M940 1466q-369 -278 -586 -563.5t-217 -505.5q0 -56 17.5 -100.5t38.5 -72.5t73 -58.5t86 -45.5t112 -47q11 -5 17 -7q129 -51 173 -86t44 -101q0 -113 -139 -285l-41 23q72 90 103.5 145t31.5 115q0 50 -33.5 74.5t-127.5 61.5q-16 7 -25 10q-162 65 -220 100 q-120 74 -146 190q-9 39 -9 84q0 107 48.5 228t123.5 229t180.5 222.5t205 204.5t210.5 179v2h-606l4 45h686z" />
<glyph unicode="&#x3b7;" horiz-adv-x="1089" d="M705 999q299 0 245 -403l-131 -1002h-45l131 1002q14 86 7.5 147.5t-21.5 102t-45 64t-63.5 33t-77.5 9.5q-92 0 -190 -65t-173 -178.5t-98 -243.5l-58 -465h-45l88 725q13 93 6.5 144t-20.5 68t-41 17q-16 0 -37 -6l-2 45q21 6 39 6q70 0 94.5 -61t5.5 -219l-6 -49h6 q71 146 192 237.5t239 91.5z" />
<glyph unicode="&#x3b8;" horiz-adv-x="1081" d="M662 1516q354 0 354 -541q0 -145 -19.5 -283.5t-62 -266t-104 -222.5t-152 -152t-199.5 -57q-74 0 -135.5 29t-111 90.5t-77.5 167t-28 247.5q0 139 20.5 277t64 266.5t105 227t151 158t194.5 59.5zM662 1468q-168 0 -298 -183.5t-174 -483.5h775q6 82 6 174 q0 252 -75.5 372.5t-233.5 120.5zM479 39q185 0 315 195.5t164 521.5h-774q-12 -108 -12 -228q0 -239 80.5 -364t226.5 -125z" />
<glyph unicode="&#x3b9;" horiz-adv-x="489" d="M416 23q-60 -29 -119 -29q-74 0 -111.5 33.5t-42.5 91.5t2 135l93 737h45l-88 -719q-8 -73 -8 -125t26.5 -80t85.5 -28q54 0 107 31z" />
<glyph unicode="&#x3ba;" horiz-adv-x="1036" d="M854 39q44 0 86 20l10 -45q-42 -20 -96 -20q-151 0 -213 262q-29 138 -43 373h-6q-251 -254 -422 -490l-18 -139h-46l123 991h45l-90 -727q0 -8 -4 -28h4q270 354 746 772l39 -31q-176 -150 -330 -301q11 -251 47 -408q59 -229 168 -229z" />
<glyph unicode="&#x3bb;" horiz-adv-x="933" d="M764 0q-72 517 -164 938h-2l-537 -938h-53l578 1006l-58 237q-25 104 -73 164.5t-111 60.5q-34 0 -88 -14l-4 45q38 17 94 17q93 0 145.5 -69.5t86.5 -201.5q129 -500 235 -1245h-49z" />
<glyph unicode="&#x3bc;" horiz-adv-x="1091" d="M1001 51l13 -45q-40 -12 -84 -12q-52 0 -83.5 18.5t-42.5 50t-13.5 73t4.5 87.5l4 37h-2q-64 -130 -168 -198t-221 -68q-89 0 -150.5 45t-87.5 135h-4q-9 -109 -21 -211l-45 -369h-45l172 1397h45l-75 -610q-10 -79 -0.5 -137.5t28.5 -98t50.5 -63t64 -33.5t70.5 -10 q151 0 274 128.5t147 352.5l60 471h45l-94 -749q-6 -59 -7 -104t24 -72t79 -27q26 0 63 12z" />
<glyph unicode="&#x3bd;" horiz-adv-x="946" d="M864 991h47q-68 -304 -209.5 -561t-322.5 -430h-53l-205 991h49l188 -940h7q203 208 320 441.5t179 498.5z" />
<glyph unicode="&#x3be;" horiz-adv-x="835" d="M928 1462q-617 -82 -617 -403q0 -104 72 -166t213 -62h158v-45h-164q-94 0 -174.5 -22t-144 -66t-100 -117t-36.5 -167q0 -106 62 -180.5t204 -135.5q178 -75 207 -91q76 -40 94 -88q7 -21 7 -48q0 -58 -35 -119.5t-113 -157.5l-39 25q79 96 109.5 151t30.5 101 q0 47 -41 74.5t-181 87.5q-37 15 -57 24q-157 67 -226 152t-69 205q0 159 93 263t243 136v4q-75 30 -117.5 92t-42.5 150q0 83 35 151.5t97 116t134.5 80t159.5 53.5v2h-414l5 45h653z" />
<glyph unicode="&#x3bf;" horiz-adv-x="1077" d="M602 999q169 0 276 -108.5t107 -294.5q0 -169 -59.5 -304.5t-176.5 -216.5t-272 -81q-164 0 -274.5 110.5t-110.5 301.5q0 159 61.5 293t179.5 217t269 83zM602 952q-198 0 -331.5 -156.5t-133.5 -389.5q0 -168 97.5 -267.5t242.5 -99.5q206 0 334.5 153.5t128.5 403.5 q0 163 -92.5 259.5t-245.5 96.5z" />
<glyph unicode="&#x3c0;" horiz-adv-x="1107" d="M899 946l-88 -704q-5 -59 -5.5 -104t24 -72t77.5 -27q25 0 66 12l10 -45q-41 -12 -84 -12q-51 0 -82.5 18.5t-43 50t-13.5 73t6 87.5l88 723h-537l-116 -946h-45l116 946h-182l4 39q61 6 180 6h850l-6 -45h-219z" />
<glyph unicode="&#x3c1;" horiz-adv-x="1071" d="M608 999q163 0 268 -104t105 -289q0 -125 -39 -238t-106.5 -195t-163 -130.5t-203.5 -48.5q-106 0 -198 56.5t-126 142.5h-4l-71 -599h-45l112 914q15 126 59.5 222t109.5 153.5t141 86.5t161 29zM471 39q130 0 237.5 77t167.5 206t60 280q0 160 -88 255t-242 95 q-165 0 -283 -115.5t-143 -330.5l-26 -221q22 -73 61.5 -125t86.5 -76.5t88 -34.5t81 -10z" />
<glyph unicode="&#x3c2;" horiz-adv-x="903" d="M137 418q0 -63 16.5 -111.5t42 -81t71 -61.5t89.5 -49t111 -47q4 -1 6 -2q124 -49 170.5 -90t46.5 -109q0 -53 -33.5 -113.5t-107.5 -159.5l-39 23q133 167 133 250q0 54 -43 84.5t-151 73.5q-149 62 -204 98q-121 78 -147 210q-8 39 -8 85q0 155 60.5 287.5t172.5 213 t252 80.5q81 0 169 -40t139 -117l-39 -31q-46 70 -122 105.5t-149 35.5q-126 0 -227 -73t-155.5 -195t-53.5 -266z" />
<glyph unicode="&#x3c3;" horiz-adv-x="1062" d="M1067 946h-297v-2q80 -46 131 -138t51 -218q0 -118 -35 -225.5t-98 -189.5t-157 -130.5t-205 -48.5q-164 0 -264.5 108.5t-100.5 300.5q0 157 61 290.5t176 215.5t259 82h485zM907 588q0 144 -68 235.5t-182 122.5h-71q-191 0 -320 -155t-129 -388q0 -170 86.5 -267 t233.5 -97q128 0 231 71t161 196.5t58 281.5z" />
<glyph unicode="&#x3c4;" horiz-adv-x="835" d="M283 262l84 684h-301l6 45h753l-4 -45h-409l-84 -684q-6 -65 -3.5 -114.5t31 -79t86.5 -29.5q106 0 201 76l6 -52q-94 -69 -211 -69q-103 0 -137 69.5t-18 198.5z" />
<glyph unicode="&#x3c5;" horiz-adv-x="1032" d="M412 -6q-130 0 -209 89.5t-66 252.5q10 124 45 293t35 245q0 27 -5.5 44t-17 24t-20.5 8.5t-24 1.5q-26 0 -44 -6v45q24 8 44 8q26 0 42.5 -3t35 -14.5t27.5 -37.5t9 -67q0 -79 -36 -253.5t-46 -283.5q-10 -134 54.5 -217.5t177.5 -83.5q135 0 242.5 92t168 254t62.5 363 q3 108 -19 241l45 12q21 -120 21 -247q-2 -115 -23.5 -224.5t-65 -207t-103.5 -170.5t-145 -115.5t-185 -42.5z" />
<glyph unicode="&#x3c6;" horiz-adv-x="1245" d="M1155 618q0 -149 -47 -269t-128 -196t-184.5 -116.5t-220.5 -42.5l-49 -400h-45l49 400q-92 2 -169.5 29t-137.5 78.5t-93.5 135t-33.5 191.5q0 329 262 580l33 -25q-127 -129 -188.5 -263.5t-61.5 -291.5q0 -186 109 -286.5t287 -102.5l75 612q12 100 42 171.5 t69.5 107.5t78 51.5t79.5 15.5q52 0 100 -23.5t87.5 -68.5t63 -119.5t23.5 -167.5zM582 39q109 3 204 43t167.5 111.5t114.5 182t42 245.5q0 148 -63.5 239.5t-172.5 91.5q-24 0 -47.5 -7.5t-51.5 -28t-50 -53t-41 -87t-27 -125.5z" />
<glyph unicode="&#x3c7;" horiz-adv-x="960" d="M791 -367q11 0 32 7l2 -46q-18 -6 -34 -6q-34 0 -56 6.5t-49.5 28.5t-51.5 71.5t-48 129.5l-133 442h-4l-439 -672h-53l477 730l-131 438q-20 67 -40.5 108.5t-43.5 57.5t-37.5 20t-38.5 4q-8 0 -32 -4l-2 45q4 1 11.5 2.5t13 2.5t9.5 1q34 0 56.5 -6.5t50 -28.5 t51.5 -71.5t47 -128.5l115 -389h4l407 616h52l-443 -672l148 -493q16 -54 34 -92t33 -57.5t33.5 -29.5t30 -12t29.5 -2z" />
<glyph unicode="&#x3c8;" horiz-adv-x="1245" d="M1126 1001q22 -145 19 -247q-1 -117 -19 -223.5t-60 -205.5t-104.5 -171t-158 -115.5t-213.5 -44.5l-49 -400h-45l49 400h-8q-79 0 -145 18t-122.5 57.5t-88 111t-31.5 169.5q0 113 31.5 278.5t31.5 241.5q0 92 -23 121h54q16 -40 16 -121q0 -82 -32.5 -250t-32.5 -270 q0 -83 27 -144.5t76 -97t111 -52.5t138 -17h4l154 1255l45 4l-154 -1259q123 1 219 54t157.5 148.5t93.5 223.5t34 283q0 105 -19 241z" />
<glyph unicode="&#x3c9;" horiz-adv-x="1384" d="M1149 1006q139 -196 139 -433q0 -156 -45.5 -286.5t-136 -211.5t-209.5 -81q-108 0 -167.5 71t-70.5 201h-4q-45 -131 -121.5 -201.5t-181.5 -70.5q-127 0 -196.5 96t-69.5 268t75 352t204 300l34 -27q-124 -115 -195 -288t-71 -337q0 -155 59.5 -237t159.5 -82 q124 0 205 121t111 338h-2l30 245h45l-32 -262q-50 -442 190 -442q106 0 186 77t119 197t39 260q0 219 -131 410z" />
<glyph unicode="&#x3ca;" horiz-adv-x="489" d="M92 1352q24 0 39.5 -15t15.5 -39q0 -25 -16 -41t-41 -16q-23 0 -37 15t-14 40q0 24 15 40t38 16zM508 1352q23 0 38 -15.5t15 -38.5q0 -25 -16 -41t-39 -16q-25 0 -39 15t-14 40q0 24 15.5 40t39.5 16zM416 23q-60 -29 -119 -29q-74 0 -111.5 33.5t-42.5 91.5t2 135 l93 737h45l-88 -719q-8 -73 -8 -125t26.5 -80t85.5 -28q54 0 107 31z" />
<glyph unicode="&#x3cb;" horiz-adv-x="1032" d="M399 1354q25 0 40.5 -15.5t15.5 -38.5q0 -25 -16.5 -41t-41.5 -16q-23 0 -37 15t-14 40q0 24 15 40t38 16zM815 1354q23 0 38 -15.5t15 -38.5q0 -25 -16 -41t-39 -16q-25 0 -39 15t-14 40q0 24 15.5 40t39.5 16zM412 -6q-130 0 -209 89.5t-66 252.5q10 124 45 293t35 245 q0 27 -5.5 44t-17 24t-20.5 8.5t-24 1.5q-26 0 -44 -6v45q24 8 44 8q26 0 42.5 -3t35 -14.5t27.5 -37.5t9 -67q0 -79 -36 -253.5t-46 -283.5q-10 -134 54.5 -217.5t177.5 -83.5q135 0 242.5 92t168 254t62.5 363q3 108 -19 241l45 12q21 -120 21 -247q-2 -115 -23.5 -224.5 t-65 -207t-103.5 -170.5t-145 -115.5t-185 -42.5z" />
<glyph unicode="&#x3cc;" horiz-adv-x="1077" d="M756 1462h53l-164 -313h-51zM602 999q169 0 276 -108.5t107 -294.5q0 -169 -59.5 -304.5t-176.5 -216.5t-272 -81q-164 0 -274.5 110.5t-110.5 301.5q0 159 61.5 293t179.5 217t269 83zM602 952q-198 0 -331.5 -156.5t-133.5 -389.5q0 -168 97.5 -267.5t242.5 -99.5 q206 0 334.5 153.5t128.5 403.5q0 163 -92.5 259.5t-245.5 96.5z" />
<glyph unicode="&#x3cd;" horiz-adv-x="1032" d="M731 1464h53l-163 -313h-52zM412 -6q-130 0 -209 89.5t-66 252.5q10 124 45 293t35 245q0 27 -5.5 44t-17 24t-20.5 8.5t-24 1.5q-26 0 -44 -6v45q24 8 44 8q26 0 42.5 -3t35 -14.5t27.5 -37.5t9 -67q0 -79 -36 -253.5t-46 -283.5q-10 -134 54.5 -217.5t177.5 -83.5 q135 0 242.5 92t168 254t62.5 363q3 108 -19 241l45 12q21 -120 21 -247q-2 -115 -23.5 -224.5t-65 -207t-103.5 -170.5t-145 -115.5t-185 -42.5z" />
<glyph unicode="&#x3ce;" horiz-adv-x="1384" d="M961 1464l-164 -313h-52l162 313h54zM1149 1006q139 -196 139 -433q0 -156 -45.5 -286.5t-136 -211.5t-209.5 -81q-108 0 -167.5 71t-70.5 201h-4q-45 -131 -121.5 -201.5t-181.5 -70.5q-127 0 -196.5 96t-69.5 268t75 352t204 300l34 -27q-124 -115 -195 -288t-71 -337 q0 -155 59.5 -237t159.5 -82q124 0 205 121t111 338h-2l30 245h45l-32 -262q-50 -442 190 -442q106 0 186 77t119 197t39 260q0 219 -131 410z" />
<glyph unicode="&#x3d7;" horiz-adv-x="1114" d="M672 246q31 -126 83 -166t183 -49l-4 -25q-178 -234 -349 -341t-370 -107q-221 0 -360 127l28 39q137 -119 328 -119q179 0 335 90.5t314 292.5v6q-95 7 -149 61t-82 170l-78 336h-6q-205 -225 -369 -424l-16 -137h-45l121 991h45l-88 -727q-5 -30 -5 -37h2 q349 417 723 779l37 -29q-194 -187 -366 -375z" />
<glyph unicode="&#x1e80;" horiz-adv-x="1849" d="M1087 1640h-57l-196 277h59zM1843 1454h51l-602 -1454h-55l-203 1374h-4l-536 -1374h-56l-248 1454h50l231 -1372h4l537 1372h57l205 -1372h4z" />
<glyph unicode="&#x1e81;" horiz-adv-x="1382" d="M797 1149h-58l-196 276h59zM1303 991q25 -166 12 -297q-12 -141 -45.5 -259.5t-79 -198t-100.5 -135.5t-109.5 -81.5t-106.5 -25.5q-200 0 -217 244h-4q-50 -116 -133 -180t-162 -64q-272 0 -221 412l74 585h45l-74 -583q-13 -89 -7 -153t20 -106t41.5 -66.5t56.5 -34 t67 -9.5q103 0 189.5 109.5t116.5 267.5l4 28l67 547h45l-73 -594q-12 -86 -6 -148t19 -102.5t39 -64.5t54 -33.5t64 -9.5q90 0 175.5 89t144.5 242t71 330q9 138 -17 291h50z" />
<glyph unicode="&#x1e82;" horiz-adv-x="1849" d="M1378 1917l-262 -277h-61l260 277h63zM1843 1454h51l-602 -1454h-55l-203 1374h-4l-536 -1374h-56l-248 1454h50l231 -1372h4l537 1372h57l205 -1372h4z" />
<glyph unicode="&#x1e83;" horiz-adv-x="1382" d="M1092 1425l-263 -276h-61l260 276h64zM1303 991q25 -166 12 -297q-12 -141 -45.5 -259.5t-79 -198t-100.5 -135.5t-109.5 -81.5t-106.5 -25.5q-200 0 -217 244h-4q-50 -116 -133 -180t-162 -64q-272 0 -221 412l74 585h45l-74 -583q-13 -89 -7 -153t20 -106t41.5 -66.5 t56.5 -34t67 -9.5q103 0 189.5 109.5t116.5 267.5l4 28l67 547h45l-73 -594q-12 -86 -6 -148t19 -102.5t39 -64.5t54 -33.5t64 -9.5q90 0 175.5 89t144.5 242t71 330q9 138 -17 291h50z" />
<glyph unicode="&#x1e84;" horiz-adv-x="1849" d="M944 1733q-23 0 -37 15t-14 40q0 23 15 39t38 16q25 0 40 -15t15 -38q0 -25 -16 -41t-41 -16zM1217 1733q-23 0 -38.5 15.5t-15.5 39.5q0 23 16.5 39t39.5 16t38 -15t15 -38q0 -25 -16 -41t-39 -16zM1843 1454h51l-602 -1454h-55l-203 1374h-4l-536 -1374h-56l-248 1454 h50l231 -1372h4l537 1372h57l205 -1372h4z" />
<glyph unicode="&#x1e85;" horiz-adv-x="1382" d="M653 1241q-23 0 -37 15t-14 40q0 24 15 40t38 16q25 0 40.5 -15.5t15.5 -38.5q0 -25 -16.5 -41t-41.5 -16zM926 1241q-24 0 -39 15.5t-15 39.5q0 23 16.5 39.5t39.5 16.5t38 -15.5t15 -38.5q0 -25 -16 -41t-39 -16zM1303 991q25 -166 12 -297q-12 -141 -45.5 -259.5 t-79 -198t-100.5 -135.5t-109.5 -81.5t-106.5 -25.5q-200 0 -217 244h-4q-50 -116 -133 -180t-162 -64q-272 0 -221 412l74 585h45l-74 -583q-13 -89 -7 -153t20 -106t41.5 -66.5t56.5 -34t67 -9.5q103 0 189.5 109.5t116.5 267.5l4 28l67 547h45l-73 -594q-12 -86 -6 -148 t19 -102.5t39 -64.5t54 -33.5t64 -9.5q90 0 175.5 89t144.5 242t71 330q9 138 -17 291h50z" />
<glyph unicode="&#x1e9e;" horiz-adv-x="1402" d="M997 766q163 -92 223 -140q140 -110 140 -243q0 -175 -119.5 -282t-308.5 -107q-106 0 -216.5 47t-189.5 139l31 45q73 -93 172.5 -138.5t204.5 -45.5q165 0 271 92.5t106 247.5q0 44 -18 84.5t-44 70t-71 63t-82 55.5t-94 55q-17 9 -25 14q-87 47 -156 98l365 543v2 q-186 47 -430 47q-216 0 -326 -86.5t-133 -273.5l-127 -1053h-47l127 1059q25 204 149 303.5t357 99.5q246 0 506 -65l-373 -557v-9q21 -15 108 -65z" />
<glyph unicode="&#x1ea0;" horiz-adv-x="1198" d="M1075 0h-49l-98 432h-674l-203 -432h-51l684 1454h55zM276 479h642l-209 912h-4zM514 -274q23 0 37 -15.5t14 -40.5q0 -23 -15 -39t-38 -16t-38 15t-15 38q0 25 15.5 41.5t39.5 16.5z" />
<glyph unicode="&#x1ea1;" horiz-adv-x="1087" d="M950 991h45l-121 -991h-45l39 319h-4q-66 -145 -175.5 -235t-250.5 -90q-157 0 -248.5 111t-91.5 282q0 167 63 306t182 222.5t271 83.5q94 0 181 -32.5t135 -89.5h6zM440 39q90 0 172 48t140.5 126.5t97 176.5t51.5 200l29 221q-28 42 -71 72t-90 44t-85.5 19.5 t-73.5 5.5q-138 0 -245.5 -78t-164.5 -206.5t-57 -282.5t78 -250t219 -96zM467 -274q23 0 37 -15.5t14 -40.5q0 -23 -15 -39t-38 -16t-38 15t-15 38q0 25 15.5 41.5t39.5 16.5z" />
<glyph unicode="&#x1ea2;" horiz-adv-x="1198" d="M795 1898q-39 0 -76 -19t-60 -48l-26 29q77 84 170 84q59 0 93 -34.5t32 -86.5q0 -14 -3 -27t-6.5 -23t-12 -22.5t-13.5 -20t-18.5 -19t-19.5 -17t-23.5 -17.5t-23 -16t-25.5 -17t-25 -16l-8 -45l-29 2q-8 16 -8 33q0 16 27 38.5t59.5 43.5t59.5 53.5t28 65.5 q0 41 -27.5 60t-64.5 19zM1026 0l-98 432h-674l-203 -432h-51l684 1454h55l336 -1454h-49zM276 479h642l-209 912h-4z" />
<glyph unicode="&#x1ea3;" horiz-adv-x="1087" d="M750 1407q-38 0 -75.5 -19.5t-60.5 -48.5l-26 29q77 84 170 84q59 0 93 -34.5t32 -86.5q0 -15 -2.5 -28.5t-10 -27t-12.5 -23t-19 -22.5t-20 -19.5t-25 -19.5t-25 -17.5t-28.5 -19t-27.5 -17.5l-8 -45l-29 2q-8 16 -8 32t27 38.5t59.5 43.5t59.5 53.5t28 65.5 q0 41 -27.5 60.5t-64.5 19.5zM950 991h45l-121 -991h-45l39 319h-4q-66 -145 -175.5 -235t-250.5 -90q-157 0 -248.5 111t-91.5 282q0 167 63 306t182 222.5t271 83.5q94 0 181 -32.5t135 -89.5h6zM440 39q90 0 172 48t140.5 126.5t97 176.5t51.5 200l29 221q-28 42 -71 72 t-90 44t-85.5 19.5t-73.5 5.5q-138 0 -245.5 -78t-164.5 -206.5t-57 -282.5t78 -250t219 -96z" />
<glyph unicode="&#x1ea4;" horiz-adv-x="1198" d="M1253 1933l-254 -276h-57l250 276h61zM532 1573h-57l252 272l6 6h47l197 -278h-57l-162 242h-2zM684 1454h55l336 -1454h-49l-98 432h-674l-203 -432h-51zM276 479h642l-209 912h-4z" />
<glyph unicode="&#x1ea5;" horiz-adv-x="1087" d="M1171 1587l-256 -276h-57l252 276h61zM502 1149h-58l252 272l6 6h48l196 -278h-57l-162 242h-2zM936 877l14 114h45l-121 -991h-45l39 319h-4q-66 -145 -175.5 -235t-250.5 -90q-157 0 -248.5 111t-91.5 282q0 167 63 306t182 222.5t271 83.5q94 0 181 -32.5t135 -89.5h6 zM440 39q90 0 172 48t140.5 126.5t97 176.5t51.5 200l29 221q-28 42 -71 72t-90 44t-85.5 19.5t-73.5 5.5q-138 0 -245.5 -78t-164.5 -206.5t-57 -282.5t78 -250t219 -96z" />
<glyph unicode="&#x1ea6;" horiz-adv-x="1198" d="M1112 1657h-55l-221 274h59zM535 1573h-58l252 272l6 6h47l197 -278h-57l-162 242h-2zM684 1454h55l336 -1454h-49l-98 432h-674l-203 -432h-51zM276 479h642l-209 912h-4z" />
<glyph unicode="&#x1ea7;" horiz-adv-x="1087" d="M1042 1311h-57l-221 276h59zM498 1149h-58l252 272l6 6h47l197 -278h-57l-162 242h-2zM936 877l14 114h45l-121 -991h-45l39 319h-4q-66 -145 -175.5 -235t-250.5 -90q-157 0 -248.5 111t-91.5 282q0 167 63 306t182 222.5t271 83.5q94 0 181 -32.5t135 -89.5h6zM440 39 q90 0 172 48t140.5 126.5t97 176.5t51.5 200l29 221q-28 42 -71 72t-90 44t-85.5 19.5t-73.5 5.5q-138 0 -245.5 -78t-164.5 -206.5t-57 -282.5t78 -250t219 -96z" />
<glyph unicode="&#x1ea8;" horiz-adv-x="1198" d="M1079 1944q59 0 93 -33.5t34 -87.5q0 -15 -3 -28.5t-10.5 -26.5t-12.5 -22.5t-18.5 -22.5t-20 -19.5t-25 -20t-25 -18t-28.5 -19t-27 -18.5l-10 -43h-27q-10 23 -10 33q1 16 28 38.5t59.5 43.5t59.5 54t27 67q1 40 -26.5 58.5t-65.5 18.5q-39 0 -76 -18.5t-59 -46.5 l-27 29q78 82 170 82zM539 1573h-58l252 272l6 6h47l197 -278h-57l-162 242h-2zM684 1454h55l336 -1454h-49l-98 432h-674l-203 -432h-51zM276 479h642l-209 912h-4z" />
<glyph unicode="&#x1ea9;" horiz-adv-x="1087" d="M979 1620q59 0 93 -34t32 -87q0 -16 -4.5 -32t-9.5 -28t-18 -26.5t-21 -22.5t-27 -22.5t-27.5 -20.5t-32 -21.5t-30.5 -20.5l-8 -43h-29q-8 19 -8 32t17.5 30t43 34.5t51 37.5t43.5 46.5t19 54.5q0 41 -27.5 59.5t-66.5 18.5q-37 0 -74 -18.5t-61 -47.5l-25 29 q78 82 170 82zM500 1149h-58l252 272l6 6h48l196 -278h-57l-162 242h-2zM936 877l14 114h45l-121 -991h-45l39 319h-4q-66 -145 -175.5 -235t-250.5 -90q-157 0 -248.5 111t-91.5 282q0 167 63 306t182 222.5t271 83.5q94 0 181 -32.5t135 -89.5h6zM440 39q90 0 172 48 t140.5 126.5t97 176.5t51.5 200l29 221q-28 42 -71 72t-90 44t-85.5 19.5t-73.5 5.5q-138 0 -245.5 -78t-164.5 -206.5t-57 -282.5t78 -250t219 -96z" />
<glyph unicode="&#x1eaa;" horiz-adv-x="1198" d="M649 1911q-77 0 -121 -107l-34 15q29 70 65.5 101.5t87.5 31.5q9 0 17.5 -1t15 -2.5t15.5 -5t13.5 -5.5t13.5 -7.5t12 -7.5t12.5 -9.5t11 -8.5t11.5 -9.5t11 -9.5q60 -49 109 -49q77 0 117 102l32 -16q-51 -129 -149 -129q-56 0 -131 59q-65 58 -109 58zM750 1712 l-224 -213h-55l260 248h45l203 -248h-55l-170 213h-4zM1026 0l-98 432h-674l-203 -432h-51l684 1454h55l336 -1454h-49zM276 479h642l-209 912h-4z" />
<glyph unicode="&#x1eab;" horiz-adv-x="1087" d="M618 1612q-79 0 -133 -127l-39 16q66 156 172 156q68 0 134 -66q9 -7 29.5 -24t32.5 -26t30.5 -17t34.5 -8q35 0 69.5 32.5t59.5 96.5l36 -19q-32 -78 -76 -117t-89 -39q-27 0 -57 15.5t-48 31t-45 42.5q-25 18 -38.5 27.5t-34 17.5t-38.5 8zM727 1391l-223 -242h-58 l252 272l7 6h47l196 -278h-57l-162 242h-2zM936 877l14 114h45l-121 -991h-45l39 319h-4q-66 -145 -175.5 -235t-250.5 -90q-157 0 -248.5 111t-91.5 282q0 167 63 306t182 222.5t271 83.5q94 0 181 -32.5t135 -89.5h6zM440 39q90 0 172 48t140.5 126.5t97 176.5t51.5 200 l29 221q-28 42 -71 72t-90 44t-85.5 19.5t-73.5 5.5q-138 0 -245.5 -78t-164.5 -206.5t-57 -282.5t78 -250t219 -96z" />
<glyph unicode="&#x1eac;" horiz-adv-x="1198" d="M549 1638h-57l251 273l7 6h47l196 -279h-57l-162 242h-2zM1075 0h-49l-98 432h-674l-203 -432h-51l684 1454h55zM276 479h642l-209 912h-4zM514 -274q23 0 37 -15.5t14 -40.5q0 -23 -15 -39t-38 -16t-38 15t-15 38q0 25 15.5 41.5t39.5 16.5z" />
<glyph unicode="&#x1ead;" horiz-adv-x="1087" d="M504 1147h-58l252 272l7 6h47l196 -278h-57l-162 242h-2zM950 991h45l-121 -991h-45l39 319h-4q-66 -145 -175.5 -235t-250.5 -90q-157 0 -248.5 111t-91.5 282q0 167 63 306t182 222.5t271 83.5q94 0 181 -32.5t135 -89.5h6zM440 39q90 0 172 48t140.5 126.5t97 176.5 t51.5 200l29 221q-28 42 -71 72t-90 44t-85.5 19.5t-73.5 5.5q-138 0 -245.5 -78t-164.5 -206.5t-57 -282.5t78 -250t219 -96zM467 -274q23 0 37 -15.5t14 -40.5q0 -23 -15 -39t-38 -16t-38 15t-15 38q0 25 15.5 41.5t39.5 16.5z" />
<glyph unicode="&#x1eae;" horiz-adv-x="1198" d="M1098 1929l-314 -219h-69l313 221zM731 1548q-83 0 -138 50t-65 141h47q8 -67 48 -105.5t110 -38.5q77 0 134 38.5t87 105.5h50q-37 -92 -110 -141.5t-163 -49.5zM684 1454h55l336 -1454h-49l-98 432h-674l-203 -432h-51zM276 479h642l-209 912h-4z" />
<glyph unicode="&#x1eaf;" horiz-adv-x="1087" d="M961 1702l-263 -277h-61l260 277h64zM696 1149q-90 0 -141.5 68.5t-44.5 191.5l43 -2q-6 -97 29.5 -155t115.5 -58q90 0 148 60t72 155l43 -2q-21 -122 -95 -190t-170 -68zM950 991h45l-121 -991h-45l39 319h-4q-66 -145 -175.5 -235t-250.5 -90q-157 0 -248.5 111 t-91.5 282q0 167 63 306t182 222.5t271 83.5q94 0 181 -32.5t135 -89.5h6zM440 39q90 0 172 48t140.5 126.5t97 176.5t51.5 200l29 221q-28 42 -71 72t-90 44t-85.5 19.5t-73.5 5.5q-138 0 -245.5 -78t-164.5 -206.5t-57 -282.5t78 -250t219 -96z" />
<glyph unicode="&#x1eb0;" horiz-adv-x="1198" d="M803 1710h-70l-291 219l74 2zM575 1739q8 -67 48 -105.5t110 -38.5q77 0 134 38.5t87 105.5h50q-37 -92 -110 -141.5t-163 -49.5q-83 0 -138 50t-65 141h47zM1026 0l-98 432h-674l-203 -432h-51l684 1454h55l336 -1454h-49zM276 479h642l-209 912h-4z" />
<glyph unicode="&#x1eb1;" horiz-adv-x="1087" d="M745 1427h-57l-196 277h59zM553 1407q-6 -97 29.5 -155t115.5 -58q90 0 148 60t72 155l43 -2q-21 -122 -95 -190t-170 -68q-90 0 -141.5 68.5t-44.5 191.5zM950 991h45l-121 -991h-45l39 319h-4q-66 -145 -175.5 -235t-250.5 -90q-157 0 -248.5 111t-91.5 282 q0 167 63 306t182 222.5t271 83.5q94 0 181 -32.5t135 -89.5h6zM440 39q90 0 172 48t140.5 126.5t97 176.5t51.5 200l29 221q-28 42 -71 72t-90 44t-85.5 19.5t-73.5 5.5q-138 0 -245.5 -78t-164.5 -206.5t-57 -282.5t78 -250t219 -96z" />
<glyph unicode="&#x1eb2;" horiz-adv-x="1198" d="M805 1919q-38 0 -75 -19.5t-60 -48.5l-27 29q77 84 170 84q44 0 73 -27.5t29 -68.5q0 -30 -16 -57.5t-32.5 -41.5t-49 -37t-41.5 -30l-12 -60l-29 3q-8 28 -8 32q0 29 22.5 53.5t50 39.5t50 40t22.5 56q0 23 -19 38t-48 15zM731 1548q-83 0 -138 50t-65 141h45 q9 -67 49 -105.5t111 -38.5q77 0 133.5 38.5t85.5 105.5h49q-36 -92 -108.5 -141.5t-161.5 -49.5zM1026 0l-98 432h-674l-203 -432h-51l684 1454h55l336 -1454h-49zM276 479h642l-209 912h-4z" />
<glyph unicode="&#x1eb3;" horiz-adv-x="1087" d="M799 1686q-38 0 -75 -19.5t-60 -48.5l-27 29q77 84 170 84q59 0 93 -34.5t32 -86.5q0 -14 -3 -27t-6.5 -23t-12 -22.5t-13.5 -20t-19 -19t-19.5 -17t-23 -17.5t-23 -16t-25.5 -17t-25 -16l-8 -45l-29 2q-8 16 -8 33q0 16 27 38.5t59.5 43.5t59.5 53.5t28 65.5 q0 41 -27.5 60.5t-64.5 19.5zM696 1149q-90 0 -141.5 68.5t-44.5 191.5l43 -2q-6 -97 29.5 -155t115.5 -58q90 0 148 60t72 155l43 -2q-21 -122 -95 -190t-170 -68zM950 991h45l-121 -991h-45l39 319h-4q-66 -145 -175.5 -235t-250.5 -90q-157 0 -248.5 111t-91.5 282 q0 167 63 306t182 222.5t271 83.5q94 0 181 -32.5t135 -89.5h6zM440 39q90 0 172 48t140.5 126.5t97 176.5t51.5 200l29 221q-28 42 -71 72t-90 44t-85.5 19.5t-73.5 5.5q-138 0 -245.5 -78t-164.5 -206.5t-57 -282.5t78 -250t219 -96z" />
<glyph unicode="&#x1eb4;" horiz-adv-x="1198" d="M651 1911q-82 0 -129 -105l-39 13q59 133 170 133q28 0 57 -11t45.5 -21.5t43.5 -31.5q70 -51 121 -51q80 0 122 102l37 -14q-54 -131 -164 -131q-65 0 -143 59q-1 1 -13 9.5t-14 10t-12.5 8.5t-14 8.5t-12.5 6.5t-14 6.5t-12.5 4t-14.5 3.5t-14 1zM733 1595 q77 0 134 38.5t87 105.5h50q-37 -92 -110 -141.5t-163 -49.5q-81 0 -137 50.5t-66 140.5h47q8 -67 48 -105.5t110 -38.5zM684 1454h55l336 -1454h-49l-98 432h-674l-203 -432h-51zM276 479h642l-209 912h-4z" />
<glyph unicode="&#x1eb5;" horiz-adv-x="1087" d="M635 1610q-79 0 -133 -127l-39 16q66 156 172 156q67 0 133 -66q9 -7 29.5 -24t32.5 -26t30.5 -17.5t34.5 -8.5q35 0 69.5 32.5t59.5 96.5l37 -18q-32 -78 -76.5 -117t-89.5 -39q-27 0 -56.5 15t-48.5 31t-45 42q-27 20 -39 28t-32.5 17t-38.5 9zM512 1409l43 -2 q-6 -97 29.5 -155t115.5 -58q90 0 148 60t72 155l43 -2q-21 -122 -95 -190t-170 -68q-90 0 -141.5 68.5t-44.5 191.5zM936 877l14 114h45l-121 -991h-45l39 319h-4q-66 -145 -175.5 -235t-250.5 -90q-157 0 -248.5 111t-91.5 282q0 167 63 306t182 222.5t271 83.5 q94 0 181 -32.5t135 -89.5h6zM440 39q90 0 172 48t140.5 126.5t97 176.5t51.5 200l29 221q-28 42 -71 72t-90 44t-85.5 19.5t-73.5 5.5q-138 0 -245.5 -78t-164.5 -206.5t-57 -282.5t78 -250t219 -96z" />
<glyph unicode="&#x1eb6;" horiz-adv-x="1198" d="M731 1640q-90 0 -141.5 69t-44.5 192l43 -3q-6 -97 29.5 -154.5t115.5 -57.5q89 0 147 59.5t72 155.5l43 -3q-21 -122 -94.5 -190t-169.5 -68zM1075 0h-49l-98 432h-674l-203 -432h-51l684 1454h55zM276 479h642l-209 912h-4zM514 -274q23 0 37 -15.5t14 -40.5 q0 -23 -15 -39t-38 -16t-38 15t-15 38q0 25 15.5 41.5t39.5 16.5z" />
<glyph unicode="&#x1eb7;" horiz-adv-x="1087" d="M686 1149q-90 0 -141.5 68.5t-44.5 191.5l43 -2q-6 -97 29.5 -155t115.5 -58q89 0 147 59.5t72 155.5l43 -2q-21 -122 -94.5 -190t-169.5 -68zM950 991h45l-121 -991h-45l39 319h-4q-66 -145 -175.5 -235t-250.5 -90q-157 0 -248.5 111t-91.5 282q0 167 63 306t182 222.5 t271 83.5q94 0 181 -32.5t135 -89.5h6zM440 39q90 0 172 48t140.5 126.5t97 176.5t51.5 200l29 221q-28 42 -71 72t-90 44t-85.5 19.5t-73.5 5.5q-138 0 -245.5 -78t-164.5 -206.5t-57 -282.5t78 -250t219 -96zM467 -274q23 0 37 -15.5t14 -40.5q0 -23 -15 -39t-38 -16 t-38 15t-15 38q0 25 15.5 41.5t39.5 16.5z" />
<glyph unicode="&#x1eb8;" horiz-adv-x="1085" d="M938 47l-4 -47h-801l178 1454h760l-4 -45h-715l-80 -657h598l-4 -47h-600l-80 -658h752zM510 -385q-23 0 -38 15t-15 38q0 25 15.5 41.5t39.5 16.5q23 0 37 -15.5t14 -40.5q0 -23 -15 -39t-38 -16z" />
<glyph unicode="&#x1eb9;" horiz-adv-x="940" d="M477 39q180 0 316 158l34 -27q-140 -176 -350 -176q-170 0 -275.5 110.5t-105.5 298.5q0 162 65 298t182.5 217t262.5 81q40 0 84 -10t93 -33t80.5 -70t31.5 -112q0 -76 -50 -139t-126.5 -104t-181 -72t-200 -47t-196.5 -25q4 -162 95.5 -255t240.5 -93zM606 952 q-128 0 -233 -70t-165.5 -188.5t-66.5 -261.5q93 8 183 22.5t187.5 42t170 63.5t119.5 90.5t47 119.5q0 54 -25.5 92.5t-66.5 56.5t-77.5 25.5t-72.5 7.5zM440 -274q23 0 37.5 -15.5t14.5 -40.5q0 -23 -15.5 -39t-38.5 -16t-38 15t-15 38q0 25 15.5 41.5t39.5 16.5z" />
<glyph unicode="&#x1eba;" horiz-adv-x="1085" d="M657 1837l-26 29q77 84 170 84q59 0 93 -34.5t32 -86.5q0 -14 -3 -27t-6.5 -23t-12 -22.5t-13.5 -20t-19 -19t-19.5 -17t-23 -17.5t-23 -16t-25.5 -17t-25 -16l-8 -45l-29 2q-8 16 -8 33q0 16 27 38.5t59.5 43.5t59.5 53.5t28 65.5q0 41 -27.5 60.5t-64.5 19.5 q-38 0 -75.5 -19.5t-60.5 -48.5zM938 47l-4 -47h-801l178 1454h760l-4 -45h-715l-80 -657h598l-4 -47h-600l-80 -658h752z" />
<glyph unicode="&#x1ebb;" horiz-adv-x="940" d="M682 1407q-38 0 -75 -19.5t-60 -48.5l-27 29q77 84 170 84q59 0 93 -34.5t32 -86.5q0 -15 -2.5 -28.5t-10 -27t-12.5 -23t-19 -22.5t-20 -19.5t-25 -19.5t-25 -17.5t-28.5 -19t-27.5 -17.5l-8 -45l-29 2q-8 16 -8 32t27 38.5t59.5 43.5t59.5 53.5t28 65.5 q0 41 -27.5 60.5t-64.5 19.5zM477 39q180 0 316 158l34 -27q-140 -176 -350 -176q-170 0 -275.5 110.5t-105.5 298.5q0 162 65 298t182.5 217t262.5 81q40 0 84 -10t93 -33t80.5 -70t31.5 -112q0 -76 -50 -139t-126.5 -104t-181 -72t-200 -47t-196.5 -25q4 -162 95.5 -255 t240.5 -93zM606 952q-128 0 -233 -70t-165.5 -188.5t-66.5 -261.5q93 8 183 22.5t187.5 42t170 63.5t119.5 90.5t47 119.5q0 54 -25.5 92.5t-66.5 56.5t-77.5 25.5t-72.5 7.5z" />
<glyph unicode="&#x1ebc;" horiz-adv-x="1085" d="M455 1718q66 156 172 156q37 0 67 -17t66 -49q4 -3 15 -13t16 -14l15 -12t16 -12t15.5 -9.5t16.5 -8t16 -4.5t17 -2q35 0 69.5 32.5t59.5 96.5l37 -19q-30 -77 -74.5 -116t-89.5 -39q-28 0 -58.5 15t-48 29.5t-45.5 41.5q-66 55 -108 55q-81 0 -135 -127zM938 47l-4 -47 h-801l178 1454h760l-4 -45h-715l-80 -657h598l-4 -47h-600l-80 -658h752z" />
<glyph unicode="&#x1ebd;" horiz-adv-x="940" d="M518 1331q-81 0 -135 -127l-39 17q65 155 172 155q61 0 133 -65q4 -4 17 -15t18.5 -15.5t17 -13.5t19 -13.5t17.5 -9.5t19.5 -7t18.5 -2q35 0 69.5 32.5t59.5 96.5l37 -18q-31 -77 -75.5 -116.5t-88.5 -39.5q-28 0 -58.5 15.5t-47 29.5t-45.5 41q-66 55 -109 55zM895 774 q0 -76 -50 -139t-126.5 -104t-181 -72t-200 -47t-196.5 -25q4 -162 95.5 -255t240.5 -93q180 0 316 158l34 -27q-140 -176 -350 -176q-170 0 -275.5 110.5t-105.5 298.5q0 162 65 298t182.5 217t262.5 81q40 0 84 -10t93 -33t80.5 -70t31.5 -112zM141 432q93 8 183 22.5 t187.5 42t170 63.5t119.5 90.5t47 119.5q0 54 -25.5 92.5t-66.5 56.5t-77.5 25.5t-72.5 7.5q-128 0 -233 -70t-165.5 -188.5t-66.5 -261.5z" />
<glyph unicode="&#x1ebe;" horiz-adv-x="1085" d="M1251 1939l-254 -276h-57l250 276h61zM530 1579h-57l252 272l6 7h47l197 -279h-57l-162 242h-2zM133 0l178 1454h760l-4 -45h-715l-80 -657h598l-4 -47h-600l-80 -658h752l-4 -47h-801z" />
<glyph unicode="&#x1ebf;" horiz-adv-x="940" d="M1104 1587l-256 -276h-57l251 276h62zM434 1149h-57l252 272l6 6h47l197 -278h-58l-162 242h-2zM895 774q0 -76 -50 -139t-126.5 -104t-181 -72t-200 -47t-196.5 -25q4 -162 95.5 -255t240.5 -93q180 0 316 158l34 -27q-140 -176 -350 -176q-170 0 -275.5 110.5 t-105.5 298.5q0 162 65 298t182.5 217t262.5 81q40 0 84 -10t93 -33t80.5 -70t31.5 -112zM141 432q93 8 183 22.5t187.5 42t170 63.5t119.5 90.5t47 119.5q0 54 -25.5 92.5t-66.5 56.5t-77.5 25.5t-72.5 7.5q-128 0 -233 -70t-165.5 -188.5t-66.5 -261.5z" />
<glyph unicode="&#x1ec0;" horiz-adv-x="1085" d="M1110 1663h-55l-221 274h59zM532 1579h-57l252 272l6 7h47l197 -279h-57l-162 242h-2zM133 0l178 1454h760l-4 -45h-715l-80 -657h598l-4 -47h-600l-80 -658h752l-4 -47h-801z" />
<glyph unicode="&#x1ec1;" horiz-adv-x="940" d="M756 1587l219 -276h-57l-222 276h60zM430 1149h-57l252 272l6 6h47l196 -278h-57l-162 242h-2zM895 774q0 -76 -50 -139t-126.5 -104t-181 -72t-200 -47t-196.5 -25q4 -162 95.5 -255t240.5 -93q180 0 316 158l34 -27q-140 -176 -350 -176q-170 0 -275.5 110.5 t-105.5 298.5q0 162 65 298t182.5 217t262.5 81q40 0 84 -10t93 -33t80.5 -70t31.5 -112zM141 432q93 8 183 22.5t187.5 42t170 63.5t119.5 90.5t47 119.5q0 54 -25.5 92.5t-66.5 56.5t-77.5 25.5t-72.5 7.5q-128 0 -233 -70t-165.5 -188.5t-66.5 -261.5z" />
<glyph unicode="&#x1ec2;" horiz-adv-x="1085" d="M1077 1950q59 0 93 -33.5t34 -87.5q0 -15 -3 -28.5t-10.5 -26.5t-12.5 -22.5t-18.5 -22.5t-20 -19.5t-25 -20t-25 -18t-28.5 -19t-27 -18.5l-10 -43h-27q-10 23 -10 33q1 16 28 38.5t59.5 43.5t59.5 54t27 67q1 40 -26.5 59t-65.5 19q-39 0 -76 -18.5t-59 -47.5l-27 29 q78 82 170 82zM537 1579h-58l252 272l6 7h47l197 -279h-57l-162 242h-2zM133 0l178 1454h760l-4 -45h-715l-80 -657h598l-4 -47h-600l-80 -658h752l-4 -47h-801z" />
<glyph unicode="&#x1ec3;" horiz-adv-x="940" d="M911 1620q59 0 93 -34t32 -87q0 -16 -4.5 -32t-9.5 -28t-18 -26.5t-21 -22.5t-27 -22.5t-27.5 -20.5t-32 -21.5t-30.5 -20.5l-8 -43h-29q-8 19 -8 32t17.5 30t43 34.5t51 37.5t43.5 46.5t19 54.5q0 41 -27.5 59.5t-66.5 18.5q-37 0 -74 -18.5t-61 -47.5l-25 29 q78 82 170 82zM432 1149h-57l252 272l6 6h47l197 -278h-58l-162 242h-2zM895 774q0 -76 -50 -139t-126.5 -104t-181 -72t-200 -47t-196.5 -25q4 -162 95.5 -255t240.5 -93q180 0 316 158l34 -27q-140 -176 -350 -176q-170 0 -275.5 110.5t-105.5 298.5q0 162 65 298 t182.5 217t262.5 81q40 0 84 -10t93 -33t80.5 -70t31.5 -112zM141 432q93 8 183 22.5t187.5 42t170 63.5t119.5 90.5t47 119.5q0 54 -25.5 92.5t-66.5 56.5t-77.5 25.5t-72.5 7.5q-128 0 -233 -70t-165.5 -188.5t-66.5 -261.5z" />
<glyph unicode="&#x1ec4;" horiz-adv-x="1085" d="M647 1917q-77 0 -121 -107l-34 15q29 70 65.5 101.5t87.5 31.5q9 0 17.5 -1t15 -2.5t15.5 -5t13.5 -5.5t13.5 -7.5t12 -7.5t12.5 -9.5t11 -8.5t11.5 -9.5t11 -9.5q60 -49 109 -49q77 0 117 103l32 -17q-51 -129 -149 -129q-25 0 -50.5 10t-41 20.5t-39.5 29.5 q-64 57 -109 57zM748 1718l-224 -213h-55l260 248h45l203 -248h-55l-170 213h-4zM1067 1409h-715l-80 -657h598l-4 -47h-600l-80 -658h752l-4 -47h-801l178 1454h760z" />
<glyph unicode="&#x1ec5;" horiz-adv-x="940" d="M940 1645l37 -19q-32 -78 -76.5 -117t-89.5 -39q-27 0 -57 15.5t-47.5 31t-44.5 42.5q-25 18 -38.5 27.5t-34 17.5t-38.5 8q-79 0 -133 -127l-39 16q66 156 172 156q67 0 133 -66q9 -7 29.5 -24t32.5 -26t30.5 -17t34.5 -8q35 0 69.5 32.5t59.5 96.5zM662 1391h-3 l-223 -242h-57l252 272l6 6h47l197 -278h-58zM895 774q0 -76 -50 -139t-126.5 -104t-181 -72t-200 -47t-196.5 -25q4 -162 95.5 -255t240.5 -93q180 0 316 158l34 -27q-140 -176 -350 -176q-170 0 -275.5 110.5t-105.5 298.5q0 162 65 298t182.5 217t262.5 81q40 0 84 -10 t93 -33t80.5 -70t31.5 -112zM141 432q93 8 183 22.5t187.5 42t170 63.5t119.5 90.5t47 119.5q0 54 -25.5 92.5t-66.5 56.5t-77.5 25.5t-72.5 7.5q-128 0 -233 -70t-165.5 -188.5t-66.5 -261.5z" />
<glyph unicode="&#x1ec6;" horiz-adv-x="1085" d="M547 1645h-58l252 272l7 6h47l196 -278h-57l-162 241h-2zM1067 1409h-715l-80 -657h598l-4 -47h-600l-80 -658h752l-4 -47h-801l178 1454h760zM512 -274q23 0 37 -15.5t14 -40.5q0 -23 -15 -39t-38 -16t-38 15t-15 38q0 25 15.5 41.5t39.5 16.5z" />
<glyph unicode="&#x1ec7;" horiz-adv-x="940" d="M436 1147h-57l252 272l6 6h47l197 -278h-58l-161 242h-3zM477 39q180 0 316 158l34 -27q-140 -176 -350 -176q-170 0 -275.5 110.5t-105.5 298.5q0 162 65 298t182.5 217t262.5 81q40 0 84 -10t93 -33t80.5 -70t31.5 -112q0 -76 -50 -139t-126.5 -104t-181 -72t-200 -47 t-196.5 -25q4 -162 95.5 -255t240.5 -93zM606 952q-128 0 -233 -70t-165.5 -188.5t-66.5 -261.5q93 8 183 22.5t187.5 42t170 63.5t119.5 90.5t47 119.5q0 54 -25.5 92.5t-66.5 56.5t-77.5 25.5t-72.5 7.5zM440 -274q23 0 37.5 -15.5t14.5 -40.5q0 -23 -15.5 -39t-38.5 -16 t-38 15t-15 38q0 25 15.5 41.5t39.5 16.5z" />
<glyph unicode="&#x1ec8;" horiz-adv-x="462" d="M295 1831l-27 29q77 84 170 84q59 0 93 -34.5t32 -86.5q0 -14 -3 -27t-6.5 -23t-12 -22.5t-13.5 -20t-19 -19t-19.5 -17t-23 -17.5t-23 -16t-25.5 -17t-25 -16l-8 -45l-29 2q-8 16 -8 33q0 16 27 38.5t59.5 43.5t59.5 53.5t28 65.5q0 41 -27.5 60t-64.5 19q-38 0 -75 -19 t-60 -48zM195 0h-48l179 1454h47z" />
<glyph unicode="&#x1ec9;" horiz-adv-x="419" d="M207 1339l-27 29q77 84 170 84q59 0 93 -34.5t32 -86.5q0 -15 -2.5 -28.5t-10 -27t-12.5 -23t-19 -22.5t-20 -19.5t-25 -19.5t-25 -17.5t-28.5 -19t-27.5 -17.5l-8 -45l-29 2q-8 16 -8 32t27 38.5t59.5 43.5t59.5 53.5t28 65.5q0 41 -27.5 60.5t-64.5 19.5 q-38 0 -75 -19.5t-60 -48.5zM248 991h45l-123 -991h-43z" />
<glyph unicode="&#x1eca;" horiz-adv-x="462" d="M195 0h-48l179 1454h47zM133 -385q-23 0 -38 15t-15 38q0 25 15.5 41.5t39.5 16.5q23 0 37 -15.5t14 -40.5q0 -23 -15 -39t-38 -16z" />
<glyph unicode="&#x1ecb;" horiz-adv-x="419" d="M309 1352q23 0 38 -15.5t15 -38.5q0 -25 -15 -41t-40 -16q-23 0 -37 15t-14 40q0 24 15 40t38 16zM248 991h45l-123 -991h-43zM109 -385q-23 0 -38.5 15t-15.5 38q0 25 15.5 41.5t40.5 16.5q23 0 37 -15.5t14 -40.5q0 -23 -15 -39t-38 -16z" />
<glyph unicode="&#x1ecc;" horiz-adv-x="1550" d="M889 1462q257 0 410 -158t153 -446q0 -139 -32.5 -268t-96.5 -237t-152 -188.5t-205 -125.5t-249 -45q-257 0 -410 160t-153 444q0 169 53.5 326t147.5 276t233.5 190.5t300.5 71.5zM717 41q154 0 285 66t218 177.5t136 259.5t49 312q0 267 -138 412t-380 145 q-151 0 -281 -67.5t-218 -180t-137.5 -260.5t-49.5 -307q0 -262 139 -409.5t377 -147.5zM678 -385q-23 0 -38 15t-15 38q0 25 15.5 41.5t39.5 16.5q23 0 37 -15.5t14 -40.5q0 -23 -15 -39t-38 -16z" />
<glyph unicode="&#x1ecd;" horiz-adv-x="1095" d="M610 999q178 0 284.5 -106t106.5 -297q0 -126 -35.5 -236t-100.5 -191t-161 -128t-212 -47q-180 0 -289 109.5t-109 302.5q0 118 36.5 225.5t102 189t163.5 130t214 48.5zM610 952q-203 0 -336 -155.5t-133 -390.5q0 -172 95 -269.5t256 -97.5q204 0 333 154t129 403 q0 171 -91 263.5t-253 92.5zM453 -385q-23 0 -38.5 15t-15.5 38q0 25 15.5 41.5t40.5 16.5q23 0 37 -15.5t14 -40.5q0 -23 -15 -39t-38 -16z" />
<glyph unicode="&#x1ece;" horiz-adv-x="1550" d="M870 1831l-26 29q77 84 170 84q59 0 93 -34.5t32 -86.5q0 -14 -3 -27t-6.5 -23t-12 -22.5t-13.5 -20t-18.5 -19t-19.5 -17t-23.5 -17.5t-23 -16t-25.5 -17t-25 -16l-8 -45l-29 2q-8 16 -8 33q0 16 27 38.5t59.5 43.5t59.5 53.5t28 65.5q0 41 -27.5 60t-64.5 19 q-39 0 -76 -19t-60 -48zM889 1462q257 0 410 -158t153 -446q0 -139 -32.5 -268t-96.5 -237t-152 -188.5t-205 -125.5t-249 -45q-257 0 -410 160t-153 444q0 169 53.5 326t147.5 276t233.5 190.5t300.5 71.5zM717 41q154 0 285 66t218 177.5t136 259.5t49 312q0 267 -138 412 t-380 145q-151 0 -281 -67.5t-218 -180t-137.5 -260.5t-49.5 -307q0 -262 139 -409.5t377 -147.5z" />
<glyph unicode="&#x1ecf;" horiz-adv-x="1095" d="M563 1339l-26 29q77 84 170 84q59 0 92.5 -34.5t31.5 -86.5q0 -14 -3 -27t-6.5 -23t-12 -22t-13.5 -20t-18.5 -19.5t-19.5 -17t-23 -17t-23 -15.5t-25 -16.5t-25 -16.5l-9 -45l-28 2q-9 18 -9 32q0 16 27 38.5t59.5 43.5t60 53.5t28.5 65.5q0 41 -28 60.5t-65 19.5 q-38 0 -75 -19.5t-60 -48.5zM610 999q178 0 284.5 -106t106.5 -297q0 -126 -35.5 -236t-100.5 -191t-161 -128t-212 -47q-180 0 -289 109.5t-109 302.5q0 118 36.5 225.5t102 189t163.5 130t214 48.5zM610 952q-203 0 -336 -155.5t-133 -390.5q0 -172 95 -269.5t256 -97.5 q204 0 333 154t129 403q0 171 -91 263.5t-253 92.5z" />
<glyph unicode="&#x1ed0;" horiz-adv-x="1550" d="M1464 1933l-254 -276h-57l250 276h61zM743 1573h-57l252 272l6 6h47l197 -278h-58l-161 242h-2zM889 1462q257 0 410 -158t153 -446q0 -139 -32.5 -268t-96.5 -237t-152 -188.5t-205 -125.5t-249 -45q-257 0 -410 160t-153 444q0 169 53.5 326t147.5 276t233.5 190.5 t300.5 71.5zM717 41q154 0 285 66t218 177.5t136 259.5t49 312q0 267 -138 412t-380 145q-151 0 -281 -67.5t-218 -180t-137.5 -260.5t-49.5 -307q0 -262 139 -409.5t377 -147.5z" />
<glyph unicode="&#x1ed1;" horiz-adv-x="1095" d="M1120 1587l-256 -276h-57l252 276h61zM451 1149h-58l252 272l6 6h47l197 -278h-57l-162 242h-2zM610 999q178 0 284.5 -106t106.5 -297q0 -126 -35.5 -236t-100.5 -191t-161 -128t-212 -47q-180 0 -289 109.5t-109 302.5q0 118 36.5 225.5t102 189t163.5 130t214 48.5z M492 39q204 0 333 154t129 403q0 171 -91 263.5t-253 92.5q-203 0 -336 -155.5t-133 -390.5q0 -172 95 -269.5t256 -97.5z" />
<glyph unicode="&#x1ed2;" horiz-adv-x="1550" d="M1323 1657h-55l-221 274h59zM745 1573h-57l252 272l6 6h47l197 -278h-57l-162 242h-2zM889 1462q257 0 410 -158t153 -446q0 -139 -32.5 -268t-96.5 -237t-152 -188.5t-205 -125.5t-249 -45q-257 0 -410 160t-153 444q0 169 53.5 326t147.5 276t233.5 190.5t300.5 71.5z M717 41q154 0 285 66t218 177.5t136 259.5t49 312q0 267 -138 412t-380 145q-151 0 -281 -67.5t-218 -180t-137.5 -260.5t-49.5 -307q0 -262 139 -409.5t377 -147.5z" />
<glyph unicode="&#x1ed3;" horiz-adv-x="1095" d="M991 1311h-57l-221 276h59zM446 1149h-57l252 272l6 6h47l197 -278h-57l-162 242h-2zM610 999q178 0 284.5 -106t106.5 -297q0 -126 -35.5 -236t-100.5 -191t-161 -128t-212 -47q-180 0 -289 109.5t-109 302.5q0 118 36.5 225.5t102 189t163.5 130t214 48.5zM492 39 q204 0 333 154t129 403q0 171 -91 263.5t-253 92.5q-203 0 -336 -155.5t-133 -390.5q0 -172 95 -269.5t256 -97.5z" />
<glyph unicode="&#x1ed4;" horiz-adv-x="1550" d="M1282 1898q-39 0 -76 -18.5t-59 -46.5l-27 29q78 82 170 82q59 0 93 -33.5t34 -87.5q0 -15 -3 -28.5t-10.5 -26.5t-12.5 -22.5t-18.5 -22.5t-20 -19.5t-25 -20t-24.5 -18t-28.5 -19t-27.5 -18.5l-10 -43h-27q-10 23 -10 33q1 16 28 38.5t59.5 43.5t59.5 54t27 67 q1 40 -26.5 58.5t-65.5 18.5zM750 1573h-58l252 272l6 6h47l197 -278h-57l-162 242h-2zM889 1462q257 0 410 -158t153 -446q0 -139 -32.5 -268t-96.5 -237t-152 -188.5t-205 -125.5t-249 -45q-257 0 -410 160t-153 444q0 169 53.5 326t147.5 276t233.5 190.5t300.5 71.5z M717 41q154 0 285 66t218 177.5t136 259.5t49 312q0 267 -138 412t-380 145q-151 0 -281 -67.5t-218 -180t-137.5 -260.5t-49.5 -307q0 -262 139 -409.5t377 -147.5z" />
<glyph unicode="&#x1ed5;" horiz-adv-x="1095" d="M928 1620q59 0 93 -34t32 -87q0 -16 -4.5 -32t-9.5 -28t-18 -26.5t-21 -22.5t-27 -22.5t-27.5 -20.5t-32 -21.5t-30.5 -20.5l-9 -43h-28q-8 19 -8 32t17.5 30t43 34.5t51 37.5t43.5 46.5t19 54.5q0 41 -27.5 59.5t-66.5 18.5q-37 0 -74.5 -18.5t-61.5 -47.5l-24 29 q78 82 170 82zM449 1149h-58l252 272l6 6h47l197 -278h-57l-162 242h-2zM610 999q178 0 284.5 -106t106.5 -297q0 -126 -35.5 -236t-100.5 -191t-161 -128t-212 -47q-180 0 -289 109.5t-109 302.5q0 118 36.5 225.5t102 189t163.5 130t214 48.5zM492 39q204 0 333 154 t129 403q0 171 -91 263.5t-253 92.5q-203 0 -336 -155.5t-133 -390.5q0 -172 95 -269.5t256 -97.5z" />
<glyph unicode="&#x1ed6;" horiz-adv-x="1550" d="M860 1911q-77 0 -121 -107l-34 15q29 70 65.5 101.5t87.5 31.5q9 0 17.5 -1t15 -2.5t15.5 -5t13.5 -5.5t13.5 -7.5t12 -7.5t12.5 -9.5t11 -8.5t11.5 -9.5t11 -9.5q60 -49 109 -49q77 0 117 102l32 -16q-51 -129 -149 -129q-56 0 -131 59q-65 58 -109 58zM961 1712 l-224 -213h-55l260 248h45l203 -248h-55l-170 213h-4zM889 1462q257 0 410 -158t153 -446q0 -139 -32.5 -268t-96.5 -237t-152 -188.5t-205 -125.5t-249 -45q-257 0 -410 160t-153 444q0 169 53.5 326t147.5 276t233.5 190.5t300.5 71.5zM717 41q154 0 285 66t218 177.5 t136 259.5t49 312q0 267 -138 412t-380 145q-151 0 -281 -67.5t-218 -180t-137.5 -260.5t-49.5 -307q0 -262 139 -409.5t377 -147.5z" />
<glyph unicode="&#x1ed7;" horiz-adv-x="1095" d="M567 1612q-79 0 -133 -127l-39 16q66 156 172 156q67 0 133 -66q9 -7 29.5 -24t32.5 -26t30.5 -17t34.5 -8q35 0 69.5 32.5t59.5 96.5l37 -19q-32 -78 -76.5 -117t-89.5 -39q-27 0 -57 15.5t-47.5 31t-44.5 42.5q-25 18 -38.5 27.5t-34 17.5t-38.5 8zM676 1391l-223 -242 h-58l252 272l6 6h47l197 -278h-57l-162 242h-2zM610 999q178 0 284.5 -106t106.5 -297q0 -126 -35.5 -236t-100.5 -191t-161 -128t-212 -47q-180 0 -289 109.5t-109 302.5q0 118 36.5 225.5t102 189t163.5 130t214 48.5zM492 39q204 0 333 154t129 403q0 171 -91 263.5 t-253 92.5q-203 0 -336 -155.5t-133 -390.5q0 -172 95 -269.5t256 -97.5z" />
<glyph unicode="&#x1ed8;" horiz-adv-x="1550" d="M760 1638h-58l252 273l7 6h47l196 -279h-57l-162 242h-2zM889 1462q257 0 410 -158t153 -446q0 -139 -32.5 -268t-96.5 -237t-152 -188.5t-205 -125.5t-249 -45q-257 0 -410 160t-153 444q0 169 53.5 326t147.5 276t233.5 190.5t300.5 71.5zM717 41q154 0 285 66 t218 177.5t136 259.5t49 312q0 267 -138 412t-380 145q-151 0 -281 -67.5t-218 -180t-137.5 -260.5t-49.5 -307q0 -262 139 -409.5t377 -147.5zM680 -274q23 0 37 -15.5t14 -40.5q0 -23 -15 -39t-38 -16t-38 15t-15 38q0 25 15.5 41.5t39.5 16.5z" />
<glyph unicode="&#x1ed9;" horiz-adv-x="1095" d="M453 1147h-58l252 272l6 6h47l197 -278h-57l-162 242h-2zM610 999q178 0 284.5 -106t106.5 -297q0 -126 -35.5 -236t-100.5 -191t-161 -128t-212 -47q-180 0 -289 109.5t-109 302.5q0 118 36.5 225.5t102 189t163.5 130t214 48.5zM492 39q204 0 333 154t129 403 q0 171 -91 263.5t-253 92.5q-203 0 -336 -155.5t-133 -390.5q0 -172 95 -269.5t256 -97.5zM455 -274q23 0 37 -15.5t14 -40.5q0 -23 -15 -39t-38 -16t-38.5 15t-15.5 38q0 25 15.5 41.5t40.5 16.5z" />
<glyph unicode="&#x1eda;" horiz-adv-x="1654" d="M1237 1917l-262 -277h-62l261 277h63zM1620 1585h47l-27 -211q-18 -138 -67 -198t-127 -60q-23 0 -33 2l-2 -2q41 -112 41 -258q0 -139 -32.5 -268t-96.5 -237t-152 -188.5t-205 -125.5t-249 -45q-257 0 -410 160t-153 444q0 169 53.5 326t147.5 276t233.5 190.5 t300.5 71.5q176 0 306.5 -76t197.5 -221q27 -6 53 -6q60 0 96.5 47t50.5 170zM717 41q154 0 285 66t218 177.5t136 259.5t49 312q0 267 -138 412t-380 145q-151 0 -281 -67.5t-218 -180t-137.5 -260.5t-49.5 -307q0 -262 139 -409.5t377 -147.5z" />
<glyph unicode="&#x1edb;" horiz-adv-x="1232" d="M954 1425l-262 -276h-61l260 276h63zM1202 1157h47l-26 -211q-18 -138 -67.5 -198t-127.5 -60q-23 0 -33 2l-2 -2q8 -39 8 -92q0 -126 -35.5 -236t-100.5 -191t-161 -128t-212 -47q-180 0 -289 109.5t-109 302.5q0 118 36.5 225.5t102 189t163.5 130t214 48.5 q142 0 240 -68t133 -196q32 -4 45 -4q61 0 97.5 47t50.5 170zM492 39q204 0 333 154t129 403q0 171 -91 263.5t-253 92.5q-203 0 -336 -155.5t-133 -390.5q0 -172 95 -269.5t256 -97.5z" />
<glyph unicode="&#x1edc;" horiz-adv-x="1654" d="M1001 1640h-57l-196 277h59zM1620 1585h47l-27 -211q-18 -138 -67 -198t-127 -60q-23 0 -33 2l-2 -2q41 -112 41 -258q0 -139 -32.5 -268t-96.5 -237t-152 -188.5t-205 -125.5t-249 -45q-257 0 -410 160t-153 444q0 169 53.5 326t147.5 276t233.5 190.5t300.5 71.5 q176 0 306.5 -76t197.5 -221q27 -6 53 -6q60 0 96.5 47t50.5 170zM717 41q154 0 285 66t218 177.5t136 259.5t49 312q0 267 -138 412t-380 145q-151 0 -281 -67.5t-218 -180t-137.5 -260.5t-49.5 -307q0 -262 139 -409.5t377 -147.5z" />
<glyph unicode="&#x1edd;" horiz-adv-x="1232" d="M719 1149h-57l-197 276h59zM1202 1157h47l-26 -211q-18 -138 -67.5 -198t-127.5 -60q-23 0 -33 2l-2 -2q8 -39 8 -92q0 -126 -35.5 -236t-100.5 -191t-161 -128t-212 -47q-180 0 -289 109.5t-109 302.5q0 118 36.5 225.5t102 189t163.5 130t214 48.5q142 0 240 -68 t133 -196q32 -4 45 -4q61 0 97.5 47t50.5 170zM492 39q204 0 333 154t129 403q0 171 -91 263.5t-253 92.5q-203 0 -336 -155.5t-133 -390.5q0 -172 95 -269.5t256 -97.5z" />
<glyph unicode="&#x1ede;" horiz-adv-x="1654" d="M1006 1898q-39 0 -76 -19t-60 -48l-26 29q77 84 170 84q59 0 93 -34.5t32 -86.5q0 -14 -3 -27t-6.5 -23t-12 -22.5t-13.5 -20t-18.5 -19t-19.5 -17t-23.5 -17.5t-23 -16t-25.5 -17t-25 -16l-8 -45l-29 2q-8 16 -8 33q0 16 27 38.5t59.5 43.5t59.5 53.5t28 65.5 q0 41 -27.5 60t-64.5 19zM1620 1585h47l-27 -211q-18 -138 -67 -198t-127 -60q-23 0 -33 2l-2 -2q41 -112 41 -258q0 -139 -32.5 -268t-96.5 -237t-152 -188.5t-205 -125.5t-249 -45q-257 0 -410 160t-153 444q0 169 53.5 326t147.5 276t233.5 190.5t300.5 71.5 q176 0 306.5 -76t197.5 -221q27 -6 53 -6q60 0 96.5 47t50.5 170zM717 41q154 0 285 66t218 177.5t136 259.5t49 312q0 267 -138 412t-380 145q-151 0 -281 -67.5t-218 -180t-137.5 -260.5t-49.5 -307q0 -262 139 -409.5t377 -147.5z" />
<glyph unicode="&#x1edf;" horiz-adv-x="1232" d="M698 1407q-38 0 -75 -19.5t-60 -48.5l-26 29q77 84 170 84q59 0 92.5 -34.5t31.5 -86.5q0 -14 -3 -27t-6.5 -23t-12 -22t-13.5 -20t-18.5 -19.5t-19.5 -17t-23 -17t-23 -15.5t-25 -16.5t-25 -16.5l-9 -45l-28 2q-9 18 -9 32q0 16 27 38.5t59.5 43.5t60 53.5t28.5 65.5 q0 41 -28 60.5t-65 19.5zM1202 1157h47l-26 -211q-18 -138 -67.5 -198t-127.5 -60q-23 0 -33 2l-2 -2q8 -39 8 -92q0 -126 -35.5 -236t-100.5 -191t-161 -128t-212 -47q-180 0 -289 109.5t-109 302.5q0 118 36.5 225.5t102 189t163.5 130t214 48.5q142 0 240 -68t133 -196 q32 -4 45 -4q61 0 97.5 47t50.5 170zM492 39q204 0 333 154t129 403q0 171 -91 263.5t-253 92.5q-203 0 -336 -155.5t-133 -390.5q0 -172 95 -269.5t256 -97.5z" />
<glyph unicode="&#x1ee0;" horiz-adv-x="1654" d="M842 1823q-81 0 -135 -127l-39 16q66 156 172 156q37 0 67 -17t66 -49q4 -4 17 -15t18.5 -15.5t17 -13.5t19 -13.5t17.5 -9.5t19.5 -7t18.5 -2q35 0 69.5 32.5t59.5 96.5l37 -18q-31 -77 -75.5 -116.5t-88.5 -39.5q-28 0 -58.5 15t-48 29.5t-45.5 41.5q-67 56 -108 56z M1620 1585h47l-27 -211q-18 -138 -67 -198t-127 -60q-23 0 -33 2l-2 -2q41 -112 41 -258q0 -139 -32.5 -268t-96.5 -237t-152 -188.5t-205 -125.5t-249 -45q-257 0 -410 160t-153 444q0 169 53.5 326t147.5 276t233.5 190.5t300.5 71.5q176 0 306.5 -76t197.5 -221 q27 -6 53 -6q60 0 96.5 47t50.5 170zM717 41q154 0 285 66t218 177.5t136 259.5t49 312q0 267 -138 412t-380 145q-151 0 -281 -67.5t-218 -180t-137.5 -260.5t-49.5 -307q0 -262 139 -409.5t377 -147.5z" />
<glyph unicode="&#x1ee1;" horiz-adv-x="1232" d="M535 1331q-82 0 -136 -127l-39 17q65 155 172 155q62 0 134 -65q4 -4 17 -15t18.5 -15.5t17 -13.5t19 -13.5t17.5 -9.5t19.5 -7t18.5 -2q35 0 69.5 32.5t59.5 96.5l36 -18q-31 -78 -75 -117t-88 -39q-28 0 -58.5 15t-48 29.5t-45.5 41.5q-66 55 -108 55zM1202 1157h47 l-26 -211q-18 -138 -67.5 -198t-127.5 -60q-23 0 -33 2l-2 -2q8 -39 8 -92q0 -126 -35.5 -236t-100.5 -191t-161 -128t-212 -47q-180 0 -289 109.5t-109 302.5q0 118 36.5 225.5t102 189t163.5 130t214 48.5q142 0 240 -68t133 -196q32 -4 45 -4q61 0 97.5 47t50.5 170z M492 39q204 0 333 154t129 403q0 171 -91 263.5t-253 92.5q-203 0 -336 -155.5t-133 -390.5q0 -172 95 -269.5t256 -97.5z" />
<glyph unicode="&#x1ee2;" horiz-adv-x="1654" d="M1620 1585h47l-27 -211q-18 -138 -67 -198t-127 -60q-23 0 -33 2l-2 -2q41 -112 41 -258q0 -139 -32.5 -268t-96.5 -237t-152 -188.5t-205 -125.5t-249 -45q-257 0 -410 160t-153 444q0 169 53.5 326t147.5 276t233.5 190.5t300.5 71.5q176 0 306.5 -76t197.5 -221 q27 -6 53 -6q60 0 96.5 47t50.5 170zM717 41q154 0 285 66t218 177.5t136 259.5t49 312q0 267 -138 412t-380 145q-151 0 -281 -67.5t-218 -180t-137.5 -260.5t-49.5 -307q0 -262 139 -409.5t377 -147.5zM680 -274q23 0 37 -15.5t14 -40.5q0 -23 -15 -39t-38 -16t-38 15 t-15 38q0 25 15.5 41.5t39.5 16.5z" />
<glyph unicode="&#x1ee3;" horiz-adv-x="1232" d="M1202 1157h47l-26 -211q-18 -138 -67.5 -198t-127.5 -60q-23 0 -33 2l-2 -2q8 -39 8 -92q0 -126 -35.5 -236t-100.5 -191t-161 -128t-212 -47q-180 0 -289 109.5t-109 302.5q0 118 36.5 225.5t102 189t163.5 130t214 48.5q142 0 240 -68t133 -196q32 -4 45 -4 q61 0 97.5 47t50.5 170zM492 39q204 0 333 154t129 403q0 171 -91 263.5t-253 92.5q-203 0 -336 -155.5t-133 -390.5q0 -172 95 -269.5t256 -97.5zM455 -274q23 0 37 -15.5t14 -40.5q0 -23 -15 -39t-38 -16t-38.5 15t-15.5 38q0 25 15.5 41.5t40.5 16.5z" />
<glyph unicode="&#x1ee4;" horiz-adv-x="1308" d="M1145 569q-35 -287 -178.5 -431t-380.5 -144q-207 0 -308.5 123t-101.5 340q0 39 8 125l109 872h47l-109 -874q-10 -78 -10 -121q0 -196 91 -307t276 -111q214 0 346.5 133t165.5 397l106 883h47zM547 -385q-23 0 -38 15t-15 38q0 25 15.5 41.5t39.5 16.5q23 0 37 -15.5 t14 -40.5q0 -23 -15 -39t-38 -16z" />
<glyph unicode="&#x1ee5;" horiz-adv-x="1050" d="M905 991h45l-121 -991h-45l39 313h-4q-70 -144 -183.5 -231.5t-234.5 -87.5q-154 0 -222 96t-42 305l74 596h45l-74 -594q-13 -86 -5.5 -148t23.5 -102.5t49 -64.5t69.5 -33.5t84.5 -9.5q96 0 192.5 67.5t166 183t88.5 247.5zM449 -274q23 0 37 -15.5t14 -40.5 q0 -23 -15.5 -39t-38.5 -16t-38 15t-15 38q0 25 15.5 41.5t40.5 16.5z" />
<glyph unicode="&#x1ee6;" horiz-adv-x="1308" d="M717 1831l-27 29q77 84 170 84q59 0 93 -34.5t32 -86.5q0 -14 -3 -27t-6.5 -23t-12 -22.5t-13.5 -20t-18.5 -19t-19.5 -17t-23.5 -17.5t-23 -16t-25.5 -17t-25 -16l-8 -45l-29 2q-8 16 -8 33q0 16 27 38.5t59.5 43.5t59.5 53.5t28 65.5q0 41 -27.5 60t-64.5 19 q-38 0 -75 -19t-60 -48zM1145 569q-35 -287 -178.5 -431t-380.5 -144q-207 0 -308.5 123t-101.5 340q0 39 8 125l109 872h47l-109 -874q-10 -78 -10 -121q0 -196 91 -307t276 -111q214 0 346.5 133t165.5 397l106 883h47z" />
<glyph unicode="&#x1ee7;" horiz-adv-x="1050" d="M645 1407q-38 0 -75 -19.5t-60 -48.5l-27 29q77 84 170 84q59 0 93 -34.5t32 -86.5q0 -15 -2.5 -28.5t-10 -27t-12.5 -23t-19 -22.5t-20 -19.5t-25 -19.5t-25 -17.5t-28.5 -19t-27.5 -17.5l-8 -45l-29 2q-8 16 -8 32t27 38.5t59.5 43.5t59.5 53.5t28 65.5 q0 41 -27.5 60.5t-64.5 19.5zM905 991h45l-121 -991h-45l39 313h-4q-70 -144 -183.5 -231.5t-234.5 -87.5q-154 0 -222 96t-42 305l74 596h45l-74 -594q-13 -86 -5.5 -148t23.5 -102.5t49 -64.5t69.5 -33.5t84.5 -9.5q96 0 192.5 67.5t166 183t88.5 247.5z" />
<glyph unicode="&#x1ee8;" horiz-adv-x="1411" d="M1059 1917l-262 -277h-62l260 277h64zM1440 1585h47l-27 -211q-18 -138 -67 -198t-127 -60q-33 0 -54 6l-67 -553q-35 -287 -178.5 -431t-380.5 -144q-207 0 -308.5 123t-101.5 340q0 39 8 125l109 872h47l-109 -874q-10 -78 -10 -121q0 -196 91 -307t276 -111 q214 0 346.5 133t165.5 397l106 883h47l-34 -291q32 -4 47 -4q60 0 96.5 47t50.5 170z" />
<glyph unicode="&#x1ee9;" horiz-adv-x="1153" d="M879 1425l-263 -276h-61l260 276h64zM1143 1157h47l-27 -211q-18 -138 -67 -198t-127 -60q-8 0 -56 6l-84 -694h-45l39 313h-4q-70 -144 -183.5 -231.5t-234.5 -87.5q-154 0 -222 96t-42 305l74 596h45l-74 -594q-13 -86 -5.5 -148t23.5 -102.5t49 -64.5t69.5 -33.5 t84.5 -9.5q96 0 192.5 67.5t166 183t88.5 247.5l55 454h45l-30 -256q36 -4 49 -4q60 0 96.5 47t50.5 170z" />
<glyph unicode="&#x1eea;" horiz-adv-x="1411" d="M840 1640h-58l-196 277h59zM1440 1585h47l-27 -211q-18 -138 -67 -198t-127 -60q-33 0 -54 6l-67 -553q-35 -287 -178.5 -431t-380.5 -144q-207 0 -308.5 123t-101.5 340q0 39 8 125l109 872h47l-109 -874q-10 -78 -10 -121q0 -196 91 -307t276 -111q214 0 346.5 133 t165.5 397l106 883h47l-34 -291q32 -4 47 -4q60 0 96.5 47t50.5 170z" />
<glyph unicode="&#x1eeb;" horiz-adv-x="1153" d="M655 1149h-57l-197 276h60zM1143 1157h47l-27 -211q-18 -138 -67 -198t-127 -60q-8 0 -56 6l-84 -694h-45l39 313h-4q-70 -144 -183.5 -231.5t-234.5 -87.5q-154 0 -222 96t-42 305l74 596h45l-74 -594q-13 -86 -5.5 -148t23.5 -102.5t49 -64.5t69.5 -33.5t84.5 -9.5 q96 0 192.5 67.5t166 183t88.5 247.5l55 454h45l-30 -256q36 -4 49 -4q60 0 96.5 47t50.5 170z" />
<glyph unicode="&#x1eec;" horiz-adv-x="1411" d="M852 1898q-38 0 -75 -19t-60 -48l-27 29q77 84 170 84q59 0 93 -34.5t32 -86.5q0 -14 -3 -27t-6.5 -23t-12 -22.5t-13.5 -20t-18.5 -19t-19.5 -17t-23.5 -17.5t-23 -16t-25.5 -17t-25 -16l-8 -45l-29 2q-8 16 -8 33q0 16 27 38.5t59.5 43.5t59.5 53.5t28 65.5 q0 41 -27.5 60t-64.5 19zM1440 1585h47l-27 -211q-18 -138 -67 -198t-127 -60q-33 0 -54 6l-67 -553q-35 -287 -178.5 -431t-380.5 -144q-207 0 -308.5 123t-101.5 340q0 39 8 125l109 872h47l-109 -874q-10 -78 -10 -121q0 -196 91 -307t276 -111q214 0 346.5 133 t165.5 397l106 883h47l-34 -291q32 -4 47 -4q60 0 96.5 47t50.5 170z" />
<glyph unicode="&#x1eed;" horiz-adv-x="1153" d="M645 1407q-38 0 -75 -19.5t-60 -48.5l-27 29q77 84 170 84q59 0 93 -34.5t32 -86.5q0 -15 -2.5 -28.5t-10 -27t-12.5 -23t-19 -22.5t-20 -19.5t-25 -19.5t-25 -17.5t-28.5 -19t-27.5 -17.5l-8 -45l-29 2q-8 16 -8 32t27 38.5t59.5 43.5t59.5 53.5t28 65.5 q0 41 -27.5 60.5t-64.5 19.5zM1143 1157h47l-27 -211q-18 -138 -67 -198t-127 -60q-8 0 -56 6l-84 -694h-45l39 313h-4q-70 -144 -183.5 -231.5t-234.5 -87.5q-154 0 -222 96t-42 305l74 596h45l-74 -594q-13 -86 -5.5 -148t23.5 -102.5t49 -64.5t69.5 -33.5t84.5 -9.5 q96 0 192.5 67.5t166 183t88.5 247.5l55 454h45l-30 -256q36 -4 49 -4q60 0 96.5 47t50.5 170z" />
<glyph unicode="&#x1eee;" horiz-adv-x="1411" d="M688 1823q-81 0 -135 -127l-39 16q66 156 172 156q37 0 67 -17t66 -49q4 -4 17 -15t18.5 -15.5t17 -13.5t19 -13.5t17.5 -9.5t19.5 -7t18.5 -2q35 0 69.5 32.5t59.5 96.5l37 -18q-31 -77 -75.5 -116.5t-88.5 -39.5q-28 0 -58.5 15.5t-47 29.5t-45.5 41q-67 56 -109 56z M1440 1585h47l-27 -211q-18 -138 -67 -198t-127 -60q-33 0 -54 6l-67 -553q-35 -287 -178.5 -431t-380.5 -144q-207 0 -308.5 123t-101.5 340q0 39 8 125l109 872h47l-109 -874q-10 -78 -10 -121q0 -196 91 -307t276 -111q214 0 346.5 133t165.5 397l106 883h47l-34 -291 q32 -4 47 -4q60 0 96.5 47t50.5 170z" />
<glyph unicode="&#x1eef;" horiz-adv-x="1153" d="M481 1331q-81 0 -135 -127l-39 17q65 155 172 155q61 0 133 -65q4 -4 17 -15t18.5 -15.5t17 -13.5t19 -13.5t17.5 -9.5t19.5 -7t18.5 -2q35 0 69.5 32.5t59.5 96.5l37 -18q-31 -77 -75.5 -116.5t-88.5 -39.5q-28 0 -58.5 15.5t-47 29.5t-45.5 41q-66 55 -109 55z M1143 1157h47l-27 -211q-18 -138 -67 -198t-127 -60q-8 0 -56 6l-84 -694h-45l39 313h-4q-70 -144 -183.5 -231.5t-234.5 -87.5q-154 0 -222 96t-42 305l74 596h45l-74 -594q-13 -86 -5.5 -148t23.5 -102.5t49 -64.5t69.5 -33.5t84.5 -9.5q96 0 192.5 67.5t166 183 t88.5 247.5l55 454h45l-30 -256q36 -4 49 -4q60 0 96.5 47t50.5 170z" />
<glyph unicode="&#x1ef0;" horiz-adv-x="1411" d="M1440 1585h47l-27 -211q-18 -138 -67 -198t-127 -60q-33 0 -54 6l-67 -553q-35 -287 -178.5 -431t-380.5 -144q-207 0 -308.5 123t-101.5 340q0 39 8 125l109 872h47l-109 -874q-10 -78 -10 -121q0 -196 91 -307t276 -111q214 0 346.5 133t165.5 397l106 883h47l-34 -291 q32 -4 47 -4q60 0 96.5 47t50.5 170zM549 -274q23 0 37 -15.5t14 -40.5q0 -23 -15 -39t-38 -16t-38 15t-15 38q0 25 15.5 41.5t39.5 16.5z" />
<glyph unicode="&#x1ef1;" horiz-adv-x="1153" d="M1143 1157h47l-27 -211q-18 -138 -67 -198t-127 -60q-8 0 -56 6l-84 -694h-45l39 313h-4q-70 -144 -183.5 -231.5t-234.5 -87.5q-154 0 -222 96t-42 305l74 596h45l-74 -594q-13 -86 -5.5 -148t23.5 -102.5t49 -64.5t69.5 -33.5t84.5 -9.5q96 0 192.5 67.5t166 183 t88.5 247.5l55 454h45l-30 -256q36 -4 49 -4q60 0 96.5 47t50.5 170zM449 -274q23 0 37 -15.5t14 -40.5q0 -23 -15.5 -39t-38.5 -16t-38 15t-15 38q0 25 15.5 41.5t40.5 16.5z" />
<glyph unicode="&#x1ef2;" horiz-adv-x="1036" d="M707 1640h-58l-196 277h59zM1061 1454h55l-555 -792l-80 -662h-47l80 662l-356 792h51l332 -735h4z" />
<glyph unicode="&#x1ef3;" horiz-adv-x="1042" d="M647 1149h-57l-197 276h60zM899 991h45l-104 -856q-16 -131 -50.5 -229t-79 -158t-105 -96.5t-120.5 -50t-133 -13.5q-149 0 -301 76l15 47q142 -78 290 -78q64 0 117.5 12t108.5 46t95.5 89t72.5 146t47 213l20 176h-4q-69 -145 -183 -233t-235 -88q-154 0 -222 96 t-42 305l74 596h45l-74 -594q-13 -86 -5.5 -148t23.5 -102.5t49 -64.5t69.5 -33.5t84.5 -9.5q99 0 197 70t167 189.5t85 254.5z" />
<glyph unicode="&#x1ef4;" horiz-adv-x="1036" d="M1061 1454h55l-555 -792l-80 -662h-47l80 662l-356 792h51l332 -735h4zM422 -274q23 0 37 -15.5t14 -40.5q0 -23 -15 -39t-38 -16t-38 15t-15 38q0 25 15.5 41.5t39.5 16.5z" />
<glyph unicode="&#x1ef5;" horiz-adv-x="1042" d="M899 991h45l-104 -856q-16 -131 -50.5 -229t-79 -158t-105 -96.5t-120.5 -50t-133 -13.5q-149 0 -301 76l15 47q142 -78 290 -78q64 0 117.5 12t108.5 46t95.5 89t72.5 146t47 213l20 176h-4q-69 -145 -183 -233t-235 -88q-154 0 -222 96t-42 305l74 596h45l-74 -594 q-13 -86 -5.5 -148t23.5 -102.5t49 -64.5t69.5 -33.5t84.5 -9.5q99 0 197 70t167 189.5t85 254.5zM381 -541q23 0 37 -15t14 -40q0 -23 -15 -39t-38 -16t-38 15t-15 38q0 25 15 41t40 16z" />
<glyph unicode="&#x1ef6;" horiz-adv-x="1036" d="M711 1898q-39 0 -76 -19t-60 -48l-26 29q77 84 170 84q59 0 93 -34.5t32 -86.5q0 -14 -3 -27t-6.5 -23t-12 -22.5t-13.5 -20t-18.5 -19t-19.5 -17t-23.5 -17.5t-23 -16t-25.5 -17t-25 -16l-8 -45l-29 2q-8 16 -8 33q0 16 27 38.5t59.5 43.5t59.5 53.5t28 65.5 q0 41 -27.5 60t-64.5 19zM1061 1454h55l-555 -792l-80 -662h-47l80 662l-356 792h51l332 -735h4z" />
<glyph unicode="&#x1ef7;" horiz-adv-x="1042" d="M641 1407q-38 0 -75 -19.5t-60 -48.5l-27 29q77 84 170 84q59 0 93 -34.5t32 -86.5q0 -15 -2.5 -28.5t-10 -27t-12.5 -23t-19 -22.5t-20 -19.5t-25 -19.5t-25 -17.5t-28.5 -19t-27.5 -17.5l-8 -45l-29 2q-8 16 -8 32t27 38.5t59.5 43.5t59.5 53.5t28 65.5 q0 41 -27.5 60.5t-64.5 19.5zM899 991h45l-104 -856q-16 -131 -50.5 -229t-79 -158t-105 -96.5t-120.5 -50t-133 -13.5q-149 0 -301 76l15 47q142 -78 290 -78q64 0 117.5 12t108.5 46t95.5 89t72.5 146t47 213l20 176h-4q-69 -145 -183 -233t-235 -88q-154 0 -222 96 t-42 305l74 596h45l-74 -594q-13 -86 -5.5 -148t23.5 -102.5t49 -64.5t69.5 -33.5t84.5 -9.5q99 0 197 70t167 189.5t85 254.5z" />
<glyph unicode="&#x1ef8;" horiz-adv-x="1036" d="M547 1823q-81 0 -135 -127l-39 16q66 156 172 156q37 0 67 -17t66 -49q4 -4 17 -15t18.5 -15.5t17 -13.5t19 -13.5t17.5 -9.5t19.5 -7t18.5 -2q35 0 69.5 32.5t59.5 96.5l37 -18q-31 -77 -75.5 -116.5t-88.5 -39.5q-28 0 -58.5 15t-48 29.5t-45.5 41.5q-67 56 -108 56z M1061 1454h55l-555 -792l-80 -662h-47l80 662l-356 792h51l332 -735h4z" />
<glyph unicode="&#x1ef9;" horiz-adv-x="1042" d="M477 1331q-81 0 -135 -127l-39 17q65 155 172 155q61 0 133 -65q4 -4 17 -15t18.5 -15.5t17 -13.5t19 -13.5t17.5 -9.5t19.5 -7t18.5 -2q35 0 69.5 32.5t59.5 96.5l37 -18q-31 -77 -75.5 -116.5t-88.5 -39.5q-28 0 -58.5 15.5t-47 29.5t-45.5 41q-66 55 -109 55zM899 991 h45l-104 -856q-16 -131 -50.5 -229t-79 -158t-105 -96.5t-120.5 -50t-133 -13.5q-149 0 -301 76l15 47q142 -78 290 -78q64 0 117.5 12t108.5 46t95.5 89t72.5 146t47 213l20 176h-4q-69 -145 -183 -233t-235 -88q-154 0 -222 96t-42 305l74 596h45l-74 -594 q-13 -86 -5.5 -148t23.5 -102.5t49 -64.5t69.5 -33.5t84.5 -9.5q99 0 197 70t167 189.5t85 254.5z" />
<glyph unicode="&#x2000;" horiz-adv-x="992" />
<glyph unicode="&#x2001;" horiz-adv-x="1985" />
<glyph unicode="&#x2002;" horiz-adv-x="956" />
<glyph unicode="&#x2003;" horiz-adv-x="1912" />
<glyph unicode="&#x2004;" horiz-adv-x="661" />
<glyph unicode="&#x2005;" horiz-adv-x="496" />
<glyph unicode="&#x2006;" horiz-adv-x="330" />
<glyph unicode="&#x2007;" horiz-adv-x="330" />
<glyph unicode="&#x2008;" horiz-adv-x="248" />
<glyph unicode="&#x2009;" horiz-adv-x="40" />
<glyph unicode="&#x200a;" horiz-adv-x="110" />
<glyph unicode="&#x2010;" horiz-adv-x="778" d="M670 606h-533l6 47h531z" />
<glyph unicode="&#x2011;" horiz-adv-x="778" d="M670 606h-533l6 47h531z" />
<glyph unicode="&#x2012;" horiz-adv-x="778" d="M670 606h-533l6 47h531z" />
<glyph unicode="&#x2013;" horiz-adv-x="1204" d="M1092 586h-957l4 43h957z" />
<glyph unicode="&#x2014;" horiz-adv-x="2160" d="M2048 586h-1913l4 43h1913z" />
<glyph unicode="&#x2015;" horiz-adv-x="2445" d="M2333 586h-2198l4 43h2198z" />
<glyph unicode="&#x2018;" horiz-adv-x="342" d="M246 1010h-56l134 444h43z" />
<glyph unicode="&#x2019;" horiz-adv-x="329" d="M291 1454h55l-133 -444h-43z" />
<glyph unicode="&#x201a;" horiz-adv-x="325" d="M109 184h57l-137 -446h-39z" />
<glyph unicode="&#x201c;" horiz-adv-x="499" d="M246 1010h-56l132 444h43zM403 1010h-55l133 444h43z" />
<glyph unicode="&#x201d;" horiz-adv-x="487" d="M291 1454h55l-133 -444h-43zM449 1454h55l-131 -444h-43z" />
<glyph unicode="&#x201e;" horiz-adv-x="477" d="M119 295h55l-133 -445h-43zM276 295h56l-131 -445h-43z" />
<glyph unicode="&#x2020;" horiz-adv-x="757" d="M715 1139l-199 6h-35l-28 -234l-29 -293l-33 -55l-20 55l41 293l28 234h-39l-198 -6l6 55l197 -4h36l27 211h51l-33 -211h35l199 2z" />
<glyph unicode="&#x2021;" horiz-adv-x="757" d="M389 782l23 129l28 234h-39l-198 -6l6 55l197 -4h36l27 211h51l-33 -211h35l199 2l-6 -53l-199 6h-35l-28 -234l-9 -129l-24 -129l-33 -268h37l199 6l-9 -53h-229l-20 -209h-54l29 209h-39l-199 -2l9 53l194 -4h41l33 268z" />
<glyph unicode="&#x2022;" horiz-adv-x="782" d="M414 819q72 0 121 -48.5t49 -121.5q0 -75 -51 -125.5t-127 -50.5q-72 0 -121 49.5t-49 122.5q0 74 51 124t127 50z" />
<glyph unicode="&#x2026;" horiz-adv-x="2048" d="M283 94q23 0 38 -15t15 -38q0 -25 -16 -41t-39 -16q-25 0 -39.5 15t-14.5 40q0 23 15.5 39t40.5 16zM965 94q23 0 38 -15t15 -38q0 -25 -16 -41t-39 -16q-25 0 -39.5 15t-14.5 40q0 23 15.5 39t40.5 16zM1649 94q23 0 38 -15t15 -38q0 -25 -16 -41t-39 -16 q-25 0 -39.5 15t-14.5 40q0 23 15.5 39t40.5 16z" />
<glyph unicode="&#x202f;" horiz-adv-x="397" />
<glyph unicode="&#x2030;" horiz-adv-x="2744" d="M1346 1452l-742 -1466l-41 16l742 1468zM555 1460q160 0 264.5 -100t104.5 -260q0 -183 -120 -304.5t-292 -121.5q-156 0 -258 102t-102 262q0 175 117.5 298.5t285.5 123.5zM555 1415q-150 0 -254 -110.5t-104 -266.5q0 -140 89.5 -229.5t225.5 -89.5q154 0 260.5 109.5 t106.5 271.5q0 140 -91 227.5t-233 87.5zM1380 778q160 0 264.5 -99.5t104.5 -260.5q0 -182 -120 -303t-292 -121q-156 0 -258 102t-102 262q0 174 117.5 297t285.5 123zM2263 778q160 0 264.5 -99.5t104.5 -260.5q0 -182 -120 -303t-292 -121q-156 0 -258 102t-102 262 q0 174 117.5 297t285.5 123zM1380 733q-150 0 -254 -110t-104 -265q0 -140 89 -229.5t226 -89.5q155 0 261 108.5t106 270.5q0 141 -91 228t-233 87zM2263 733q-150 0 -254 -110t-104 -265q0 -140 89.5 -229.5t225.5 -89.5q156 0 261.5 108.5t105.5 270.5q0 141 -91 228 t-233 87z" />
<glyph unicode="&#x2039;" horiz-adv-x="481" d="M311 27h-45l-186 473l301 469h45l-297 -469z" />
<glyph unicode="&#x203a;" horiz-adv-x="481" d="M57 27l297 473l-182 469h47l184 -469l-301 -473h-45z" />
<glyph unicode="&#x203d;" horiz-adv-x="790" d="M516 1516q132 0 210.5 -87.5t78.5 -218.5q0 -130 -55.5 -227t-167.5 -209q-11 -11 -41 -42t-41.5 -43t-34.5 -38t-33 -41.5t-23.5 -38.5t-20 -44t-9.5 -44l-17 -123h-38l106 922h55l-88 -653q19 27 41.5 53t62.5 67t52 54q109 114 157 200.5t48 206.5q0 123 -68.5 189.5 t-183.5 66.5q-87 0 -171 -45.5t-140 -132.5l-29 35q68 94 160 143.5t190 49.5zM315 94q23 0 38.5 -15t15.5 -38q0 -25 -16.5 -41t-39.5 -16q-25 0 -39 15t-14 40q0 24 15.5 39.5t39.5 15.5z" />
<glyph unicode="&#x2042;" horiz-adv-x="1579" d="M1053 969l-201 147l-29 -285h-43l41 285l-233 -151l-17 43l242 135l-211 135l27 41l200 -150l29 285h43l-43 -285l236 152l16 -43l-244 -135l213 -135zM600 283l-201 147l-28 -285h-43l41 285l-234 -151l-16 43l241 135l-210 135l26 41l201 -150l29 285h43l-43 -285 l235 152l16 -43l-243 -135l213 -135zM1395 283l-201 147l-29 -285h-43l41 285l-233 -151l-17 43l242 135l-211 135l27 41l200 -150l29 285h43l-43 -285l236 152l16 -43l-244 -135l213 -135z" />
<glyph unicode="&#x2044;" horiz-adv-x="401" d="M623 1452l-744 -1466l-41 16l744 1468z" />
<glyph unicode="&#x2051;" horiz-adv-x="784" d="M684 969l-201 147l-28 -285h-43l41 285l-234 -151l-16 43l241 135l-211 135l27 41l201 -150l28 285h43l-43 -285l236 152l16 -43l-243 -135l213 -135zM598 260l-203 148l-26 -285h-43l41 285l-236 -152l-16 43l241 135l-211 135l27 41l201 -147l28 285h43l-41 -285 l236 149l16 -43l-243 -135l211 -135z" />
<glyph unicode="&#x205f;" horiz-adv-x="496" />
<glyph unicode="&#x2070;" horiz-adv-x="716" d="M512 1743q116 0 186 -88t70 -248q0 -99 -24 -191.5t-67.5 -166t-112.5 -118t-152 -44.5q-118 0 -187 86.5t-69 245.5q0 135 40 252t123 194.5t193 77.5zM512 1698q-100 0 -172.5 -72.5t-105.5 -178.5t-33 -228q0 -139 57.5 -213t155.5 -74q99 0 171 72.5t105 178 t33 226.5q0 141 -57 215t-154 74z" />
<glyph unicode="&#x2074;" horiz-adv-x="663" d="M563 1094h127l-6 -43h-127l-18 -158h-43l18 158h-401l6 41l487 643h37zM520 1094l66 544l-408 -544h342z" />
<glyph unicode="&#x2075;" horiz-adv-x="626" d="M692 1692h-373l-55 -306q63 33 158 33q112 0 177 -59t65 -168q0 -137 -88.5 -221t-221.5 -84q-90 0 -153.5 39t-91.5 108l38 21q24 -59 77 -92t130 -33q115 0 189.5 71.5t74.5 190.5q0 90 -52.5 137t-151.5 47q-46 0 -92 -13.5t-76 -37.5l-35 6l74 404h413z" />
<glyph unicode="&#x2076;" horiz-adv-x="647" d="M465 1421q100 0 158.5 -60t58.5 -161q0 -130 -86 -220.5t-219 -90.5q-104 0 -168 70t-64 190q0 131 62 265t171 232t234 121v-43q-133 -26 -242 -143.5t-153 -271.5h4q45 52 109 82t135 30zM379 934q114 0 186 79t72 191q0 82 -47.5 127t-136.5 45q-79 0 -148.5 -48.5 t-107.5 -119.5q-4 -40 -4 -61q0 -101 52 -157t134 -56z" />
<glyph unicode="&#x2077;" horiz-adv-x="581" d="M190 1735h502l-4 -41l-457 -811l-45 12l451 797h-453z" />
<glyph unicode="&#x2078;" horiz-adv-x="663" d="M545 1350q60 -18 99.5 -71t39.5 -124q0 -119 -88.5 -193.5t-216.5 -74.5q-110 0 -176 57t-66 152q0 90 61 162t138 92q-41 12 -74 53.5t-33 99.5q0 106 77 173t183 67q94 0 149.5 -50t55.5 -130t-47.5 -137.5t-101.5 -71.5v-4zM274 1509q0 -64 46 -101.5t122 -37.5 q87 0 147 54.5t60 136.5q0 67 -45.5 102t-122.5 35q-88 0 -147.5 -56t-59.5 -133zM389 932q107 0 178.5 64.5t71.5 160.5q0 78 -56.5 123t-150.5 45q-104 0 -177 -65.5t-73 -161.5q0 -82 57 -124t150 -42z" />
<glyph unicode="&#x2079;" horiz-adv-x="669" d="M492 1743q102 0 166.5 -72t64.5 -190q0 -131 -62.5 -264.5t-171 -230.5t-231.5 -120l-2 43q136 27 249 154t154 285q-46 -59 -112.5 -95t-140.5 -36q-98 0 -158 57.5t-60 148.5q0 133 89 226.5t215 93.5zM410 1262q83 0 155.5 51t110.5 123q2 14 2 45q0 101 -55 159 t-136 58q-106 0 -180 -80.5t-74 -194.5q0 -73 48.5 -117t128.5 -44z" />
<glyph unicode="&#x207a;" horiz-adv-x="649" d="M672 1309l-6 -45h-222l-30 -250h-45l30 250h-227l6 45h225l31 252h45l-30 -252h223z" />
<glyph unicode="&#x207c;" horiz-adv-x="698" d="M711 1432h-494l4 45h496zM670 1087h-496l6 46h494z" />
<glyph unicode="&#x207d;" horiz-adv-x="266" d="M182 1163q0 -192 66 -383l-45 -22q-66 205 -66 397q0 189 56.5 380.5t158.5 342.5l35 -23q-97 -141 -151 -326t-54 -366z" />
<glyph unicode="&#x207e;" horiz-adv-x="268" d="M332 1477q0 -362 -205 -717l-39 18q199 334 199 686q0 218 -74 389l43 25q76 -176 76 -401z" />
<glyph unicode="&#x207f;" horiz-adv-x="647" d="M387 467q86 0 125.5 -58t24.5 -176l-50 -368h-45l50 368q25 189 -107 189q-104 0 -187 -84.5t-98 -210.5l-32 -262h-45l73 598h45l-18 -152h2q47 72 117 114t145 42z" />
<glyph unicode="&#x2080;" horiz-adv-x="716" d="M383 715q116 0 186 -88t70 -248q0 -99 -24 -191.5t-67.5 -166t-112.5 -118t-152 -44.5q-118 0 -187 86.5t-69 244.5q0 100 24 193t67.5 167.5t112.5 119.5t152 45zM383 670q-75 0 -136 -42t-98.5 -111t-57 -153t-19.5 -174q0 -139 57.5 -212.5t155.5 -73.5q99 0 171 72.5 t105 178t33 226.5q0 141 -57 215t-154 74z" />
<glyph unicode="&#x2081;" horiz-adv-x="432" d="M276 707h37l-104 -842h-43l96 776l-201 -137l-20 37z" />
<glyph unicode="&#x2082;" horiz-adv-x="616" d="M51 -86v-6h422l-6 -43h-496l6 37l340 305q82 74 126 140.5t44 148.5q0 79 -42.5 126.5t-122.5 47.5q-63 0 -127 -37.5t-99 -104.5l-35 27q39 72 112.5 116t150.5 44q91 0 149.5 -58t58.5 -157q0 -90 -47 -167t-135 -155z" />
<glyph unicode="&#x2083;" horiz-adv-x="618" d="M389 301q60 -21 91.5 -68.5t31.5 -111.5q0 -119 -80 -190.5t-201 -71.5q-97 0 -161 41.5t-88 111.5l43 17q43 -125 208 -125q105 0 169.5 59.5t64.5 157.5q0 68 -51 114t-144 46h-75l4 45h88q92 0 150.5 55.5t58.5 140.5q0 72 -45 110t-129 38q-129 0 -209 -101l-37 27 q94 119 248 119q96 0 156.5 -50t60.5 -139q0 -82 -40.5 -138t-113.5 -81v-6z" />
<glyph unicode="&#x2084;" horiz-adv-x="663" d="M434 66h127l-6 -43h-127l-18 -158h-43l18 158h-401l6 40l487 644h37zM391 66l66 544l-408 -544h342z" />
<glyph unicode="&#x2085;" horiz-adv-x="626" d="M563 664h-373l-55 -306q63 33 158 33q112 0 177 -59t65 -168q0 -137 -88.5 -221t-221.5 -84q-90 0 -153.5 39t-91.5 108l38 21q24 -59 77 -92t130 -33q115 0 189.5 71.5t74.5 190.5q0 90 -52.5 137t-151.5 47q-46 0 -92 -13.5t-76 -37.5l-35 6l74 404h413z" />
<glyph unicode="&#x2086;" horiz-adv-x="647" d="M340 393q100 0 158.5 -60t58.5 -161q0 -130 -86 -220.5t-219 -90.5q-104 0 -168 70t-64 190q0 131 62 265t171 232t234 121v-43q-133 -26 -242 -143.5t-153 -271.5h4q45 52 109 82t135 30zM254 -94q114 0 186 79t72 191q0 82 -47.5 127t-136.5 45q-79 0 -148.5 -48.5 t-107.5 -119.5q-4 -40 -4 -61q0 -101 52 -157t134 -56z" />
<glyph unicode="&#x2087;" horiz-adv-x="581" d="M63 707h502l-4 -41l-457 -811l-45 12l451 797h-453z" />
<glyph unicode="&#x2088;" horiz-adv-x="663" d="M416 322q60 -18 99.5 -71t39.5 -124q0 -119 -88.5 -193.5t-216.5 -74.5q-110 0 -176 57t-66 152q0 90 61 162t138 92q-41 12 -74 53.5t-33 99.5q0 106 77 173t183 67q94 0 149.5 -50t55.5 -130t-47.5 -137.5t-101.5 -71.5v-4zM145 481q0 -64 46 -101.5t122 -37.5 q87 0 147 54t60 136q0 67 -45.5 102.5t-122.5 35.5q-88 0 -147.5 -56t-59.5 -133zM260 -96q107 0 178.5 64.5t71.5 160.5q0 78 -56.5 123t-150.5 45q-104 0 -177 -65.5t-73 -161.5q0 -82 57 -124t150 -42z" />
<glyph unicode="&#x2089;" horiz-adv-x="669" d="M362 715q102 0 167 -72t65 -190q0 -131 -62.5 -264.5t-171 -230.5t-231.5 -120l-2 43q136 27 249 153.5t154 284.5q-46 -59 -113 -95t-141 -36q-98 0 -157.5 58t-59.5 149q0 133 88.5 226.5t214.5 93.5zM281 233q83 0 155.5 51.5t110.5 123.5q2 14 2 45q0 101 -55 159 t-136 58q-106 0 -180 -80.5t-74 -194.5q0 -73 48.5 -117.5t128.5 -44.5z" />
<glyph unicode="&#x208a;" horiz-adv-x="649" d="M545 266l-6 -45h-224l-30 -250h-45l30 250h-227l6 45h227l31 252h45l-30 -252h223z" />
<glyph unicode="&#x208b;" horiz-adv-x="649" d="M539 221h-496l6 45h496z" />
<glyph unicode="&#x208c;" horiz-adv-x="698" d="M586 406h-496l6 45h494zM543 61h-494l4 45h496z" />
<glyph unicode="&#x208d;" horiz-adv-x="272" d="M63 139q0 -192 66 -383l-45 -22q-66 205 -66 397q0 189 56.5 380.5t158.5 342.5l35 -23q-97 -141 -151 -326t-54 -366z" />
<glyph unicode="&#x208e;" horiz-adv-x="268" d="M215 451q0 -362 -205 -717l-39 18q199 334 199 686q0 218 -74 389l43 25q76 -176 76 -401z" />
<glyph unicode="&#x2090;" horiz-adv-x="681" d="M532 457h48l-74 -592h-43l18 166h-2q-43 -80 -111 -125t-149 -45q-97 0 -154 63t-57 178q0 95 35.5 175.5t109 132t171.5 51.5q57 0 111 -18t87 -50h4zM225 -92q94 0 174.5 78.5t100.5 191.5l18 158q-17 34 -69.5 57t-116.5 23q-123 0 -200 -88.5t-77 -223.5 q0 -92 44 -144t126 -52z" />
<glyph unicode="&#x2091;" horiz-adv-x="583" d="M242 -96q115 0 186 88l35 -29q-84 -104 -221 -104q-108 0 -173 65t-65 178q0 151 89 255t229 104q27 0 55 -6t58 -19.5t48.5 -42t18.5 -67.5q0 -54 -42.5 -97t-114 -69.5t-144.5 -42t-152 -23.5q3 -91 53.5 -140.5t139.5 -49.5zM322 416q-110 0 -185 -77.5t-86 -199.5 q187 19 296.5 69t109.5 118q0 41 -36 65.5t-99 24.5z" />
<glyph unicode="&#x2092;" horiz-adv-x="669" d="M332 457q105 0 168 -62.5t63 -177.5q0 -153 -84.5 -255.5t-218.5 -102.5q-108 0 -171.5 64t-63.5 181q0 145 86 249t221 104zM330 412q-112 0 -186 -87.5t-74 -218.5q0 -95 50.5 -148.5t141.5 -53.5q112 0 184 87.5t72 221.5q0 95 -48.5 147t-139.5 52z" />
<glyph unicode="&#x2093;" horiz-adv-x="546" d="M512 463l-252 -297l182 -301h-57l-158 260l-221 -260h-55l252 301l-178 297h55l153 -256h3l221 256h55z" />
<glyph unicode="&#x20ab;" horiz-adv-x="1099" d="M1151 1249l-6 -45h-119l-147 -1204h-45l38 322h-2q-68 -147 -177.5 -237.5t-252.5 -90.5q-158 0 -250 111t-92 282q0 167 63 306t182 222.5t271 83.5q95 0 183.5 -33.5t138.5 -93.5h4l41 332h-293l6 45h293l31 258h45l-31 -258h119zM440 39q92 0 174.5 48t141.5 126.5 t97.5 176t51.5 200.5l27 217q-35 57 -100 91.5t-117.5 44t-102.5 9.5q-138 0 -245.5 -78t-164.5 -206.5t-57 -282.5t77 -250t218 -96zM16 -248l7 45h847l-6 -45h-848z" />
<glyph unicode="&#x20ac;" horiz-adv-x="1087" d="M780 1341q-198 0 -345.5 -141t-205.5 -369h621l-6 -47h-627q-17 -86 -20 -192h624l-6 -47h-618q6 -244 124 -374t295 -130q187 0 345 115l22 -41q-168 -121 -369 -121q-194 0 -326 143.5t-138 407.5h-115l6 47h109q3 107 20 192h-107l7 47h110q61 250 222.5 404 t379.5 154q198 0 332 -119l-31 -37q-119 108 -303 108z" />
<glyph unicode="&#x20ba;" horiz-adv-x="1042" d="M899 319l43 -20q-148 -299 -510 -299h-272l67 551l-133 -62l-12 46l151 71l21 162l-133 -61l-15 45l154 71l72 584h47l-68 -559l338 158l15 -45l-361 -168l-18 -164l338 159l14 -45l-361 -168l-63 -528h219q121 0 211 34t147.5 90.5t108.5 147.5z" />
<glyph unicode="&#x2116;" horiz-adv-x="2017" d="M1681 856q-107 0 -171 65.5t-64 182.5q0 144 87 248t220 104q107 0 170.5 -62t63.5 -177q0 -153 -86 -257t-220 -104zM1110 92l166 1362h47l-178 -1454h-45l-750 1362h-4l-166 -1362h-47l178 1454h41l752 -1362h6zM1751 1411q-110 0 -185 -87.5t-75 -217.5 q0 -95 50.5 -149t141.5 -54q112 0 184 87t72 222q0 95 -48.5 147t-139.5 52zM1409 682l2 43h498l-2 -43h-498z" />
<glyph unicode="&#x2122;" horiz-adv-x="1234" d="M152 1411l6 43h420l-7 -43h-188l-78 -618h-45l78 618h-186zM1208 1454h45l-82 -661h-45l72 571l-278 -432h-33l-174 432l-72 -571h-43l82 661h45l184 -465z" />
<glyph unicode="&#x2190;" horiz-adv-x="1280" d="M494 217l-494 330l412 332l37 -310h733l6 -45h-733z" />
<glyph unicode="&#x2191;" horiz-adv-x="1159" d="M909 733h-307v-733h-45v733h-307l330 453z" />
<glyph unicode="&#x2192;" horiz-adv-x="1280" d="M786 217l39 307h-733l6 45h733l37 310l412 -332z" />
<glyph unicode="&#x2193;" horiz-adv-x="1159" d="M909 453l-329 -453l-330 453h307v733h45v-733h307z" />
<glyph unicode="&#x2202;" horiz-adv-x="1032" d="M938 508q-23 -112 -64.5 -203.5t-101 -162t-142 -109.5t-181.5 -39q-167 0 -268 104.5t-101 280.5q0 135 54.5 248t161 182.5t243.5 69.5t231.5 -71.5t138.5 -186.5q13 102 13 194q0 109 -14.5 200t-48.5 174.5t-100 131t-159 47.5q-70 0 -150 -26.5t-151 -75.5l-6 43 q72 52 156.5 78t158.5 26q70 0 127 -24t95.5 -67.5t66 -99t43 -124.5t22.5 -137.5t7 -143.5q0 -157 -31 -309zM455 43q173 0 283.5 132.5t156.5 352.5q-32 130 -124.5 216.5t-235.5 86.5q-118 0 -212.5 -63.5t-144 -165t-49.5 -217.5q0 -159 87.5 -250.5t238.5 -91.5z" />
<glyph unicode="&#x2206;" horiz-adv-x="1167" d="M727 1454l324 -1411l-7 -43h-32h-1000h-12l6 43l666 1411h55zM57 47h944l-307 1350h-2z" />
<glyph unicode="&#x220f;" horiz-adv-x="1255" d="M293 1454h907l-203 -1657h-47l199 1612h-815l-199 -1612h-47z" />
<glyph unicode="&#x2211;" horiz-adv-x="1077" d="M1130 1454l-6 -45h-835l329 -776l-518 -780h834l-6 -48h-891l6 43l518 785l-328 778l7 43h890z" />
<glyph unicode="&#x221a;" horiz-adv-x="1193" d="M1370 1683h49l-864 -1683h-45l-184 1022h-195l6 47h230l174 -995h6z" />
<glyph unicode="&#x221e;" horiz-adv-x="1429" d="M1081 864q107 0 177.5 -75.5t70.5 -190.5q0 -139 -94.5 -244.5t-222.5 -105.5q-90 0 -163.5 59t-133.5 197q-169 -256 -353 -256q-107 0 -178 76t-71 190q0 140 95.5 245t225.5 105q89 0 161 -59.5t132 -198.5q81 122 167.5 190t186.5 68zM362 293q77 0 157.5 61 t174.5 203q-49 123 -112 191.5t-152 68.5q-108 0 -188 -90.5t-80 -208.5q0 -97 57 -161t143 -64zM1014 293q105 0 186.5 95t81.5 206q0 96 -57.5 159.5t-141.5 63.5q-78 0 -158.5 -60.5t-174.5 -201.5q49 -123 112 -192.5t152 -69.5z" />
<glyph unicode="&#x222b;" horiz-adv-x="354" d="M440 1376h-16q-35 0 -57 -2.5t-40 -14.5t-27 -23t-18.5 -42.5t-14 -58t-13.5 -82.5l-186 -1247q-20 -115 -44 -169.5t-71 -70.5q-39 -10 -117 -10v41h17q34 0 57 3.5t40 15t27 25t18.5 41.5t13.5 55.5t13 75.5q1 5 1 7l188 1241q16 117 40.5 174t72.5 70q41 10 116 10 v-39z" />
<glyph unicode="&#x2236;" horiz-adv-x="352" d="M246 1126q23 0 38 -15t15 -38q0 -25 -16 -41t-39 -16q-25 0 -39.5 15t-14.5 40q0 23 16 39t40 16zM135 213q23 0 38 -15t15 -38q0 -25 -16 -41.5t-39 -16.5q-24 0 -38.5 15.5t-14.5 40.5q0 24 15.5 39.5t39.5 15.5z" />
<glyph unicode="&#x2248;" horiz-adv-x="1132" d="M805 743q43 0 85.5 19t62.5 35t59 51l12 -39q-54 -52 -106 -81.5t-119 -29.5t-187 49.5t-188 49.5q-74 0 -138 -26t-98 -54l-12 39q121 88 254 88q56 0 109.5 -16t88.5 -34.5t82.5 -34.5t94.5 -16zM752 305q42 0 84 19t63 35.5t59 50.5l13 -39q-54 -53 -106.5 -82 t-121.5 -29q-67 0 -186 49t-188 49q-74 0 -137 -25.5t-97 -53.5l-12 36q42 33 109 62t145 29q56 0 109.5 -16t88.5 -34.5t82.5 -34.5t94.5 -16z" />
<glyph unicode="&#x2260;" horiz-adv-x="1048" d="M989 772h-330l-223 -414h510l-6 -45h-528l-158 -293l-39 19l150 274h-273l6 45h289l225 414h-471l6 45h490l158 293l36 -18l-147 -275h311z" />
<glyph unicode="&#x2264;" horiz-adv-x="1062" d="M883 324l-6 -52l-742 433l4 30l846 432l-6 -51l-772 -397zM45 0l6 43h801l-6 -43h-801z" />
<glyph unicode="&#x2265;" horiz-adv-x="1081" d="M164 324l772 395l-676 397l6 49l742 -430l-4 -33l-846 -430zM920 -2h-799l6 45h799z" />
<glyph unicode="&#x25ca;" horiz-adv-x="800" d="M113 692l393 694l229 -694l-395 -692zM348 102l334 590l-186 590l-328 -590z" />
<glyph unicode="&#x25fc;" horiz-adv-x="993" d="M0 993h993v-993h-993v993z" />
<glyph unicode="&#x2780;" horiz-adv-x="1564" d="M885 1448q138 0 259 -50.5t207.5 -138.5t136.5 -210t50 -261q0 -162 -64 -312.5t-172 -260.5t-259.5 -176t-317.5 -66q-183 0 -331.5 85.5t-233 236.5t-84.5 336q0 161 66.5 312t176.5 261.5t259 177t307 66.5zM725 18q155 0 297 61.5t245 165t164.5 246t61.5 297.5 q0 173 -79 313.5t-218.5 221t-310.5 80.5q-150 0 -291 -63t-244.5 -168t-166 -247.5t-62.5 -293.5q0 -173 78.5 -313.5t216.5 -220t309 -79.5zM631 969l235 166h37l-104 -842h-43l96 776l-201 -137z" />
<glyph unicode="&#x2781;" horiz-adv-x="1564" d="M885 1448q138 0 259 -50.5t207.5 -138.5t136.5 -210t50 -261q0 -162 -64 -312.5t-172 -260.5t-259.5 -176t-317.5 -66q-183 0 -331.5 85.5t-233 236.5t-84.5 336q0 161 66.5 312t176.5 261.5t259 177t307 66.5zM725 18q155 0 297 61.5t245 165t164.5 246t61.5 297.5 q0 173 -79 313.5t-218.5 221t-310.5 80.5q-150 0 -291 -63t-244.5 -168t-166 -247.5t-62.5 -293.5q0 -173 78.5 -313.5t216.5 -220t309 -79.5zM887 606l-299 -264v-6h422l-6 -43h-496l6 37l340 305q82 74 126 140.5t44 148.5q0 79 -43 126.5t-123 47.5q-63 0 -126.5 -37.5 t-98.5 -104.5l-35 27q40 72 112.5 116t149.5 44q91 0 150 -58t59 -157q0 -90 -47 -167t-135 -155z" />
<glyph unicode="&#x2782;" horiz-adv-x="1564" d="M885 1448q138 0 259 -50.5t207.5 -138.5t136.5 -210t50 -261q0 -162 -64 -312.5t-172 -260.5t-259.5 -176t-317.5 -66q-183 0 -331.5 85.5t-233 236.5t-84.5 336q0 161 66.5 312t176.5 261.5t259 177t307 66.5zM725 18q155 0 297 61.5t245 165t164.5 246t61.5 297.5 q0 173 -79 313.5t-218.5 221t-310.5 80.5q-150 0 -291 -63t-244.5 -168t-166 -247.5t-62.5 -293.5q0 -173 78.5 -313.5t216.5 -220t309 -79.5zM1085 954q0 -82 -40 -138t-113 -81v-6q60 -21 91.5 -68.5t31.5 -111.5q0 -119 -80 -190.5t-201 -71.5q-97 0 -161.5 41.5 t-88.5 111.5l43 17q43 -125 209 -125q105 0 169.5 59.5t64.5 157.5q0 68 -51 114t-144 46h-76l4 45h88q92 0 150.5 55.5t58.5 140.5q0 72 -45 110t-129 38q-129 0 -209 -101l-36 27q93 119 247 119q96 0 156.5 -50t60.5 -139z" />
<glyph unicode="&#x2783;" horiz-adv-x="1564" d="M885 1448q138 0 259 -50.5t207.5 -138.5t136.5 -210t50 -261q0 -162 -64 -312.5t-172 -260.5t-259.5 -176t-317.5 -66q-183 0 -331.5 85.5t-233 236.5t-84.5 336q0 161 66.5 312t176.5 261.5t259 177t307 66.5zM725 18q155 0 297 61.5t245 165t164.5 246t61.5 297.5 q0 173 -79 313.5t-218.5 221t-310.5 80.5q-150 0 -291 -63t-244.5 -168t-166 -247.5t-62.5 -293.5q0 -173 78.5 -313.5t216.5 -220t309 -79.5zM993 1135l-80 -641h127l-6 -43h-127l-18 -158h-43l18 158h-401l6 41l487 643h37zM870 494l66 544l-408 -544h342z" />
<glyph unicode="&#x2784;" horiz-adv-x="1564" d="M885 1448q138 0 259 -50.5t207.5 -138.5t136.5 -210t50 -261q0 -162 -64 -312.5t-172 -260.5t-259.5 -176t-317.5 -66q-183 0 -331.5 85.5t-233 236.5t-84.5 336q0 161 66.5 312t176.5 261.5t259 177t307 66.5zM725 18q155 0 297 61.5t245 165t164.5 246t61.5 297.5 q0 173 -79 313.5t-218.5 221t-310.5 80.5q-150 0 -291 -63t-244.5 -168t-166 -247.5t-62.5 -293.5q0 -173 78.5 -313.5t216.5 -220t309 -79.5zM608 731l74 404h414l-6 -43h-373l-55 -306q63 33 157 33q112 0 177 -59t65 -168q0 -137 -88 -221t-221 -84q-91 0 -154.5 39 t-91.5 108l39 21q24 -59 77 -92t130 -33q115 0 189.5 71.5t74.5 190.5q0 90 -53 137t-152 47q-46 0 -92 -13.5t-76 -37.5z" />
<glyph unicode="&#x2785;" horiz-adv-x="1564" d="M885 1448q138 0 259 -50.5t207.5 -138.5t136.5 -210t50 -261q0 -162 -64 -312.5t-172 -260.5t-259.5 -176t-317.5 -66q-183 0 -331.5 85.5t-233 236.5t-84.5 336q0 161 66.5 312t176.5 261.5t259 177t307 66.5zM725 18q155 0 297 61.5t245 165t164.5 246t61.5 297.5 q0 173 -79 313.5t-218.5 221t-310.5 80.5q-150 0 -291 -63t-244.5 -168t-166 -247.5t-62.5 -293.5q0 -173 78.5 -313.5t216.5 -220t309 -79.5zM825 819q100 0 158.5 -60t58.5 -161q0 -130 -86 -220.5t-219 -90.5q-104 0 -167.5 70t-63.5 190q0 131 62 265t171 232t234 121 v-43q-133 -26 -242 -143.5t-153 -271.5h4q45 52 108.5 82t134.5 30zM739 332q114 0 186 79t72 191q0 82 -47.5 127t-136.5 45q-79 0 -148.5 -48.5t-107.5 -119.5q-4 -40 -4 -61q0 -101 52 -157t134 -56z" />
<glyph unicode="&#x2786;" horiz-adv-x="1564" d="M885 1448q138 0 259 -50.5t207.5 -138.5t136.5 -210t50 -261q0 -162 -64 -312.5t-172 -260.5t-259.5 -176t-317.5 -66q-183 0 -331.5 85.5t-233 236.5t-84.5 336q0 161 66.5 312t176.5 261.5t259 177t307 66.5zM725 18q155 0 297 61.5t245 165t164.5 246t61.5 297.5 q0 173 -79 313.5t-218.5 221t-310.5 80.5q-150 0 -291 -63t-244.5 -168t-166 -247.5t-62.5 -293.5q0 -173 78.5 -313.5t216.5 -220t309 -79.5zM616 1092l7 43h501l-4 -41l-456 -811l-46 12l451 797h-453z" />
<glyph unicode="&#x2787;" horiz-adv-x="1564" d="M885 1448q138 0 259 -50.5t207.5 -138.5t136.5 -210t50 -261q0 -162 -64 -312.5t-172 -260.5t-259.5 -176t-317.5 -66q-183 0 -331.5 85.5t-233 236.5t-84.5 336q0 161 66.5 312t176.5 261.5t259 177t307 66.5zM725 18q155 0 297 61.5t245 165t164.5 246t61.5 297.5 q0 173 -79 313.5t-218.5 221t-310.5 80.5q-150 0 -291 -63t-244.5 -168t-166 -247.5t-62.5 -293.5q0 -173 78.5 -313.5t216.5 -220t309 -79.5zM1067 963q0 -80 -47.5 -137.5t-101.5 -71.5v-4q60 -18 99.5 -71t39.5 -124q0 -119 -88.5 -193.5t-216.5 -74.5q-110 0 -176 57 t-66 152q0 90 61 162t138 92q-41 12 -74 53.5t-33 99.5q0 106 77 173t183 67q94 0 149.5 -50t55.5 -130zM647 909q0 -64 46 -101.5t122 -37.5q87 0 147 54.5t60 136.5q0 67 -45.5 102t-122.5 35q-88 0 -147.5 -56t-59.5 -133zM1012 557q0 78 -56.5 123t-150.5 45 q-104 0 -177 -65.5t-73 -161.5q0 -82 57 -124t150 -42q107 0 178.5 64.5t71.5 160.5z" />
<glyph unicode="&#x2788;" horiz-adv-x="1564" d="M885 1448q138 0 259 -50.5t207.5 -138.5t136.5 -210t50 -261q0 -162 -64 -312.5t-172 -260.5t-259.5 -176t-317.5 -66q-183 0 -331.5 85.5t-233 236.5t-84.5 336q0 161 66.5 312t176.5 261.5t259 177t307 66.5zM725 18q155 0 297 61.5t245 165t164.5 246t61.5 297.5 q0 173 -79 313.5t-218.5 221t-310.5 80.5q-150 0 -291 -63t-244.5 -168t-166 -247.5t-62.5 -293.5q0 -173 78.5 -313.5t216.5 -220t309 -79.5zM866 1143q102 0 167 -72t65 -190q0 -131 -62.5 -264.5t-171 -230.5t-231.5 -120l-2 43q136 27 249 154t154 285 q-46 -59 -113 -95.5t-141 -36.5q-98 0 -157.5 58t-59.5 149q0 133 88.5 226.5t214.5 93.5zM1051 836q2 14 2 45q0 101 -55 159t-136 58q-106 0 -180 -80.5t-74 -194.5q0 -73 48 -117t128 -44q83 0 156 51.5t111 122.5z" />
<glyph unicode="&#x278a;" horiz-adv-x="1564" d="M725 -27q-183 0 -331.5 85.5t-233 236.5t-84.5 336q0 161 66.5 312t176.5 261.5t259 177t307 66.5q138 0 259 -50.5t207.5 -138.5t136.5 -210t50 -261q0 -162 -64 -312.5t-172 -260.5t-259.5 -176t-317.5 -66zM866 1135l-235 -166l20 -37l201 139l-96 -778h45l102 842 h-37z" />
</font>
</defs>
</svg>
