<?xml version="1.0" standalone="no"?>
<!DOCTYPE svg PUBLIC "-//W3C//DTD SVG 1.1//EN" "http://www.w3.org/Graphics/SVG/1.1/DTD/svg11.dtd" >
<svg xmlns="http://www.w3.org/2000/svg">
<metadata></metadata>
<defs>
<font id="avertathin_italic" horiz-adv-x="944" >
<font-face units-per-em="2048" ascent="1581" descent="-467" />
<missing-glyph horiz-adv-x="475" />
<glyph horiz-adv-x="0" />
<glyph horiz-adv-x="682" />
<glyph unicode=" "  horiz-adv-x="475" />
<glyph unicode="&#x09;" horiz-adv-x="475" />
<glyph unicode="&#xa0;" horiz-adv-x="475" />
<glyph unicode="!" horiz-adv-x="425" d="M182 381l127 1126h78l-151 -1126h-54zM180 127q31 0 52.5 -22t21.5 -54q0 -31 -23 -52.5t-55 -21.5q-31 0 -50.5 20.5t-19.5 51.5q0 33 21 55.5t53 22.5z" />
<glyph unicode="&#x22;" horiz-adv-x="526" d="M283 1454h79l-139 -455h-59zM465 1454h80l-139 -455h-62z" />
<glyph unicode="#" horiz-adv-x="1157" d="M965 1343h59l-119 -454h248l-6 -60h-258l-96 -372h270l-8 -62h-279l-117 -450h-59l119 450h-342l-119 -450h-57l116 450h-235l8 62h244l96 372h-258l6 60h268l117 454h62l-119 -454h342zM831 829h-342l-98 -372h344z" />
<glyph unicode="$" horiz-adv-x="1050" d="M580 727q157 -85 216 -130q131 -104 132 -232q0 -168 -115 -269.5t-301 -101.5h-6l-29 -250h-61l28 254q-104 13 -200 67.5t-156 145.5l57 51q64 -101 161 -150t206 -49q154 0 248 81.5t94 213.5q0 38 -16 73t-37.5 60t-63.5 55t-72.5 48t-86.5 49q-6 3 -9.5 5t-9 5 t-10.5 6q-45 25 -68 38t-64 39t-63 44.5t-51 48t-43.5 56.5t-25.5 63t-11 74q0 150 108.5 244t280.5 96l33 260h62l-31 -264q85 -11 164 -51t137 -103l-55 -53q-59 68 -140.5 104.5t-167.5 36.5q-136 0 -225.5 -72.5t-89.5 -191.5q0 -30 8.5 -57.5t19 -48.5t35 -45t39.5 -38 t52 -37.5t53 -32.5t60 -34q9 -5 14 -8z" />
<glyph unicode="%" horiz-adv-x="1884" d="M1368 1448l-743 -1466l-60 24l744 1467zM559 1460q159 0 264 -100.5t105 -261.5q0 -182 -121 -304t-293 -122q-157 0 -259.5 102.5t-102.5 263.5q0 175 118.5 298.5t288.5 123.5zM557 1399q-142 0 -242 -105.5t-100 -255.5q0 -135 85.5 -220t215.5 -85q146 0 246 104.5 t100 260.5q0 134 -85.5 217.5t-219.5 83.5zM1405 780q160 0 264.5 -100t104.5 -260q0 -92 -33 -172t-88.5 -136t-131 -88t-159.5 -32q-158 0 -261.5 102.5t-103.5 263.5q0 175 119 298.5t289 123.5zM1405 719q-144 0 -243 -105.5t-99 -255.5q0 -134 84.5 -219.5t214.5 -85.5 q147 0 246.5 104.5t99.5 260.5q0 134 -85 217.5t-218 83.5z" />
<glyph unicode="&#x26;" horiz-adv-x="1462" d="M1444 856l-6 -65h-361q-8 -132 -36 -249t-80.5 -218.5t-125.5 -174.5t-175.5 -115t-225.5 -42q-158 0 -254 96t-96 256q0 163 86.5 293t220.5 184q-60 35 -97.5 96.5t-37.5 143.5q0 168 114.5 284.5t295.5 116.5q138 0 219.5 -70.5t97.5 -185.5l-65 -22 q-11 98 -75.5 155.5t-176.5 57.5q-155 0 -246.5 -96t-91.5 -242q0 -81 48.5 -142t123.5 -61h944zM440 59q168 0 294 93.5t195.5 257.5t82.5 381h-486q-92 0 -178 -61.5t-139 -164t-53 -215.5q0 -130 75 -210.5t209 -80.5z" />
<glyph unicode="'" horiz-adv-x="346" d="M283 1454h79l-139 -455h-59z" />
<glyph unicode="(" horiz-adv-x="479" d="M205 348q0 -296 94 -604l-63 -29q-99 313 -99 621q0 307 86 612.5t244 552.5l49 -26q-150 -243 -230.5 -537.5t-80.5 -589.5z" />
<glyph unicode=")" horiz-adv-x="481" d="M369 872q0 -589 -318 -1155l-53 25q303 552 303 1120q0 338 -98 611l59 32q107 -271 107 -633z" />
<glyph unicode="*" horiz-adv-x="782" d="M682 958l-195 146l-26 -279h-58l41 279l-225 -148l-22 54l233 129l-205 133l35 51l195 -145l26 276h58l-43 -276l227 145l22 -51l-235 -131l205 -131z" />
<glyph unicode="+" horiz-adv-x="1110" d="M983 532h-389l-55 -440h-66l53 440h-393l8 66h394l55 442h65l-55 -442h391z" />
<glyph unicode="," horiz-adv-x="344" d="M100 193h80l-141 -455h-57z" />
<glyph unicode="-" horiz-adv-x="776" d="M668 596h-535l8 70h535z" />
<glyph unicode="." horiz-adv-x="385" d="M139 127q31 0 52.5 -22t21.5 -54q0 -31 -23 -52.5t-55 -21.5q-30 0 -49.5 20.5t-19.5 51.5q0 33 20.5 55.5t52.5 22.5z" />
<glyph unicode="/" horiz-adv-x="690" d="M840 1507l-926 -1740l-53 26l927 1743z" />
<glyph unicode="0" horiz-adv-x="1161" d="M700 1415q170 0 271.5 -134t101.5 -398q0 -132 -20.5 -258.5t-65.5 -241.5t-109.5 -201.5t-159 -138t-206.5 -51.5q-167 0 -272 134.5t-105 393.5q0 131 21.5 258t68 242.5t111.5 203t159 139.5t205 52zM696 1346q-97 0 -179 -49t-138 -130.5t-95 -189.5t-57 -223.5 t-18 -233.5q0 -226 86 -342.5t219 -116.5q83 0 155 34t125 94t94 138.5t66 171.5t37.5 189.5t12.5 194.5q0 233 -84 348t-224 115z" />
<glyph unicode="1" horiz-adv-x="651" d="M494 1407h63l-172 -1407h-72l160 1305l-309 -236l-37 59z" />
<glyph unicode="2" horiz-adv-x="929" d="M131 78l-2 -10h657l-8 -68h-770l6 59l500 484q301 286 301 528q0 124 -66.5 199.5t-183.5 75.5q-104 0 -203 -66.5t-149 -177.5l-57 39q59 123 172.5 198.5t242.5 75.5q144 0 231 -96t87 -244q0 -266 -318 -573z" />
<glyph unicode="3" horiz-adv-x="954" d="M649 733q95 -34 145 -110t50 -185q0 -199 -126.5 -322.5t-324.5 -123.5q-152 0 -249.5 72t-127.5 192l68 27q26 -102 104.5 -162t204.5 -60q170 0 274.5 107t104.5 278q0 117 -73 186.5t-216 69.5h-127l9 66h131q149 0 240 96t91 246q0 113 -70 174.5t-188 61.5 q-207 0 -342 -177l-57 39q159 207 403 207q146 0 236 -77t90 -222q0 -136 -67.5 -236.5t-182.5 -142.5v-4z" />
<glyph unicode="4" horiz-adv-x="1011" d="M741 332h197l-10 -68h-195l-33 -264h-71l33 264h-639l8 62l778 1081h63zM672 332l112 930l-667 -930h555z" />
<glyph unicode="5" horiz-adv-x="1009" d="M973 1339h-580l-88 -518q108 58 250 58q169 0 267 -94.5t98 -272.5q0 -226 -140 -373t-356 -147q-133 0 -233.5 70.5t-137.5 185.5l64 31q34 -101 114.5 -159.5t192.5 -58.5q187 0 304.5 128t117.5 321q0 147 -79.5 224t-223.5 77q-70 0 -149.5 -23t-123.5 -63l-51 10 l117 672h645z" />
<glyph unicode="6" horiz-adv-x="1073" d="M641 870q152 0 244 -98.5t92 -257.5q0 -221 -142 -370.5t-346 -149.5q-172 0 -273 114.5t-101 305.5q0 166 56 337t152.5 314t237 247.5t299.5 137.5l6 -68q-156 -35 -290.5 -141t-224 -251t-132.5 -312l2 -2q73 92 184 143t236 51zM492 61q168 0 289.5 131t121.5 322 q0 131 -75 209t-207 78q-145 0 -259 -78.5t-172 -204.5q-4 -62 -4 -92q0 -165 81.5 -265t224.5 -100z" />
<glyph unicode="7" horiz-adv-x="907" d="M174 1407h780l-8 -64l-721 -1361l-67 22l706 1335h-698z" />
<glyph unicode="8" horiz-adv-x="1069" d="M735 762q102 -30 161.5 -111.5t59.5 -197.5q0 -204 -140.5 -331.5t-356.5 -127.5q-178 0 -278.5 90.5t-100.5 243.5q0 149 85 268t230 164v2q-71 24 -119.5 88t-48.5 162q0 177 119.5 290t304.5 113q149 0 237.5 -80.5t88.5 -212.5q0 -119 -68.5 -221t-173.5 -137v-2z M297 1022q0 -112 72.5 -169.5t199.5 -57.5q139 0 237.5 89t98.5 226q0 115 -71 176.5t-197 61.5q-145 0 -242.5 -94.5t-97.5 -231.5zM471 61q175 0 293.5 111t118.5 274q0 137 -85.5 208t-230.5 71q-183 0 -299 -111t-116 -272q0 -132 87.5 -206.5t231.5 -74.5z" />
<glyph unicode="9" horiz-adv-x="1079" d="M653 1415q168 0 265.5 -111t97.5 -319q0 -259 -101 -480.5t-273 -364.5t-386 -189l-6 65q256 61 442 266t236 494l-2 2q-78 -112 -194 -180t-257 -68q-149 0 -236 96.5t-87 252.5q0 146 63.5 268t179 195t258.5 73zM485 600q133 0 253.5 77t203.5 230q2 25 2 76 q-3 182 -80.5 272.5t-212.5 90.5q-183 0 -305.5 -133t-122.5 -320q0 -134 66.5 -213.5t195.5 -79.5z" />
<glyph unicode=":" horiz-adv-x="376" d="M244 1018q31 0 52 -22t21 -54q0 -31 -22.5 -52.5t-54.5 -21.5q-31 0 -50.5 20.5t-19.5 51.5q0 33 21 55.5t53 22.5zM135 127q31 0 52.5 -22t21.5 -54q0 -31 -23 -52.5t-55 -21.5q-31 0 -50.5 20.5t-19.5 51.5q0 33 21 55.5t53 22.5z" />
<glyph unicode=";" horiz-adv-x="376" d="M238 1018q31 0 52 -22t21 -54q0 -31 -23 -52.5t-55 -21.5q-30 0 -49.5 20.5t-19.5 51.5q0 33 21 55.5t53 22.5zM111 193h79l-141 -455h-57z" />
<glyph unicode="&#x3c;" horiz-adv-x="1064" d="M872 197l-8 -72l-749 428l6 49l854 430l-8 -74l-748 -380z" />
<glyph unicode="=" horiz-adv-x="1075" d="M1018 762h-852l8 65h852zM967 303h-852l8 66h852z" />
<glyph unicode="&#x3e;" horiz-adv-x="1058" d="M117 197l745 381l-651 380l6 74l750 -430l-6 -49l-855 -428z" />
<glyph unicode="?" horiz-adv-x="800" d="M207 1276l-45 47q67 95 161.5 144t196.5 49q134 0 213.5 -86.5t79.5 -229.5q0 -85 -33 -165t-75 -134t-113 -127q-9 -9 -40 -40.5t-40.5 -41.5t-33.5 -36t-33 -40.5t-22.5 -37t-20 -42.5t-9.5 -42l-18 -121h-62l15 119q3 27 10 51.5t23 51.5t25 43t35.5 46t35 39.5t43 45 t41.5 42.5q50 53 82 92t61 87t42 99.5t13 110.5q0 120 -63.5 183t-169.5 63q-88 0 -166.5 -44.5t-132.5 -125.5zM324 127q31 0 52 -22t21 -54q0 -31 -23 -52.5t-55 -21.5q-30 0 -49.5 20.5t-19.5 51.5q0 33 21 55.5t53 22.5z" />
<glyph unicode="@" horiz-adv-x="1837" d="M1004 1333q214 0 380.5 -88t260.5 -252.5t94 -380.5q0 -71 -14 -142t-46 -140t-78 -121.5t-115.5 -84.5t-152.5 -32q-86 0 -127.5 63.5t-31.5 178.5h-5q-65 -99 -161.5 -158t-206.5 -59q-136 0 -216.5 87.5t-80.5 246.5q0 100 30 190t85.5 159.5t142 110.5t192.5 41 q86 0 162.5 -26.5t118.5 -73.5h6l8 94h70l-72 -575q-6 -64 -5.5 -112t27 -75.5t83.5 -27.5q78 0 142 42t102 109.5t58.5 145.5t20.5 157q0 300 -185.5 482t-485.5 182q-123 0 -232 -27t-192 -74t-151.5 -111t-115.5 -136.5t-79.5 -153t-47 -158.5t-14.5 -153 q0 -193 85.5 -346.5t235 -238.5t336.5 -85q265 0 463 109l35 -50q-208 -120 -498 -120q-204 0 -368 92.5t-257 259.5t-93 379q0 75 14.5 155.5t47.5 166t81.5 164.5t121.5 150t162.5 123t209 82.5t256.5 30.5zM817 182q131 0 248.5 119t140.5 283l25 194q-44 52 -120.5 79.5 t-149.5 27.5q-91 0 -165.5 -35.5t-122 -95.5t-73 -137t-25.5 -162q0 -127 60.5 -200t181.5 -73z" />
<glyph unicode="A" horiz-adv-x="1212" d="M1018 0l-94 418h-654q-33 -69 -97 -208.5t-97 -209.5h-78l682 1454h80l332 -1454h-74zM301 485h608l-196 873h-6z" />
<glyph unicode="B" horiz-adv-x="1183" d="M815 760q109 -25 173.5 -97t64.5 -196q0 -209 -146 -338t-370 -129h-406l178 1454h420q152 0 246 -68t94 -215q0 -130 -66.5 -242t-185.5 -157zM373 1386l-74 -595h342q156 0 255 107.5t99 266.5q0 108 -67 164.5t-215 56.5h-340zM532 70q189 0 318 107t129 282 q0 134 -84.5 199t-255.5 65h-346l-80 -653h319z" />
<glyph unicode="C" horiz-adv-x="1370" d="M1221 233q-99 -110 -236.5 -175.5t-282.5 -65.5q-251 0 -400.5 165t-149.5 449q0 167 54.5 323t149 273.5t232 188.5t293.5 71q304 0 495 -311l-61 -41q-89 151 -193 217t-239 66q-142 0 -267 -66.5t-209.5 -175.5t-133 -251t-48.5 -292q0 -253 129.5 -399t352.5 -146 q120 0 241.5 55.5t216.5 160.5z" />
<glyph unicode="D" horiz-adv-x="1355" d="M485 0h-354l178 1454h373q279 0 430.5 -157t151.5 -435q0 -250 -97 -446t-275 -306t-407 -110zM487 70q206 0 366.5 102.5t248.5 282t88 405.5q0 249 -132 387.5t-380 138.5h-303l-162 -1316h274z" />
<glyph unicode="E" horiz-adv-x="1095" d="M948 70l-8 -70h-809l178 1454h770l-8 -68h-696l-78 -624h584l-9 -70h-583l-76 -622h735z" />
<glyph unicode="F" horiz-adv-x="1058" d="M375 1386l-78 -632h629l-6 -70h-631l-84 -684h-74l178 1454h805l-8 -68h-731z" />
<glyph unicode="G" horiz-adv-x="1441" d="M1305 709l-66 -527q-100 -93 -239.5 -141.5t-282.5 -48.5q-263 0 -414 163.5t-151 446.5q0 169 54 325.5t148 274.5t232.5 189t296.5 71q283 0 467 -225l-58 -49q-169 205 -407 205q-115 0 -218.5 -42t-182.5 -116.5t-137.5 -173.5t-89 -216.5t-30.5 -240.5 q0 -253 130 -398t364 -145q122 0 241 41.5t209 116.5l54 420h-467l8 70h539z" />
<glyph unicode="H" horiz-adv-x="1345" d="M1270 1454l-176 -1454h-72l80 651h-817l-80 -651h-74l178 1454h72l-88 -733h817l88 733h72z" />
<glyph unicode="I" horiz-adv-x="483" d="M217 0h-72l179 1454h71z" />
<glyph unicode="J" horiz-adv-x="901" d="M68 240q51 -83 122 -130t142 -47q278 0 323 379l125 1012h74l-127 -1016q-26 -228 -124.5 -337t-272.5 -109q-85 0 -171 50.5t-141 141.5z" />
<glyph unicode="K" horiz-adv-x="1187" d="M1204 1454l-612 -682l444 -772h-88l-409 709h-4l-283 -314l-47 -395h-74l178 1454h72l-115 -940h6l840 940h92z" />
<glyph unicode="L" horiz-adv-x="1013" d="M918 70l-9 -70h-778l178 1454h72l-168 -1384h705z" />
<glyph unicode="M" horiz-adv-x="1636" d="M1489 1454h74l-179 -1454h-71l157 1294h-4l-641 -981h-55l-403 990h-5l-157 -1303h-74l178 1454h74l422 -1042h6z" />
<glyph unicode="N" horiz-adv-x="1409" d="M1260 1454h71l-176 -1454h-74l-712 1317h-2l-162 -1317h-74l178 1454h70l715 -1319h4z" />
<glyph unicode="O" horiz-adv-x="1548" d="M889 1462q259 0 413 -158t154 -446q0 -174 -52.5 -331.5t-146.5 -276t-234.5 -188.5t-305.5 -70q-259 0 -413 160.5t-154 445.5q0 169 54 326t148.5 276t234.5 190.5t302 71.5zM719 63q148 0 273.5 64t209.5 172.5t131 252.5t47 304q0 257 -132 397t-363 140 q-116 0 -221 -42.5t-184 -118t-137.5 -175.5t-89 -217.5t-30.5 -241.5q0 -254 133 -394.5t363 -140.5z" />
<glyph unicode="P" horiz-adv-x="1126" d="M748 1454q178 0 270 -90.5t92 -253.5q0 -226 -133 -363t-363 -137h-335l-74 -610h-74l178 1454h439zM623 680q192 0 301.5 118t109.5 312q0 142 -81.5 209t-217.5 67h-362l-86 -706h336z" />
<glyph unicode="Q" horiz-adv-x="1570" d="M1456 858q0 -185 -58.5 -350t-166.5 -287l160 -178l-54 -53l-157 178q-195 -176 -463 -176q-259 0 -413 160.5t-154 445.5q0 169 54 326t148.5 276t234.5 190.5t302 71.5q259 0 413 -158t154 -446zM719 63q237 0 411 160l-163 185l51 53l164 -185q95 110 146.5 260.5 t51.5 319.5q0 257 -132 397t-363 140q-116 0 -221 -42.5t-184 -118t-137.5 -175.5t-89 -217.5t-30.5 -241.5q0 -254 133 -394.5t363 -140.5z" />
<glyph unicode="R" horiz-adv-x="1189" d="M696 614l-2 -4l307 -610h-86l-305 610h-331l-74 -610h-74l178 1454h439q178 0 270 -90.5t92 -253.5q0 -203 -110 -337.5t-304 -158.5zM373 1386l-86 -706h336q193 0 303 118.5t110 311.5q0 142 -81.5 209t-217.5 67h-364z" />
<glyph unicode="S" horiz-adv-x="1083" d="M584 778q164 -90 225 -136q145 -116 147 -253q0 -181 -123.5 -289t-320.5 -108q-131 0 -255 59.5t-200 173.5l58 51q70 -109 175 -162t222 -53q162 0 265.5 89t103.5 235q0 52 -20.5 94.5t-73.5 84.5t-87.5 63.5t-118.5 68.5q-20 11 -30 17q-45 25 -64 35.5t-60 35 t-61 40.5t-51 42t-47 49t-33.5 53t-24.5 63t-7 69q0 161 117 261.5t305 100.5q108 0 209.5 -44.5t173.5 -123.5l-56 -51q-64 73 -151.5 111.5t-179.5 38.5q-149 0 -247 -79.5t-98 -207.5q0 -57 23 -104.5t70.5 -87t91 -66.5t113.5 -65q7 -3 10 -5z" />
<glyph unicode="T" horiz-adv-x="1026" d="M1081 1386h-424l-170 -1386h-71l170 1386h-420l6 68h918z" />
<glyph unicode="U" horiz-adv-x="1316" d="M1155 573q-35 -291 -179 -436t-384 -145q-211 0 -314.5 124t-103.5 345q0 39 8 125l107 868h73l-106 -870q-10 -56 -10 -119q0 -189 85.5 -295.5t262.5 -106.5q206 0 332.5 127.5t158.5 384.5l107 879h72z" />
<glyph unicode="V" horiz-adv-x="1196" d="M1174 1454h79l-678 -1454h-69l-324 1454h76l293 -1335h6z" />
<glyph unicode="W" horiz-adv-x="1859" d="M1829 1454h78l-602 -1454h-78l-193 1335h-4l-516 -1335h-80l-246 1454h76l221 -1325h7l509 1325h89l188 -1325h6z" />
<glyph unicode="X" horiz-adv-x="1161" d="M1208 1454l-553 -731l373 -723h-84l-340 659h-2l-504 -659h-86l551 725l-375 729h82l342 -666h4l502 666h90z" />
<glyph unicode="Y" horiz-adv-x="1052" d="M1051 1454h86l-553 -795l-82 -659h-72l82 659l-356 795h77l318 -715h6z" />
<glyph unicode="Z" horiz-adv-x="1130" d="M1098 1389l-934 -1309l-2 -10h782l-8 -70h-877l9 63l940 1319v4h-734l9 68h823z" />
<glyph unicode="[" horiz-adv-x="534" d="M346 1425l-205 -1654h224l-9 -60h-282l217 1774h282l-6 -60h-221z" />
<glyph unicode="\" horiz-adv-x="694" d="M98 1507l60 29l501 -1743l-59 -26z" />
<glyph unicode="]" horiz-adv-x="534" d="M418 1425h-223l8 60h284l-219 -1774h-282l6 60h221z" />
<glyph unicode="^" horiz-adv-x="884" d="M207 1024l319 430h66l215 -430h-76l-178 371l-272 -371h-74z" />
<glyph unicode="_" horiz-adv-x="937" d="M881 -117h-971l6 60h971z" />
<glyph unicode="`" horiz-adv-x="964" d="M492 1399l190 -281h-80l-196 281h86z" />
<glyph unicode="a" horiz-adv-x="1093" d="M936 993h68l-121 -993h-68l35 285h-4q-70 -132 -175.5 -212.5t-234.5 -80.5q-159 0 -250.5 111.5t-91.5 283.5q0 166 62.5 305.5t181.5 224t270 84.5q91 0 175 -30.5t135 -87.5h4zM442 57q108 0 203.5 72.5t155.5 186.5t82 247l30 236q-51 74 -139.5 105.5t-167.5 31.5 q-130 0 -232 -76.5t-155 -201.5t-53 -273q0 -146 72 -237t204 -91z" />
<glyph unicode="b" horiz-adv-x="1120" d="M682 1001q168 0 256 -113.5t88 -301.5q0 -117 -36.5 -224t-103 -189.5t-169 -131.5t-225.5 -49q-225 0 -371 100l174 1415h67l-96 -788h4q71 129 177 205.5t235 76.5zM492 57q106 0 195 44t147.5 118t91 170.5t32.5 202.5q0 158 -71 251t-211 93q-114 0 -211.5 -75.5 t-157 -192.5t-80.5 -254l-32 -291q118 -66 297 -66z" />
<glyph unicode="c" horiz-adv-x="974" d="M459 -8q-150 0 -258.5 109t-108.5 296q0 164 62 300.5t182.5 220t277.5 83.5q96 0 183 -40t141 -119l-57 -43q-45 69 -116 103t-153 34q-134 0 -238 -74.5t-158 -196t-54 -266.5q0 -150 87 -245t216 -95q214 0 338 150l53 -39q-74 -91 -170 -134.5t-227 -43.5z" />
<glyph unicode="d" horiz-adv-x="1116" d="M1001 1507h68l-182 -1507h-70l37 287h-4q-69 -133 -175.5 -214t-238.5 -81q-159 0 -250.5 111.5t-91.5 283.5q0 166 62.5 305.5t181.5 224t270 84.5q90 0 174.5 -31t135.5 -87h8zM442 57q83 0 159.5 42.5t133.5 114.5t97 163.5t57 191.5l26 228q-48 75 -137.5 107 t-171.5 32q-130 0 -232 -76.5t-155 -201.5t-53 -273q0 -146 72 -237t204 -91z" />
<glyph unicode="e" d="M479 59q172 0 303 150l54 -39q-148 -178 -359 -178q-173 0 -279 110.5t-106 300.5q0 162 64.5 298.5t183 218t266.5 81.5q42 0 88 -11t93.5 -35.5t78.5 -72.5t31 -112q0 -63 -32 -117.5t-89.5 -94t-128 -70.5t-156.5 -52.5t-165 -35t-164 -21.5q7 -149 93 -234.5 t224 -85.5zM604 936q-179 0 -303.5 -140.5t-136.5 -351.5q90 8 175 22.5t176 41t158 61t110.5 85.5t43.5 112q0 49 -23 84.5t-60 53t-71.5 25t-68.5 7.5z" />
<glyph unicode="f" horiz-adv-x="587" d="M705 1401q-62 49 -158 49q-163 0 -193 -246l-24 -211h299l-8 -63h-299l-115 -930h-68l115 930h-123l6 63h123l29 228q35 295 256 295q106 0 180 -50z" />
<glyph unicode="g" horiz-adv-x="1095" d="M936 993h68l-107 -860q-16 -131 -50.5 -228t-81.5 -157.5t-112 -97t-133 -50.5t-153 -14q-170 0 -324 80l23 68q141 -80 305 -80q74 0 132.5 11.5t115 44t96.5 85.5t71 140t45 204l21 178h-2q-69 -130 -177 -212t-239 -82q-158 0 -249 111t-91 284q0 152 62.5 284 t181.5 215.5t268 83.5q91 0 174.5 -30.5t134.5 -87.5h7zM442 88q108 0 203.5 72t156 180.5t83.5 230.5l26 230q-51 73 -138.5 104t-166.5 31q-129 0 -232 -75.5t-156.5 -193.5t-53.5 -251q0 -146 72.5 -237t205.5 -91z" />
<glyph unicode="h" horiz-adv-x="1093" d="M711 1001q299 0 247 -403l-79 -598h-68l78 594q11 100 5 166t-35.5 105t-67.5 55t-91 16q-149 0 -290.5 -142t-176.5 -337l-55 -457h-67l184 1507h67l-98 -802h4q80 135 200 215.5t243 80.5z" />
<glyph unicode="i" horiz-adv-x="430" d="M317 1370q31 0 52.5 -21t21.5 -53q0 -31 -23 -53t-55 -22q-31 0 -50 20.5t-19 52.5q0 34 20.5 55t52.5 21zM242 993h67l-121 -993h-67z" />
<glyph unicode="j" horiz-adv-x="348" d="M266 1370q31 0 52.5 -21t21.5 -53q0 -31 -23 -53t-55 -22q-31 0 -50 20.5t-19 52.5q0 34 20.5 55t52.5 21zM-219 -315q46 -33 102 -33q68 0 111 47t59 178l135 1116h70l-137 -1122q-19 -145 -74 -215t-162 -70q-65 0 -121 33z" />
<glyph unicode="k" horiz-adv-x="958" d="M680 258q37 -85 62.5 -128t45.5 -58.5t50 -20.5l-21 -59q-13 0 -33 4q-22 5 -41.5 19.5t-32.5 28.5t-30.5 47.5t-26.5 52.5t-29 66q-7 15 -10 23l-88 203h-4q-155 -133 -317 -213l-29 -223h-67l184 1507h67l-145 -1204h2q221 120 396 311.5t235 378.5h70 q-73 -259 -338 -506z" />
<glyph unicode="l" horiz-adv-x="415" d="M305 1507h68l-185 -1507h-67z" />
<glyph unicode="m" horiz-adv-x="1667" d="M1300 1001q295 0 240 -403l-80 -598h-67l77 594q47 342 -180 342q-88 0 -177.5 -68.5t-155 -188t-83.5 -257.5l-55 -422h-67l77 594q12 80 7 138.5t-18.5 97.5t-40 62.5t-57 33.5t-69.5 10q-65 0 -135.5 -41t-129.5 -109t-102 -163.5t-55 -196.5l-53 -426h-67l120 993h70 l-35 -278h2q73 131 180.5 208.5t215.5 77.5q243 0 243 -284h6q71 131 175.5 207.5t213.5 76.5z" />
<glyph unicode="n" horiz-adv-x="1093" d="M711 1001q297 0 245 -403l-77 -598h-68l78 594q12 80 6.5 138.5t-20 97.5t-42.5 62.5t-60 33.5t-73 10q-101 0 -203.5 -68.5t-177 -187.5t-90.5 -254l-53 -426h-67l120 993h70l-35 -286h4q79 135 199.5 214.5t243.5 79.5z" />
<glyph unicode="o" horiz-adv-x="1097" d="M608 1001q182 0 289 -105.5t107 -297.5q0 -170 -60.5 -306.5t-178.5 -218t-273 -81.5q-183 0 -291.5 109.5t-108.5 304.5q0 119 36.5 227t102 189.5t163.5 130t214 48.5zM608 936q-194 0 -320 -151t-126 -375q0 -165 89.5 -259t242.5 -94q194 0 318 149.5t124 387.5 q0 164 -88 253t-240 89z" />
<glyph unicode="p" horiz-adv-x="1118" d="M684 1001q159 0 250.5 -111.5t91.5 -283.5q0 -167 -62.5 -306t-181.5 -223.5t-272 -84.5q-93 0 -178.5 31.5t-136.5 89.5h-5l-63 -519h-68l170 1399h70l-35 -282h4q70 132 177 211t239 79zM508 57q132 0 235.5 76t158 201t54.5 274q0 145 -73 236.5t-207 91.5 q-116 0 -215.5 -79.5t-159 -202t-76.5 -263.5l-22 -192q32 -52 92 -86t112 -45t101 -11z" />
<glyph unicode="q" horiz-adv-x="1101" d="M936 993h68l-170 -1399h-68l84 693h-4q-69 -132 -175 -213.5t-235 -81.5q-159 0 -250.5 111.5t-91.5 283.5q0 166 62.5 305.5t181.5 224t270 84.5q91 0 175 -30.5t135 -87.5h4zM442 57q108 0 203.5 72.5t155.5 186.5t82 247l30 236q-51 74 -139.5 105.5t-167.5 31.5 q-130 0 -232 -76.5t-155 -201.5t-53 -273q0 -146 72 -237t204 -91z" />
<glyph unicode="r" horiz-adv-x="577" d="M268 721q119 229 350 280l-10 -86q-150 -26 -253 -160t-126 -329l-53 -426h-67l120 993h70l-33 -272h2z" />
<glyph unicode="s" horiz-adv-x="808" d="M74 184q118 -127 282 -127q118 0 192.5 55t74.5 150q0 43 -18 76t-55.5 58.5t-72.5 42.5t-90 39q-12 5 -18 7q-43 19 -71.5 33.5t-63 38t-54.5 48t-33.5 60t-13.5 76.5q0 117 89.5 188.5t213.5 71.5q174 0 281 -120l-45 -50q-53 59 -110 82t-132 23q-96 0 -161.5 -54 t-65.5 -143q0 -35 15.5 -64.5t46 -53t62.5 -40.5t79 -36q5 -2 39.5 -17t42 -19t38 -18.5t39.5 -21.5t33 -23t32.5 -27t24 -29.5t21 -35.5t11 -39.5t5.5 -46.5q0 -89 -47.5 -152.5t-122 -93.5t-166.5 -30q-201 0 -329 143z" />
<glyph unicode="t" horiz-adv-x="673" d="M522 131l13 -70q-101 -69 -218 -69q-107 0 -144 71t-21 201l81 666h-120l8 63h121l43 353l67 10l-43 -363h340l-6 -63h-342l-80 -662q-6 -62 -2.5 -108t31.5 -73.5t82 -27.5q96 0 190 72z" />
<glyph unicode="u" horiz-adv-x="1056" d="M893 993h68l-121 -993h-68l35 281h-4q-72 -131 -180.5 -210t-223.5 -79q-156 0 -224 96t-42 307l76 598h67l-73 -596q-12 -80 -5 -139t22.5 -97.5t45.5 -61.5t64.5 -32.5t79.5 -9.5q93 0 187 68t161 184.5t82 247.5z" />
<glyph unicode="v" horiz-adv-x="968" d="M379 -8q-147 0 -209 101.5t-35 324.5l72 575h67l-71 -573q-12 -87 -7 -149.5t18 -104t40 -65.5t57.5 -34t71.5 -10q73 0 149 46.5t140 127t109 201.5t55 258q11 140 -17 303h74q23 -160 14 -280q-10 -147 -49 -270t-94 -204.5t-122.5 -138.5t-133.5 -82.5t-129 -25.5z " />
<glyph unicode="w" horiz-adv-x="1386" d="M1311 993q25 -170 12 -301q-12 -141 -46.5 -259.5t-80.5 -198t-102.5 -135.5t-112 -81.5t-109.5 -25.5q-196 0 -219 225h-4q-53 -108 -134.5 -166.5t-158.5 -58.5q-273 0 -221 414l72 587h67l-71 -583q-44 -353 164 -353q102 0 188 117t109 285l65 534h68l-74 -594 q-39 -342 158 -342q83 0 164.5 84.5t138.5 234t69 324.5q11 124 -14 293h72z" />
<glyph unicode="x" horiz-adv-x="897" d="M893 993l-401 -495l280 -498h-82l-246 434h-6l-348 -434h-82l400 498l-281 495h82l244 -438h4l350 438h86z" />
<glyph unicode="y" horiz-adv-x="1050" d="M889 993h67l-104 -860q-16 -130 -51 -228t-81 -157.5t-107 -97t-122.5 -51t-134.5 -13.5q-153 0 -307 80l23 66q142 -78 288 -78q63 0 114.5 11.5t104 44t91.5 85.5t69.5 140t44.5 204l17 142h-4q-72 -131 -180.5 -210t-225.5 -79q-154 0 -222 96t-42 307l74 598h67 l-71 -596q-10 -101 -3 -166.5t38.5 -104t71.5 -53.5t97 -16q69 0 141.5 39.5t132 105t102.5 156t57 187.5z" />
<glyph unicode="z" horiz-adv-x="847" d="M815 936l-711 -866v-7q187 0 273.5 -1.5t186 -12t161.5 -31.5l-18 -63q-103 31 -239.5 38t-463.5 7l8 59l711 869v2h-582l9 63h673z" />
<glyph unicode="{" horiz-adv-x="577" d="M520 1485h66l-6 -58h-54q-57 0 -98.5 -40.5t-48.5 -106.5l-64 -506q-10 -89 -36.5 -131t-94.5 -55l-2 -4q63 -14 81 -58t7 -133l-57 -450q-10 -96 16.5 -136t92.5 -40h53l-6 -56h-64q-76 0 -122 52.5t-36 140.5l64 502q5 26 2.5 51t-11 45t-37.5 34.5t-77 18.5l6 61 q40 4 69 15t45 24t26 34.5t13.5 37.5t6.5 43l65 522q9 83 63.5 138t137.5 55z" />
<glyph unicode="|" horiz-adv-x="534" d="M358 1509h66l-215 -1745h-64z" />
<glyph unicode="}" horiz-adv-x="579" d="M391 768q-3 -29 -3.5 -44t4 -37t17 -33.5t38.5 -22.5t65 -15l-4 -61q-50 -4 -82 -18t-48 -38.5t-21.5 -44t-10.5 -53.5l-59 -499q-12 -89 -69.5 -140t-135.5 -51h-66l9 56h51q67 0 104 41.5t49 136.5l56 452q11 91 38 132.5t97 54.5v4q-64 13 -81.5 56.5t-6.5 131.5 l61 508q9 66 -21.5 104.5t-88.5 38.5h-56l6 58h66q83 0 125 -56.5t33 -138.5z" />
<glyph unicode="~" horiz-adv-x="1044" d="M141 500q84 168 219 168q34 0 69 -10.5t54.5 -21t51.5 -30.5q9 -6 30.5 -19t31 -18t27 -14t28.5 -13t26.5 -7t30.5 -3q46 0 88 31t69 92l54 -22q-38 -82 -95 -125t-116 -43q-19 0 -39 4t-33.5 8t-34 14.5t-28 15t-28.5 17.5t-24 15q-95 61 -160 61q-101 0 -169 -123z" />
<glyph unicode="&#xa1;" horiz-adv-x="413" d="M252 866q-31 0 -52.5 22t-21.5 54q0 31 23 52.5t55 21.5q31 0 50.5 -20.5t19.5 -51.5q0 -33 -21 -55.5t-53 -22.5zM250 612l-127 -1126h-78l152 1126h53z" />
<glyph unicode="&#xa2;" horiz-adv-x="989" d="M651 1047q-135 0 -239.5 -74t-158.5 -195.5t-54 -267.5q0 -149 86.5 -244.5t214.5 -95.5q214 0 340 152l53 -41q-128 -155 -332 -175l-29 -233h-59l29 231h-8q-71 0 -136 27t-116.5 77t-82 128.5t-30.5 173.5q0 158 59 291t173.5 218t263.5 93l32 250h58l-31 -252 q87 -5 163.5 -44.5t127.5 -111.5l-57 -43q-45 69 -115.5 102.5t-151.5 33.5z" />
<glyph unicode="&#xa3;" horiz-adv-x="1032" d="M965 1163q-72 178 -246 178q-131 0 -218 -96t-112 -303l-14 -125h323l-8 -61h-323l-84 -686h649l-10 -70h-885l8 70h166l84 686h-129l8 61h127l18 135q16 126 54.5 218.5t93.5 143t116 74t132 23.5q106 0 182.5 -53.5t118.5 -149.5z" />
<glyph unicode="&#xa4;" horiz-adv-x="921" d="M786 1038q58 -80 58 -198q0 -87 -32 -166.5t-91 -138.5l121 -150l-43 -41l-119 154q-105 -78 -234 -78q-132 0 -213 78l-155 -152l-35 41l156 152q-54 79 -54 186q0 183 115 311l-121 154l45 41l119 -154q102 86 236 86q131 0 213 -82l153 152l35 -41zM207 727 q0 -114 65 -180t177 -66q140 0 235.5 103t95.5 252q0 121 -67 193.5t-178 72.5q-138 0 -233 -108.5t-95 -266.5z" />
<glyph unicode="&#xa5;" horiz-adv-x="980" d="M1061 1407l-379 -586h223l-8 -57h-252l-100 -154l-4 -28h333l-8 -60h-331l-66 -522h-74l66 522h-342l8 60h340l4 28l-61 154h-260l6 57h231l-235 586h81l283 -719l463 719h82z" />
<glyph unicode="&#xa6;" horiz-adv-x="534" d="M358 1509h66l-88 -718h-66zM236 492h63l-88 -725h-66z" />
<glyph unicode="&#xa7;" horiz-adv-x="968" d="M551 836q147 -63 196 -96q98 -67 108 -172q1 -14 1 -29q0 -104 -60 -179.5t-161 -119.5q67 -40 99 -91t32 -131q0 -148 -104.5 -238.5t-272.5 -90.5q-112 0 -203.5 44.5t-146.5 135.5l49 49q42 -80 124 -120t181 -40q133 0 216 68.5t83 183.5q0 33 -6.5 59.5t-23.5 49 t-34.5 39.5t-52 37t-62.5 34t-79 37q-45 21 -65 31t-57 29t-54 31t-42.5 31.5t-37.5 37t-25.5 40t-18.5 48t-5 55.5q0 98 58.5 177t158.5 116q-115 78 -115 211q0 142 102 234t247 92q89 0 174.5 -35t138.5 -92l-51 -51q-45 53 -117 80.5t-143 27.5q-115 0 -197 -69 t-82 -179q0 -29 7.5 -54.5t17 -44t31.5 -38t36.5 -30.5t48 -28t50 -24.5t57.5 -25.5zM569 276q100 36 158.5 99.5t58.5 154.5q0 47 -15 81.5t-55.5 63t-71 43.5t-101.5 45l-7.5 3t-6.5 3t-7 3q-67 29 -102 47q-98 -20 -158.5 -88t-60.5 -156q0 -35 12 -63.5t29 -49.5t55 -45 t71.5 -41.5t96.5 -47.5z" />
<glyph unicode="&#xa8;" horiz-adv-x="946" d="M426 1343q31 0 52.5 -20.5t21.5 -52.5q0 -31 -22.5 -53.5t-55.5 -22.5q-30 0 -50 21t-20 53q0 33 21.5 54t52.5 21zM713 1343q31 0 51 -20.5t20 -52.5q0 -31 -21.5 -53.5t-53.5 -22.5q-31 0 -50.5 21t-19.5 53q0 34 20.5 54.5t53.5 20.5z" />
<glyph unicode="&#xa9;" horiz-adv-x="1374" d="M688 1247q163 0 299 -80.5t213.5 -217.5t77.5 -298q0 -159 -78 -296t-215 -218.5t-299 -81.5q-163 0 -299.5 81t-214.5 218t-78 297t78.5 297t215.5 218t300 81zM1219 651q0 107 -41.5 206t-112 171.5t-169.5 116t-208 43.5q-146 0 -269 -73t-193 -196.5t-70 -267.5 q0 -145 69.5 -268t191.5 -195.5t269 -72.5q146 0 269.5 73t193.5 196t70 267zM705 373q131 0 210 102l46 -37q-101 -123 -256 -123q-141 0 -234.5 87.5t-93.5 242.5q0 147 87 242.5t241 95.5t256 -125l-46 -37q-83 105 -210 105q-129 0 -200 -77.5t-71 -203.5 q0 -128 76.5 -200t194.5 -72z" />
<glyph unicode="&#xaa;" horiz-adv-x="741" d="M682 1407h59l-73 -594h-58l17 143h-6q-45 -68 -109 -106.5t-137 -38.5q-96 0 -152.5 62.5t-56.5 177.5q0 149 85.5 254.5t227.5 105.5q57 0 109 -17.5t82 -47.5h4zM385 870q95 0 173.5 82.5t90.5 202.5l17 125q-20 32 -70.5 53t-108.5 21q-116 0 -189 -85.5t-73 -215.5 q0 -85 42 -134t118 -49z" />
<glyph unicode="&#xab;" horiz-adv-x="780" d="M332 31h-68l-184 469l299 467h67l-294 -467zM616 31h-65l-184 469l297 467h67l-293 -467z" />
<glyph unicode="&#xac;" horiz-adv-x="1087" d="M932 373h-66l39 315h-741l6 66h809z" />
<glyph unicode="&#xad;" horiz-adv-x="776" d="M668 596h-535l8 70h535z" />
<glyph unicode="&#xae;" horiz-adv-x="1376" d="M688 1247q123 0 233 -47.5t188.5 -128t124.5 -190.5t46 -230q0 -159 -78 -296t-215.5 -218.5t-300.5 -81.5t-299.5 81t-214.5 218t-78 297t78.5 297t215.5 218t300 81zM686 115q146 0 270 73t194.5 196t70.5 267q0 108 -41.5 207.5t-112 172t-169.5 116t-208 43.5 q-147 0 -270.5 -73.5t-193.5 -197.5t-70 -268q0 -145 69.5 -268t191.5 -195.5t269 -72.5zM922 795q0 -85 -46 -132.5t-126 -58.5l198 -280h-67l-197 276h-135v-276h-57v663h221q104 0 156.5 -53t52.5 -139zM549 932v-277h149q89 0 126.5 40t37.5 102q0 63 -39 99t-108 36 h-166z" />
<glyph unicode="&#xaf;" horiz-adv-x="897" d="M297 1296h500l-11 -63h-499z" />
<glyph unicode="&#xb0;" horiz-adv-x="759" d="M496 1462q99 0 162 -64t63 -171q0 -124 -83 -213.5t-210 -89.5q-102 0 -161.5 61t-59.5 160q0 132 83 224.5t206 92.5zM494 1405q-95 0 -161.5 -74.5t-66.5 -183.5q0 -76 44.5 -120t121.5 -44q97 0 163.5 70.5t66.5 173.5q0 80 -46 129t-122 49z" />
<glyph unicode="&#xb1;" horiz-adv-x="1085" d="M1001 733h-389l-55 -440h-65l53 440h-393l8 66h393l55 442h66l-56 -442h392zM909 -2h-852l9 65h852z" />
<glyph unicode="&#xb2;" horiz-adv-x="618" d="M211 958v-6h399l-8 -59h-502l6 49l330 299q81 74 123.5 138t42.5 141q0 75 -39.5 118t-111.5 43q-60 0 -121 -35.5t-94 -99.5l-48 39q40 71 114 114.5t153 43.5q93 0 152 -58t59 -157q0 -90 -46 -166t-133 -156z" />
<glyph unicode="&#xb3;" horiz-adv-x="622" d="M528 1329q58 -23 88.5 -69.5t30.5 -110.5q0 -119 -81 -191.5t-204 -72.5q-98 0 -163 43.5t-88 115.5l59 23q40 -121 192 -121q99 0 159.5 57t60.5 148q0 66 -47.5 109t-133.5 43h-75l8 57h82q87 0 142.5 53t55.5 133q0 65 -42.5 100t-118.5 35q-124 0 -197 -96l-51 35 q88 123 250 123q98 0 159.5 -50t61.5 -139q0 -161 -148 -221v-4z" />
<glyph unicode="&#xb4;" horiz-adv-x="964" d="M692 1399h88l-264 -281h-82z" />
<glyph unicode="&#xb5;" horiz-adv-x="1095" d="M1006 70l16 -60q-46 -18 -98 -18q-51 0 -83.5 18.5t-45.5 50t-16.5 73.5t3.5 89h-4q-64 -114 -157.5 -172.5t-196.5 -58.5q-184 0 -240 170h-2q-18 -212 -18 -215l-45 -353h-68l172 1399h70l-80 -651q-4 -79 12.5 -136.5t48 -88.5t69 -45.5t83.5 -14.5q133 0 244 115 t145 324l62 497h67l-90 -743q-6 -57 -6.5 -100t22.5 -68t72 -25q23 0 64 13z" />
<glyph unicode="&#xb6;" horiz-adv-x="747" d="M442 1296h209l-196 -1599h-60l191 1540h-107l-151 -1237h-60l105 827q-92 2 -150.5 52.5t-58.5 140.5q0 115 76 195.5t202 80.5z" />
<glyph unicode="&#xb7;" horiz-adv-x="358" d="M205 559q31 0 52.5 -22t21.5 -54q0 -31 -23 -52t-55 -21q-31 0 -50.5 20t-19.5 51q0 33 21 55.5t53 22.5z" />
<glyph unicode="&#xb8;" horiz-adv-x="659" d="M236 -74q139 -13 139 -125q0 -76 -56.5 -128t-140.5 -52q-45 0 -84 17l6 51q38 -15 78 -15q50 0 93.5 33.5t43.5 93.5q0 74 -143 80l8 47l45 84h58l-50 -84z" />
<glyph unicode="&#xb9;" horiz-adv-x="446" d="M410 1735h51l-105 -842h-63l94 756l-190 -133l-29 51z" />
<glyph unicode="&#xba;" horiz-adv-x="724" d="M473 1411q108 0 173 -62.5t65 -179.5q0 -151 -85.5 -254.5t-222.5 -103.5q-109 0 -173 64.5t-64 181.5q0 94 37.5 174.5t108.5 130t161 49.5zM471 1354q-103 0 -173.5 -84t-70.5 -207q0 -91 48 -142t133 -51q104 0 172.5 83.5t68.5 211.5q0 91 -47 140t-131 49z" />
<glyph unicode="&#xbb;" horiz-adv-x="780" d="M49 31l295 469l-178 467h65l185 -467l-299 -469h-68zM336 31l295 469l-180 467h67l184 -467l-299 -469h-67z" />
<glyph unicode="&#xbc;" horiz-adv-x="1337" d="M1004 1473l57 -25l-744 -1466l-59 24zM258 612l94 756l-190 -133l-29 51l242 168h51l-104 -842h-64zM1133 213h122l-8 -59h-123l-18 -154h-64l19 154h-387l6 51l479 637h51zM1069 213l61 496l-368 -496h307z" />
<glyph unicode="&#xbd;" horiz-adv-x="1404" d="M1004 1473l57 -25l-744 -1466l-59 24zM258 612l94 756l-190 -133l-29 51l242 168h51l-104 -842h-64zM885 66v-7h399l-8 -59h-502l6 49l330 299q81 74 123.5 138t42.5 141q0 75 -39.5 118t-112.5 43q-60 0 -121 -35.5t-94 -99.5l-47 39q40 71 113.5 114.5t152.5 43.5 q93 0 152 -58t59 -157q0 -90 -45.5 -166t-132.5 -156z" />
<glyph unicode="&#xbe;" horiz-adv-x="1486" d="M1153 1473l57 -25l-743 -1466l-59 24zM612 868q0 -119 -80.5 -191.5t-203.5 -72.5q-98 0 -163.5 44t-88.5 116l59 22q39 -120 193 -120q99 0 159 56.5t60 147.5q0 66 -47 109t-133 43h-76l8 57h82q87 0 143 53.5t56 133.5q0 65 -43 100t-119 35q-124 0 -197 -96l-51 34 q88 123 250 123q98 0 159.5 -50t61.5 -138q0 -162 -147 -221v-4q118 -47 118 -181zM1280 213h123l-8 -59h-123l-19 -154h-63l18 154h-387l6 51l480 637h51zM1217 213l61 496l-369 -496h308z" />
<glyph unicode="&#xbf;" horiz-adv-x="735" d="M498 864q-31 0 -52.5 22t-21.5 54q0 31 23 52.5t55 21.5q30 0 49.5 -20.5t19.5 -51.5q0 -33 -20.5 -55.5t-52.5 -22.5zM614 -285q-54 -81 -132.5 -125.5t-166.5 -44.5q-106 0 -169.5 63t-63.5 183q0 112 48 196.5t151 192.5q8 9 36.5 37.5t37.5 38.5t32 36t32.5 39.5 t25.5 37.5t23.5 42t15 41.5t10.5 47.5l14 118h-62l-18 -120q-3 -22 -9 -42t-20.5 -43t-22.5 -36.5t-33 -41t-33 -36t-41.5 -42t-39.5 -40.5q-71 -73 -113 -127t-75 -134t-33 -165q0 -143 79.5 -229t213.5 -86q103 0 197 49t161 143z" />
<glyph unicode="&#xc0;" horiz-adv-x="1212" d="M778 1634h-80l-196 281h86zM1018 0l-94 418h-654q-33 -69 -97 -208.5t-97 -209.5h-78l682 1454h80l332 -1454h-74zM301 485h608l-196 873h-6z" />
<glyph unicode="&#xc1;" horiz-adv-x="1212" d="M1079 1915l-264 -281h-82l258 281h88zM1018 0l-94 418h-654q-33 -69 -97 -208.5t-97 -209.5h-78l682 1454h80l332 -1454h-74zM301 485h608l-196 873h-6z" />
<glyph unicode="&#xc2;" horiz-adv-x="1212" d="M776 1868l-209 -234h-80l258 283h68l195 -283h-78l-152 234h-2zM1018 0l-94 418h-654q-33 -69 -97 -208.5t-97 -209.5h-78l682 1454h80l332 -1454h-74zM301 485h608l-196 873h-6z" />
<glyph unicode="&#xc3;" horiz-adv-x="1212" d="M641 1808q-80 0 -135 -125l-51 23q70 166 182 166q27 0 53 -11t41 -22t41 -33q27 -24 40.5 -35.5t37.5 -23.5t45 -12q36 0 69.5 31.5t57.5 93.5l51 -23q-32 -82 -78.5 -124t-95.5 -42q-13 0 -25.5 2t-25.5 8.5t-21.5 10.5t-22.5 15t-18.5 14t-20 17t-17.5 15 q-62 55 -107 55zM1018 0l-94 418h-654q-33 -69 -97 -208.5t-97 -209.5h-78l682 1454h80l332 -1454h-74zM301 485h608l-196 873h-6z" />
<glyph unicode="&#xc4;" horiz-adv-x="1212" d="M618 1710q-29 0 -49 21t-20 53q0 33 21.5 54.5t52.5 21.5t52 -21t21 -53q0 -31 -22.5 -53.5t-55.5 -22.5zM905 1710q-31 0 -50 21t-19 53q0 34 20.5 55t52.5 21q31 0 51.5 -21t20.5 -53q0 -31 -22 -53.5t-54 -22.5zM1018 0l-94 418h-654q-33 -69 -97 -208.5t-97 -209.5 h-78l682 1454h80l332 -1454h-74zM301 485h608l-196 873h-6z" />
<glyph unicode="&#xc5;" horiz-adv-x="1212" d="M758 1624q-66 0 -111 44t-45 110q0 69 46 113t116 44q67 0 111.5 -42.5t44.5 -108.5q0 -69 -46.5 -114.5t-115.5 -45.5zM762 1878q-45 0 -74 -28t-29 -72q0 -43 28 -71t71 -28q46 0 75 29.5t29 73.5q0 43 -28 69.5t-72 26.5zM1018 0l-94 418h-654q-33 -69 -97 -208.5 t-97 -209.5h-78l682 1454h80l332 -1454h-74zM301 485h608l-196 873h-6z" />
<glyph unicode="&#xc6;" horiz-adv-x="1699" d="M1677 1386h-698l-78 -626h592l-8 -70h-592l-78 -620h737l-8 -70h-807l51 418h-491l-264 -418h-84l925 1454h812zM797 485l108 887h-4l-561 -887h457z" />
<glyph unicode="&#xc7;" horiz-adv-x="1370" d="M883 1393q-142 0 -267 -66.5t-209.5 -175.5t-133 -251t-48.5 -292q0 -253 129.5 -399t352.5 -146q120 0 241.5 55.5t216.5 160.5l56 -46q-99 -110 -236.5 -175.5t-282.5 -65.5h-6l-37 -64l3 -2q139 -13 139 -125q0 -76 -56.5 -128t-140.5 -52q-45 0 -84 17l6 51 q38 -15 78 -15q50 0 93.5 33.5t43.5 93.5q0 74 -143 80l8 47l27 52l-2 16q-220 23 -349.5 185.5t-129.5 424.5q0 167 54.5 323t149 273.5t232 188.5t293.5 71q304 0 495 -311l-61 -41q-89 151 -193 217t-239 66z" />
<glyph unicode="&#xc8;" horiz-adv-x="1095" d="M688 1921l191 -281h-80l-197 281h86zM948 70l-8 -70h-809l178 1454h770l-8 -68h-696l-78 -624h584l-9 -70h-583l-76 -622h735z" />
<glyph unicode="&#xc9;" horiz-adv-x="1095" d="M848 1921h88l-264 -281h-82zM948 70l-8 -70h-809l178 1454h770l-8 -68h-696l-78 -624h584l-9 -70h-583l-76 -622h735z" />
<glyph unicode="&#xca;" horiz-adv-x="1095" d="M766 1874l-209 -234h-80l258 283h68l194 -283h-77l-152 234h-2zM1071 1386h-696l-78 -624h584l-9 -70h-583l-76 -622h735l-8 -70h-809l178 1454h770z" />
<glyph unicode="&#xcb;" horiz-adv-x="1095" d="M612 1866q31 0 52.5 -21t21.5 -53q0 -31 -22.5 -53.5t-55.5 -22.5q-29 0 -49 21t-20 53q0 33 21 54.5t52 21.5zM899 1866q31 0 51.5 -21t20.5 -53q0 -31 -22 -53.5t-54 -22.5q-31 0 -50.5 21t-19.5 53q0 34 21 55t53 21zM948 70l-8 -70h-809l178 1454h770l-8 -68h-696 l-78 -624h584l-9 -70h-583l-76 -622h735z" />
<glyph unicode="&#xcc;" horiz-adv-x="483" d="M219 1915l191 -281h-80l-197 281h86zM217 0h-72l179 1454h71z" />
<glyph unicode="&#xcd;" horiz-adv-x="483" d="M621 1915h88l-265 -281h-82zM217 0h-72l179 1454h71z" />
<glyph unicode="&#xce;" horiz-adv-x="483" d="M567 1634l-151 234h-2l-209 -234h-80l258 283h68l194 -283h-78zM145 0l179 1454h71l-178 -1454h-72z" />
<glyph unicode="&#xcf;" horiz-adv-x="483" d="M260 1860q31 0 52.5 -21t21.5 -53q0 -31 -22.5 -53.5t-55.5 -22.5q-30 0 -50 21t-20 53q0 33 21.5 54.5t52.5 21.5zM547 1860q31 0 51 -21t20 -53q0 -31 -21.5 -53.5t-53.5 -22.5q-31 0 -50.5 21t-19.5 53q0 34 21 55t53 21zM217 0h-72l179 1454h71z" />
<glyph unicode="&#xd0;" horiz-adv-x="1355" d="M682 1454q279 0 430.5 -157t151.5 -435q0 -250 -97 -446t-275 -306t-407 -110h-354l90 733h-117l9 68h116l80 653h373zM487 70q206 0 366.5 102.5t248.5 282t88 405.5q0 249 -132 387.5t-380 138.5h-303l-72 -585h344l-8 -68h-344l-82 -663h274z" />
<glyph unicode="&#xd1;" horiz-adv-x="1409" d="M741 1808q-80 0 -135 -125l-51 23q70 166 182 166q27 0 53 -11t41 -22t41 -33q27 -24 40.5 -35.5t37.5 -23.5t45 -12q36 0 69.5 31.5t57.5 93.5l52 -23q-32 -82 -79 -124t-96 -42q-13 0 -25.5 2t-25.5 8.5t-21.5 10.5t-22.5 15t-18.5 14t-20 17t-17.5 15q-62 55 -107 55z M1260 1454h71l-176 -1454h-74l-712 1317h-2l-162 -1317h-74l178 1454h70l715 -1319h4z" />
<glyph unicode="&#xd2;" horiz-adv-x="1548" d="M819 1915l191 -281h-80l-197 281h86zM889 1462q259 0 413 -158t154 -446q0 -174 -52.5 -331.5t-146.5 -276t-234.5 -188.5t-305.5 -70q-259 0 -413 160.5t-154 445.5q0 169 54 326t148.5 276t234.5 190.5t302 71.5zM719 63q148 0 273.5 64t209.5 172.5t131 252.5t47 304 q0 257 -132 397t-363 140q-116 0 -221 -42.5t-184 -118t-137.5 -175.5t-89 -217.5t-30.5 -241.5q0 -254 133 -394.5t363 -140.5z" />
<glyph unicode="&#xd3;" horiz-adv-x="1548" d="M1157 1915h88l-264 -281h-82zM889 1462q259 0 413 -158t154 -446q0 -174 -52.5 -331.5t-146.5 -276t-234.5 -188.5t-305.5 -70q-259 0 -413 160.5t-154 445.5q0 169 54 326t148.5 276t234.5 190.5t302 71.5zM719 63q148 0 273.5 64t209.5 172.5t131 252.5t47 304 q0 257 -132 397t-363 140q-116 0 -221 -42.5t-184 -118t-137.5 -175.5t-89 -217.5t-30.5 -241.5q0 -254 133 -394.5t363 -140.5z" />
<glyph unicode="&#xd4;" horiz-adv-x="1548" d="M979 1868l-209 -234h-80l258 283h68l194 -283h-77l-152 234h-2zM889 1462q259 0 413 -158t154 -446q0 -174 -52.5 -331.5t-146.5 -276t-234.5 -188.5t-305.5 -70q-259 0 -413 160.5t-154 445.5q0 169 54 326t148.5 276t234.5 190.5t302 71.5zM719 63q148 0 273.5 64 t209.5 172.5t131 252.5t47 304q0 257 -132 397t-363 140q-116 0 -221 -42.5t-184 -118t-137.5 -175.5t-89 -217.5t-30.5 -241.5q0 -254 133 -394.5t363 -140.5z" />
<glyph unicode="&#xd5;" horiz-adv-x="1548" d="M657 1706q70 166 183 166q27 0 53 -11t41 -22t41 -33q27 -24 40.5 -35.5t37.5 -23.5t45 -12q36 0 69.5 31.5t57.5 93.5l51 -23q-32 -82 -78.5 -124t-95.5 -42q-11 0 -23 2.5t-21 5t-21.5 9.5t-18.5 10.5t-19 13.5t-16.5 13t-17 14.5t-15.5 13.5q-62 55 -106 55 q-80 0 -135 -125zM889 1462q259 0 413 -158t154 -446q0 -174 -52.5 -331.5t-146.5 -276t-234.5 -188.5t-305.5 -70q-259 0 -413 160.5t-154 445.5q0 169 54 326t148.5 276t234.5 190.5t302 71.5zM719 63q148 0 273.5 64t209.5 172.5t131 252.5t47 304q0 257 -132 397 t-363 140q-116 0 -221 -42.5t-184 -118t-137.5 -175.5t-89 -217.5t-30.5 -241.5q0 -254 133 -394.5t363 -140.5z" />
<glyph unicode="&#xd6;" horiz-adv-x="1548" d="M825 1860q31 0 52.5 -21t21.5 -53q0 -31 -22.5 -53.5t-55.5 -22.5q-29 0 -49 21t-20 53q0 33 21 54.5t52 21.5zM1112 1860q31 0 51.5 -21t20.5 -53q0 -31 -22 -53.5t-54 -22.5q-31 0 -50.5 21t-19.5 53q0 34 21 55t53 21zM889 1462q259 0 413 -158t154 -446 q0 -174 -52.5 -331.5t-146.5 -276t-234.5 -188.5t-305.5 -70q-259 0 -413 160.5t-154 445.5q0 169 54 326t148.5 276t234.5 190.5t302 71.5zM719 63q148 0 273.5 64t209.5 172.5t131 252.5t47 304q0 257 -132 397t-363 140q-116 0 -221 -42.5t-184 -118t-137.5 -175.5 t-89 -217.5t-30.5 -241.5q0 -254 133 -394.5t363 -140.5z" />
<glyph unicode="&#xd7;" horiz-adv-x="933" d="M725 190l-256 328l-336 -328l-41 46l336 329l-256 330l51 47l254 -330l338 330l41 -45l-336 -332l254 -329z" />
<glyph unicode="&#xd8;" horiz-adv-x="1548" d="M1487 1423l-148 -163q117 -154 117 -402q0 -174 -52.5 -331.5t-146.5 -276t-234.5 -188.5t-305.5 -70q-243 0 -389 137l-140 -154l-45 43l142 156q-135 160 -135 424q0 169 54 326t148.5 276t234.5 190.5t302 71.5q259 0 411 -155l142 157zM223 598q0 -230 111 -369 l915 1022q-133 142 -364 142q-116 0 -221 -42.5t-184 -118t-137.5 -175.5t-89 -217.5t-30.5 -241.5zM1380 856q0 209 -92 346l-913 -1018q130 -121 344 -121q148 0 273.5 64t209.5 172.5t131 252.5t47 304z" />
<glyph unicode="&#xd9;" horiz-adv-x="1316" d="M657 1915l191 -281h-80l-197 281h86zM1155 573q-35 -291 -179 -436t-384 -145q-211 0 -314.5 124t-103.5 345q0 39 8 125l107 868h73l-106 -870q-10 -56 -10 -119q0 -189 85.5 -295.5t262.5 -106.5q206 0 332.5 127.5t158.5 384.5l107 879h72z" />
<glyph unicode="&#xda;" horiz-adv-x="1316" d="M989 1915h88l-264 -281h-82zM1155 573q-35 -291 -179 -436t-384 -145q-211 0 -314.5 124t-103.5 345q0 39 8 125l107 868h73l-106 -870q-10 -56 -10 -119q0 -189 85.5 -295.5t262.5 -106.5q206 0 332.5 127.5t158.5 384.5l107 879h72z" />
<glyph unicode="&#xdb;" horiz-adv-x="1316" d="M831 1868l-208 -234h-80l258 283h67l195 -283h-78l-151 234h-3zM1192 1454h72l-109 -881q-35 -291 -179 -436t-384 -145q-211 0 -314.5 124t-103.5 345q0 39 8 125l107 868h73l-106 -870q-10 -56 -10 -119q0 -189 85.5 -295.5t262.5 -106.5q206 0 332.5 127.5 t158.5 384.5z" />
<glyph unicode="&#xdc;" horiz-adv-x="1316" d="M678 1860q31 0 52.5 -21t21.5 -53q0 -31 -22.5 -53.5t-55.5 -22.5q-30 0 -50 21t-20 53q0 33 21.5 54.5t52.5 21.5zM965 1860q31 0 51 -21t20 -53q0 -31 -21.5 -53.5t-53.5 -22.5q-31 0 -50.5 21t-19.5 53q0 34 21 55t53 21zM1155 573q-35 -291 -179 -436t-384 -145 q-211 0 -314.5 124t-103.5 345q0 39 8 125l107 868h73l-106 -870q-10 -56 -10 -119q0 -189 85.5 -295.5t262.5 -106.5q206 0 332.5 127.5t158.5 384.5l107 879h72z" />
<glyph unicode="&#xdd;" horiz-adv-x="1052" d="M956 1915l-264 -281h-82l258 281h88zM1051 1454h86l-553 -795l-82 -659h-72l82 659l-356 795h77l318 -715h6z" />
<glyph unicode="&#xde;" horiz-adv-x="1155" d="M242 297l-37 -297h-74l178 1454h72l-37 -313h393q180 0 272.5 -91.5t92.5 -254.5q0 -224 -133 -361t-363 -137h-364zM614 365q192 0 302 118.5t110 311.5q0 142 -81.5 209t-217.5 67h-391l-88 -706h366z" />
<glyph unicode="&#xdf;" horiz-adv-x="1159" d="M1096 270q0 -131 -94 -204.5t-234 -73.5q-212 0 -340 143l47 51q39 -42 68.5 -65.5t88.5 -43.5t136 -20q117 0 186.5 57t69.5 152q1 34 -10.5 63t-28 50t-49.5 45t-60.5 40t-76.5 42q-62 32 -97 53.5t-73.5 55t-54.5 73.5t-13 90q2 32 16 61.5t28 49t47.5 46.5t49 37.5 t61 39t56.5 35.5q79 53 120.5 101.5t41.5 115.5q0 85 -79.5 135.5t-219.5 50.5q-58 0 -115 -16.5t-111 -52t-92.5 -100.5t-48.5 -151l-137 -1130h-67l139 1145q11 95 53 168t103 116.5t131.5 65t146.5 21.5q166 0 265.5 -66.5t99.5 -181.5q0 -88 -51 -150t-146 -123 q-12 -8 -43.5 -27t-45 -28t-38 -26.5t-36.5 -30t-26.5 -30t-21 -35.5t-8.5 -38q-2 -26 2.5 -48t19.5 -42t27.5 -33.5t41.5 -32t45.5 -28t53.5 -29.5q50 -27 74 -41t63 -38.5t58 -44t40 -47t29.5 -58.5t8.5 -68z" />
<glyph unicode="&#xe0;" horiz-adv-x="1093" d="M737 1147h-80l-196 280h86zM936 993h68l-121 -993h-68l35 285h-4q-70 -132 -175.5 -212.5t-234.5 -80.5q-159 0 -250.5 111.5t-91.5 283.5q0 166 62.5 305.5t181.5 224t270 84.5q91 0 175 -30.5t135 -87.5h4zM442 57q108 0 203.5 72.5t155.5 186.5t82 247l30 236 q-51 74 -139.5 105.5t-167.5 31.5q-130 0 -232 -76.5t-155 -201.5t-53 -273q0 -146 72 -237t204 -91z" />
<glyph unicode="&#xe1;" horiz-adv-x="1093" d="M995 1427l-264 -280h-82l258 280h88zM936 993h68l-121 -993h-68l35 285h-4q-70 -132 -175.5 -212.5t-234.5 -80.5q-159 0 -250.5 111.5t-91.5 283.5q0 166 62.5 305.5t181.5 224t270 84.5q91 0 175 -30.5t135 -87.5h4zM442 57q108 0 203.5 72.5t155.5 186.5t82 247 l30 236q-51 74 -139.5 105.5t-167.5 31.5q-130 0 -232 -76.5t-155 -201.5t-53 -273q0 -146 72 -237t204 -91z" />
<glyph unicode="&#xe2;" horiz-adv-x="1093" d="M721 1378l-209 -233h-80l258 282h68l194 -282h-78l-151 233h-2zM936 993h68l-121 -993h-68l35 285h-4q-70 -132 -175.5 -212.5t-234.5 -80.5q-159 0 -250.5 111.5t-91.5 283.5q0 166 62.5 305.5t181.5 224t270 84.5q91 0 175 -30.5t135 -87.5h4zM442 57q108 0 203.5 72.5 t155.5 186.5t82 247l30 236q-51 74 -139.5 105.5t-167.5 31.5q-130 0 -232 -76.5t-155 -201.5t-53 -273q0 -146 72 -237t204 -91z" />
<glyph unicode="&#xe3;" horiz-adv-x="1093" d="M586 1319q-80 0 -135 -125l-52 23q70 165 183 165q27 0 53 -10.5t41.5 -22t40.5 -32.5q28 -26 41 -36.5t37 -23t45 -12.5q36 0 69.5 31.5t57.5 93.5l51 -22q-32 -82 -78.5 -124t-95.5 -42q-11 0 -23 2.5t-21 5t-21.5 9.5t-18.5 10.5t-19 13.5t-16.5 13t-17 14.5 t-15.5 13.5q-62 55 -106 55zM922 883l14 110h68l-121 -993h-68l35 285h-4q-70 -132 -175.5 -212.5t-234.5 -80.5q-159 0 -250.5 111.5t-91.5 283.5q0 166 62.5 305.5t181.5 224t270 84.5q91 0 175 -30.5t135 -87.5h4zM442 57q108 0 203.5 72.5t155.5 186.5t82 247l30 236 q-51 74 -139.5 105.5t-167.5 31.5q-130 0 -232 -76.5t-155 -201.5t-53 -273q0 -146 72 -237t204 -91z" />
<glyph unicode="&#xe4;" horiz-adv-x="1093" d="M563 1221q-30 0 -49.5 20.5t-19.5 52.5q0 33 21 54.5t52 21.5t52.5 -21t21.5 -53q0 -31 -22.5 -53t-55.5 -22zM850 1221q-31 0 -50.5 20.5t-19.5 52.5q0 34 21 55t53 21q31 0 51.5 -21t20.5 -53q0 -31 -22 -53t-54 -22zM936 993h68l-121 -993h-68l35 285h-4 q-70 -132 -175.5 -212.5t-234.5 -80.5q-159 0 -250.5 111.5t-91.5 283.5q0 166 62.5 305.5t181.5 224t270 84.5q91 0 175 -30.5t135 -87.5h4zM442 57q108 0 203.5 72.5t155.5 186.5t82 247l30 236q-51 74 -139.5 105.5t-167.5 31.5q-130 0 -232 -76.5t-155 -201.5t-53 -273 q0 -146 72 -237t204 -91z" />
<glyph unicode="&#xe5;" horiz-adv-x="1093" d="M702 1135q-66 0 -110.5 43.5t-44.5 109.5q0 69 46.5 113.5t115.5 44.5q66 0 110.5 -43t44.5 -109q0 -69 -46.5 -114t-115.5 -45zM707 1389q-44 0 -73.5 -28.5t-29.5 -72.5q0 -43 27.5 -70.5t70.5 -27.5q46 0 75.5 29t29.5 73q0 43 -28 70t-72 27zM936 993h68l-121 -993 h-68l35 285h-4q-70 -132 -175.5 -212.5t-234.5 -80.5q-159 0 -250.5 111.5t-91.5 283.5q0 166 62.5 305.5t181.5 224t270 84.5q91 0 175 -30.5t135 -87.5h4zM442 57q108 0 203.5 72.5t155.5 186.5t82 247l30 236q-51 74 -139.5 105.5t-167.5 31.5q-130 0 -232 -76.5 t-155 -201.5t-53 -273q0 -146 72 -237t204 -91z" />
<glyph unicode="&#xe6;" horiz-adv-x="1339" d="M938 59q65 0 140 40t128 112l56 -41q-61 -81 -150 -129.5t-174 -48.5q-126 0 -212.5 71.5t-117.5 198.5h-4q-122 -267 -309 -270q-99 0 -165.5 77t-66.5 212q0 146 49.5 273.5t136.5 218.5t210.5 143.5t265.5 52.5q52 0 141 -19q91 51 209 51q111 0 179.5 -58.5 t68.5 -156.5q0 -69 -38 -131t-100 -109.5t-149 -88.5t-178 -69.5t-194 -51.5q13 -130 86.5 -203.5t187.5 -73.5zM1251 784q0 42 -17.5 73.5t-45.5 47.5t-57 23.5t-58 7.5q-125 0 -220.5 -73.5t-144.5 -194.5t-49 -269q118 28 217.5 63.5t187 83t137.5 109t50 129.5zM299 57 q67 0 126 48.5t98 119t69 162.5v14q0 152 51 282t145 212v4q-23 2 -75 2q-166 0 -299 -80.5t-207 -222t-74 -315.5q2 -99 44 -162.5t122 -63.5z" />
<glyph unicode="&#xe7;" horiz-adv-x="974" d="M612 936q-134 0 -238 -74.5t-158 -196t-54 -266.5q0 -150 87 -245t216 -95q214 0 338 150l53 -39q-135 -169 -371 -178l-36 -64l2 -2q139 -13 139 -125q0 -76 -56.5 -128t-140.5 -52q-45 0 -84 17l6 51q37 -15 78 -15q50 0 93.5 33.5t43.5 93.5q0 74 -143 80l8 47l33 60 l-2 6q-140 11 -237 118t-97 285q0 164 62 300.5t182.5 220t277.5 83.5q96 0 183 -40t141 -119l-57 -43q-45 69 -116 103t-153 34z" />
<glyph unicode="&#xe8;" d="M707 1147h-80l-197 280h86zM479 59q172 0 303 150l54 -39q-148 -178 -359 -178q-173 0 -279 110.5t-106 300.5q0 162 64.5 298.5t183 218t266.5 81.5q42 0 88 -11t93.5 -35.5t78.5 -72.5t31 -112q0 -63 -32 -117.5t-89.5 -94t-128 -70.5t-156.5 -52.5t-165 -35 t-164 -21.5q7 -149 93 -234.5t224 -85.5zM604 936q-179 0 -303.5 -140.5t-136.5 -351.5q90 8 175 22.5t176 41t158 61t110.5 85.5t43.5 112q0 49 -23 84.5t-60 53t-71.5 25t-68.5 7.5z" />
<glyph unicode="&#xe9;" d="M924 1427l-265 -280h-81l258 280h88zM897 770q0 -63 -32 -117.5t-89.5 -94t-128 -70.5t-156.5 -52.5t-165 -35t-164 -21.5q7 -149 93 -234.5t224 -85.5q172 0 303 150l54 -39q-148 -178 -359 -178q-173 0 -279 110.5t-106 300.5q0 162 64.5 298.5t183 218t266.5 81.5 q42 0 88 -11t93.5 -35.5t78.5 -72.5t31 -112zM164 444q90 8 175 22.5t176 41t158 61t110.5 85.5t43.5 112q0 49 -23 84.5t-60 53t-71.5 25t-68.5 7.5q-179 0 -303.5 -140.5t-136.5 -351.5z" />
<glyph unicode="&#xea;" d="M655 1378l-209 -233h-79l258 282h67l195 -282h-78l-152 233h-2zM479 59q172 0 303 150l54 -39q-148 -178 -359 -178q-173 0 -279 110.5t-106 300.5q0 162 64.5 298.5t183 218t266.5 81.5q42 0 88 -11t93.5 -35.5t78.5 -72.5t31 -112q0 -63 -32 -117.5t-89.5 -94 t-128 -70.5t-156.5 -52.5t-165 -35t-164 -21.5q7 -149 93 -234.5t224 -85.5zM604 936q-179 0 -303.5 -140.5t-136.5 -351.5q90 8 175 22.5t176 41t158 61t110.5 85.5t43.5 112q0 49 -23 84.5t-60 53t-71.5 25t-68.5 7.5z" />
<glyph unicode="&#xeb;" d="M498 1221q-30 0 -50 20.5t-20 52.5q0 33 21.5 54.5t52.5 21.5t52 -21t21 -53q0 -31 -22 -53t-55 -22zM784 1221q-31 0 -50 20.5t-19 52.5q0 34 20.5 55t52.5 21q31 0 51.5 -21t20.5 -53q0 -31 -22 -53t-54 -22zM479 59q172 0 303 150l54 -39q-148 -178 -359 -178 q-173 0 -279 110.5t-106 300.5q0 162 64.5 298.5t183 218t266.5 81.5q42 0 88 -11t93.5 -35.5t78.5 -72.5t31 -112q0 -63 -32 -117.5t-89.5 -94t-128 -70.5t-156.5 -52.5t-165 -35t-164 -21.5q7 -149 93 -234.5t224 -85.5zM604 936q-179 0 -303.5 -140.5t-136.5 -351.5 q90 8 175 22.5t176 41t158 61t110.5 85.5t43.5 112q0 49 -23 84.5t-60 53t-71.5 25t-68.5 7.5z" />
<glyph unicode="&#xec;" horiz-adv-x="430" d="M195 1432l129 -281h-78l-133 281h82zM242 993h67l-121 -993h-67z" />
<glyph unicode="&#xed;" horiz-adv-x="434" d="M522 1427h88l-264 -280h-82zM242 993h67l-121 -993h-67z" />
<glyph unicode="&#xee;" horiz-adv-x="430" d="M477 1145l-151 233h-2l-209 -233h-80l258 282h67l195 -282h-78zM121 0l121 993h67l-121 -993h-67z" />
<glyph unicode="&#xef;" horiz-adv-x="430" d="M172 1372q31 0 52.5 -21t21.5 -53q0 -31 -22.5 -53t-55.5 -22q-30 0 -50 20.5t-20 52.5q0 33 21.5 54.5t52.5 21.5zM457 1372q31 0 52 -21t21 -53q0 -31 -22 -53t-55 -22q-30 0 -50 20.5t-20 52.5q0 33 21.5 54.5t52.5 21.5zM242 993h67l-121 -993h-67z" />
<glyph unicode="&#xf0;" horiz-adv-x="1099" d="M1006 625q0 -45 -2 -72q-3 -152 -68 -280t-182 -204.5t-262 -76.5q-183 0 -291.5 111t-108.5 303q0 159 64.5 293.5t183 215t266.5 80.5q104 0 183 -38t122 -107h2q-64 292 -276 475l-168 -131l-35 43l158 125q-80 56 -170 94l33 57q110 -46 192 -108l146 115l32 -50 l-133 -102q148 -131 231 -324t83 -419zM492 59q127 0 228.5 70t157.5 191t56 268q0 159 -85.5 250.5t-238.5 91.5q-130 0 -233 -71t-159 -190t-56 -261q0 -163 89 -256t241 -93z" />
<glyph unicode="&#xf1;" horiz-adv-x="1093" d="M559 1319q-80 0 -135 -125l-51 23q70 165 182 165q27 0 53 -10.5t41.5 -22t40.5 -32.5q28 -26 41 -36.5t37 -23t45 -12.5q36 0 69.5 31.5t57.5 93.5l51 -22q-32 -82 -78.5 -124t-95.5 -42q-13 0 -25.5 2t-25.5 8.5t-21.5 10.5t-22.5 15t-18.5 14t-20 17t-17.5 15 q-62 55 -107 55zM711 1001q297 0 245 -403l-77 -598h-68l78 594q12 80 6.5 138.5t-20 97.5t-42.5 62.5t-60 33.5t-73 10q-101 0 -203.5 -68.5t-177 -187.5t-90.5 -254l-53 -426h-67l120 993h70l-35 -286h4q79 135 199.5 214.5t243.5 79.5z" />
<glyph unicode="&#xf2;" horiz-adv-x="1097" d="M535 1427l190 -280h-80l-196 280h86zM608 1001q182 0 289 -105.5t107 -297.5q0 -170 -60.5 -306.5t-178.5 -218t-273 -81.5q-183 0 -291.5 109.5t-108.5 304.5q0 119 36.5 227t102 189.5t163.5 130t214 48.5zM608 936q-194 0 -320 -151t-126 -375q0 -165 89.5 -259 t242.5 -94q194 0 318 149.5t124 387.5q0 164 -88 253t-240 89z" />
<glyph unicode="&#xf3;" horiz-adv-x="1097" d="M872 1427h89l-265 -280h-82zM608 1001q182 0 289 -105.5t107 -297.5q0 -170 -60.5 -306.5t-178.5 -218t-273 -81.5q-183 0 -291.5 109.5t-108.5 304.5q0 119 36.5 227t102 189.5t163.5 130t214 48.5zM608 936q-194 0 -320 -151t-126 -375q0 -165 89.5 -259t242.5 -94 q194 0 318 149.5t124 387.5q0 164 -88 253t-240 89z" />
<glyph unicode="&#xf4;" horiz-adv-x="1097" d="M672 1378l-209 -233h-80l258 282h68l194 -282h-78l-151 233h-2zM608 1001q182 0 289 -105.5t107 -297.5q0 -170 -60.5 -306.5t-178.5 -218t-273 -81.5q-183 0 -291.5 109.5t-108.5 304.5q0 119 36.5 227t102 189.5t163.5 130t214 48.5zM494 57q194 0 318 149.5t124 387.5 q0 164 -88 253t-240 89q-194 0 -320 -151t-126 -375q0 -165 89.5 -259t242.5 -94z" />
<glyph unicode="&#xf5;" horiz-adv-x="1097" d="M350 1217q70 165 182 165q27 0 53 -10.5t42 -22t41 -32.5q28 -26 41 -36.5t37 -23t45 -12.5q36 0 69.5 31.5t57.5 93.5l51 -22q-32 -82 -78.5 -124t-95.5 -42q-11 0 -23 2.5t-21 5t-21.5 9.5t-18.5 10.5t-19 13.5t-16.5 13t-17 14.5t-15.5 13.5q-62 55 -106 55 q-81 0 -136 -125zM608 1001q182 0 289 -105.5t107 -297.5q0 -170 -60.5 -306.5t-178.5 -218t-273 -81.5q-183 0 -291.5 109.5t-108.5 304.5q0 119 36.5 227t102 189.5t163.5 130t214 48.5zM608 936q-194 0 -320 -151t-126 -375q0 -165 89.5 -259t242.5 -94q194 0 318 149.5 t124 387.5q0 164 -88 253t-240 89z" />
<glyph unicode="&#xf6;" horiz-adv-x="1097" d="M518 1370q31 0 52.5 -21t21.5 -53q0 -31 -22.5 -53t-55.5 -22q-30 0 -50 20.5t-20 52.5q0 33 21.5 54.5t52.5 21.5zM805 1370q31 0 51.5 -21t20.5 -53q0 -31 -22 -53t-54 -22q-31 0 -50.5 20.5t-19.5 52.5q0 34 21 55t53 21zM608 1001q182 0 289 -105.5t107 -297.5 q0 -170 -60.5 -306.5t-178.5 -218t-273 -81.5q-183 0 -291.5 109.5t-108.5 304.5q0 119 36.5 227t102 189.5t163.5 130t214 48.5zM608 936q-194 0 -320 -151t-126 -375q0 -165 89.5 -259t242.5 -94q194 0 318 149.5t124 387.5q0 164 -88 253t-240 89z" />
<glyph unicode="&#xf7;" horiz-adv-x="1122" d="M637 1034q31 0 52.5 -20.5t21.5 -52.5q0 -31 -23 -53.5t-55 -22.5q-31 0 -50.5 20.5t-19.5 52.5q0 34 21 55t53 21zM1014 532h-852l8 66h852zM551 244q31 0 52.5 -21t21.5 -53q0 -31 -23 -53.5t-55 -22.5q-31 0 -50.5 21t-19.5 53q0 34 21 55t53 21z" />
<glyph unicode="&#xf8;" horiz-adv-x="1097" d="M1053 973l-119 -123q70 -98 70 -252q0 -170 -60.5 -306.5t-178.5 -218t-273 -81.5q-183 0 -289 106l-121 -123l-43 35l127 131q-74 107 -74 265q0 119 36.5 227t102 189.5t163.5 130t214 48.5q186 0 291 -108l113 117zM162 410q0 -129 55 -215l633 649q-86 92 -242 92 q-194 0 -320 -151t-126 -375zM936 594q0 125 -51 207l-633 -651q90 -93 242 -93q194 0 318 149.5t124 387.5z" />
<glyph unicode="&#xf9;" horiz-adv-x="1056" d="M668 1147h-80l-197 280h86zM893 993h68l-121 -993h-68l35 281h-4q-72 -131 -180.5 -210t-223.5 -79q-156 0 -224 96t-42 307l76 598h67l-73 -596q-12 -80 -5 -139t22.5 -97.5t45.5 -61.5t64.5 -32.5t79.5 -9.5q93 0 187 68t161 184.5t82 247.5z" />
<glyph unicode="&#xfa;" horiz-adv-x="1056" d="M893 1427l-264 -280h-82l258 280h88zM893 993h68l-121 -993h-68l35 281h-4q-72 -131 -180.5 -210t-223.5 -79q-156 0 -224 96t-42 307l76 598h67l-73 -596q-12 -80 -5 -139t22.5 -97.5t45.5 -61.5t64.5 -32.5t79.5 -9.5q93 0 187 68t161 184.5t82 247.5z" />
<glyph unicode="&#xfb;" horiz-adv-x="1056" d="M625 1378l-209 -233h-80l258 282h68l194 -282h-78l-151 233h-2zM893 993h68l-121 -993h-68l35 281h-4q-72 -131 -180.5 -210t-223.5 -79q-156 0 -224 96t-42 307l76 598h67l-73 -596q-12 -80 -5 -139t22.5 -97.5t45.5 -61.5t64.5 -32.5t79.5 -9.5q93 0 187 68t161 184.5 t82 247.5z" />
<glyph unicode="&#xfc;" horiz-adv-x="1056" d="M467 1221q-30 0 -50 20.5t-20 52.5q0 33 21.5 54.5t52.5 21.5t52.5 -21t21.5 -53q0 -31 -22.5 -53t-55.5 -22zM754 1221q-31 0 -50.5 20.5t-19.5 52.5q0 34 21 55t53 21q31 0 51 -21t20 -53q0 -31 -21.5 -53t-53.5 -22zM893 993h68l-121 -993h-68l35 281h-4 q-72 -131 -180.5 -210t-223.5 -79q-156 0 -224 96t-42 307l76 598h67l-73 -596q-12 -80 -5 -139t22.5 -97.5t45.5 -61.5t64.5 -32.5t79.5 -9.5q93 0 187 68t161 184.5t82 247.5z" />
<glyph unicode="&#xfd;" horiz-adv-x="1050" d="M905 1427l-264 -280h-82l258 280h88zM889 993h67l-104 -860q-16 -130 -51 -228t-81 -157.5t-107 -97t-122.5 -51t-134.5 -13.5q-153 0 -307 80l23 66q142 -78 288 -78q63 0 114.5 11.5t104 44t91.5 85.5t69.5 140t44.5 204l17 142h-4q-72 -131 -180.5 -210t-225.5 -79 q-154 0 -222 96t-42 307l74 598h67l-71 -596q-10 -101 -3 -166.5t38.5 -104t71.5 -53.5t97 -16q69 0 141.5 39.5t132 105t102.5 156t57 187.5z" />
<glyph unicode="&#xfe;" horiz-adv-x="1118" d="M684 1001q159 0 250.5 -111.5t91.5 -283.5q0 -167 -62.5 -306t-181.5 -223.5t-272 -84.5q-93 0 -178.5 31.5t-136.5 89.5h-5l-61 -519h-70l234 1913h67l-96 -796h4q70 132 177 211t239 79zM508 57q132 0 235.5 76t158 201t54.5 274q0 145 -73 236.5t-207 91.5 q-85 0 -162 -43t-134 -115t-96 -164t-55 -192l-24 -197l-4 -24q47 -77 135.5 -110.5t171.5 -33.5z" />
<glyph unicode="&#xff;" horiz-adv-x="1050" d="M465 1221q-30 0 -50 20.5t-20 52.5q0 33 21.5 54.5t52.5 21.5t52.5 -21t21.5 -53q0 -31 -22.5 -53t-55.5 -22zM752 1221q-31 0 -50.5 20.5t-19.5 52.5q0 34 21 55t53 21q31 0 51 -21t20 -53q0 -31 -21.5 -53t-53.5 -22zM889 993h67l-104 -860q-16 -130 -51 -228 t-81 -157.5t-107 -97t-122.5 -51t-134.5 -13.5q-153 0 -307 80l23 66q142 -78 288 -78q63 0 114.5 11.5t104 44t91.5 85.5t69.5 140t44.5 204l17 142h-4q-72 -131 -180.5 -210t-225.5 -79q-154 0 -222 96t-42 307l74 598h67l-71 -596q-10 -101 -3 -166.5t38.5 -104 t71.5 -53.5t97 -16q69 0 141.5 39.5t132 105t102.5 156t57 187.5z" />
<glyph unicode="&#x100;" horiz-adv-x="1212" d="M1022 1812l-10 -63h-500l10 63h500zM1018 0l-94 418h-654q-33 -69 -97 -208.5t-97 -209.5h-78l682 1454h80l332 -1454h-74zM301 485h608l-196 873h-6z" />
<glyph unicode="&#x101;" horiz-adv-x="1093" d="M967 1323l-11 -63h-499l10 63h500zM936 993h68l-121 -993h-68l35 285h-4q-70 -132 -175.5 -212.5t-234.5 -80.5q-159 0 -250.5 111.5t-91.5 283.5q0 166 62.5 305.5t181.5 224t270 84.5q91 0 175 -30.5t135 -87.5h4zM442 57q108 0 203.5 72.5t155.5 186.5t82 247l30 236 q-51 74 -139.5 105.5t-167.5 31.5q-130 0 -232 -76.5t-155 -201.5t-53 -273q0 -146 72 -237t204 -91z" />
<glyph unicode="&#x102;" horiz-adv-x="1212" d="M743 1636q-96 0 -150.5 70.5t-47.5 196.5l59 -2q-5 -94 30 -148.5t111 -54.5q85 0 140 57t69 148l62 -2q-23 -124 -98 -194.5t-175 -70.5zM1018 0l-94 418h-654q-33 -69 -97 -208.5t-97 -209.5h-78l682 1454h80l332 -1454h-74zM301 485h608l-196 873h-6z" />
<glyph unicode="&#x103;" horiz-adv-x="1093" d="M688 1147q-96 0 -151 70t-48 196l60 -2q-5 -94 30 -148.5t111 -54.5q85 0 140 57t69 148l62 -2q-23 -124 -98 -194t-175 -70zM936 993h68l-121 -993h-68l35 285h-4q-70 -132 -175.5 -212.5t-234.5 -80.5q-159 0 -250.5 111.5t-91.5 283.5q0 166 62.5 305.5t181.5 224 t270 84.5q91 0 175 -30.5t135 -87.5h4zM442 57q108 0 203.5 72.5t155.5 186.5t82 247l30 236q-51 74 -139.5 105.5t-167.5 31.5q-130 0 -232 -76.5t-155 -201.5t-53 -273q0 -146 72 -237t204 -91z" />
<glyph unicode="&#x104;" horiz-adv-x="1212" d="M1116 -287l4 -59q-52 -27 -121 -27q-72 0 -110.5 37.5t-34.5 106.5q8 114 162 237l-92 410h-654q-33 -69 -97 -208.5t-97 -209.5h-78l682 1454h80l332 -1454q-165 -115 -174 -223q-2 -40 20 -64t72 -24q62 0 106 24zM301 485h608l-196 873h-6z" />
<glyph unicode="&#x105;" horiz-adv-x="1093" d="M803 -311q62 0 106 24l4 -59q-52 -27 -120 -27q-72 0 -111 37.5t-35 106.5q8 121 170 241l33 273h-4q-70 -132 -175.5 -212.5t-234.5 -80.5q-159 0 -250.5 111.5t-91.5 283.5q0 166 62.5 305.5t181.5 224t270 84.5q91 0 175 -30.5t135 -87.5h4l14 110h68l-121 -991l2 -2 q-165 -115 -174 -223q-2 -40 20 -64t72 -24zM442 57q108 0 203.5 72.5t155.5 186.5t82 247l30 236q-51 74 -139.5 105.5t-167.5 31.5q-130 0 -232 -76.5t-155 -201.5t-53 -273q0 -146 72 -237t204 -91z" />
<glyph unicode="&#x106;" horiz-adv-x="1370" d="M1143 1915h88l-264 -281h-82zM1221 233q-99 -110 -236.5 -175.5t-282.5 -65.5q-251 0 -400.5 165t-149.5 449q0 167 54.5 323t149 273.5t232 188.5t293.5 71q304 0 495 -311l-61 -41q-89 151 -193 217t-239 66q-142 0 -267 -66.5t-209.5 -175.5t-133 -251t-48.5 -292 q0 -253 129.5 -399t352.5 -146q120 0 241.5 55.5t216.5 160.5z" />
<glyph unicode="&#x107;" horiz-adv-x="974" d="M856 1427h88l-264 -280h-82zM459 -8q-150 0 -258.5 109t-108.5 296q0 164 62 300.5t182.5 220t277.5 83.5q96 0 183 -40t141 -119l-57 -43q-45 69 -116 103t-153 34q-134 0 -238 -74.5t-158 -196t-54 -266.5q0 -150 87 -245t216 -95q214 0 338 150l53 -39 q-74 -91 -170 -134.5t-227 -43.5z" />
<glyph unicode="&#x108;" horiz-adv-x="1370" d="M979 1868l-209 -234h-80l258 283h68l194 -283h-77l-152 234h-2zM883 1393q-142 0 -267 -66.5t-209.5 -175.5t-133 -251t-48.5 -292q0 -253 129.5 -399t352.5 -146q120 0 241.5 55.5t216.5 160.5l56 -46q-99 -110 -236.5 -175.5t-282.5 -65.5q-251 0 -400.5 165 t-149.5 449q0 167 54.5 323t149 273.5t232 188.5t293.5 71q304 0 495 -311l-61 -41q-89 151 -193 217t-239 66z" />
<glyph unicode="&#x109;" horiz-adv-x="974" d="M672 1378l-209 -233h-80l258 282h68l194 -282h-78l-151 233h-2zM612 936q-134 0 -238 -74.5t-158 -196t-54 -266.5q0 -150 87 -245t216 -95q214 0 338 150l53 -39q-74 -91 -170 -134.5t-227 -43.5q-150 0 -258.5 109t-108.5 296q0 164 62 300.5t182.5 220t277.5 83.5 q96 0 183 -40t141 -119l-57 -43q-45 69 -116 103t-153 34z" />
<glyph unicode="&#x10a;" horiz-adv-x="1370" d="M973 1860q31 0 52.5 -21t21.5 -53q0 -31 -23 -53.5t-55 -22.5q-31 0 -50.5 21t-19.5 53q0 34 21 55t53 21zM1221 233q-99 -110 -236.5 -175.5t-282.5 -65.5q-251 0 -400.5 165t-149.5 449q0 167 54.5 323t149 273.5t232 188.5t293.5 71q304 0 495 -311l-61 -41 q-89 151 -193 217t-239 66q-142 0 -267 -66.5t-209.5 -175.5t-133 -251t-48.5 -292q0 -253 129.5 -399t352.5 -146q120 0 241.5 55.5t216.5 160.5z" />
<glyph unicode="&#x10b;" horiz-adv-x="974" d="M666 1370q31 0 52 -21t21 -53q0 -31 -22.5 -53t-54.5 -22q-31 0 -50.5 20.5t-19.5 52.5q0 34 21 55t53 21zM459 -8q-150 0 -258.5 109t-108.5 296q0 164 62 300.5t182.5 220t277.5 83.5q96 0 183 -40t141 -119l-57 -43q-45 69 -116 103t-153 34q-134 0 -238 -74.5 t-158 -196t-54 -266.5q0 -150 87 -245t216 -95q214 0 338 150l53 -39q-74 -91 -170 -134.5t-227 -43.5z" />
<glyph unicode="&#x10c;" horiz-adv-x="1370" d="M983 1632h-68l-188 283h76l147 -227h8l205 227h82zM883 1393q-142 0 -267 -66.5t-209.5 -175.5t-133 -251t-48.5 -292q0 -253 129.5 -399t352.5 -146q120 0 241.5 55.5t216.5 160.5l56 -46q-99 -110 -236.5 -175.5t-282.5 -65.5q-251 0 -400.5 165t-149.5 449 q0 167 54.5 323t149 273.5t232 188.5t293.5 71q304 0 495 -311l-61 -41q-89 151 -193 217t-239 66z" />
<glyph unicode="&#x10d;" horiz-adv-x="974" d="M676 1143h-68l-188 282h76l147 -227h8l205 227h82zM614 1001q96 0 183 -40t141 -119l-57 -43q-45 69 -116 103t-153 34q-134 0 -238 -74.5t-158 -196t-54 -266.5q0 -150 87 -245t216 -95q214 0 338 150l53 -39q-74 -91 -170 -134.5t-227 -43.5q-150 0 -258.5 109 t-108.5 296q0 164 62 300.5t182.5 220t277.5 83.5z" />
<glyph unicode="&#x10e;" horiz-adv-x="1355" d="M852 1632h-68l-188 283h76l147 -227h8l205 227h82zM682 1454q279 0 430.5 -157t151.5 -435q0 -250 -97 -446t-275 -306t-407 -110h-354l178 1454h373zM487 70q206 0 366.5 102.5t248.5 282t88 405.5q0 249 -132 387.5t-380 138.5h-303l-162 -1316h274z" />
<glyph unicode="&#x10f;" horiz-adv-x="1187" d="M1270 1554h76l-107 -335h-55zM926 883l75 624h68l-182 -1507h-70l37 287h-4q-69 -133 -175.5 -214t-238.5 -81q-159 0 -250.5 111.5t-91.5 283.5q0 166 62.5 305.5t181.5 224t270 84.5q90 0 174.5 -31t135.5 -87h8zM442 57q83 0 159.5 42.5t133.5 114.5t97 163.5 t57 191.5l26 228q-48 75 -137.5 107t-171.5 32q-130 0 -232 -76.5t-155 -201.5t-53 -273q0 -146 72 -237t204 -91z" />
<glyph unicode="&#x110;" horiz-adv-x="1355" d="M682 1454q279 0 430.5 -157t151.5 -435q0 -250 -97 -446t-275 -306t-407 -110h-354l90 733h-117l9 68h116l80 653h373zM487 70q206 0 366.5 102.5t248.5 282t88 405.5q0 249 -132 387.5t-380 138.5h-303l-72 -585h344l-8 -68h-344l-82 -663h274z" />
<glyph unicode="&#x111;" horiz-adv-x="1101" d="M1159 1255l-6 -59h-121l-145 -1196h-70l37 287h-4q-69 -133 -175.5 -214t-238.5 -81q-159 0 -250.5 111.5t-91.5 283.5q0 166 62.5 305.5t181.5 224t270 84.5q90 0 174.5 -31t135.5 -87h8l39 313h-281l8 59h279l30 252h68l-31 -252h121zM442 57q83 0 159.5 42.5 t133.5 114.5t97 163.5t57 191.5l26 228q-48 75 -137.5 107t-171.5 32q-130 0 -232 -76.5t-155 -201.5t-53 -273q0 -146 72 -237t204 -91z" />
<glyph unicode="&#x112;" horiz-adv-x="1095" d="M512 1819h500l-11 -64h-499zM948 70l-8 -70h-809l178 1454h770l-8 -68h-696l-78 -624h584l-9 -70h-583l-76 -622h735z" />
<glyph unicode="&#x113;" d="M901 1323l-10 -63h-500l10 63h500zM897 770q0 -63 -32 -117.5t-89.5 -94t-128 -70.5t-156.5 -52.5t-165 -35t-164 -21.5q7 -149 93 -234.5t224 -85.5q172 0 303 150l54 -39q-148 -178 -359 -178q-173 0 -279 110.5t-106 300.5q0 162 64.5 298.5t183 218t266.5 81.5 q42 0 88 -11t93.5 -35.5t78.5 -72.5t31 -112zM164 444q90 8 175 22.5t176 41t158 61t110.5 85.5t43.5 112q0 49 -23 84.5t-60 53t-71.5 25t-68.5 7.5q-179 0 -303.5 -140.5t-136.5 -351.5z" />
<glyph unicode="&#x114;" horiz-adv-x="1095" d="M733 1642q-96 0 -150.5 70.5t-47.5 196.5l59 -2q-5 -94 30 -148.5t111 -54.5q85 0 140 57t69 148l62 -2q-23 -124 -98 -194.5t-175 -70.5zM948 70l-8 -70h-809l178 1454h770l-8 -68h-696l-78 -624h584l-9 -70h-583l-76 -622h735z" />
<glyph unicode="&#x115;" d="M623 1147q-96 0 -151 70t-48 196l59 -2q-5 -94 30 -148.5t112 -54.5q85 0 140 57t69 148l61 -2q-23 -124 -97.5 -194t-174.5 -70zM479 59q172 0 303 150l54 -39q-148 -178 -359 -178q-173 0 -279 110.5t-106 300.5q0 162 64.5 298.5t183 218t266.5 81.5q42 0 88 -11 t93.5 -35.5t78.5 -72.5t31 -112q0 -63 -32 -117.5t-89.5 -94t-128 -70.5t-156.5 -52.5t-165 -35t-164 -21.5q7 -149 93 -234.5t224 -85.5zM604 936q-179 0 -303.5 -140.5t-136.5 -351.5q90 8 175 22.5t176 41t158 61t110.5 85.5t43.5 112q0 49 -23 84.5t-60 53t-71.5 25 t-68.5 7.5z" />
<glyph unicode="&#x116;" horiz-adv-x="1095" d="M760 1866q31 0 52.5 -21t21.5 -53q0 -31 -23 -53.5t-55 -22.5q-31 0 -50.5 21t-19.5 53q0 34 21 55t53 21zM948 70l-8 -70h-809l178 1454h770l-8 -68h-696l-78 -624h584l-9 -70h-583l-76 -622h735z" />
<glyph unicode="&#x117;" d="M645 1221q-31 0 -50.5 20.5t-19.5 52.5q0 34 21 55t53 21q31 0 52.5 -21t21.5 -53q0 -31 -23 -53t-55 -22zM479 59q172 0 303 150l54 -39q-148 -178 -359 -178q-173 0 -279 110.5t-106 300.5q0 162 64.5 298.5t183 218t266.5 81.5q42 0 88 -11t93.5 -35.5t78.5 -72.5 t31 -112q0 -63 -32 -117.5t-89.5 -94t-128 -70.5t-156.5 -52.5t-165 -35t-164 -21.5q7 -149 93 -234.5t224 -85.5zM604 936q-179 0 -303.5 -140.5t-136.5 -351.5q90 8 175 22.5t176 41t158 61t110.5 85.5t43.5 112q0 49 -23 84.5t-60 53t-71.5 25t-68.5 7.5z" />
<glyph unicode="&#x118;" horiz-adv-x="1095" d="M1071 1386h-696l-78 -624h584l-9 -70h-583l-76 -622h735l-8 -70q-165 -115 -174 -223q-2 -40 20 -64t72 -24q63 0 107 24l4 -59q-52 -27 -121 -27q-72 0 -111 37.5t-35 106.5q8 111 152 227v2h-723l178 1454h770z" />
<glyph unicode="&#x119;" d="M479 59q172 0 303 150l54 -39q-93 -113 -215 -156q-93 -35 -162.5 -105t-69.5 -138q0 -37 23.5 -59.5t70.5 -22.5q63 0 107 24l4 -59q-56 -27 -121 -27q-68 0 -106.5 33.5t-38.5 97.5t40 125.5t103 104.5l2 4q-171 2 -276 112.5t-105 298.5q0 162 64.5 298.5t183 218 t266.5 81.5q42 0 88 -11t93.5 -35.5t78.5 -72.5t31 -112q0 -63 -32 -117.5t-89.5 -94t-128 -70.5t-156.5 -52.5t-165 -35t-164 -21.5q7 -149 93 -234.5t224 -85.5zM604 936q-179 0 -303.5 -140.5t-136.5 -351.5q90 8 175 22.5t176 41t158 61t110.5 85.5t43.5 112 q0 49 -23 84.5t-60 53t-71.5 25t-68.5 7.5z" />
<glyph unicode="&#x11a;" horiz-adv-x="1095" d="M770 1638h-68l-188 283h76l147 -227h8l205 227h82zM1071 1386h-696l-78 -624h584l-9 -70h-583l-76 -622h735l-8 -70h-809l178 1454h770z" />
<glyph unicode="&#x11b;" d="M659 1143h-67l-189 282h76l148 -227h8l205 227h82zM897 770q0 -63 -32 -117.5t-89.5 -94t-128 -70.5t-156.5 -52.5t-165 -35t-164 -21.5q7 -149 93 -234.5t224 -85.5q172 0 303 150l54 -39q-148 -178 -359 -178q-173 0 -279 110.5t-106 300.5q0 162 64.5 298.5t183 218 t266.5 81.5q42 0 88 -11t93.5 -35.5t78.5 -72.5t31 -112zM164 444q90 8 175 22.5t176 41t158 61t110.5 85.5t43.5 112q0 49 -23 84.5t-60 53t-71.5 25t-68.5 7.5q-179 0 -303.5 -140.5t-136.5 -351.5z" />
<glyph unicode="&#x11c;" horiz-adv-x="1441" d="M942 1868l-209 -234h-80l258 283h68l195 -283h-78l-152 234h-2zM758 639l8 70h539l-66 -527q-100 -93 -239.5 -141.5t-282.5 -48.5q-263 0 -414 163.5t-151 446.5q0 169 54 325.5t148 274.5t232.5 189t296.5 71q283 0 467 -225l-58 -49q-169 205 -407 205 q-115 0 -218.5 -42t-182.5 -116.5t-137.5 -173.5t-89 -216.5t-30.5 -240.5q0 -253 130 -398t364 -145q122 0 241 41.5t209 116.5l54 420h-467z" />
<glyph unicode="&#x11d;" horiz-adv-x="1095" d="M688 1378l-209 -233h-80l258 282h68l195 -282h-78l-152 233h-2zM936 993h68l-107 -860q-16 -131 -50.5 -228t-81.5 -157.5t-112 -97t-133 -50.5t-153 -14q-170 0 -324 80l23 68q141 -80 305 -80q74 0 132.5 11.5t115 44t96.5 85.5t71 140t45 204l21 178h-2 q-69 -130 -177 -212t-239 -82q-158 0 -249 111t-91 284q0 152 62.5 284t181.5 215.5t268 83.5q91 0 174.5 -30.5t134.5 -87.5h7zM442 88q108 0 203.5 72t156 180.5t83.5 230.5l26 230q-51 73 -138.5 104t-166.5 31q-129 0 -232 -75.5t-156.5 -193.5t-53.5 -251 q0 -146 72.5 -237t205.5 -91z" />
<glyph unicode="&#x11e;" horiz-adv-x="1441" d="M909 1636q-96 0 -150.5 70.5t-47.5 196.5l59 -2q-5 -94 30 -148.5t111 -54.5q85 0 140 57t69 148l62 -2q-23 -124 -98 -194.5t-175 -70.5zM1305 709l-66 -527q-100 -93 -239.5 -141.5t-282.5 -48.5q-263 0 -414 163.5t-151 446.5q0 169 54 325.5t148 274.5t232.5 189 t296.5 71q283 0 467 -225l-58 -49q-169 205 -407 205q-115 0 -218.5 -42t-182.5 -116.5t-137.5 -173.5t-89 -216.5t-30.5 -240.5q0 -253 130 -398t364 -145q122 0 241 41.5t209 116.5l54 420h-467l8 70h539z" />
<glyph unicode="&#x11f;" horiz-adv-x="1095" d="M655 1147q-96 0 -150.5 70t-47.5 196l59 -2q-5 -94 30 -148.5t111 -54.5q85 0 140 57t69 148l62 -2q-23 -124 -98 -194t-175 -70zM936 993h68l-107 -860q-16 -131 -50.5 -228t-81.5 -157.5t-112 -97t-133 -50.5t-153 -14q-170 0 -324 80l23 68q141 -80 305 -80 q74 0 132.5 11.5t115 44t96.5 85.5t71 140t45 204l21 178h-2q-69 -130 -177 -212t-239 -82q-158 0 -249 111t-91 284q0 152 62.5 284t181.5 215.5t268 83.5q91 0 174.5 -30.5t134.5 -87.5h7zM442 88q108 0 203.5 72t156 180.5t83.5 230.5l26 230q-51 73 -138.5 104 t-166.5 31q-129 0 -232 -75.5t-156.5 -193.5t-53.5 -251q0 -146 72.5 -237t205.5 -91z" />
<glyph unicode="&#x120;" horiz-adv-x="1441" d="M936 1860q31 0 52.5 -21t21.5 -53q0 -31 -23 -53.5t-55 -22.5q-31 0 -50.5 21t-19.5 53q0 34 21 55t53 21zM1305 709l-66 -527q-100 -93 -239.5 -141.5t-282.5 -48.5q-263 0 -414 163.5t-151 446.5q0 169 54 325.5t148 274.5t232.5 189t296.5 71q283 0 467 -225l-58 -49 q-169 205 -407 205q-115 0 -218.5 -42t-182.5 -116.5t-137.5 -173.5t-89 -216.5t-30.5 -240.5q0 -253 130 -398t364 -145q122 0 241 41.5t209 116.5l54 420h-467l8 70h539z" />
<glyph unicode="&#x121;" horiz-adv-x="1095" d="M678 1221q-31 0 -50.5 20.5t-19.5 52.5q0 34 21 55t53 21q31 0 52.5 -21t21.5 -53q0 -31 -23 -53t-55 -22zM936 993h68l-107 -860q-16 -131 -50.5 -228t-81.5 -157.5t-112 -97t-133 -50.5t-153 -14q-170 0 -324 80l23 68q141 -80 305 -80q74 0 132.5 11.5t115 44 t96.5 85.5t71 140t45 204l21 178h-2q-69 -130 -177 -212t-239 -82q-158 0 -249 111t-91 284q0 152 62.5 284t181.5 215.5t268 83.5q91 0 174.5 -30.5t134.5 -87.5h7zM442 88q108 0 203.5 72t156 180.5t83.5 230.5l26 230q-51 73 -138.5 104t-166.5 31q-129 0 -232 -75.5 t-156.5 -193.5t-53.5 -251q0 -146 72.5 -237t205.5 -91z" />
<glyph unicode="&#x122;" horiz-adv-x="1441" d="M1305 709l-66 -527q-100 -93 -239.5 -141.5t-282.5 -48.5q-263 0 -414 163.5t-151 446.5q0 169 54 325.5t148 274.5t232.5 189t296.5 71q283 0 467 -225l-58 -49q-169 205 -407 205q-115 0 -218.5 -42t-182.5 -116.5t-137.5 -173.5t-89 -216.5t-30.5 -240.5 q0 -253 130 -398t364 -145q122 0 241 41.5t209 116.5l54 420h-467l8 70h539zM717 -111q0 -3 1 -16t1 -29q0 -245 -195 -256l-14 47q76 7 110.5 58t34.5 155v41h62z" />
<glyph unicode="&#x123;" horiz-adv-x="1095" d="M707 1130h-62q0 3 -1 16.5t-1 29.5q0 245 195 256l14 -48q-76 -7 -110.5 -58t-34.5 -155v-41zM936 993h68l-107 -860q-16 -131 -50.5 -228t-81.5 -157.5t-112 -97t-133 -50.5t-153 -14q-170 0 -324 80l23 68q141 -80 305 -80q74 0 132.5 11.5t115 44t96.5 85.5t71 140 t45 204l21 178h-2q-69 -130 -177 -212t-239 -82q-158 0 -249 111t-91 284q0 152 62.5 284t181.5 215.5t268 83.5q91 0 174.5 -30.5t134.5 -87.5h7zM442 88q108 0 203.5 72t156 180.5t83.5 230.5l26 230q-51 73 -138.5 104t-166.5 31q-129 0 -232 -75.5t-156.5 -193.5 t-53.5 -251q0 -146 72.5 -237t205.5 -91z" />
<glyph unicode="&#x124;" horiz-adv-x="1345" d="M850 1868l-209 -234h-80l258 283h68l194 -283h-77l-152 234h-2zM1198 1454h72l-176 -1454h-72l80 651h-817l-80 -651h-74l178 1454h72l-88 -733h817z" />
<glyph unicode="&#x125;" horiz-adv-x="1093" d="M612 1894l-209 -233h-79l258 283h67l195 -283h-78l-152 233h-2zM711 1001q299 0 247 -403l-79 -598h-68l78 594q11 100 5 166t-35.5 105t-67.5 55t-91 16q-149 0 -290.5 -142t-176.5 -337l-55 -457h-67l184 1507h67l-98 -802h4q80 135 200 215.5t243 80.5z" />
<glyph unicode="&#x126;" horiz-adv-x="1331" d="M1346 1163l-9 -57h-110l-133 -1106h-72l80 651h-817l-80 -651h-74l135 1106h-131l8 57h131l35 291h72l-35 -291h817l35 291h72l-35 -291h111zM1110 721l47 385h-817l-47 -385h817z" />
<glyph unicode="&#x127;" horiz-adv-x="1095" d="M711 1001q299 0 247 -403l-79 -598h-68l78 594q11 100 5 166t-35.5 105t-67.5 55t-91 16q-149 0 -290.5 -142t-176.5 -337l-55 -457h-67l145 1196h-170l8 59h170l31 252h67l-30 -252h229l-6 -59h-231l-60 -491h4q80 135 200 215.5t243 80.5z" />
<glyph unicode="&#x128;" horiz-adv-x="483" d="M92 1706q70 166 182 166q27 0 53 -11t42 -22t41 -33q28 -25 40.5 -35.5t36.5 -23t45 -12.5q36 0 69.5 31.5t57.5 93.5l52 -23q-32 -82 -78.5 -124t-95.5 -42q-11 0 -23 2.5t-21 5t-21.5 9.5t-18.5 10.5t-19 13.5t-16.5 13t-17 14.5t-15.5 13.5q-62 55 -106 55 q-81 0 -136 -125zM217 0h-72l179 1454h71z" />
<glyph unicode="&#x129;" horiz-adv-x="430" d="M8 1219q70 165 180 165q65 0 134 -65q9 -7 29 -23.5t31 -25t28 -16t32 -7.5q36 0 69.5 31.5t57.5 93.5l49 -22q-32 -83 -78 -124.5t-94 -41.5q-28 0 -58.5 15t-46.5 29t-44 40q-68 53 -107 53q-79 0 -131 -125zM242 993h67l-121 -993h-67z" />
<glyph unicode="&#x12a;" horiz-adv-x="483" d="M160 1812h499l-10 -63h-499zM217 0h-72l179 1454h71z" />
<glyph unicode="&#x12b;" horiz-adv-x="430" d="M70 1323h499l-10 -63h-500zM242 993h67l-121 -993h-67z" />
<glyph unicode="&#x12c;" horiz-adv-x="483" d="M381 1636q-96 0 -151 70.5t-48 196.5l60 -2q-5 -94 30 -148.5t111 -54.5q85 0 140 57t69 148l61 -2q-23 -124 -98 -194.5t-174 -70.5zM217 0h-72l179 1454h71z" />
<glyph unicode="&#x12d;" horiz-adv-x="430" d="M299 1147q-92 0 -144.5 70t-43.5 196l59 -2q-8 -94 24 -148.5t107 -54.5t122 56.5t58 148.5l62 -2q-20 -125 -86.5 -194.5t-157.5 -69.5zM242 993h67l-121 -993h-67z" />
<glyph unicode="&#x12e;" horiz-adv-x="483" d="M135 -311q63 0 107 24l4 -59q-52 -27 -121 -27q-72 0 -110.5 37.5t-34.5 106.5q8 117 167 241l177 1442h71l-178 -1454q-165 -115 -174 -223q-2 -40 20 -64t72 -24z" />
<glyph unicode="&#x12f;" horiz-adv-x="430" d="M317 1370q31 0 52.5 -21t21.5 -53q0 -31 -23 -53t-55 -22q-31 0 -50 20.5t-19 52.5q0 34 20.5 55t52.5 21zM188 0q-165 -115 -174 -223q-2 -40 20 -64t72 -24q63 0 107 24l4 -59q-52 -27 -121 -27q-72 0 -110.5 37.5t-34.5 106.5q8 118 172 243l119 979h67z" />
<glyph unicode="&#x130;" horiz-adv-x="483" d="M408 1860q31 0 52 -21t21 -53q0 -31 -23 -53.5t-55 -22.5q-31 0 -50 21t-19 53q0 34 21 55t53 21zM217 0h-72l179 1454h71z" />
<glyph unicode="&#x131;" horiz-adv-x="430" d="M242 993h67l-121 -993h-67z" />
<glyph unicode="&#x132;" horiz-adv-x="1384" d="M217 0h-72l179 1454h71zM551 240q51 -83 122 -130t142 -47q279 0 324 379l125 1012h73l-127 -1016q-26 -228 -124.5 -337t-272.5 -109q-85 0 -170.5 50.5t-140.5 141.5z" />
<glyph unicode="&#x133;" horiz-adv-x="778" d="M317 1370q31 0 52.5 -21t21.5 -53q0 -31 -23 -53t-55 -22q-31 0 -50 20.5t-19 52.5q0 34 20.5 55t52.5 21zM696 1370q31 0 52.5 -21t21.5 -53q0 -31 -23 -53t-55 -22q-31 0 -50 20.5t-19 52.5q0 34 20.5 55t52.5 21zM242 993h67l-121 -993h-67zM211 -315q46 -33 102 -33 q68 0 111 47t59 178l135 1116h70l-137 -1122q-19 -145 -74 -215t-162 -70q-64 0 -120 33z" />
<glyph unicode="&#x134;" horiz-adv-x="901" d="M1022 1634l-152 234h-2l-209 -234h-79l258 283h67l195 -283h-78zM655 442l125 1012h74l-127 -1016q-26 -228 -124.5 -337t-272.5 -109q-85 0 -171 50.5t-141 141.5l50 56q51 -83 122 -130t142 -47q278 0 323 379z" />
<glyph unicode="&#x135;" horiz-adv-x="348" d="M426 1145l-152 233h-2l-209 -233h-79l258 282h67l195 -282h-78zM53 -123l135 1116h70l-137 -1122q-19 -145 -74 -215t-162 -70q-65 0 -121 33l17 66q46 -33 102 -33q68 0 111 47t59 178z" />
<glyph unicode="&#x136;" horiz-adv-x="1187" d="M1204 1454l-612 -682l444 -772h-88l-409 709h-4l-283 -314l-47 -395h-74l178 1454h72l-115 -940h6l840 940h92zM487 -111h62q0 -3 1 -16t1 -29q0 -245 -195 -256l-14 47q76 7 110.5 58t34.5 155v41z" />
<glyph unicode="&#x137;" horiz-adv-x="958" d="M680 258q37 -85 62.5 -128t45.5 -58.5t50 -20.5l-21 -59q-13 0 -33 4q-22 5 -41.5 19.5t-32.5 28.5t-30.5 47.5t-26.5 52.5t-29 66q-7 15 -10 23l-88 203h-4q-155 -133 -317 -213l-29 -223h-67l184 1507h67l-145 -1204h2q221 120 396 311.5t235 378.5h70 q-73 -259 -338 -506zM373 -111h61q0 -3 1 -16t1 -29q0 -245 -194 -256l-15 47q77 8 111.5 58.5t34.5 154.5v41z" />
<glyph unicode="&#x138;" horiz-adv-x="958" d="M680 258q37 -85 62.5 -128t45.5 -58.5t50 -20.5l-21 -59q-13 0 -33 4q-22 5 -41.5 19.5t-32.5 28.5t-30.5 47.5t-26.5 52.5t-29 66q-7 15 -10 23l-88 203h-4q-155 -133 -317 -213l-29 -223h-67l120 993h70l-84 -690h2q221 120 396 311.5t235 378.5h70q-73 -259 -338 -506 z" />
<glyph unicode="&#x139;" horiz-adv-x="1013" d="M743 1915h88l-264 -281h-82zM918 70l-9 -70h-778l178 1454h72l-168 -1384h705z" />
<glyph unicode="&#x13a;" horiz-adv-x="415" d="M582 1942h88l-264 -281h-82zM305 1507h68l-185 -1507h-67z" />
<glyph unicode="&#x13b;" horiz-adv-x="1013" d="M918 70l-9 -70h-778l178 1454h72l-168 -1384h705zM526 -111q0 -3 1 -16t1 -29q0 -245 -194 -256l-15 47q77 8 111.5 58.5t34.5 154.5v41h61z" />
<glyph unicode="&#x13c;" horiz-adv-x="415" d="M305 1507h68l-185 -1507h-67zM170 -111q0 -3 1 -16t1 -29q0 -245 -195 -256l-14 47q77 8 111.5 58.5t34.5 154.5v41h61z" />
<glyph unicode="&#x13d;" horiz-adv-x="1013" d="M653 1554h74l-104 -335h-56zM918 70l-9 -70h-778l178 1454h72l-168 -1384h705z" />
<glyph unicode="&#x13e;" horiz-adv-x="489" d="M571 1554h74l-104 -335h-58zM305 1507h68l-185 -1507h-67z" />
<glyph unicode="&#x13f;" horiz-adv-x="1013" d="M918 70l-9 -70h-778l178 1454h72l-168 -1384h705zM739 762q31 0 52.5 -22t21.5 -54q0 -31 -23 -52.5t-55 -21.5q-30 0 -49.5 20.5t-19.5 51.5q0 33 20.5 55.5t52.5 22.5z" />
<glyph unicode="&#x140;" horiz-adv-x="497" d="M305 1507h68l-185 -1507h-67zM487 623q31 0 52.5 -22t21.5 -54q0 -31 -23 -52.5t-55 -21.5q-30 0 -49.5 20.5t-19.5 51.5q0 33 20.5 55.5t52.5 22.5z" />
<glyph unicode="&#x141;" horiz-adv-x="1040" d="M240 70h704l-8 -70h-778l75 621l-180 -89l10 72l179 86l94 764h72l-89 -725l187 90l-10 -71l-185 -91z" />
<glyph unicode="&#x142;" horiz-adv-x="425" d="M416 786l-8 -71l-134 -64l-79 -651h-68l76 616l-137 -65l8 72l137 65l100 819h68l-96 -784z" />
<glyph unicode="&#x143;" horiz-adv-x="1409" d="M1047 1915l-265 -281h-82l258 281h89zM1260 1454h71l-176 -1454h-74l-712 1317h-2l-162 -1317h-74l178 1454h70l715 -1319h4z" />
<glyph unicode="&#x144;" horiz-adv-x="1093" d="M932 1427l-264 -280h-82l258 280h88zM711 1001q297 0 245 -403l-77 -598h-68l78 594q12 80 6.5 138.5t-20 97.5t-42.5 62.5t-60 33.5t-73 10q-101 0 -203.5 -68.5t-177 -187.5t-90.5 -254l-53 -426h-67l120 993h70l-35 -286h4q79 135 199.5 214.5t243.5 79.5z" />
<glyph unicode="&#x145;" horiz-adv-x="1409" d="M1260 1454h71l-176 -1454h-74l-712 1317h-2l-162 -1317h-74l178 1454h70l715 -1319h4zM588 -111h61q0 -3 1 -16t1 -29q0 -245 -194 -256l-15 47q77 8 111.5 58.5t34.5 154.5v41z" />
<glyph unicode="&#x146;" horiz-adv-x="1093" d="M711 1001q297 0 245 -403l-77 -598h-68l78 594q12 80 6.5 138.5t-20 97.5t-42.5 62.5t-60 33.5t-73 10q-101 0 -203.5 -68.5t-177 -187.5t-90.5 -254l-53 -426h-67l120 993h70l-35 -286h4q79 135 199.5 214.5t243.5 79.5zM438 -111h62q0 -3 1 -16t1 -29q0 -245 -195 -256 l-14 47q76 7 110.5 58t34.5 155v41z" />
<glyph unicode="&#x147;" horiz-adv-x="1409" d="M881 1632h-68l-188 283h75l148 -227h8l205 227h82zM1260 1454h71l-176 -1454h-74l-712 1317h-2l-162 -1317h-74l178 1454h70l715 -1319h4z" />
<glyph unicode="&#x148;" horiz-adv-x="1093" d="M698 1143h-67l-189 282h76l148 -227h8l205 227h82zM711 1001q297 0 245 -403l-77 -598h-68l78 594q12 80 6.5 138.5t-20 97.5t-42.5 62.5t-60 33.5t-73 10q-101 0 -203.5 -68.5t-177 -187.5t-90.5 -254l-53 -426h-67l120 993h70l-35 -286h4q79 135 199.5 214.5 t243.5 79.5z" />
<glyph unicode="&#x149;" horiz-adv-x="1290" d="M123 1102l86 352h76l-107 -352h-55zM907 1001q298 0 246 -403l-78 -598h-67l77 594q12 80 6.5 138.5t-20 97.5t-42 62.5t-59.5 33.5t-73 10q-101 0 -203.5 -68.5t-177 -187.5t-90.5 -254l-53 -426h-68l121 993h70l-35 -286h4q79 135 199 214.5t243 79.5z" />
<glyph unicode="&#x14a;" horiz-adv-x="1406" d="M1260 1454h71l-192 -1583q-18 -145 -73.5 -215t-166.5 -70q-65 0 -121 33l17 66q44 -33 102 -33q69 0 111.5 47t58.5 178l14 121l-710 1315h-4l-162 -1313h-74l178 1454h70l715 -1319h4z" />
<glyph unicode="&#x14b;" horiz-adv-x="1050" d="M680 1001q137 0 200 -96t38 -291l-97 -737q-19 -145 -73.5 -215t-161.5 -70q-66 0 -119 33l14 66q44 -33 103 -33q33 0 57.5 9t47.5 32t39.5 69t25.5 115l96 727q43 326 -182 326q-67 0 -140 -41t-134.5 -108.5t-107 -162.5t-57.5 -194l-53 -430h-67l120 993h70l-37 -297 h4q73 139 187 222t227 83z" />
<glyph unicode="&#x14c;" horiz-adv-x="1548" d="M725 1812h500l-11 -63h-499zM889 1462q259 0 413 -158t154 -446q0 -174 -52.5 -331.5t-146.5 -276t-234.5 -188.5t-305.5 -70q-259 0 -413 160.5t-154 445.5q0 169 54 326t148.5 276t234.5 190.5t302 71.5zM719 63q148 0 273.5 64t209.5 172.5t131 252.5t47 304 q0 257 -132 397t-363 140q-116 0 -221 -42.5t-184 -118t-137.5 -175.5t-89 -217.5t-30.5 -241.5q0 -254 133 -394.5t363 -140.5z" />
<glyph unicode="&#x14d;" horiz-adv-x="1097" d="M418 1323h500l-11 -63h-499zM608 1001q182 0 289 -105.5t107 -297.5q0 -170 -60.5 -306.5t-178.5 -218t-273 -81.5q-183 0 -291.5 109.5t-108.5 304.5q0 119 36.5 227t102 189.5t163.5 130t214 48.5zM608 936q-194 0 -320 -151t-126 -375q0 -165 89.5 -259t242.5 -94 q194 0 318 149.5t124 387.5q0 164 -88 253t-240 89z" />
<glyph unicode="&#x14e;" horiz-adv-x="1548" d="M946 1636q-96 0 -150.5 70.5t-47.5 196.5l59 -2q-5 -94 30 -148.5t111 -54.5q85 0 140 57t69 148l62 -2q-23 -124 -98 -194.5t-175 -70.5zM889 1462q259 0 413 -158t154 -446q0 -174 -52.5 -331.5t-146.5 -276t-234.5 -188.5t-305.5 -70q-259 0 -413 160.5t-154 445.5 q0 169 54 326t148.5 276t234.5 190.5t302 71.5zM719 63q148 0 273.5 64t209.5 172.5t131 252.5t47 304q0 257 -132 397t-363 140q-116 0 -221 -42.5t-184 -118t-137.5 -175.5t-89 -217.5t-30.5 -241.5q0 -254 133 -394.5t363 -140.5z" />
<glyph unicode="&#x14f;" horiz-adv-x="1097" d="M639 1147q-96 0 -151 70t-48 196l60 -2q-5 -94 30 -148.5t111 -54.5q85 0 140 57t69 148l61 -2q-23 -124 -97.5 -194t-174.5 -70zM608 1001q182 0 289 -105.5t107 -297.5q0 -170 -60.5 -306.5t-178.5 -218t-273 -81.5q-183 0 -291.5 109.5t-108.5 304.5q0 119 36.5 227 t102 189.5t163.5 130t214 48.5zM608 936q-194 0 -320 -151t-126 -375q0 -165 89.5 -259t242.5 -94q194 0 318 149.5t124 387.5q0 164 -88 253t-240 89z" />
<glyph unicode="&#x150;" horiz-adv-x="1548" d="M1047 1915h81l-264 -281h-76zM1294 1915h82l-264 -281h-74zM889 1462q259 0 413 -158t154 -446q0 -174 -52.5 -331.5t-146.5 -276t-234.5 -188.5t-305.5 -70q-259 0 -413 160.5t-154 445.5q0 169 54 326t148.5 276t234.5 190.5t302 71.5zM719 63q148 0 273.5 64 t209.5 172.5t131 252.5t47 304q0 257 -132 397t-363 140q-116 0 -221 -42.5t-184 -118t-137.5 -175.5t-89 -217.5t-30.5 -241.5q0 -254 133 -394.5t363 -140.5z" />
<glyph unicode="&#x151;" horiz-adv-x="1099" d="M733 1427h82l-264 -280h-76zM981 1427h82l-264 -280h-74zM608 1001q182 0 289 -105.5t107 -297.5q0 -170 -60.5 -306.5t-178.5 -218t-273 -81.5q-183 0 -291.5 109.5t-108.5 304.5q0 119 36.5 227t102 189.5t163.5 130t214 48.5zM608 936q-194 0 -320 -151t-126 -375 q0 -165 89.5 -259t242.5 -94q194 0 318 149.5t124 387.5q0 164 -88 253t-240 89z" />
<glyph unicode="&#x152;" horiz-adv-x="1759" d="M1735 1386h-697l-77 -624h583l-8 -70h-582l-77 -622h737l-8 -70h-809h-88q-256 0 -406.5 163t-150.5 445q0 168 53.5 322t147 270t230.5 185t296 69h122h742zM805 72l162 1312h-95q-140 0 -262 -63t-205.5 -169t-131.5 -247t-48 -295q0 -252 130 -395t358 -143h92z" />
<glyph unicode="&#x153;" horiz-adv-x="1507" d="M1108 59q64 0 138.5 40.5t127.5 111.5l56 -41q-61 -81 -150 -129.5t-174 -48.5q-128 0 -215.5 74.5t-116.5 207.5h-4q-57 -130 -155.5 -206t-221.5 -76q-143 0 -233 108t-90 293q0 170 61 310t166.5 219t232.5 79q115 0 192.5 -73.5t102.5 -204.5h4q62 131 170 204.5 t244 73.5q111 0 179.5 -58.5t68.5 -156.5q0 -85 -56 -155t-155 -118t-209 -80t-244 -54q6 -150 81.5 -235t199.5 -85zM397 59q144 0 252 139t121 351q11 179 -53.5 283t-190.5 104q-106 0 -195 -71.5t-140.5 -196t-51.5 -273.5q0 -159 72 -247.5t186 -88.5zM1241 936 q-174 0 -286 -137.5t-126 -354.5v-2q118 21 216.5 49t186 69t137.5 98.5t50 125.5q0 42 -17.5 73.5t-45.5 47.5t-57 23.5t-58 7.5z" />
<glyph unicode="&#x154;" horiz-adv-x="1189" d="M920 1915l-265 -281h-82l258 281h89zM696 614l-2 -4l307 -610h-86l-305 610h-331l-74 -610h-74l178 1454h439q178 0 270 -90.5t92 -253.5q0 -203 -110 -337.5t-304 -158.5zM373 1386l-86 -706h336q193 0 303 118.5t110 311.5q0 142 -81.5 209t-217.5 67h-364z" />
<glyph unicode="&#x155;" horiz-adv-x="579" d="M674 1427l-264 -280h-82l258 280h88zM268 721q119 229 350 280l-10 -86q-150 -26 -253 -160t-126 -329l-53 -426h-67l120 993h70l-33 -272h2z" />
<glyph unicode="&#x156;" horiz-adv-x="1189" d="M696 614l-2 -4l307 -610h-86l-305 610h-331l-74 -610h-74l178 1454h439q178 0 270 -90.5t92 -253.5q0 -203 -110 -337.5t-304 -158.5zM373 1386l-86 -706h336q193 0 303 118.5t110 311.5q0 142 -81.5 209t-217.5 67h-364zM463 -111h61q0 -3 1 -16t1 -29q0 -245 -194 -256 l-15 47q77 8 111.5 58.5t34.5 154.5v41z" />
<glyph unicode="&#x157;" horiz-adv-x="577" d="M268 721q119 229 350 280l-10 -86q-150 -26 -253 -160t-126 -329l-53 -426h-67l120 993h70l-33 -272h2zM100 -111h62q0 -3 1 -16t1 -29q0 -245 -195 -256l-14 47q76 7 110.5 58t34.5 155v41z" />
<glyph unicode="&#x158;" horiz-adv-x="1189" d="M754 1632h-68l-188 283h75l148 -227h8l205 227h82zM696 614l-2 -4l307 -610h-86l-305 610h-331l-74 -610h-74l178 1454h439q178 0 270 -90.5t92 -253.5q0 -203 -110 -337.5t-304 -158.5zM373 1386l-86 -706h336q193 0 303 118.5t110 311.5q0 142 -81.5 209t-217.5 67 h-364z" />
<glyph unicode="&#x159;" horiz-adv-x="577" d="M489 1143h-67l-189 282h76l148 -227h8l205 227h82zM268 721q119 229 350 280l-10 -86q-150 -26 -253 -160t-126 -329l-53 -426h-67l120 993h70l-33 -272h2z" />
<glyph unicode="&#x15a;" horiz-adv-x="1083" d="M918 1915h88l-265 -281h-82zM584 778q164 -90 225 -136q145 -116 147 -253q0 -181 -123.5 -289t-320.5 -108q-131 0 -255 59.5t-200 173.5l58 51q70 -109 175 -162t222 -53q162 0 265.5 89t103.5 235q0 52 -20.5 94.5t-73.5 84.5t-87.5 63.5t-118.5 68.5q-20 11 -30 17 q-45 25 -64 35.5t-60 35t-61 40.5t-51 42t-47 49t-33.5 53t-24.5 63t-7 69q0 161 117 261.5t305 100.5q108 0 209.5 -44.5t173.5 -123.5l-56 -51q-64 73 -151.5 111.5t-179.5 38.5q-149 0 -247 -79.5t-98 -207.5q0 -57 23 -104.5t70.5 -87t91 -66.5t113.5 -65q7 -3 10 -5z " />
<glyph unicode="&#x15b;" horiz-adv-x="808" d="M705 1427h88l-265 -280h-82zM74 184q118 -127 282 -127q118 0 192.5 55t74.5 150q0 43 -18 76t-55.5 58.5t-72.5 42.5t-90 39q-12 5 -18 7q-43 19 -71.5 33.5t-63 38t-54.5 48t-33.5 60t-13.5 76.5q0 117 89.5 188.5t213.5 71.5q174 0 281 -120l-45 -50q-53 59 -110 82 t-132 23q-96 0 -161.5 -54t-65.5 -143q0 -35 15.5 -64.5t46 -53t62.5 -40.5t79 -36q5 -2 39.5 -17t42 -19t38 -18.5t39.5 -21.5t33 -23t32.5 -27t24 -29.5t21 -35.5t11 -39.5t5.5 -46.5q0 -89 -47.5 -152.5t-122 -93.5t-166.5 -30q-201 0 -329 143z" />
<glyph unicode="&#x15c;" horiz-adv-x="1083" d="M688 1868l-209 -234h-80l258 283h68l195 -283h-78l-152 234h-2zM584 778q164 -90 225 -136q145 -116 147 -253q0 -181 -123.5 -289t-320.5 -108q-131 0 -255 59.5t-200 173.5l58 51q70 -109 175 -162t222 -53q162 0 265.5 89t103.5 235q0 52 -20.5 94.5t-73.5 84.5 t-87.5 63.5t-118.5 68.5q-20 11 -30 17q-45 25 -64 35.5t-60 35t-61 40.5t-51 42t-47 49t-33.5 53t-24.5 63t-7 69q0 161 117 261.5t305 100.5q108 0 209.5 -44.5t173.5 -123.5l-56 -51q-64 73 -151.5 111.5t-179.5 38.5q-149 0 -247 -79.5t-98 -207.5q0 -57 23 -104.5 t70.5 -87t91 -66.5t113.5 -65q7 -3 10 -5z" />
<glyph unicode="&#x15d;" horiz-adv-x="808" d="M512 1378l-209 -233h-80l258 282h68l194 -282h-77l-152 233h-2zM430 936q-96 0 -161.5 -54t-65.5 -143q0 -35 15.5 -64.5t46 -53t62.5 -40.5t79 -36q5 -2 39.5 -17t42 -19t38 -18.5t39.5 -21.5t33 -23t32.5 -27t24 -29.5t21 -35.5t11 -39.5t5.5 -46.5q0 -89 -47.5 -152.5 t-122 -93.5t-166.5 -30q-201 0 -329 143l47 49q118 -127 282 -127q118 0 192.5 55t74.5 150q0 43 -18 76t-55.5 58.5t-72.5 42.5t-90 39q-12 5 -18 7q-43 19 -71.5 33.5t-63 38t-54.5 48t-33.5 60t-13.5 76.5q0 117 89.5 188.5t213.5 71.5q174 0 281 -120l-45 -50 q-53 59 -110 82t-132 23z" />
<glyph unicode="&#x15e;" horiz-adv-x="1083" d="M584 778q164 -90 225 -136q145 -116 147 -253q0 -181 -123.5 -289t-320.5 -108h-8l-37 -64l2 -2q139 -13 139 -125q0 -76 -56 -128t-140 -52q-45 0 -84 17l6 51q37 -15 78 -15q50 0 93.5 33.5t43.5 93.5q0 74 -143 80l8 47l37 68q-117 13 -222.5 71t-171.5 158l58 51 q70 -109 175 -162t222 -53q162 0 265.5 89t103.5 235q0 52 -20.5 94.5t-73.5 84.5t-87.5 63.5t-118.5 68.5q-20 11 -30 17q-45 25 -64 35.5t-60 35t-61 40.5t-51 42t-47 49t-33.5 53t-24.5 63t-7 69q0 161 117 261.5t305 100.5q108 0 209.5 -44.5t173.5 -123.5l-56 -51 q-64 73 -151.5 111.5t-179.5 38.5q-149 0 -247 -79.5t-98 -207.5q0 -57 23 -104.5t70.5 -87t91 -66.5t113.5 -65q7 -3 10 -5z" />
<glyph unicode="&#x15f;" horiz-adv-x="808" d="M406 545q5 -2 39.5 -17t42 -19t38 -18.5t39.5 -21.5t33 -23t32.5 -27t24 -29.5t21 -35.5t11 -39.5t5.5 -46.5q0 -89 -47.5 -152.5t-122 -93.5t-166.5 -30h-12l-37 -64l2 -2q140 -13 140 -125q0 -76 -56.5 -128t-140.5 -52q-45 0 -84 17l6 51q38 -15 78 -15 q50 0 93.5 33.5t43.5 93.5q0 74 -143 80l8 47l37 68q-155 18 -264 139l47 49q118 -127 282 -127q118 0 192.5 55t74.5 150q0 43 -18 76t-55.5 58.5t-72.5 42.5t-90 39q-12 5 -18 7q-43 19 -71.5 33.5t-63 38t-54.5 48t-33.5 60t-13.5 76.5q0 117 89.5 188.5t213.5 71.5 q174 0 281 -120l-45 -50q-53 59 -110 82t-132 23q-96 0 -161.5 -54t-65.5 -143q0 -35 15.5 -64.5t46 -53t62.5 -40.5t79 -36z" />
<glyph unicode="&#x160;" horiz-adv-x="1083" d="M692 1632h-67l-189 283h76l147 -227h9l204 227h82zM584 778q164 -90 225 -136q145 -116 147 -253q0 -181 -123.5 -289t-320.5 -108q-131 0 -255 59.5t-200 173.5l58 51q70 -109 175 -162t222 -53q162 0 265.5 89t103.5 235q0 52 -20.5 94.5t-73.5 84.5t-87.5 63.5 t-118.5 68.5q-20 11 -30 17q-45 25 -64 35.5t-60 35t-61 40.5t-51 42t-47 49t-33.5 53t-24.5 63t-7 69q0 161 117 261.5t305 100.5q108 0 209.5 -44.5t173.5 -123.5l-56 -51q-64 73 -151.5 111.5t-179.5 38.5q-149 0 -247 -79.5t-98 -207.5q0 -57 23 -104.5t70.5 -87 t91 -66.5t113.5 -65q7 -3 10 -5z" />
<glyph unicode="&#x161;" horiz-adv-x="808" d="M516 1143h-67l-189 282h76l147 -227h9l204 227h82zM430 936q-96 0 -161.5 -54t-65.5 -143q0 -35 15.5 -64.5t46 -53t62.5 -40.5t79 -36q5 -2 39.5 -17t42 -19t38 -18.5t39.5 -21.5t33 -23t32.5 -27t24 -29.5t21 -35.5t11 -39.5t5.5 -46.5q0 -89 -47.5 -152.5t-122 -93.5 t-166.5 -30q-201 0 -329 143l47 49q118 -127 282 -127q118 0 192.5 55t74.5 150q0 43 -18 76t-55.5 58.5t-72.5 42.5t-90 39q-12 5 -18 7q-43 19 -71.5 33.5t-63 38t-54.5 48t-33.5 60t-13.5 76.5q0 117 89.5 188.5t213.5 71.5q174 0 281 -120l-45 -50q-53 59 -110 82 t-132 23z" />
<glyph unicode="&#x162;" horiz-adv-x="1026" d="M172 1454h918l-9 -68h-424l-170 -1386h-16l-43 -72l2 -2q139 -13 139 -125q0 -76 -56 -128t-140 -52q-45 0 -84 17l6 51q37 -15 78 -15q50 0 93.5 33.5t43.5 93.5q0 74 -143 80l8 47l41 78l170 1380h-420z" />
<glyph unicode="&#x163;" horiz-adv-x="673" d="M301 930l-80 -662q-6 -62 -2.5 -108t31.5 -73.5t82 -27.5q96 0 190 72l13 -70q-101 -69 -218 -69h-18l-37 -64l2 -2q139 -13 139 -125q0 -76 -56 -128t-140 -52q-45 0 -84 17l6 51q38 -15 78 -15q50 0 93.5 33.5t43.5 93.5q0 74 -143 80l8 47l39 74q-122 42 -96 262 l81 666h-120l8 63h121l43 353l67 10l-43 -363h340l-6 -63h-342z" />
<glyph unicode="&#x164;" horiz-adv-x="1026" d="M686 1632h-68l-188 283h76l147 -227h9l204 227h82zM172 1454h918l-9 -68h-424l-170 -1386h-71l170 1386h-420z" />
<glyph unicode="&#x165;" horiz-adv-x="677" d="M604 1554h76l-107 -335h-55zM522 131l13 -70q-101 -69 -218 -69q-107 0 -144 71t-21 201l81 666h-120l8 63h121l43 353l67 10l-43 -363h340l-6 -63h-342l-80 -662q-6 -62 -2.5 -108t31.5 -73.5t82 -27.5q96 0 190 72z" />
<glyph unicode="&#x166;" horiz-adv-x="1026" d="M1081 1386h-424l-71 -585h231l-10 -66h-229l-91 -735h-71l90 735h-211l10 66h209l72 585h-420l6 68h918z" />
<glyph unicode="&#x167;" horiz-adv-x="673" d="M643 930h-342l-39 -320h293l-6 -57h-293l-35 -285q-6 -62 -2.5 -108t31.5 -73.5t82 -27.5q96 0 190 72l13 -70q-101 -69 -218 -69q-107 0 -144 71t-21 201l34 289h-102l6 57h105l38 320h-120l8 63h121l43 353l67 10l-43 -363h340z" />
<glyph unicode="&#x168;" horiz-adv-x="1316" d="M510 1706q70 166 182 166q27 0 53 -11t41 -22t41 -33q27 -24 40.5 -35.5t37.5 -23.5t45 -12q36 0 69.5 31.5t57.5 93.5l51 -23q-32 -82 -78.5 -124t-95.5 -42q-13 0 -25.5 2t-25.5 8.5t-21.5 10.5t-22.5 15t-18.5 14t-20 17t-17.5 15q-62 55 -107 55q-80 0 -135 -125z M1155 573q-35 -291 -179 -436t-384 -145q-211 0 -314.5 124t-103.5 345q0 39 8 125l107 868h73l-106 -870q-10 -56 -10 -119q0 -189 85.5 -295.5t262.5 -106.5q206 0 332.5 127.5t158.5 384.5l107 879h72z" />
<glyph unicode="&#x169;" horiz-adv-x="1056" d="M489 1319q-80 0 -135 -125l-51 23q70 165 182 165q27 0 53 -10.5t42 -22t41 -32.5q57 -51 83 -63q20 -9 39 -9q36 0 69.5 31.5t57.5 93.5l52 -22q-32 -82 -78.5 -124t-95.5 -42q-11 0 -23 2.5t-21 5t-21.5 9.5t-18.5 10.5t-19 13.5t-16.5 13t-17 14.5t-15.5 13.5 q-62 55 -107 55zM893 993h68l-121 -993h-68l35 281h-4q-72 -131 -180.5 -210t-223.5 -79q-156 0 -224 96t-42 307l76 598h67l-73 -596q-12 -80 -5 -139t22.5 -97.5t45.5 -61.5t64.5 -32.5t79.5 -9.5q93 0 187 68t161 184.5t82 247.5z" />
<glyph unicode="&#x16a;" horiz-adv-x="1316" d="M578 1812h499l-10 -63h-500zM1155 573q-35 -291 -179 -436t-384 -145q-211 0 -314.5 124t-103.5 345q0 39 8 125l107 868h73l-106 -870q-10 -56 -10 -119q0 -189 85.5 -295.5t262.5 -106.5q206 0 332.5 127.5t158.5 384.5l107 879h72z" />
<glyph unicode="&#x16b;" horiz-adv-x="1056" d="M870 1323l-10 -63h-500l11 63h499zM893 993h68l-121 -993h-68l35 281h-4q-72 -131 -180.5 -210t-223.5 -79q-156 0 -224 96t-42 307l76 598h67l-73 -596q-12 -80 -5 -139t22.5 -97.5t45.5 -61.5t64.5 -32.5t79.5 -9.5q93 0 187 68t161 184.5t82 247.5z" />
<glyph unicode="&#x16c;" horiz-adv-x="1316" d="M799 1636q-96 0 -151 70.5t-48 196.5l59 -2q-5 -94 30 -148.5t112 -54.5q85 0 140 57t69 148l61 -2q-23 -124 -98 -194.5t-174 -70.5zM1155 573q-35 -291 -179 -436t-384 -145q-211 0 -314.5 124t-103.5 345q0 39 8 125l107 868h73l-106 -870q-10 -56 -10 -119 q0 -189 85.5 -295.5t262.5 -106.5q206 0 332.5 127.5t158.5 384.5l107 879h72z" />
<glyph unicode="&#x16d;" horiz-adv-x="1056" d="M592 1147q-96 0 -151 70t-48 196l60 -2q-5 -94 30 -148.5t111 -54.5q85 0 140 57t69 148l61 -2q-23 -124 -97.5 -194t-174.5 -70zM893 993h68l-121 -993h-68l35 281h-4q-72 -131 -180.5 -210t-223.5 -79q-156 0 -224 96t-42 307l76 598h67l-73 -596q-12 -80 -5 -139 t22.5 -97.5t45.5 -61.5t64.5 -32.5t79.5 -9.5q93 0 187 68t161 184.5t82 247.5z" />
<glyph unicode="&#x16e;" horiz-adv-x="1316" d="M819 1935q67 0 111.5 -42.5t44.5 -108.5q0 -69 -46.5 -114.5t-115.5 -45.5q-66 0 -111 44t-45 110q0 69 46 113t116 44zM817 1878q-44 0 -73 -28t-29 -72q0 -43 27.5 -71t70.5 -28q46 0 75.5 29.5t29.5 73.5q0 43 -28.5 69.5t-72.5 26.5zM1155 573q-35 -291 -179 -436 t-384 -145q-211 0 -314.5 124t-103.5 345q0 39 8 125l107 868h73l-106 -870q-10 -56 -10 -119q0 -189 85.5 -295.5t262.5 -106.5q206 0 332.5 127.5t158.5 384.5l107 879h72z" />
<glyph unicode="&#x16f;" horiz-adv-x="1056" d="M606 1135q-66 0 -110.5 43.5t-44.5 109.5q0 69 46 113.5t115 44.5q66 0 111 -43t45 -109q0 -69 -46.5 -114t-115.5 -45zM610 1389q-44 0 -73 -28.5t-29 -72.5q0 -43 27.5 -70.5t70.5 -27.5q46 0 75.5 29t29.5 73q0 43 -28.5 70t-72.5 27zM893 993h68l-121 -993h-68 l35 281h-4q-72 -131 -180.5 -210t-223.5 -79q-156 0 -224 96t-42 307l76 598h67l-73 -596q-12 -80 -5 -139t22.5 -97.5t45.5 -61.5t64.5 -32.5t79.5 -9.5q93 0 187 68t161 184.5t82 247.5z" />
<glyph unicode="&#x170;" horiz-adv-x="1316" d="M834 1915h81l-264 -281h-76zM1081 1915h82l-264 -281h-74zM1155 573q-35 -291 -179 -436t-384 -145q-211 0 -314.5 124t-103.5 345q0 39 8 125l107 868h73l-106 -870q-10 -56 -10 -119q0 -189 85.5 -295.5t262.5 -106.5q206 0 332.5 127.5t158.5 384.5l107 879h72z" />
<glyph unicode="&#x171;" horiz-adv-x="1058" d="M754 1427l-265 -280h-75l258 280h82zM737 1147h-73l256 280h81zM840 557l53 436h68l-121 -993h-68l35 281h-4q-72 -131 -180.5 -210t-223.5 -79q-156 0 -224 96t-42 307l76 598h67l-73 -596q-12 -80 -5 -139t22.5 -97.5t45.5 -61.5t64.5 -32.5t79.5 -9.5q93 0 187 68 t161 184.5t82 247.5z" />
<glyph unicode="&#x172;" horiz-adv-x="1316" d="M1192 1454h72l-109 -881q-55 -461 -385 -559q-101 -46 -171.5 -111.5t-74.5 -125.5q-3 -39 22 -63.5t70 -24.5q62 0 109 24l4 -59q-56 -27 -121 -27q-78 0 -113 42t-32 102q3 55 45.5 112t114.5 105v4h-31q-211 0 -314.5 124t-103.5 345q0 39 8 125l107 868h73l-106 -870 q-10 -56 -10 -119q0 -189 85.5 -295.5t262.5 -106.5q206 0 332.5 127.5t158.5 384.5z" />
<glyph unicode="&#x173;" horiz-adv-x="1056" d="M758 -311q62 0 106 24l4 -59q-52 -27 -120 -27q-72 0 -111 37.5t-35 106.5q8 118 172 243l33 267h-4q-72 -131 -180.5 -210t-223.5 -79q-156 0 -224 96t-42 307l76 598h67l-73 -596q-12 -80 -5 -139t22.5 -97.5t45.5 -61.5t64.5 -32.5t79.5 -9.5q93 0 187 68t161 184.5 t82 247.5l53 436h68l-121 -993q-165 -115 -174 -223q-2 -40 20 -64t72 -24z" />
<glyph unicode="&#x174;" horiz-adv-x="1859" d="M1100 1868l-209 -234h-80l258 283h68l194 -283h-78l-151 234h-2zM1829 1454h78l-602 -1454h-78l-193 1335h-4l-516 -1335h-80l-246 1454h76l221 -1325h7l509 1325h89l188 -1325h6z" />
<glyph unicode="&#x175;" horiz-adv-x="1386" d="M807 1378l-209 -233h-80l258 282h68l194 -282h-77l-152 233h-2zM1311 993q25 -170 12 -301q-12 -141 -46.5 -259.5t-80.5 -198t-102.5 -135.5t-112 -81.5t-109.5 -25.5q-196 0 -219 225h-4q-53 -108 -134.5 -166.5t-158.5 -58.5q-273 0 -221 414l72 587h67l-71 -583 q-44 -353 164 -353q102 0 188 117t109 285l65 534h68l-74 -594q-39 -342 158 -342q83 0 164.5 84.5t138.5 234t69 324.5q11 124 -14 293h72z" />
<glyph unicode="&#x176;" horiz-adv-x="1052" d="M692 1868l-209 -234h-80l259 283h67l195 -283h-78l-152 234h-2zM1051 1454h86l-553 -795l-82 -659h-72l82 659l-356 795h77l318 -715h6z" />
<glyph unicode="&#x177;" horiz-adv-x="1050" d="M623 1378l-209 -233h-80l258 282h67l195 -282h-78l-151 233h-2zM889 993h67l-104 -860q-16 -130 -51 -228t-81 -157.5t-107 -97t-122.5 -51t-134.5 -13.5q-153 0 -307 80l23 66q142 -78 288 -78q63 0 114.5 11.5t104 44t91.5 85.5t69.5 140t44.5 204l17 142h-4 q-72 -131 -180.5 -210t-225.5 -79q-154 0 -222 96t-42 307l74 598h67l-71 -596q-10 -101 -3 -166.5t38.5 -104t71.5 -53.5t97 -16q69 0 141.5 39.5t132 105t102.5 156t57 187.5z" />
<glyph unicode="&#x178;" horiz-adv-x="1052" d="M535 1710q-30 0 -50 21t-20 53q0 33 21.5 54.5t52.5 21.5t52 -21t21 -53q0 -31 -22 -53.5t-55 -22.5zM821 1710q-31 0 -50 21t-19 53q0 34 20.5 55t52.5 21q31 0 51.5 -21t20.5 -53q0 -31 -22 -53.5t-54 -22.5zM1051 1454h86l-553 -795l-82 -659h-72l82 659l-356 795h77 l318 -715h6z" />
<glyph unicode="&#x179;" horiz-adv-x="1130" d="M907 1915l-264 -281h-82l258 281h88zM1098 1389l-934 -1309l-2 -10h782l-8 -70h-877l9 63l940 1319v4h-734l9 68h823z" />
<glyph unicode="&#x17a;" horiz-adv-x="847" d="M766 1427l-264 -280h-82l258 280h88zM815 936l-711 -866v-7q187 0 273.5 -1.5t186 -12t161.5 -31.5l-18 -63q-103 31 -239.5 38t-463.5 7l8 59l711 869v2h-582l9 63h673z" />
<glyph unicode="&#x17b;" horiz-adv-x="1130" d="M727 1710q-31 0 -50.5 21t-19.5 53q0 34 21 55t53 21q31 0 52.5 -21t21.5 -53q0 -31 -23 -53.5t-55 -22.5zM1098 1389l-934 -1309l-2 -10h782l-8 -70h-877l9 63l940 1319v4h-734l9 68h823z" />
<glyph unicode="&#x17c;" horiz-adv-x="847" d="M516 1221q-31 0 -50.5 20.5t-19.5 52.5q0 34 21 55t53 21q31 0 52.5 -21t21.5 -53q0 -31 -23 -53t-55 -22zM815 936l-711 -866v-7q187 0 273.5 -1.5t186 -12t161.5 -31.5l-18 -63q-103 31 -239.5 38t-463.5 7l8 59l711 869v2h-582l9 63h673z" />
<glyph unicode="&#x17d;" horiz-adv-x="1130" d="M741 1632h-67l-189 283h76l148 -227h8l205 227h82zM1098 1389l-934 -1309l-2 -10h782l-8 -70h-877l9 63l940 1319v4h-734l9 68h823z" />
<glyph unicode="&#x17e;" horiz-adv-x="847" d="M530 1143h-67l-189 282h76l148 -227h8l205 227h82zM815 936l-711 -866v-7q187 0 273.5 -1.5t186 -12t161.5 -31.5l-18 -63q-103 31 -239.5 38t-463.5 7l8 59l711 869v2h-582l9 63h673z" />
<glyph unicode="&#x17f;" horiz-adv-x="538" d="M705 1401q-62 49 -158 49q-163 0 -193 -246l-147 -1204h-68l115 930h-123l6 63h123l29 228q35 295 256 295q106 0 180 -50z" />
<glyph unicode="&#x18f;" horiz-adv-x="1304" d="M686 1462q235 0 381.5 -167t146.5 -429q0 -181 -52 -340t-146.5 -278t-237.5 -187.5t-315 -68.5q-167 0 -273 87t-106 224q0 110 54.5 201t143.5 151.5t205 102t235.5 59.5t238.5 17q75 0 180 -11v43q0 232 -126 379.5t-333 147.5q-126 0 -227.5 -41.5t-167.5 -106.5 l-45 53q68 66 185.5 115t258.5 49zM467 63q273 0 456 190t212 501q-88 10 -174 10q-231 1 -415.5 -59t-286 -164.5t-101.5 -233.5q0 -109 86 -176.5t223 -67.5z" />
<glyph unicode="&#x192;" horiz-adv-x="933" d="M846 1450q-165 0 -221 -244l-62 -252h301l-16 -65h-301l-193 -791q-39 -158 -111.5 -228.5t-181.5 -70.5q-131 0 -206 82l39 51q60 -63 163 -63q82 0 140 55t90 185l188 780h-145l16 65h146l65 267q38 156 110 225.5t179 69.5q132 0 205 -80l-39 -52q-63 66 -166 66z" />
<glyph unicode="&#x19d;" horiz-adv-x="1409" d="M1260 1454h71l-176 -1454h-74l-710 1315h-4l-179 -1444q-18 -145 -73.5 -215t-165.5 -70q-65 0 -121 33l16 66q44 -33 103 -33q69 0 111.5 47t58.5 178l192 1577h70l715 -1321h4z" />
<glyph unicode="&#x1a0;" horiz-adv-x="1656" d="M1606 1585h67l-24 -207q-19 -144 -73 -207t-138 -63h-17l-2 -2q37 -107 37 -248q0 -174 -52.5 -331.5t-146.5 -276t-234.5 -188.5t-305.5 -70q-259 0 -413 160.5t-154 445.5q0 169 54 326t148.5 276t234.5 190.5t302 71.5q179 0 310 -76t196 -221q28 -4 41 -4 q60 0 94.5 50t48.5 173zM719 63q148 0 273.5 64t209.5 172.5t131 252.5t47 304q0 257 -132 397t-363 140q-116 0 -221 -42.5t-184 -118t-137.5 -175.5t-89 -217.5t-30.5 -241.5q0 -254 133 -394.5t363 -140.5z" />
<glyph unicode="&#x1a1;" horiz-adv-x="1245" d="M1194 1157h68l-25 -207q-19 -144 -73 -207t-138 -63h-22l-5 -4q5 -63 5 -78q0 -170 -60.5 -306.5t-178.5 -218t-273 -81.5q-183 0 -291.5 109.5t-108.5 304.5q0 119 36.5 227t102 189.5t163.5 130t214 48.5q144 0 243 -68t134 -196q14 -4 39 -4q60 0 94.5 50t48.5 173z M494 57q194 0 318 149.5t124 387.5q0 164 -88 253t-240 89q-194 0 -320 -151t-126 -375q0 -165 89.5 -259t242.5 -94z" />
<glyph unicode="&#x1af;" horiz-adv-x="1454" d="M1446 1585h67l-24 -207q-19 -144 -73 -207t-138 -63q-21 0 -57 4l-66 -539q-35 -291 -179 -436t-384 -145q-211 0 -314.5 124t-103.5 345q0 39 8 125l107 868h73l-106 -870q-10 -56 -10 -119q0 -189 85.5 -295.5t262.5 -106.5q206 0 332.5 127.5t158.5 384.5l107 879h72 l-35 -287q24 -6 47 -6q60 0 94.5 50t48.5 173z" />
<glyph unicode="&#x1b0;" horiz-adv-x="1185" d="M1147 1157h67l-24 -207q-19 -144 -73 -207t-138 -63q-23 0 -55 4l-84 -684h-68l35 281h-4q-72 -131 -180.5 -210t-223.5 -79q-156 0 -224 96t-42 307l76 598h67l-73 -596q-12 -80 -5 -139t22.5 -97.5t45.5 -61.5t64.5 -32.5t79.5 -9.5q93 0 187 68t161 184.5t82 247.5 l53 436h68l-31 -254q24 -6 47 -6q60 0 94.5 50t48.5 173z" />
<glyph unicode="&#x1e6;" horiz-adv-x="1441" d="M946 1632h-67l-189 283h76l147 -227h9l204 227h82zM758 639l8 70h539l-66 -527q-100 -93 -239.5 -141.5t-282.5 -48.5q-263 0 -414 163.5t-151 446.5q0 169 54 325.5t148 274.5t232.5 189t296.5 71q283 0 467 -225l-58 -49q-169 205 -407 205q-115 0 -218.5 -42 t-182.5 -116.5t-137.5 -173.5t-89 -216.5t-30.5 -240.5q0 -253 130 -398t364 -145q122 0 241 41.5t209 116.5l54 420h-467z" />
<glyph unicode="&#x1e7;" horiz-adv-x="1095" d="M692 1143h-67l-189 282h76l147 -227h9l204 227h82zM936 993h68l-107 -860q-16 -131 -50.5 -228t-81.5 -157.5t-112 -97t-133 -50.5t-153 -14q-170 0 -324 80l23 68q141 -80 305 -80q74 0 132.5 11.5t115 44t96.5 85.5t71 140t45 204l21 178h-2q-69 -130 -177 -212 t-239 -82q-158 0 -249 111t-91 284q0 152 62.5 284t181.5 215.5t268 83.5q91 0 174.5 -30.5t134.5 -87.5h7zM442 88q108 0 203.5 72t156 180.5t83.5 230.5l26 230q-51 73 -138.5 104t-166.5 31q-129 0 -232 -75.5t-156.5 -193.5t-53.5 -251q0 -146 72.5 -237t205.5 -91z" />
<glyph unicode="&#x1ea;" horiz-adv-x="1548" d="M797 -4q-159 -112 -168 -219q-2 -40 20 -64t72 -24q62 0 106 24l4 -59q-52 -27 -120 -27q-72 0 -111 37.5t-35 106.5q5 103 137 217v4q-252 5 -402 165t-150 441q0 169 54 326t148.5 276t234.5 190.5t302 71.5q259 0 413 -158t154 -446q0 -219 -79 -406t-230.5 -310.5 t-349.5 -145.5zM223 598q0 -254 133 -394.5t363 -140.5q148 0 273.5 64t209.5 172.5t131 252.5t47 304q0 257 -132 397t-363 140q-116 0 -221 -42.5t-184 -118t-137.5 -175.5t-89 -217.5t-30.5 -241.5z" />
<glyph unicode="&#x1eb;" horiz-adv-x="1097" d="M557 -4q-159 -112 -168 -219q-2 -40 20 -64t72 -24q63 0 107 24l4 -59q-52 -27 -121 -27q-72 0 -110.5 37.5t-34.5 106.5q6 110 141 219v2q-172 8 -273.5 116.5t-101.5 297.5q0 119 36.5 227t102 189.5t163.5 130t214 48.5q182 0 289 -105.5t107 -297.5 q0 -240 -120.5 -408t-326.5 -194zM162 410q0 -165 89.5 -259t242.5 -94q194 0 318 149.5t124 387.5q0 164 -88 253t-240 89q-194 0 -320 -151t-126 -375z" />
<glyph unicode="&#x1fa;" horiz-adv-x="1212" d="M760 1622q-66 0 -111 44t-45 110q0 69 46 113t116 44q74 0 121 -53l157 107l101 2l-232 -158q9 -21 9 -49q0 -69 -46.5 -114.5t-115.5 -45.5zM764 1876q-44 0 -73 -28t-29 -72q0 -43 27.5 -71t70.5 -28q46 0 75 29.5t29 73.5q0 43 -28 69.5t-72 26.5zM680 1454h80 l332 -1454h-74l-94 418h-654q-33 -69 -97 -208.5t-97 -209.5h-78zM301 485h608l-196 873h-6z" />
<glyph unicode="&#x1fb;" horiz-adv-x="1097" d="M705 1135q-66 0 -111 43.5t-45 109.5q0 69 46.5 113.5t115.5 44.5q73 0 120 -53l164 106h99l-236 -153q8 -21 8 -52q0 -69 -46 -114t-115 -45zM709 1389q-44 0 -73.5 -28.5t-29.5 -72.5q0 -43 28 -70.5t71 -27.5q46 0 75 29t29 73q0 43 -28 70t-72 27zM922 883l14 110h68 l-121 -993h-68l35 285h-4q-70 -132 -175.5 -212.5t-234.5 -80.5q-159 0 -250.5 111.5t-91.5 283.5q0 166 62.5 305.5t181.5 224t270 84.5q91 0 175 -30.5t135 -87.5h4zM442 57q108 0 203.5 72.5t155.5 186.5t82 247l30 236q-51 74 -139.5 105.5t-167.5 31.5 q-130 0 -232 -76.5t-155 -201.5t-53 -273q0 -146 72 -237t204 -91z" />
<glyph unicode="&#x1fc;" horiz-adv-x="1699" d="M1307 1915l-265 -281h-81l258 281h88zM1677 1386h-698l-78 -626h592l-8 -70h-592l-78 -620h737l-8 -70h-807l51 418h-491l-264 -418h-84l925 1454h812zM797 485l108 887h-4l-561 -887h457z" />
<glyph unicode="&#x1fd;" horiz-adv-x="1339" d="M1137 1425l-265 -280h-81l258 280h88zM938 59q65 0 140 40t128 112l56 -41q-61 -81 -150 -129.5t-174 -48.5q-126 0 -212.5 71.5t-117.5 198.5h-4q-122 -267 -309 -270q-99 0 -165.5 77t-66.5 212q0 146 49.5 273.5t136.5 218.5t210.5 143.5t265.5 52.5q52 0 141 -19 q91 51 209 51q111 0 179.5 -58.5t68.5 -156.5q0 -69 -38 -131t-100 -109.5t-149 -88.5t-178 -69.5t-194 -51.5q13 -130 86.5 -203.5t187.5 -73.5zM1251 784q0 42 -17.5 73.5t-45.5 47.5t-57 23.5t-58 7.5q-125 0 -220.5 -73.5t-144.5 -194.5t-49 -269q118 28 217.5 63.5 t187 83t137.5 109t50 129.5zM299 57q67 0 126 48.5t98 119t69 162.5v14q0 152 51 282t145 212v4q-23 2 -75 2q-166 0 -299 -80.5t-207 -222t-74 -315.5q2 -99 44 -162.5t122 -63.5z" />
<glyph unicode="&#x1fe;" horiz-adv-x="1552" d="M1219 1915l-265 -281h-82l258 281h89zM1487 1423l-148 -163q117 -154 117 -402q0 -174 -52.5 -331.5t-146.5 -276t-234.5 -188.5t-305.5 -70q-243 0 -389 137l-140 -154l-45 43l142 156q-135 160 -135 424q0 169 54 326t148.5 276t234.5 190.5t302 71.5q259 0 411 -155 l142 157zM223 598q0 -230 111 -369l915 1022q-133 142 -364 142q-116 0 -221 -42.5t-184 -118t-137.5 -175.5t-89 -217.5t-30.5 -241.5zM1380 856q0 209 -92 346l-913 -1018q130 -121 344 -121q148 0 273.5 64t209.5 172.5t131 252.5t47 304z" />
<glyph unicode="&#x1ff;" horiz-adv-x="1097" d="M913 1427l-264 -280h-82l258 280h88zM1053 973l-119 -123q70 -98 70 -252q0 -170 -60.5 -306.5t-178.5 -218t-273 -81.5q-183 0 -289 106l-121 -123l-43 35l127 131q-74 107 -74 265q0 119 36.5 227t102 189.5t163.5 130t214 48.5q186 0 291 -108l113 117zM162 410 q0 -129 55 -215l633 649q-86 92 -242 92q-194 0 -320 -151t-126 -375zM936 594q0 125 -51 207l-633 -651q90 -93 242 -93q194 0 318 149.5t124 387.5z" />
<glyph unicode="&#x218;" horiz-adv-x="1083" d="M584 778q164 -90 225 -136q145 -116 147 -253q0 -181 -123.5 -289t-320.5 -108q-131 0 -255 59.5t-200 173.5l58 51q70 -109 175 -162t222 -53q162 0 265.5 89t103.5 235q0 52 -20.5 94.5t-73.5 84.5t-87.5 63.5t-118.5 68.5q-20 11 -30 17q-45 25 -64 35.5t-60 35 t-61 40.5t-51 42t-47 49t-33.5 53t-24.5 63t-7 69q0 161 117 261.5t305 100.5q108 0 209.5 -44.5t173.5 -123.5l-56 -51q-64 73 -151.5 111.5t-179.5 38.5q-149 0 -247 -79.5t-98 -207.5q0 -57 23 -104.5t70.5 -87t91 -66.5t113.5 -65q7 -3 10 -5zM508 -111q0 -3 1 -16 t1 -29q0 -245 -195 -256l-14 47q76 7 110.5 58t34.5 155v41h62z" />
<glyph unicode="&#x219;" horiz-adv-x="808" d="M74 184q118 -127 282 -127q118 0 192.5 55t74.5 150q0 43 -18 76t-55.5 58.5t-72.5 42.5t-90 39q-12 5 -18 7q-43 19 -71.5 33.5t-63 38t-54.5 48t-33.5 60t-13.5 76.5q0 117 89.5 188.5t213.5 71.5q174 0 281 -120l-45 -50q-53 59 -110 82t-132 23q-96 0 -161.5 -54 t-65.5 -143q0 -35 15.5 -64.5t46 -53t62.5 -40.5t79 -36q5 -2 39.5 -17t42 -19t38 -18.5t39.5 -21.5t33 -23t32.5 -27t24 -29.5t21 -35.5t11 -39.5t5.5 -46.5q0 -89 -47.5 -152.5t-122 -93.5t-166.5 -30q-201 0 -329 143zM348 -111q0 -3 1 -16t1 -29q0 -245 -194 -256 l-15 47q77 8 111.5 58.5t34.5 154.5v41h61z" />
<glyph unicode="&#x21a;" horiz-adv-x="1026" d="M1081 1386h-424l-170 -1386h-71l170 1386h-420l6 68h918zM469 -111q0 -3 1 -16t1 -29q0 -245 -195 -256l-14 47q77 8 111.5 58.5t34.5 154.5v41h61z" />
<glyph unicode="&#x21b;" horiz-adv-x="673" d="M522 131l13 -70q-101 -69 -218 -69q-107 0 -144 71t-21 201l81 666h-120l8 63h121l43 353l67 10l-43 -363h340l-6 -63h-342l-80 -662q-6 -62 -2.5 -108t31.5 -73.5t82 -27.5q96 0 190 72zM303 -111q0 -3 1 -16t1 -29q0 -245 -194 -256l-15 47q77 8 111.5 58.5t34.5 154.5 v41h61z" />
<glyph unicode="&#x2c6;" horiz-adv-x="980" d="M748 1116l-152 234h-2l-209 -234h-80l258 283h68l194 -283h-77z" />
<glyph unicode="&#x2c7;" horiz-adv-x="980" d="M778 1399h82l-262 -283h-68l-188 283h76l147 -228h8z" />
<glyph unicode="&#x2d8;" horiz-adv-x="892" d="M518 1118q-96 0 -151 70t-48 196l60 -2q-5 -94 30 -148t111 -54q85 0 140 56.5t69 147.5l62 -2q-23 -124 -98 -194t-175 -70z" />
<glyph unicode="&#x2d9;" horiz-adv-x="933" d="M563 1343q31 0 52.5 -20.5t21.5 -52.5q0 -31 -23 -53.5t-55 -22.5q-31 0 -50.5 21t-19.5 53q0 34 20.5 54.5t53.5 20.5z" />
<glyph unicode="&#x2da;" horiz-adv-x="858" d="M526 1417q67 0 111.5 -42.5t44.5 -108.5q0 -69 -46.5 -114.5t-115.5 -45.5q-66 0 -110.5 44t-44.5 110q0 69 46 113t115 44zM524 1360q-44 0 -73 -28t-29 -72q0 -43 27.5 -71t70.5 -28q46 0 75.5 29.5t29.5 73.5q0 43 -28.5 69.5t-72.5 26.5z" />
<glyph unicode="&#x2db;" horiz-adv-x="890" d="M528 -346q-52 -27 -120 -27q-72 0 -111 37.5t-35 106.5q8 126 191 258l47 -29q-165 -115 -174 -223q-2 -40 20 -64t72 -24q62 0 106 24z" />
<glyph unicode="&#x2dc;" horiz-adv-x="978" d="M274 1190q70 166 183 166q27 0 53 -11t41 -22t41 -33q27 -24 40.5 -35.5t37.5 -23.5t45 -12q36 0 69.5 31t57.5 93l51 -22q-32 -82 -78.5 -124t-95.5 -42q-11 0 -23 2.5t-21 5t-21.5 9.5t-18.5 10.5t-19 13.5t-16.5 13t-17 14.5t-15.5 13.5q-62 55 -106 55 q-80 0 -135 -125z" />
<glyph unicode="&#x2dd;" horiz-adv-x="970" d="M543 1399h82l-265 -281h-75zM791 1399h81l-264 -281h-73z" />
<glyph unicode="&#x374;" horiz-adv-x="450" d="M307 1477h74l-154 -480h-65z" />
<glyph unicode="&#x375;" horiz-adv-x="450" d="M240 195h73l-153 -480h-66z" />
<glyph unicode="&#x37e;" horiz-adv-x="376" d="M238 1018q31 0 52 -22t21 -54q0 -31 -23 -52.5t-55 -21.5q-30 0 -49.5 20.5t-19.5 51.5q0 33 21 55.5t53 22.5zM111 193h79l-141 -455h-57z" />
<glyph unicode="&#x386;" horiz-adv-x="1208" d="M1014 0l-94 418h-654q-33 -69 -97 -208.5t-97 -209.5h-78l682 1454h80l331 -1454h-73zM377 1438l-191 -320h-71l180 320h82zM297 485h608l-196 873h-7z" />
<glyph unicode="&#x388;" horiz-adv-x="1099" d="M952 70l-8 -70h-809l178 1454h770l-8 -68h-696l-78 -624h584l-8 -70h-584l-76 -622h735zM74 1438h82l-191 -320h-71z" />
<glyph unicode="&#x389;" horiz-adv-x="1349" d="M1274 1454l-176 -1454h-72l80 651h-817l-80 -651h-74l178 1454h72l-88 -733h817l88 733h72zM74 1438h82l-191 -320h-71z" />
<glyph unicode="&#x38a;" horiz-adv-x="479" d="M215 0h-72l179 1454h71zM66 1438h81l-190 -320h-72z" />
<glyph unicode="&#x38c;" horiz-adv-x="1552" d="M891 1462q259 0 413 -158t154 -446q0 -174 -52.5 -331.5t-146.5 -276t-234.5 -188.5t-305.5 -70q-259 0 -413 160.5t-154 445.5q0 169 54 326t148.5 276t234.5 190.5t302 71.5zM184 1438h82l-190 -320h-72zM721 63q148 0 273.5 64t209.5 172.5t131 252.5t47 304 q0 257 -132 397t-363 140q-116 0 -221 -42.5t-184 -118t-137.5 -175.5t-89 -217.5t-30.5 -241.5q0 -254 133 -394.5t363 -140.5z" />
<glyph unicode="&#x38e;" horiz-adv-x="1058" d="M1055 1454h86l-553 -795l-82 -659h-72l82 659l-356 795h78l317 -715h6zM-197 1118l181 320h82l-191 -320h-72z" />
<glyph unicode="&#x38f;" horiz-adv-x="1478" d="M940 74v-4h338l-8 -70h-473l8 70q237 114 374.5 315t137.5 449q0 112 -32.5 212t-92 177t-152.5 122.5t-206 45.5q-175 0 -312.5 -97.5t-210.5 -259t-73 -354.5q0 -200 89 -360t246 -250l-10 -70h-471l8 70h355v2q-137 95 -214 256.5t-77 351.5q0 215 84 393t239 283.5 t349 105.5q130 0 237 -51t176 -137.5t106.5 -198t37.5 -235.5q0 -242 -122.5 -445.5t-330.5 -320.5zM168 1438h82l-191 -320h-71z" />
<glyph unicode="&#x390;" horiz-adv-x="503" d="M422 1466h82l-170 -319h-74zM88 1372q31 0 51.5 -21t20.5 -53q0 -31 -22 -53t-54 -22q-31 0 -50.5 20.5t-19.5 52.5q0 34 21 55t53 21zM575 1372q31 0 52.5 -21t21.5 -53q0 -31 -22.5 -53t-55.5 -22q-30 0 -49.5 20.5t-19.5 52.5q0 33 21 54.5t52 21.5zM430 25 q-60 -33 -129 -33q-57 0 -93.5 20t-51.5 55t-18.5 83.5t5.5 105.5l90 737h68l-88 -717q-8 -69 -6 -117.5t28.5 -75t81.5 -26.5q43 0 103 29z" />
<glyph unicode="&#x391;" horiz-adv-x="1212" d="M1018 0l-94 418h-654q-33 -69 -97 -208.5t-97 -209.5h-78l682 1454h80l332 -1454h-74zM301 485h608l-196 873h-6z" />
<glyph unicode="&#x392;" horiz-adv-x="1183" d="M815 760q109 -25 173.5 -97t64.5 -196q0 -209 -146 -338t-370 -129h-406l178 1454h420q152 0 246 -68t94 -215q0 -130 -66.5 -242t-185.5 -157zM373 1386l-74 -595h342q156 0 255 107.5t99 266.5q0 108 -67 164.5t-215 56.5h-340zM532 70q189 0 318 107t129 282 q0 134 -84.5 199t-255.5 65h-346l-80 -653h319z" />
<glyph unicode="&#x393;" horiz-adv-x="1024" d="M1090 1386h-717l-170 -1386h-74l180 1454h789z" />
<glyph unicode="&#x394;" horiz-adv-x="1177" d="M745 1454l318 -1393l-10 -61h-54h-985h-12l6 61l656 1393h81zM88 70h895l-285 1294h-6z" />
<glyph unicode="&#x395;" horiz-adv-x="1095" d="M948 70l-8 -70h-809l178 1454h770l-8 -68h-696l-78 -624h584l-9 -70h-583l-76 -622h735z" />
<glyph unicode="&#x396;" horiz-adv-x="1130" d="M1098 1389l-934 -1309l-2 -10h782l-8 -70h-877l9 63l940 1319v4h-734l9 68h823z" />
<glyph unicode="&#x397;" horiz-adv-x="1345" d="M1270 1454l-176 -1454h-72l80 651h-817l-80 -651h-74l178 1454h72l-88 -733h817l88 733h72z" />
<glyph unicode="&#x398;" horiz-adv-x="1548" d="M895 1462q259 0 413 -158t154 -446q0 -174 -52.5 -331.5t-146.5 -276t-234.5 -188.5t-305.5 -70q-259 0 -413 160.5t-154 445.5q0 169 54 326t148.5 276t234.5 190.5t302 71.5zM725 63q148 0 273.5 64t209.5 172.5t131 252.5t47 304q0 257 -132 397t-363 140 q-116 0 -221 -42.5t-184 -118t-137.5 -175.5t-89 -217.5t-30.5 -241.5q0 -254 133 -394.5t363 -140.5zM416 686l8 70h754l-9 -70h-753z" />
<glyph unicode="&#x399;" horiz-adv-x="483" d="M217 0h-72l179 1454h71z" />
<glyph unicode="&#x39a;" horiz-adv-x="1187" d="M1204 1454l-612 -682l444 -772h-88l-409 709h-4l-283 -314l-47 -395h-74l178 1454h72l-115 -940h6l840 940h92z" />
<glyph unicode="&#x39b;" horiz-adv-x="1216" d="M1018 0l-303 1360h-4l-631 -1360h-78l680 1454h80l330 -1454h-74z" />
<glyph unicode="&#x39c;" horiz-adv-x="1636" d="M1489 1454h74l-179 -1454h-71l157 1294h-4l-641 -981h-55l-403 990h-5l-157 -1303h-74l178 1454h74l422 -1042h6z" />
<glyph unicode="&#x39d;" horiz-adv-x="1409" d="M1260 1454h71l-176 -1454h-74l-712 1317h-2l-162 -1317h-74l178 1454h70l715 -1319h4z" />
<glyph unicode="&#x39e;" horiz-adv-x="1146" d="M1108 1382h-852l10 72h850zM950 684h-708l10 72h709zM950 0h-876l10 72h877z" />
<glyph unicode="&#x39f;" horiz-adv-x="1548" d="M889 1462q259 0 413 -158t154 -446q0 -174 -52.5 -331.5t-146.5 -276t-234.5 -188.5t-305.5 -70q-259 0 -413 160.5t-154 445.5q0 169 54 326t148.5 276t234.5 190.5t302 71.5zM719 63q148 0 273.5 64t209.5 172.5t131 252.5t47 304q0 257 -132 397t-363 140 q-116 0 -221 -42.5t-184 -118t-137.5 -175.5t-89 -217.5t-30.5 -241.5q0 -254 133 -394.5t363 -140.5z" />
<glyph unicode="&#x3a0;" horiz-adv-x="1302" d="M309 1454h922l-180 -1454h-72l170 1386h-776l-170 -1386h-74z" />
<glyph unicode="&#x3a1;" horiz-adv-x="1126" d="M748 1454q178 0 270 -90.5t92 -253.5q0 -226 -133 -363t-363 -137h-335l-74 -610h-74l178 1454h439zM623 680q192 0 301.5 118t109.5 312q0 142 -81.5 209t-217.5 67h-362l-86 -706h336z" />
<glyph unicode="&#x3a3;" horiz-adv-x="1060" d="M1073 1386h-751v-8l305 -647l-463 -653l-2 -8h749l-8 -70h-846l9 59l473 672l-310 664l9 59h843z" />
<glyph unicode="&#x3a4;" horiz-adv-x="1026" d="M1081 1386h-424l-170 -1386h-71l170 1386h-420l6 68h918z" />
<glyph unicode="&#x3a5;" horiz-adv-x="1052" d="M1051 1454h86l-553 -795l-82 -659h-72l82 659l-356 795h77l318 -715h6z" />
<glyph unicode="&#x3a6;" horiz-adv-x="1533" d="M1450 852q2 -146 -45 -277t-134.5 -231t-221 -161t-293.5 -66l-17 -117h-71l14 119q-243 11 -390 148.5t-151 371.5q-2 141 46.5 271.5t137.5 231t222.5 163t290.5 67.5l12 98h72l-13 -100q160 -7 279.5 -67.5t189 -176t72.5 -274.5zM215 641q4 -205 130.5 -325.5 t346.5 -129.5l139 1117q-178 -8 -320.5 -98t-220.5 -238.5t-75 -325.5zM762 186q183 8 324.5 96t217.5 236.5t72 331.5q-3 206 -129 325t-348 128z" />
<glyph unicode="&#x3a7;" horiz-adv-x="1161" d="M1208 1454l-553 -731l373 -723h-84l-340 659h-2l-504 -659h-86l551 725l-375 729h82l342 -666h4l502 666h90z" />
<glyph unicode="&#x3a8;" horiz-adv-x="1472" d="M1356 1454h71l-63 -518q-18 -140 -59.5 -242.5t-114 -176t-181 -110.5t-255.5 -38l-45 -369h-72l45 369q-274 1 -387 141.5t-78 427.5l66 516h71l-63 -514q-17 -119 -3.5 -212.5t57.5 -158t130 -98.5t215 -35l125 1018h74l-127 -1018q246 3 371 124t159 382z" />
<glyph unicode="&#x3a9;" horiz-adv-x="1474" d="M936 74v-4h338l-8 -70h-473l8 70q237 114 374.5 315t137.5 449q0 150 -55 275t-167 203.5t-262 78.5q-175 0 -312.5 -97.5t-210.5 -259t-73 -354.5q0 -200 89.5 -360t246.5 -250l-10 -70h-471l8 70h355v2q-137 95 -214 256.5t-77 351.5q0 215 84 393t238.5 283.5 t348.5 105.5q172 0 301 -88t193 -227.5t64 -306.5q0 -242 -122.5 -445.5t-330.5 -320.5z" />
<glyph unicode="&#x3aa;" horiz-adv-x="483" d="M193 1862q31 0 52 -21t21 -53q0 -31 -22.5 -53.5t-55.5 -22.5q-29 0 -49 21t-20 53q0 33 21.5 54.5t52.5 21.5zM612 1862q31 0 51.5 -21t20.5 -53q0 -31 -22 -53.5t-54 -22.5q-31 0 -51 21t-20 53q0 34 21.5 55t53.5 21zM217 0h-72l179 1454h71z" />
<glyph unicode="&#x3ab;" horiz-adv-x="1052" d="M469 1712q-30 0 -50 21t-20 53q0 33 21.5 54.5t52.5 21.5t52.5 -21t21.5 -53q0 -31 -22.5 -53.5t-55.5 -22.5zM889 1712q-31 0 -51.5 21t-20.5 53q0 33 21.5 54.5t54.5 21.5q31 0 51.5 -21t20.5 -53q0 -31 -22 -53.5t-54 -22.5zM1051 1454h86l-553 -795l-82 -659h-72 l82 659l-356 795h77l318 -715h6z" />
<glyph unicode="&#x3ac;" horiz-adv-x="1153" d="M862 1468l-170 -319h-74l162 319h82zM977 57q31 0 88 21l14 -62q-49 -24 -114 -24q-83 0 -120 68t-34 204v68h-2q-76 -156 -183.5 -248t-242.5 -92q-128 0 -212.5 104t-84.5 287q0 111 32 220t90 198t147.5 144.5t195.5 55.5q141 0 218 -105t93 -284h4l154 392l63 -23 l-211 -514v-180q0 -120 22.5 -175t82.5 -55zM387 59q253 0 422 420q1 131 -25.5 231t-85.5 162t-145 62q-91 0 -168.5 -50.5t-126 -130.5t-75.5 -175.5t-27 -190.5q0 -147 63 -237.5t168 -90.5z" />
<glyph unicode="&#x3ad;" horiz-adv-x="886" d="M739 1468l-170 -319h-73l161 319h82zM514 934q-128 2 -215.5 -61.5t-87.5 -172.5q0 -65 52 -112t159 -47h176l-4 -64h-203q-110 0 -183 -71t-73 -170q0 -85 63.5 -132t182.5 -47q209 0 377 129l24 -57q-186 -137 -409 -137q-146 0 -225.5 61t-79.5 170q0 101 51.5 178 t142.5 111v6q-119 61 -119 184q0 133 106 216t261 83q192 0 336 -114l-29 -56q-137 103 -303 103z" />
<glyph unicode="&#x3ae;" horiz-adv-x="1095" d="M829 1468l-170 -319h-73l162 319h81zM713 1001q300 0 248 -403l-132 -1004h-67l131 1000q12 80 6.5 138.5t-20 97.5t-42 62.5t-59.5 33.5t-73 10q-135 0 -271.5 -143.5t-169.5 -335.5l-57 -457h-68l88 725q14 123 0.5 168t-53.5 45q-17 0 -41 -6l-2 59q33 10 53 10 q73 0 101.5 -61.5t11.5 -210.5q0 -3 -1 -9t-1 -9h4q76 132 189.5 211t224.5 79z" />
<glyph unicode="&#x3af;" horiz-adv-x="503" d="M418 1466h82l-170 -319h-74zM430 25q-60 -33 -129 -33q-57 0 -93.5 20t-51.5 55t-18.5 83.5t5.5 105.5l90 737h68l-88 -717q-8 -69 -6 -117.5t28.5 -75t81.5 -26.5q43 0 103 29z" />
<glyph unicode="&#x3b0;" horiz-adv-x="1036" d="M725 1468h82l-170 -319h-74zM391 1374q31 0 51.5 -21t20.5 -53q0 -31 -22 -53t-54 -22q-31 0 -50.5 20.5t-19.5 52.5q0 34 21 55t53 21zM879 1374q31 0 52 -21t21 -53q0 -31 -22.5 -53t-55.5 -22q-30 0 -49.5 20.5t-19.5 52.5q0 33 21.5 54.5t52.5 21.5zM420 -8 q-135 0 -215 91t-70 253q9 120 44.5 286.5t35.5 235.5q1 27 -4 44t-16 23.5t-20 8.5t-23 2q-25 0 -43 -6l-3 61q45 10 60 10q55 0 88 -27.5t33 -107.5q-1 -72 -36.5 -242.5t-43.5 -281.5q-10 -127 50 -206t167 -79q130 0 232.5 93t158 251.5t57.5 352.5q3 104 -16 235l66 17 q23 -138 20 -250q-1 -117 -22 -227t-64 -208t-103.5 -171t-146 -115.5t-186.5 -42.5z" />
<glyph unicode="&#x3b1;" horiz-adv-x="1153" d="M977 57q31 0 88 21l14 -62q-49 -24 -114 -24q-83 0 -120 68t-34 204v68h-2q-76 -156 -183.5 -248t-242.5 -92q-128 0 -212.5 104t-84.5 287q0 111 32 220t90 198t147.5 144.5t195.5 55.5q141 0 218 -105t93 -284h4l154 392l63 -23l-211 -514v-180q0 -120 22.5 -175 t82.5 -55zM387 59q253 0 422 420q1 131 -25.5 231t-85.5 162t-145 62q-91 0 -168.5 -50.5t-126 -130.5t-75.5 -175.5t-27 -190.5q0 -147 63 -237.5t168 -90.5z" />
<glyph unicode="&#x3b2;" horiz-adv-x="1050" d="M1032 1221q-1 -123 -74.5 -234t-209.5 -201v-6q89 -47 142.5 -139t53.5 -195q0 -191 -119.5 -322.5t-300.5 -131.5q-177 0 -290.5 134.5t-112.5 383.5q0 207 46 392.5t125.5 320.5t192.5 214t242 79q149 0 228 -83.5t77 -211.5zM725 1450q-111 0 -207 -68.5t-161.5 -183 t-107 -258.5t-54.5 -301q348 73 558 233t210 349q0 105 -61.5 167t-176.5 62zM877 442q0 98 -54.5 182t-144.5 119q-200 -113 -488 -172q-2 -20 -2 -61q0 -209 92.5 -331t245.5 -122q101 0 182.5 54t125 141.5t43.5 189.5z" />
<glyph unicode="&#x3b3;" horiz-adv-x="964" d="M934 993q-26 -127 -71.5 -253t-95 -226t-118 -209t-122 -183.5t-124.5 -166.5q-3 -167 -24 -361h-74q49 373 -2 723q-38 325 -87 473t-116 148q-16 0 -34 -6l-3 59q27 10 48 10q73 0 124.5 -82t88.5 -255q56 -277 73 -598h6q76 100 136 191.5t126 209.5t116 252t79 274 h74z" />
<glyph unicode="&#x3b4;" horiz-adv-x="1062" d="M668 1450q-128 -1 -207.5 -64t-79.5 -153q0 -61 37.5 -107t124.5 -88q27 -13 78.5 -37.5t78.5 -37.5q145 -69 208 -160.5t63 -237.5q0 -159 -61 -289.5t-174.5 -207t-256.5 -76.5q-185 0 -288 114.5t-103 294.5q0 196 106.5 351t290.5 235v4q-95 52 -134.5 109.5 t-39.5 130.5q0 119 99 202t258 83q200 0 342 -119l-33 -62q-83 65 -156 90t-153 25zM901 561q0 122 -51.5 202t-177.5 140q-40 19 -109 51q-188 -71 -296.5 -217.5t-108.5 -333.5q0 -157 88 -251.5t233 -94.5q184 0 303 144t119 360z" />
<glyph unicode="&#x3b5;" horiz-adv-x="886" d="M514 934q-128 2 -215.5 -61.5t-87.5 -172.5q0 -65 52 -112t159 -47h176l-4 -64h-203q-110 0 -183 -71t-73 -170q0 -85 63.5 -132t182.5 -47q209 0 377 129l24 -57q-186 -137 -409 -137q-146 0 -225.5 61t-79.5 170q0 101 51.5 178t142.5 111v6q-119 61 -119 184 q0 133 106 216t261 83q192 0 336 -114l-29 -56q-137 103 -303 103z" />
<glyph unicode="&#x3b6;" horiz-adv-x="808" d="M942 1450q-353 -268 -567.5 -550.5t-214.5 -500.5q0 -54 14.5 -95.5t39.5 -70.5t66.5 -54.5t86 -45.5t106.5 -45q5 -2 8.5 -3.5t7.5 -2.5q130 -53 176 -91t46 -106q0 -115 -150 -297l-57 35q72 88 104.5 143.5t32.5 112.5q0 48 -32.5 72t-125.5 62q-16 7 -24 10 q-160 65 -218 101q-122 76 -146 198q-7 35 -7 75q0 105 46 222.5t118 223.5t173 217.5t197.5 200t206.5 177.5l2 6h-581l6 63h692z" />
<glyph unicode="&#x3b7;" horiz-adv-x="1095" d="M713 1001q300 0 248 -403l-132 -1004h-67l131 1000q12 80 6.5 138.5t-20 97.5t-42 62.5t-59.5 33.5t-73 10q-135 0 -271.5 -143.5t-169.5 -335.5l-57 -457h-68l88 725q14 123 0.5 168t-53.5 45q-17 0 -41 -6l-2 59q33 10 53 10q73 0 101.5 -61.5t11.5 -210.5q0 -3 -1 -9 t-1 -9h4q76 132 189.5 211t224.5 79z" />
<glyph unicode="&#x3b8;" horiz-adv-x="1085" d="M664 1516q360 0 360 -539q0 -147 -19.5 -286t-62.5 -266.5t-105 -223t-153.5 -152.5t-200.5 -57q-77 0 -140 29t-113.5 90.5t-78.5 167t-28 247.5q0 141 20.5 280t64.5 267.5t106.5 226.5t153 157t196.5 59zM662 1450q-159 0 -281.5 -178t-167.5 -463h735q6 80 6 166 q0 242 -71 358.5t-221 116.5zM483 57q176 0 299.5 189t159.5 499h-737q-12 -105 -12 -215q0 -230 76 -351.5t214 -121.5z" />
<glyph unicode="&#x3b9;" horiz-adv-x="503" d="M430 25q-60 -33 -129 -33q-57 0 -93.5 20t-51.5 55t-18.5 83.5t5.5 105.5l90 737h68l-88 -717q-8 -69 -6 -117.5t28.5 -75t81.5 -26.5q43 0 103 29z" />
<glyph unicode="&#x3ba;" horiz-adv-x="1044" d="M860 57q36 0 88 21l15 -60q-47 -26 -111 -26q-86 0 -136 67.5t-77 194.5q-31 134 -41 350h-4q-233 -236 -406 -461l-18 -143h-68l123 993h68l-84 -686q0 -13 -4 -41h4q270 347 721 748l53 -45q-188 -163 -328 -303q14 -244 47 -390q53 -219 158 -219z" />
<glyph unicode="&#x3bb;" d="M752 0q-61 456 -156 901h-4l-508 -901h-80l567 999l-55 238q-24 100 -68.5 156.5t-107.5 56.5q-47 0 -90 -14l-6 61q44 19 106 19q96 0 150 -70t90 -207q120 -469 237 -1239h-75z" />
<glyph unicode="&#x3bc;" horiz-adv-x="1095" d="M1006 70l16 -60q-46 -18 -98 -18q-51 0 -83.5 18.5t-45.5 50t-16.5 73.5t3.5 89h-4q-64 -114 -157.5 -172.5t-196.5 -58.5q-184 0 -240 170h-2q-18 -212 -18 -215l-45 -353h-68l172 1399h70l-80 -651q-4 -79 12.5 -136.5t48 -88.5t69 -45.5t83.5 -14.5q133 0 244 115 t145 324l62 497h67l-90 -743q-6 -57 -6.5 -100t22.5 -68t72 -25q23 0 64 13z" />
<glyph unicode="&#x3bd;" horiz-adv-x="958" d="M856 993h72q-67 -304 -206 -561t-321 -432h-79l-203 993h71l187 -921h4q190 202 301.5 428.5t173.5 492.5z" />
<glyph unicode="&#x3be;" horiz-adv-x="845" d="M934 1446q-130 -9 -237 -37t-190 -76t-129 -122t-46 -167q0 -88 72.5 -147t207.5 -59h152l-2 -66h-164q-121 0 -219.5 -40.5t-159.5 -124.5t-61 -199q0 -101 60.5 -167.5t201.5 -127.5q171 -74 208 -95q73 -43 88 -98q5 -20 5 -43q0 -62 -37.5 -128t-116.5 -161l-55 37 q75 91 107 147t32 101q0 49 -39 75.5t-184 87.5q-25 11 -39 17q-160 68 -231.5 147.5t-71.5 202.5q0 153 90.5 261.5t235.5 146.5l2 6q-71 33 -111.5 90.5t-40.5 132.5q0 79 28 146t78.5 115t110.5 82t133 57v4h-340l9 63h661z" />
<glyph unicode="&#x3bf;" horiz-adv-x="1077" d="M600 1001q173 0 281 -108.5t108 -294.5q0 -170 -59.5 -306.5t-176.5 -218t-274 -81.5q-169 0 -280 110t-111 301q0 119 36.5 227.5t101.5 190.5t162.5 131t211.5 49zM600 936q-189 0 -314.5 -152t-125.5 -376q0 -160 91 -255.5t230 -95.5q195 0 317 149.5t122 387.5 q0 160 -88.5 251t-231.5 91z" />
<glyph unicode="&#x3c0;" horiz-adv-x="1083" d="M907 930l-84 -680q-5 -57 -5 -100t23 -68t72 -25q25 0 66 13l14 -60q-47 -18 -96 -18q-51 0 -84 18.5t-46.5 50.5t-17 75.5t4.5 94.5l86 699h-502l-115 -930h-67l112 930h-180l8 53q74 10 183 10h854l-11 -63h-215z" />
<glyph unicode="&#x3c1;" horiz-adv-x="1075" d="M610 1001q168 0 272.5 -106t104.5 -291q0 -126 -38.5 -239.5t-105.5 -195t-161.5 -129.5t-200.5 -48q-101 0 -188.5 53t-126.5 133h-4l-72 -584h-67l112 912q15 126 59.5 223.5t109.5 155.5t142 87t164 29zM479 57q122 0 224 73.5t159.5 197.5t57.5 270q0 154 -84.5 246 t-229.5 92q-156 0 -268 -112t-137 -320l-25 -209q20 -68 56.5 -117.5t81 -74.5t85 -35.5t80.5 -10.5z" />
<glyph unicode="&#x3c2;" horiz-adv-x="905" d="M158 418q0 -59 15.5 -105t39 -76.5t67 -58t84 -46t104.5 -45.5q9 -3 13 -5q124 -51 171.5 -94t47.5 -113q0 -58 -36 -123t-111 -164l-57 35q45 57 68 89t46 78t23 81q0 51 -41 80t-150 74h-1l-1 1h-2q-148 61 -207 102q-126 88 -141 242q-2 23 -2 48q-1 155 60 288 t174.5 214t255.5 81q84 0 172 -40.5t141 -118.5l-57 -43q-44 67 -116 102t-140 35q-121 0 -218 -71.5t-149.5 -189.5t-52.5 -257z" />
<glyph unicode="&#x3c3;" horiz-adv-x="1071" d="M1073 930h-266l-6 -8q72 -50 116 -137t44 -201q0 -158 -60.5 -292t-176.5 -217t-265 -83q-167 0 -269 110.5t-102 303.5q0 117 36 223.5t99.5 187t158 128.5t204.5 48h495zM891 586q0 137 -62 225.5t-167 118.5h-76q-184 0 -306 -149.5t-122 -374.5q0 -161 81.5 -254 t221.5 -93q185 0 307.5 150t122.5 377z" />
<glyph unicode="&#x3c4;" horiz-adv-x="837" d="M276 268l82 662h-292l8 63h757l-8 -63h-397l-80 -662q-12 -102 10 -156.5t99 -54.5q94 0 192 72l10 -68q-94 -69 -215 -69q-107 0 -144.5 71t-21.5 205z" />
<glyph unicode="&#x3c5;" horiz-adv-x="1036" d="M420 -8q-135 0 -215 91t-70 253q9 120 44.5 286.5t35.5 235.5q1 27 -4 44t-16 23.5t-20 8.5t-23 2q-25 0 -43 -6l-3 61q45 10 60 10q55 0 88 -27.5t33 -107.5q-1 -72 -36.5 -242.5t-43.5 -281.5q-10 -127 50 -206t167 -79q130 0 232.5 93t158 251.5t57.5 352.5 q3 104 -16 235l66 17q23 -138 20 -250q-1 -117 -22 -227t-64 -208t-103.5 -171t-146 -115.5t-186.5 -42.5z" />
<glyph unicode="&#x3c6;" horiz-adv-x="1255" d="M1169 616q-1 -147 -47.5 -266t-126.5 -195.5t-183 -118.5t-220 -44l-47 -398h-70l49 398q-90 2 -167 29.5t-137 80t-94 137t-34 191.5q0 327 262 582l54 -29q-125 -128 -185.5 -262t-60.5 -287q0 -181 101 -279t269 -98l76 613q12 96 41.5 164t70 102.5t81.5 49t86 13.5 q114 0 198 -100t84 -283zM600 57q103 4 193 43.5t158.5 109t108.5 175t40 233.5q0 142 -59.5 229t-159.5 87q-30 0 -58.5 -11.5t-59.5 -38.5t-54 -82.5t-33 -133.5z" />
<glyph unicode="&#x3c7;" horiz-adv-x="962" d="M793 -348q16 0 34 6l2 -61q-29 -11 -47 -11q-36 0 -60.5 8t-51 32t-49.5 72.5t-46 125.5l-126 422h-3l-421 -652h-78l475 730l-131 436q-18 61 -37.5 99t-40 53.5t-35.5 19.5t-37 4q-7 0 -35 -4l-2 59q27 10 48 10q36 0 61 -7.5t52 -31t50 -72t45 -126.5l107 -365h4 l387 594h80l-444 -676l149 -487q19 -61 38.5 -99.5t40.5 -54.5t35 -20t36 -4z" />
<glyph unicode="&#x3c8;" horiz-adv-x="1257" d="M1141 1006q23 -135 20 -252q-1 -119 -19.5 -225.5t-60.5 -205.5t-105 -171t-158 -115.5t-214 -44.5l-49 -398h-68l50 398h-5q-63 0 -118 11t-106 37.5t-87.5 66.5t-58 102t-21.5 141q0 111 33 275t33 243q0 90 -23 125h74q18 -41 18 -127q0 -83 -32.5 -248t-32.5 -264 q0 -81 26.5 -140t74.5 -92t105.5 -48.5t127.5 -16.5l151 1241l70 5l-154 -1246q118 1 210.5 54t151 148t88.5 219.5t32 273.5q0 104 -19 237z" />
<glyph unicode="&#x3c9;" horiz-adv-x="1388" d="M1157 1008q137 -200 137 -437q0 -155 -46 -285.5t-137.5 -212t-211.5 -81.5q-107 0 -167.5 66t-72.5 190h-4q-47 -124 -122.5 -190t-178.5 -66q-127 0 -198.5 97.5t-71.5 270.5q0 174 72.5 352t199.5 300l58 -31q-122 -118 -191 -287.5t-69 -328.5q0 -149 55.5 -228.5 t150.5 -79.5q112 0 187.5 111t105.5 311l33 266h70l-35 -268h2q-50 -420 178 -420q100 0 176 75.5t113 191.5t37 249q0 209 -125 410z" />
<glyph unicode="&#x3ca;" horiz-adv-x="503" d="M98 1372q31 0 52.5 -21t21.5 -53q0 -31 -22.5 -53t-55.5 -22q-30 0 -49.5 20.5t-19.5 52.5q0 33 21 54.5t52 21.5zM518 1372q31 0 51.5 -21t20.5 -53q0 -31 -22 -53t-54 -22q-31 0 -51.5 20.5t-20.5 52.5q0 33 21.5 54.5t54.5 21.5zM430 25q-60 -33 -129 -33 q-57 0 -93.5 20t-51.5 55t-18.5 83.5t5.5 105.5l90 737h68l-88 -717q-8 -69 -6 -117.5t28.5 -75t81.5 -26.5q43 0 103 29z" />
<glyph unicode="&#x3cb;" horiz-adv-x="1036" d="M401 1374q31 0 52.5 -21t21.5 -53q0 -31 -22.5 -53t-55.5 -22q-30 0 -49.5 20.5t-19.5 52.5q0 33 21 54.5t52 21.5zM821 1374q31 0 51.5 -21t20.5 -53q0 -31 -22 -53t-54 -22q-31 0 -51.5 20.5t-20.5 52.5q0 33 21.5 54.5t54.5 21.5zM420 -8q-135 0 -215 91t-70 253 q9 120 44.5 286.5t35.5 235.5q1 27 -4 44t-16 23.5t-20 8.5t-23 2q-25 0 -43 -6l-3 61q45 10 60 10q55 0 88 -27.5t33 -107.5q-1 -72 -36.5 -242.5t-43.5 -281.5q-10 -127 50 -206t167 -79q130 0 232.5 93t158 251.5t57.5 352.5q3 104 -16 235l66 17q23 -138 20 -250 q-1 -117 -22 -227t-64 -208t-103.5 -171t-146 -115.5t-186.5 -42.5z" />
<glyph unicode="&#x3cc;" horiz-adv-x="1077" d="M745 1466h82l-170 -319h-73zM600 1001q173 0 281 -108.5t108 -294.5q0 -170 -59.5 -306.5t-176.5 -218t-274 -81.5q-169 0 -280 110t-111 301q0 119 36.5 227.5t101.5 190.5t162.5 131t211.5 49zM600 936q-189 0 -314.5 -152t-125.5 -376q0 -160 91 -255.5t230 -95.5 q195 0 317 149.5t122 387.5q0 160 -88.5 251t-231.5 91z" />
<glyph unicode="&#x3cd;" horiz-adv-x="1036" d="M721 1468h82l-170 -319h-74zM420 -8q-135 0 -215 91t-70 253q9 120 44.5 286.5t35.5 235.5q1 27 -4 44t-16 23.5t-20 8.5t-23 2q-25 0 -43 -6l-3 61q45 10 60 10q55 0 88 -27.5t33 -107.5q-1 -72 -36.5 -242.5t-43.5 -281.5q-10 -127 50 -206t167 -79q130 0 232.5 93 t158 251.5t57.5 352.5q3 104 -16 235l66 17q23 -138 20 -250q-1 -117 -22 -227t-64 -208t-103.5 -171t-146 -115.5t-186.5 -42.5z" />
<glyph unicode="&#x3ce;" horiz-adv-x="1388" d="M981 1468l-170 -319h-74l162 319h82zM1157 1008q137 -200 137 -437q0 -155 -46 -285.5t-137.5 -212t-211.5 -81.5q-107 0 -167.5 66t-72.5 190h-4q-47 -124 -122.5 -190t-178.5 -66q-127 0 -198.5 97.5t-71.5 270.5q0 174 72.5 352t199.5 300l58 -31 q-122 -118 -191 -287.5t-69 -328.5q0 -149 55.5 -228.5t150.5 -79.5q112 0 187.5 111t105.5 311l33 266h70l-35 -268h2q-50 -420 178 -420q100 0 176 75.5t113 191.5t37 249q0 209 -125 410z" />
<glyph unicode="&#x3d7;" horiz-adv-x="1132" d="M688 258q16 -66 36 -104.5t54 -62.5t76 -33t113 -13l-4 -37q-189 -236 -361 -343t-373 -107q-225 0 -366 129l39 51q139 -117 321 -117q172 0 325.5 88t311.5 281l2 4q-91 -2 -149 55t-88 184l-72 312h-4q-155 -167 -354 -406l-19 -139h-65l120 993h68l-84 -686l-6 -51h4 q309 374 700 756l52 -43q-182 -173 -363 -367zM862 -6v-2l2 2h-2z" />
<glyph unicode="&#x1e80;" horiz-adv-x="1859" d="M1106 1634h-80l-197 281h86zM1829 1454h78l-602 -1454h-78l-193 1335h-4l-516 -1335h-80l-246 1454h76l221 -1325h7l509 1325h89l188 -1325h6z" />
<glyph unicode="&#x1e81;" horiz-adv-x="1386" d="M815 1147h-80l-196 280h86zM1311 993q25 -170 12 -301q-12 -141 -46.5 -259.5t-80.5 -198t-102.5 -135.5t-112 -81.5t-109.5 -25.5q-196 0 -219 225h-4q-53 -108 -134.5 -166.5t-158.5 -58.5q-273 0 -221 414l72 587h67l-71 -583q-44 -353 164 -353q102 0 188 117 t109 285l65 534h68l-74 -594q-39 -342 158 -342q83 0 164.5 84.5t138.5 234t69 324.5q11 124 -14 293h72z" />
<glyph unicode="&#x1e82;" horiz-adv-x="1859" d="M1405 1915l-264 -281h-82l258 281h88zM1829 1454h78l-602 -1454h-78l-193 1335h-4l-516 -1335h-80l-246 1454h76l221 -1325h7l509 1325h89l188 -1325h6z" />
<glyph unicode="&#x1e83;" horiz-adv-x="1386" d="M1102 1427l-264 -280h-82l258 280h88zM1311 993q25 -170 12 -301q-12 -141 -46.5 -259.5t-80.5 -198t-102.5 -135.5t-112 -81.5t-109.5 -25.5q-196 0 -219 225h-4q-53 -108 -134.5 -166.5t-158.5 -58.5q-273 0 -221 414l72 587h67l-71 -583q-44 -353 164 -353 q102 0 188 117t109 285l65 534h68l-74 -594q-39 -342 158 -342q83 0 164.5 84.5t138.5 234t69 324.5q11 124 -14 293h72z" />
<glyph unicode="&#x1e84;" horiz-adv-x="1859" d="M942 1710q-30 0 -50 21t-20 53q0 33 21.5 54.5t52.5 21.5t52.5 -21t21.5 -53q0 -31 -22.5 -53.5t-55.5 -22.5zM1229 1710q-31 0 -50.5 21t-19.5 53q0 34 21 55t53 21q31 0 51.5 -21t20.5 -53q0 -31 -22 -53.5t-54 -22.5zM1829 1454h78l-602 -1454h-78l-193 1335h-4 l-516 -1335h-80l-246 1454h76l221 -1325h7l509 1325h89l188 -1325h6z" />
<glyph unicode="&#x1e85;" horiz-adv-x="1386" d="M649 1221q-30 0 -49.5 20.5t-19.5 52.5q0 33 21 54.5t52 21.5t52.5 -21t21.5 -53q0 -31 -22.5 -53t-55.5 -22zM936 1221q-31 0 -50.5 20.5t-19.5 52.5q0 34 21 55t53 21q31 0 51.5 -21t20.5 -53q0 -31 -22 -53t-54 -22zM1311 993q25 -170 12 -301q-12 -141 -46.5 -259.5 t-80.5 -198t-102.5 -135.5t-112 -81.5t-109.5 -25.5q-196 0 -219 225h-4q-53 -108 -134.5 -166.5t-158.5 -58.5q-273 0 -221 414l72 587h67l-71 -583q-44 -353 164 -353q102 0 188 117t109 285l65 534h68l-74 -594q-39 -342 158 -342q83 0 164.5 84.5t138.5 234t69 324.5 q11 124 -14 293h72z" />
<glyph unicode="&#x1e9e;" horiz-adv-x="1413" d="M1004 774q8 -5 24 -14q158 -89 219 -141q121 -103 121 -230q0 -180 -120.5 -288.5t-309.5 -108.5q-110 0 -222 48t-190 140l45 66q69 -92 166.5 -138.5t200.5 -46.5q155 0 255.5 88.5t100.5 235.5q0 51 -22.5 95t-65.5 80.5t-89 66t-110 66.5q-8 4 -12.5 6.5t-11 6.5 t-12.5 7q-71 38 -158 98l356 535v2q-194 45 -409 45q-209 0 -315.5 -85t-129.5 -268l-125 -1040h-71l125 1049q26 211 153 312t363 101q246 0 522 -69l-371 -557l2 -9q1 -1 91 -53z" />
<glyph unicode="&#x1ea0;" horiz-adv-x="1212" d="M1092 0h-74l-94 418h-654q-33 -69 -97 -208.5t-97 -209.5h-78l682 1454h80zM301 485h608l-196 873h-6zM518 -256q31 0 50.5 -21t19.5 -53q0 -34 -21 -55t-53 -21q-31 0 -52.5 21t-21.5 53q0 31 23 53.5t55 22.5z" />
<glyph unicode="&#x1ea1;" horiz-adv-x="1093" d="M936 993h68l-121 -993h-68l35 285h-4q-70 -132 -175.5 -212.5t-234.5 -80.5q-159 0 -250.5 111.5t-91.5 283.5q0 166 62.5 305.5t181.5 224t270 84.5q91 0 175 -30.5t135 -87.5h4zM442 57q108 0 203.5 72.5t155.5 186.5t82 247l30 236q-51 74 -139.5 105.5t-167.5 31.5 q-130 0 -232 -76.5t-155 -201.5t-53 -273q0 -146 72 -237t204 -91zM469 -256q31 0 50.5 -21t19.5 -53q0 -34 -21 -55t-53 -21q-31 0 -52.5 21t-21.5 53q0 31 23 53.5t55 22.5z" />
<glyph unicode="&#x1ea2;" horiz-adv-x="1212" d="M795 1886q-39 0 -76.5 -18t-61.5 -47l-32 37q80 84 180 84q61 0 96 -35t35 -90q-1 -32 -14 -59.5t-41 -52t-51.5 -40t-65.5 -39.5l-10 -45h-35q-12 21 -12 37q1 16 28 38.5t59.5 43t59.5 52t27 63.5q1 36 -24.5 53.5t-61.5 17.5zM1018 0l-94 418h-654q-33 -69 -97 -208.5 t-97 -209.5h-78l682 1454h80l332 -1454h-74zM301 485h608l-196 873h-6z" />
<glyph unicode="&#x1ea3;" horiz-adv-x="1093" d="M739 1397q-39 0 -76 -18.5t-61 -47.5l-33 37q80 84 181 84q62 0 96.5 -35t34.5 -90q-1 -32 -14 -59t-41.5 -51.5t-51.5 -39.5t-65 -40l-11 -45h-34q-13 23 -13 36q1 16 28 38.5t59.5 43t59.5 52t27 63.5q1 37 -24.5 54.5t-61.5 17.5zM936 993h68l-121 -993h-68l35 285h-4 q-70 -132 -175.5 -212.5t-234.5 -80.5q-159 0 -250.5 111.5t-91.5 283.5q0 166 62.5 305.5t181.5 224t270 84.5q91 0 175 -30.5t135 -87.5h4zM442 57q108 0 203.5 72.5t155.5 186.5t82 247l30 236q-51 74 -139.5 105.5t-167.5 31.5q-130 0 -232 -76.5t-155 -201.5t-53 -273 q0 -146 72 -237t204 -91z" />
<glyph unicode="&#x1ea4;" horiz-adv-x="1212" d="M1296 1935l-264 -278h-69l247 276zM766 1804l-209 -233h-80l258 282h68l194 -282h-77l-152 233h-2zM680 1454h80l332 -1454h-74l-94 418h-654q-33 -69 -97 -208.5t-97 -209.5h-78zM301 485h608l-196 873h-6z" />
<glyph unicode="&#x1ea5;" horiz-adv-x="1093" d="M1196 1589l-264 -278h-70l248 278h86zM719 1378l-209 -233h-80l258 282h68l194 -282h-78l-151 233h-2zM922 883l14 110h68l-121 -993h-68l35 285h-4q-70 -132 -175.5 -212.5t-234.5 -80.5q-159 0 -250.5 111.5t-91.5 283.5q0 166 62.5 305.5t181.5 224t270 84.5 q91 0 175 -30.5t135 -87.5h4zM442 57q108 0 203.5 72.5t155.5 186.5t82 247l30 236q-51 74 -139.5 105.5t-167.5 31.5q-130 0 -232 -76.5t-155 -201.5t-53 -273q0 -146 72 -237t204 -91z" />
<glyph unicode="&#x1ea6;" horiz-adv-x="1212" d="M1143 1655h-70l-221 278h84zM766 1804l-209 -233h-80l258 282h68l194 -282h-77l-152 233h-2zM680 1454h80l332 -1454h-74l-94 418h-654q-33 -69 -97 -208.5t-97 -209.5h-78zM301 485h608l-196 873h-6z" />
<glyph unicode="&#x1ea7;" horiz-adv-x="1093" d="M1053 1311h-70l-221 278h82zM721 1378l-209 -233h-80l258 282h68l194 -282h-78l-151 233h-2zM922 883l14 110h68l-121 -993h-68l35 285h-4q-70 -132 -175.5 -212.5t-234.5 -80.5q-159 0 -250.5 111.5t-91.5 283.5q0 166 62.5 305.5t181.5 224t270 84.5q91 0 175 -30.5 t135 -87.5h4zM442 57q108 0 203.5 72.5t155.5 186.5t82 247l30 236q-51 74 -139.5 105.5t-167.5 31.5q-130 0 -232 -76.5t-155 -201.5t-53 -273q0 -146 72 -237t204 -91z" />
<glyph unicode="&#x1ea8;" horiz-adv-x="1212" d="M1104 1948q61 0 97 -35.5t36 -89.5q-1 -33 -14 -60.5t-41.5 -53t-51 -40.5t-65.5 -41l-10 -45l-37 2q-10 23 -10 39q1 16 28 38t59.5 42t59.5 51t27 64q1 38 -24.5 55.5t-61.5 17.5q-38 0 -76 -19t-62 -48l-32 37q82 86 178 86zM768 1804l-209 -233h-80l258 282h68 l194 -282h-77l-152 233h-2zM680 1454h80l332 -1454h-74l-94 418h-654q-33 -69 -97 -208.5t-97 -209.5h-78zM301 485h608l-196 873h-6z" />
<glyph unicode="&#x1ea9;" horiz-adv-x="1093" d="M991 1622q61 0 96 -35t35 -90q0 -32 -12.5 -59t-42.5 -52.5t-51 -39.5t-66 -41l-10 -45l-35 2q-12 21 -12 36q1 16 28 38.5t59.5 43t59.5 52t27 63.5q1 37 -24.5 54.5t-61.5 17.5q-39 0 -76 -18.5t-61 -47.5l-33 37q80 84 180 84zM719 1378l-209 -233h-80l258 282h68 l194 -282h-78l-151 233h-2zM922 883l14 110h68l-121 -993h-68l35 285h-4q-70 -132 -175.5 -212.5t-234.5 -80.5q-159 0 -250.5 111.5t-91.5 283.5q0 166 62.5 305.5t181.5 224t270 84.5q91 0 175 -30.5t135 -87.5h4zM442 57q108 0 203.5 72.5t155.5 186.5t82 247l30 236 q-51 74 -139.5 105.5t-167.5 31.5q-130 0 -232 -76.5t-155 -201.5t-53 -273q0 -146 72 -237t204 -91z" />
<glyph unicode="&#x1eaa;" horiz-adv-x="1212" d="M662 1903q-75 0 -117 -101l-45 19q57 135 157 135q27 0 52.5 -10.5t40.5 -22t38 -31.5q62 -47 105 -47q76 0 115 101l43 -21q-53 -133 -154 -133q-56 0 -131 59q-23 18 -35.5 26.5t-32 17t-36.5 8.5zM756 1702l-211 -203h-72l256 250h66l198 -250h-69l-160 203h-8z M1018 0l-94 418h-654q-33 -69 -97 -208.5t-97 -209.5h-78l682 1454h80l332 -1454h-74zM301 485h608l-196 873h-6z" />
<glyph unicode="&#x1eab;" horiz-adv-x="1093" d="M623 1608q-79 0 -131 -125l-52 22q70 166 181 166q64 0 133 -65q9 -7 29 -23.5t31 -25t28 -16t32 -7.5q36 0 69.5 31.5t57.5 93.5l50 -23q-32 -83 -78 -124.5t-94 -41.5q-28 0 -58.5 15t-47.5 29t-44 40q-24 19 -37 28t-32.5 17.5t-36.5 8.5zM721 1378l-209 -233h-80 l258 282h68l194 -282h-78l-151 233h-2zM922 883l14 110h68l-121 -993h-68l35 285h-4q-70 -132 -175.5 -212.5t-234.5 -80.5q-159 0 -250.5 111.5t-91.5 283.5q0 166 62.5 305.5t181.5 224t270 84.5q91 0 175 -30.5t135 -87.5h4zM442 57q108 0 203.5 72.5t155.5 186.5t82 247 l30 236q-51 74 -139.5 105.5t-167.5 31.5q-130 0 -232 -76.5t-155 -201.5t-53 -273q0 -146 72 -237t204 -91z" />
<glyph unicode="&#x1eac;" horiz-adv-x="1212" d="M776 1868l-209 -234h-80l258 283h68l195 -283h-78l-152 234h-2zM1092 0h-74l-94 418h-654q-33 -69 -97 -208.5t-97 -209.5h-78l682 1454h80zM301 485h608l-196 873h-6zM518 -256q31 0 50.5 -21t19.5 -53q0 -34 -21 -55t-53 -21q-31 0 -52.5 21t-21.5 53q0 31 23 53.5 t55 22.5z" />
<glyph unicode="&#x1ead;" horiz-adv-x="1093" d="M721 1378l-209 -233h-80l258 282h68l194 -282h-78l-151 233h-2zM936 993h68l-121 -993h-68l35 285h-4q-70 -132 -175.5 -212.5t-234.5 -80.5q-159 0 -250.5 111.5t-91.5 283.5q0 166 62.5 305.5t181.5 224t270 84.5q91 0 175 -30.5t135 -87.5h4zM442 57q108 0 203.5 72.5 t155.5 186.5t82 247l30 236q-51 74 -139.5 105.5t-167.5 31.5q-130 0 -232 -76.5t-155 -201.5t-53 -273q0 -146 72 -237t204 -91zM469 -256q31 0 50.5 -21t19.5 -53q0 -34 -21 -55t-53 -21q-31 0 -52.5 21t-21.5 53q0 31 23 53.5t55 22.5z" />
<glyph unicode="&#x1eae;" horiz-adv-x="1212" d="M1106 1931l-309 -219h-82l299 221zM739 1544q-88 0 -145.5 51.5t-67.5 145.5h58q20 -139 157 -139q148 0 213 139h62q-36 -94 -110.5 -145.5t-166.5 -51.5zM680 1454h80l332 -1454h-74l-94 418h-654q-33 -69 -97 -208.5t-97 -209.5h-78zM301 485h608l-196 873h-6z" />
<glyph unicode="&#x1eaf;" horiz-adv-x="1093" d="M971 1708l-264 -281h-82l258 281h88zM694 1145q-96 0 -150.5 70t-47.5 196l59 -2q-5 -94 30 -148.5t111 -54.5q85 0 140 57t69 148l62 -2q-23 -124 -98 -194t-175 -70zM936 993h68l-121 -993h-68l35 285h-4q-70 -132 -175.5 -212.5t-234.5 -80.5q-159 0 -250.5 111.5 t-91.5 283.5q0 166 62.5 305.5t181.5 224t270 84.5q91 0 175 -30.5t135 -87.5h4zM442 57q108 0 203.5 72.5t155.5 186.5t82 247l30 236q-51 74 -139.5 105.5t-167.5 31.5q-130 0 -232 -76.5t-155 -201.5t-53 -273q0 -146 72 -237t204 -91z" />
<glyph unicode="&#x1eb0;" horiz-adv-x="1212" d="M815 1712h-84l-282 219l94 2zM584 1741q20 -139 157 -139q148 0 213 139h62q-36 -94 -110.5 -145.5t-166.5 -51.5q-88 0 -145.5 51.5t-67.5 145.5h58zM1018 0l-94 418h-654q-33 -69 -97 -208.5t-97 -209.5h-78l682 1454h80l332 -1454h-74zM301 485h608l-196 873h-6z" />
<glyph unicode="&#x1eb1;" horiz-adv-x="1093" d="M752 1427h-80l-197 281h86zM555 1409q-5 -94 30 -148.5t111 -54.5q85 0 140 57t69 148l62 -2q-23 -124 -98 -194t-175 -70q-96 0 -150.5 70t-47.5 196zM936 993h68l-121 -993h-68l35 285h-4q-70 -132 -175.5 -212.5t-234.5 -80.5q-159 0 -250.5 111.5t-91.5 283.5 q0 166 62.5 305.5t181.5 224t270 84.5q91 0 175 -30.5t135 -87.5h4zM442 57q108 0 203.5 72.5t155.5 186.5t82 247l30 236q-51 74 -139.5 105.5t-167.5 31.5q-130 0 -232 -76.5t-155 -201.5t-53 -273q0 -146 72 -237t204 -91z" />
<glyph unicode="&#x1eb2;" horiz-adv-x="1212" d="M809 1913q-37 0 -74 -19.5t-61 -48.5l-31 37q80 84 176 84q46 0 76.5 -28.5t30.5 -71.5q0 -21 -7.5 -40t-15.5 -31.5t-27.5 -29.5t-28 -23t-34 -22t-29.5 -18l-12 -55l-31 2q-12 18 -12 32q0 29 22.5 52.5t50 38t50 39t22.5 53.5q0 22 -18.5 35.5t-46.5 13.5zM739 1544 q-86 0 -143.5 51.5t-69.5 145.5h60q17 -139 157 -139q73 0 128 37t83 102h62q-36 -94 -110.5 -145.5t-166.5 -51.5zM1018 0l-94 418h-654q-33 -69 -97 -208.5t-97 -209.5h-78l682 1454h80l332 -1454h-74zM301 485h608l-196 873h-6z" />
<glyph unicode="&#x1eb3;" horiz-adv-x="1093" d="M782 1681q-39 0 -76 -18t-61 -47l-33 37q80 84 181 84q61 0 96 -34.5t35 -90.5q-1 -32 -14 -59.5t-41 -52t-51.5 -40t-65.5 -39.5l-11 -45h-34q-13 23 -13 37q1 16 28 38.5t59.5 43t59.5 52t27 63.5q1 36 -24.5 53.5t-61.5 17.5zM692 1145q-96 0 -150.5 70t-47.5 196 l59 -2q-5 -94 30 -148.5t111 -54.5q85 0 140 57t69 148l62 -2q-23 -124 -98 -194t-175 -70zM936 993h68l-121 -993h-68l35 285h-4q-70 -132 -175.5 -212.5t-234.5 -80.5q-159 0 -250.5 111.5t-91.5 283.5q0 166 62.5 305.5t181.5 224t270 84.5q91 0 175 -30.5t135 -87.5h4z M442 57q108 0 203.5 72.5t155.5 186.5t82 247l30 236q-51 74 -139.5 105.5t-167.5 31.5q-130 0 -232 -76.5t-155 -201.5t-53 -273q0 -146 72 -237t204 -91z" />
<glyph unicode="&#x1eb4;" horiz-adv-x="1212" d="M657 1903q-78 0 -125 -99l-49 17q63 135 174 135q29 0 59 -11.5t42.5 -19.5t44.5 -31q25 -17 38 -25t35.5 -16t43.5 -8q79 0 120 99l47 -17q-29 -69 -74 -102t-95 -33q-63 0 -144 57q-73 54 -117 54zM741 1602q148 0 213 139h62q-36 -94 -110.5 -145.5t-166.5 -51.5 q-88 0 -145.5 51.5t-67.5 145.5h58q20 -139 157 -139zM1018 0l-94 418h-654q-33 -69 -97 -208.5t-97 -209.5h-78l682 1454h80l332 -1454h-74zM301 485h608l-196 873h-6z" />
<glyph unicode="&#x1eb5;" horiz-adv-x="1093" d="M633 1606q-79 0 -131 -125l-51 22q70 166 180 166q64 0 133 -65q9 -7 29.5 -23.5t31.5 -25t28 -16t32 -7.5q36 0 69.5 31.5t57.5 93.5l49 -23q-32 -83 -78 -124.5t-94 -41.5q-28 0 -58.5 15t-47.5 29t-44 40q-24 19 -37 28t-32.5 17.5t-36.5 8.5zM496 1411l59 -2 q-5 -94 30 -148.5t111 -54.5q85 0 140 57t69 148l62 -2q-23 -124 -98 -194t-175 -70q-96 0 -150.5 70t-47.5 196zM922 883l14 110h68l-121 -993h-68l35 285h-4q-70 -132 -175.5 -212.5t-234.5 -80.5q-159 0 -250.5 111.5t-91.5 283.5q0 166 62.5 305.5t181.5 224t270 84.5 q91 0 175 -30.5t135 -87.5h4zM442 57q108 0 203.5 72.5t155.5 186.5t82 247l30 236q-51 74 -139.5 105.5t-167.5 31.5q-130 0 -232 -76.5t-155 -201.5t-53 -273q0 -146 72 -237t204 -91z" />
<glyph unicode="&#x1eb6;" horiz-adv-x="1212" d="M743 1636q-96 0 -150.5 70.5t-47.5 196.5l59 -2q-5 -94 30 -148.5t111 -54.5q85 0 140 57t69 148l62 -2q-23 -124 -98 -194.5t-175 -70.5zM1092 0h-74l-94 418h-654q-33 -69 -97 -208.5t-97 -209.5h-78l682 1454h80zM301 485h608l-196 873h-6zM518 -256q31 0 50.5 -21 t19.5 -53q0 -34 -21 -55t-53 -21q-31 0 -52.5 21t-21.5 53q0 31 23 53.5t55 22.5z" />
<glyph unicode="&#x1eb7;" horiz-adv-x="1093" d="M688 1147q-96 0 -151 70t-48 196l60 -2q-5 -94 30 -148.5t111 -54.5q85 0 140 57t69 148l62 -2q-23 -124 -98 -194t-175 -70zM936 993h68l-121 -993h-68l35 285h-4q-70 -132 -175.5 -212.5t-234.5 -80.5q-159 0 -250.5 111.5t-91.5 283.5q0 166 62.5 305.5t181.5 224 t270 84.5q91 0 175 -30.5t135 -87.5h4zM442 57q108 0 203.5 72.5t155.5 186.5t82 247l30 236q-51 74 -139.5 105.5t-167.5 31.5q-130 0 -232 -76.5t-155 -201.5t-53 -273q0 -146 72 -237t204 -91zM469 -256q31 0 50.5 -21t19.5 -53q0 -34 -21 -55t-53 -21q-31 0 -52.5 21 t-21.5 53q0 31 23 53.5t55 22.5z" />
<glyph unicode="&#x1eb8;" horiz-adv-x="1095" d="M948 70l-8 -70h-809l178 1454h770l-8 -68h-696l-78 -624h584l-9 -70h-583l-76 -622h735zM510 -406q-31 0 -52.5 21t-21.5 53q0 31 23 53.5t55 22.5q31 0 50.5 -21t19.5 -53q0 -34 -21 -55t-53 -21z" />
<glyph unicode="&#x1eb9;" d="M479 59q172 0 303 150l54 -39q-148 -178 -359 -178q-173 0 -279 110.5t-106 300.5q0 162 64.5 298.5t183 218t266.5 81.5q42 0 88 -11t93.5 -35.5t78.5 -72.5t31 -112q0 -63 -32 -117.5t-89.5 -94t-128 -70.5t-156.5 -52.5t-165 -35t-164 -21.5q7 -149 93 -234.5 t224 -85.5zM604 936q-179 0 -303.5 -140.5t-136.5 -351.5q90 8 175 22.5t176 41t158 61t110.5 85.5t43.5 112q0 49 -23 84.5t-60 53t-71.5 25t-68.5 7.5zM440 -256q31 0 50.5 -21t19.5 -53q0 -34 -21 -55t-53 -21q-31 0 -52.5 21t-21.5 53q0 31 23 53.5t55 22.5z" />
<glyph unicode="&#x1eba;" horiz-adv-x="1095" d="M647 1827l-33 37q80 84 181 84q61 0 96 -35t35 -90q-1 -32 -14 -59.5t-41 -52t-51.5 -40t-65.5 -39.5l-11 -45h-34q-13 23 -13 37q1 16 28 38.5t59.5 43t59.5 52t27 63.5q1 36 -24.5 53.5t-61.5 17.5q-39 0 -76 -18t-61 -47zM948 70l-8 -70h-809l178 1454h770l-8 -68 h-696l-78 -624h584l-9 -70h-583l-76 -622h735z" />
<glyph unicode="&#x1ebb;" d="M674 1397q-38 0 -75.5 -18.5t-61.5 -47.5l-33 37q80 84 180 84q62 0 96.5 -35t34.5 -90q-1 -32 -14 -59t-41.5 -51.5t-51.5 -39.5t-65 -40l-10 -45h-35q-12 21 -12 36q1 16 28 38.5t59.5 43t59.5 52t27 63.5q1 37 -24.5 54.5t-61.5 17.5zM479 59q172 0 303 150l54 -39 q-148 -178 -359 -178q-173 0 -279 110.5t-106 300.5q0 162 64.5 298.5t183 218t266.5 81.5q42 0 88 -11t93.5 -35.5t78.5 -72.5t31 -112q0 -63 -32 -117.5t-89.5 -94t-128 -70.5t-156.5 -52.5t-165 -35t-164 -21.5q7 -149 93 -234.5t224 -85.5zM604 936 q-179 0 -303.5 -140.5t-136.5 -351.5q90 8 175 22.5t176 41t158 61t110.5 85.5t43.5 112q0 49 -23 84.5t-60 53t-71.5 25t-68.5 7.5z" />
<glyph unicode="&#x1ebc;" horiz-adv-x="1095" d="M444 1712q70 166 183 166q27 0 53 -11t41 -22t41 -33q27 -24 40.5 -35.5t37.5 -23.5t45 -12q36 0 69.5 31.5t57.5 93.5l51 -23q-32 -82 -78.5 -124t-95.5 -42q-11 0 -23 2.5t-21 5t-21.5 9.5t-18.5 10.5t-19 13.5t-16.5 13t-17 14.5t-15.5 13.5q-63 56 -106 56 q-80 0 -135 -125zM948 70l-8 -70h-809l178 1454h770l-8 -68h-696l-78 -624h584l-9 -70h-583l-76 -622h735z" />
<glyph unicode="&#x1ebd;" d="M520 1319q-80 0 -135 -125l-51 23q70 165 182 165q27 0 53 -10.5t41.5 -22t40.5 -32.5q28 -26 41 -36.5t37 -23t45 -12.5q36 0 69.5 31.5t57.5 93.5l51 -22q-32 -82 -78.5 -124t-95.5 -42q-13 0 -25.5 2t-25.5 8.5t-21.5 10.5t-22.5 15t-18.5 14t-20 17t-17.5 15 q-62 55 -107 55zM897 770q0 -63 -32 -117.5t-89.5 -94t-128 -70.5t-156.5 -52.5t-165 -35t-164 -21.5q7 -149 93 -234.5t224 -85.5q172 0 303 150l54 -39q-148 -178 -359 -178q-173 0 -279 110.5t-106 300.5q0 162 64.5 298.5t183 218t266.5 81.5q42 0 88 -11t93.5 -35.5 t78.5 -72.5t31 -112zM164 444q90 8 175 22.5t176 41t158 61t110.5 85.5t43.5 112q0 49 -23 84.5t-60 53t-71.5 25t-68.5 7.5q-179 0 -303.5 -140.5t-136.5 -351.5z" />
<glyph unicode="&#x1ebe;" horiz-adv-x="1095" d="M1286 1942l-264 -279h-70l248 276zM756 1810l-209 -233h-80l258 283h68l194 -283h-78l-151 233h-2zM131 0l178 1454h770l-8 -68h-696l-78 -624h584l-9 -70h-583l-76 -622h735l-8 -70h-809z" />
<glyph unicode="&#x1ebf;" d="M1130 1589l-264 -278h-69l247 278h86zM653 1378l-209 -233h-79l258 282h67l195 -282h-78l-152 233h-2zM897 770q0 -63 -32 -117.5t-89.5 -94t-128 -70.5t-156.5 -52.5t-165 -35t-164 -21.5q7 -149 93 -234.5t224 -85.5q172 0 303 150l54 -39q-148 -178 -359 -178 q-173 0 -279 110.5t-106 300.5q0 162 64.5 298.5t183 218t266.5 81.5q42 0 88 -11t93.5 -35.5t78.5 -72.5t31 -112zM164 444q90 8 175 22.5t176 41t158 61t110.5 85.5t43.5 112q0 49 -23 84.5t-60 53t-71.5 25t-68.5 7.5q-179 0 -303.5 -140.5t-136.5 -351.5z" />
<glyph unicode="&#x1ec0;" horiz-adv-x="1095" d="M1133 1661h-70l-221 278h84zM756 1810l-209 -233h-80l258 283h68l194 -283h-78l-151 233h-2zM131 0l178 1454h770l-8 -68h-696l-78 -624h584l-9 -70h-583l-76 -622h735l-8 -70h-809z" />
<glyph unicode="&#x1ec1;" d="M778 1589l209 -278h-69l-222 278h82zM655 1378l-209 -233h-79l258 282h67l195 -282h-78l-152 233h-2zM897 770q0 -63 -32 -117.5t-89.5 -94t-128 -70.5t-156.5 -52.5t-165 -35t-164 -21.5q7 -149 93 -234.5t224 -85.5q172 0 303 150l54 -39q-148 -178 -359 -178 q-173 0 -279 110.5t-106 300.5q0 162 64.5 298.5t183 218t266.5 81.5q42 0 88 -11t93.5 -35.5t78.5 -72.5t31 -112zM164 444q90 8 175 22.5t176 41t158 61t110.5 85.5t43.5 112q0 49 -23 84.5t-60 53t-71.5 25t-68.5 7.5q-179 0 -303.5 -140.5t-136.5 -351.5z" />
<glyph unicode="&#x1ec2;" horiz-adv-x="1095" d="M1094 1954q61 0 97 -35.5t36 -89.5q-1 -33 -14 -60.5t-41.5 -53t-51 -40.5t-65.5 -41l-11 -45l-36 2q-11 26 -11 39q1 16 28 38t59.5 42t59.5 51t27 64q1 38 -24.5 55.5t-61.5 17.5q-38 0 -75.5 -19t-61.5 -48l-33 37q82 86 179 86zM758 1810l-209 -233h-80l258 283h68 l194 -283h-78l-151 233h-2zM131 0l178 1454h770l-8 -68h-696l-78 -624h584l-9 -70h-583l-76 -622h735l-8 -70h-809z" />
<glyph unicode="&#x1ec3;" d="M926 1622q62 0 96.5 -35t34.5 -90q0 -32 -12.5 -59t-42.5 -52.5t-51 -39.5t-66 -41l-11 -45l-34 2q-13 23 -13 36q1 16 28 38.5t59.5 43t59.5 52t27 63.5q1 37 -24.5 54.5t-61.5 17.5q-39 0 -76 -18.5t-61 -47.5l-33 37q80 84 181 84zM653 1378l-209 -233h-79l258 282h67 l195 -282h-78l-152 233h-2zM897 770q0 -63 -32 -117.5t-89.5 -94t-128 -70.5t-156.5 -52.5t-165 -35t-164 -21.5q7 -149 93 -234.5t224 -85.5q172 0 303 150l54 -39q-148 -178 -359 -178q-173 0 -279 110.5t-106 300.5q0 162 64.5 298.5t183 218t266.5 81.5q42 0 88 -11 t93.5 -35.5t78.5 -72.5t31 -112zM164 444q90 8 175 22.5t176 41t158 61t110.5 85.5t43.5 112q0 49 -23 84.5t-60 53t-71.5 25t-68.5 7.5q-179 0 -303.5 -140.5t-136.5 -351.5z" />
<glyph unicode="&#x1ec4;" horiz-adv-x="1095" d="M651 1909q-74 0 -116 -101l-46 19q57 135 158 135q27 0 52.5 -10.5t40.5 -22t38 -31.5q62 -47 105 -47q75 0 114 101l43 -21q-53 -133 -153 -133q-25 0 -50.5 10t-41 20.5t-39.5 29.5q-66 51 -105 51zM745 1708l-210 -203h-72l256 250h65l199 -250h-70l-159 203h-9z M1071 1386h-696l-78 -624h584l-9 -70h-583l-76 -622h735l-8 -70h-809l178 1454h770z" />
<glyph unicode="&#x1ec5;" d="M936 1659l49 -23q-32 -83 -78 -124.5t-94 -41.5q-28 0 -58.5 15t-46.5 29t-44 40q-23 18 -37 27.5t-33.5 18t-36.5 8.5q-79 0 -131 -125l-51 22q70 166 180 166q64 0 133 -65q9 -7 29.5 -23.5t31.5 -25t28 -16t32 -7.5q36 0 69.5 31.5t57.5 93.5zM657 1378h-2l-209 -233 h-79l258 282h67l195 -282h-78zM897 770q0 -63 -32 -117.5t-89.5 -94t-128 -70.5t-156.5 -52.5t-165 -35t-164 -21.5q7 -149 93 -234.5t224 -85.5q172 0 303 150l54 -39q-148 -178 -359 -178q-173 0 -279 110.5t-106 300.5q0 162 64.5 298.5t183 218t266.5 81.5q42 0 88 -11 t93.5 -35.5t78.5 -72.5t31 -112zM164 444q90 8 175 22.5t176 41t158 61t110.5 85.5t43.5 112q0 49 -23 84.5t-60 53t-71.5 25t-68.5 7.5q-179 0 -303.5 -140.5t-136.5 -351.5z" />
<glyph unicode="&#x1ec6;" horiz-adv-x="1095" d="M766 1874l-209 -234h-80l258 283h68l194 -283h-77l-152 234h-2zM1071 1386h-696l-78 -624h584l-9 -70h-583l-76 -622h735l-8 -70h-809l178 1454h770zM514 -256q31 0 50.5 -21t19.5 -53q0 -34 -21 -55t-53 -21q-31 0 -52.5 21t-21.5 53q0 31 23 53.5t55 22.5z" />
<glyph unicode="&#x1ec7;" d="M655 1378l-209 -233h-79l258 282h67l195 -282h-78l-152 233h-2zM479 59q172 0 303 150l54 -39q-148 -178 -359 -178q-173 0 -279 110.5t-106 300.5q0 162 64.5 298.5t183 218t266.5 81.5q42 0 88 -11t93.5 -35.5t78.5 -72.5t31 -112q0 -63 -32 -117.5t-89.5 -94 t-128 -70.5t-156.5 -52.5t-165 -35t-164 -21.5q7 -149 93 -234.5t224 -85.5zM604 936q-179 0 -303.5 -140.5t-136.5 -351.5q90 8 175 22.5t176 41t158 61t110.5 85.5t43.5 112q0 49 -23 84.5t-60 53t-71.5 25t-68.5 7.5zM440 -256q31 0 50.5 -21t19.5 -53q0 -34 -21 -55 t-53 -21q-31 0 -52.5 21t-21.5 53q0 31 23 53.5t55 22.5z" />
<glyph unicode="&#x1ec8;" horiz-adv-x="483" d="M295 1821l-33 37q80 84 180 84q62 0 96.5 -35t34.5 -90q-1 -32 -14 -59.5t-41 -52t-51.5 -40t-65.5 -39.5l-10 -45h-35q-12 21 -12 37q1 16 28 38.5t59.5 43t59.5 52t27 63.5q1 36 -24.5 53.5t-61.5 17.5q-39 0 -76 -18t-61 -47zM217 0h-72l179 1454h71z" />
<glyph unicode="&#x1ec9;" horiz-adv-x="430" d="M205 1331l-33 37q80 84 180 84q62 0 96.5 -35t34.5 -90q-1 -32 -14 -59t-41.5 -51.5t-51.5 -39.5t-65 -40l-10 -45h-35q-12 21 -12 36q1 16 28 38.5t59.5 43t59.5 52t27 63.5q1 37 -24.5 54.5t-61.5 17.5q-38 0 -75.5 -18.5t-61.5 -47.5zM242 993h67l-121 -993h-67z" />
<glyph unicode="&#x1eca;" horiz-adv-x="483" d="M217 0h-72l179 1454h71zM141 -406q-31 0 -52 21t-21 53q0 31 22.5 53.5t54.5 22.5q31 0 50.5 -21t19.5 -53q0 -34 -21 -55t-53 -21z" />
<glyph unicode="&#x1ecb;" horiz-adv-x="430" d="M317 1370q31 0 52.5 -21t21.5 -53q0 -31 -23 -53t-55 -22q-31 0 -50 20.5t-19 52.5q0 34 20.5 55t52.5 21zM242 993h67l-121 -993h-67zM115 -406q-31 0 -52.5 21t-21.5 53q0 31 23 53.5t55 22.5q31 0 50 -21t19 -53q0 -34 -20.5 -55t-52.5 -21z" />
<glyph unicode="&#x1ecc;" horiz-adv-x="1548" d="M889 1462q259 0 413 -158t154 -446q0 -174 -52.5 -331.5t-146.5 -276t-234.5 -188.5t-305.5 -70q-259 0 -413 160.5t-154 445.5q0 169 54 326t148.5 276t234.5 190.5t302 71.5zM719 63q148 0 273.5 64t209.5 172.5t131 252.5t47 304q0 257 -132 397t-363 140 q-116 0 -221 -42.5t-184 -118t-137.5 -175.5t-89 -217.5t-30.5 -241.5q0 -254 133 -394.5t363 -140.5zM674 -406q-31 0 -52.5 21t-21.5 53q0 31 23 53.5t55 22.5q31 0 50.5 -21t19.5 -53q0 -34 -21 -55t-53 -21z" />
<glyph unicode="&#x1ecd;" horiz-adv-x="1097" d="M608 1001q182 0 289 -105.5t107 -297.5q0 -170 -60.5 -306.5t-178.5 -218t-273 -81.5q-183 0 -291.5 109.5t-108.5 304.5q0 119 36.5 227t102 189.5t163.5 130t214 48.5zM608 936q-194 0 -320 -151t-126 -375q0 -165 89.5 -259t242.5 -94q194 0 318 149.5t124 387.5 q0 164 -88 253t-240 89zM449 -406q-31 0 -52.5 21t-21.5 53q0 31 23 53.5t55 22.5q31 0 50 -21t19 -53q0 -34 -20.5 -55t-52.5 -21z" />
<glyph unicode="&#x1ece;" horiz-adv-x="1548" d="M860 1821l-33 37q80 84 181 84q62 0 96.5 -35t34.5 -90q-1 -32 -14 -59.5t-41 -52t-51.5 -40t-65.5 -39.5l-11 -45h-34q-13 23 -13 37q1 16 28 38.5t59.5 43t59.5 52t27 63.5q1 36 -24.5 53.5t-61.5 17.5q-39 0 -76 -18t-61 -47zM889 1462q259 0 413 -158t154 -446 q0 -174 -52.5 -331.5t-146.5 -276t-234.5 -188.5t-305.5 -70q-259 0 -413 160.5t-154 445.5q0 169 54 326t148.5 276t234.5 190.5t302 71.5zM719 63q148 0 273.5 64t209.5 172.5t131 252.5t47 304q0 257 -132 397t-363 140q-116 0 -221 -42.5t-184 -118t-137.5 -175.5 t-89 -217.5t-30.5 -241.5q0 -254 133 -394.5t363 -140.5z" />
<glyph unicode="&#x1ecf;" horiz-adv-x="1097" d="M553 1331l-33 37q80 84 180 84q62 0 96.5 -35t34.5 -90q-1 -32 -14 -59t-41.5 -51.5t-51.5 -39.5t-65 -40l-10 -45h-35q-12 21 -12 36q1 16 28 38.5t59.5 43t59.5 52t27 63.5q1 37 -24.5 54.5t-61.5 17.5q-38 0 -75.5 -18.5t-61.5 -47.5zM608 1001q182 0 289 -105.5 t107 -297.5q0 -170 -60.5 -306.5t-178.5 -218t-273 -81.5q-183 0 -291.5 109.5t-108.5 304.5q0 119 36.5 227t102 189.5t163.5 130t214 48.5zM608 936q-194 0 -320 -151t-126 -375q0 -165 89.5 -259t242.5 -94q194 0 318 149.5t124 387.5q0 164 -88 253t-240 89z" />
<glyph unicode="&#x1ed0;" horiz-adv-x="1548" d="M1499 1935l-264 -278h-70l248 276zM969 1804l-209 -233h-80l258 282h68l194 -282h-78l-151 233h-2zM889 1462q259 0 413 -158t154 -446q0 -174 -52.5 -331.5t-146.5 -276t-234.5 -188.5t-305.5 -70q-259 0 -413 160.5t-154 445.5q0 169 54 326t148.5 276t234.5 190.5 t302 71.5zM719 63q148 0 273.5 64t209.5 172.5t131 252.5t47 304q0 257 -132 397t-363 140q-116 0 -221 -42.5t-184 -118t-137.5 -175.5t-89 -217.5t-30.5 -241.5q0 -254 133 -394.5t363 -140.5z" />
<glyph unicode="&#x1ed1;" horiz-adv-x="1097" d="M1147 1589l-264 -278h-70l248 278h86zM670 1378l-209 -233h-80l258 282h68l194 -282h-78l-151 233h-2zM608 1001q182 0 289 -105.5t107 -297.5q0 -170 -60.5 -306.5t-178.5 -218t-273 -81.5q-183 0 -291.5 109.5t-108.5 304.5q0 119 36.5 227t102 189.5t163.5 130 t214 48.5zM494 57q194 0 318 149.5t124 387.5q0 164 -88 253t-240 89q-194 0 -320 -151t-126 -375q0 -165 89.5 -259t242.5 -94z" />
<glyph unicode="&#x1ed2;" horiz-adv-x="1548" d="M1346 1655h-70l-221 278h84zM969 1804l-209 -233h-80l258 282h68l194 -282h-78l-151 233h-2zM889 1462q259 0 413 -158t154 -446q0 -174 -52.5 -331.5t-146.5 -276t-234.5 -188.5t-305.5 -70q-259 0 -413 160.5t-154 445.5q0 169 54 326t148.5 276t234.5 190.5t302 71.5z M719 63q148 0 273.5 64t209.5 172.5t131 252.5t47 304q0 257 -132 397t-363 140q-116 0 -221 -42.5t-184 -118t-137.5 -175.5t-89 -217.5t-30.5 -241.5q0 -254 133 -394.5t363 -140.5z" />
<glyph unicode="&#x1ed3;" horiz-adv-x="1097" d="M1004 1311h-70l-221 278h82zM672 1378l-209 -233h-80l258 282h68l194 -282h-78l-151 233h-2zM608 1001q182 0 289 -105.5t107 -297.5q0 -170 -60.5 -306.5t-178.5 -218t-273 -81.5q-183 0 -291.5 109.5t-108.5 304.5q0 119 36.5 227t102 189.5t163.5 130t214 48.5z M494 57q194 0 318 149.5t124 387.5q0 164 -88 253t-240 89q-194 0 -320 -151t-126 -375q0 -165 89.5 -259t242.5 -94z" />
<glyph unicode="&#x1ed4;" horiz-adv-x="1548" d="M1298 1892q-38 0 -75.5 -19t-61.5 -48l-33 37q82 86 179 86q61 0 97 -35.5t36 -89.5q-1 -33 -14 -60.5t-41.5 -53t-51 -40.5t-65.5 -41l-11 -45l-36 2q-11 26 -11 39q1 16 28 38t59.5 42t59.5 51t27 64q1 38 -24.5 55.5t-61.5 17.5zM971 1804l-209 -233h-80l258 282h68 l194 -282h-78l-151 233h-2zM889 1462q259 0 413 -158t154 -446q0 -174 -52.5 -331.5t-146.5 -276t-234.5 -188.5t-305.5 -70q-259 0 -413 160.5t-154 445.5q0 169 54 326t148.5 276t234.5 190.5t302 71.5zM719 63q148 0 273.5 64t209.5 172.5t131 252.5t47 304 q0 257 -132 397t-363 140q-116 0 -221 -42.5t-184 -118t-137.5 -175.5t-89 -217.5t-30.5 -241.5q0 -254 133 -394.5t363 -140.5z" />
<glyph unicode="&#x1ed5;" horiz-adv-x="1097" d="M942 1622q62 0 96.5 -35t34.5 -90q0 -32 -12.5 -59t-42.5 -52.5t-51 -39.5t-66 -41l-10 -45l-35 2q-12 21 -12 36q1 16 28 38.5t59.5 43t59.5 52t27 63.5q1 37 -24.5 54.5t-61.5 17.5q-38 0 -75.5 -18.5t-61.5 -47.5l-33 37q80 84 180 84zM670 1378l-209 -233h-80 l258 282h68l194 -282h-78l-151 233h-2zM608 1001q182 0 289 -105.5t107 -297.5q0 -170 -60.5 -306.5t-178.5 -218t-273 -81.5q-183 0 -291.5 109.5t-108.5 304.5q0 119 36.5 227t102 189.5t163.5 130t214 48.5zM494 57q194 0 318 149.5t124 387.5q0 164 -88 253t-240 89 q-194 0 -320 -151t-126 -375q0 -165 89.5 -259t242.5 -94z" />
<glyph unicode="&#x1ed6;" horiz-adv-x="1548" d="M864 1903q-74 0 -116 -101l-46 19q57 135 158 135q27 0 52.5 -10.5t40.5 -22t38 -31.5q62 -47 105 -47q75 0 114 101l43 -21q-53 -133 -153 -133q-56 0 -131 59q-67 52 -105 52zM958 1702l-210 -203h-72l256 250h65l199 -250h-70l-159 203h-9zM889 1462q259 0 413 -158 t154 -446q0 -174 -52.5 -331.5t-146.5 -276t-234.5 -188.5t-305.5 -70q-259 0 -413 160.5t-154 445.5q0 169 54 326t148.5 276t234.5 190.5t302 71.5zM719 63q148 0 273.5 64t209.5 172.5t131 252.5t47 304q0 257 -132 397t-363 140q-116 0 -221 -42.5t-184 -118 t-137.5 -175.5t-89 -217.5t-30.5 -241.5q0 -254 133 -394.5t363 -140.5z" />
<glyph unicode="&#x1ed7;" horiz-adv-x="1097" d="M573 1608q-79 0 -131 -125l-51 22q70 166 180 166q65 0 134 -65q9 -7 29 -23.5t31 -25t28 -16t32 -7.5q36 0 69.5 31.5t57.5 93.5l49 -23q-32 -83 -78 -124.5t-94 -41.5q-28 0 -58.5 15t-46.5 29t-44 40q-23 18 -37 27.5t-33.5 18t-36.5 8.5zM672 1378l-209 -233h-80 l258 282h68l194 -282h-78l-151 233h-2zM608 1001q182 0 289 -105.5t107 -297.5q0 -170 -60.5 -306.5t-178.5 -218t-273 -81.5q-183 0 -291.5 109.5t-108.5 304.5q0 119 36.5 227t102 189.5t163.5 130t214 48.5zM494 57q194 0 318 149.5t124 387.5q0 164 -88 253t-240 89 q-194 0 -320 -151t-126 -375q0 -165 89.5 -259t242.5 -94z" />
<glyph unicode="&#x1ed8;" horiz-adv-x="1548" d="M979 1868l-209 -234h-80l258 283h68l194 -283h-77l-152 234h-2zM889 1462q259 0 413 -158t154 -446q0 -174 -52.5 -331.5t-146.5 -276t-234.5 -188.5t-305.5 -70q-259 0 -413 160.5t-154 445.5q0 169 54 326t148.5 276t234.5 190.5t302 71.5zM719 63q148 0 273.5 64 t209.5 172.5t131 252.5t47 304q0 257 -132 397t-363 140q-116 0 -221 -42.5t-184 -118t-137.5 -175.5t-89 -217.5t-30.5 -241.5q0 -254 133 -394.5t363 -140.5zM678 -256q31 0 50.5 -21t19.5 -53q0 -34 -21 -55t-53 -21q-31 0 -52.5 21t-21.5 53q0 31 23 53.5t55 22.5z" />
<glyph unicode="&#x1ed9;" horiz-adv-x="1097" d="M672 1378l-209 -233h-80l258 282h68l194 -282h-78l-151 233h-2zM608 1001q182 0 289 -105.5t107 -297.5q0 -170 -60.5 -306.5t-178.5 -218t-273 -81.5q-183 0 -291.5 109.5t-108.5 304.5q0 119 36.5 227t102 189.5t163.5 130t214 48.5zM494 57q194 0 318 149.5t124 387.5 q0 164 -88 253t-240 89q-194 0 -320 -151t-126 -375q0 -165 89.5 -259t242.5 -94zM453 -256q31 0 50 -21t19 -53q0 -34 -20.5 -55t-52.5 -21q-31 0 -52.5 21t-21.5 53q0 31 23 53.5t55 22.5z" />
<glyph unicode="&#x1eda;" horiz-adv-x="1656" d="M1245 1915l-264 -281h-82l258 281h88zM1606 1585h67l-24 -207q-19 -144 -73 -207t-138 -63h-17l-2 -2q37 -107 37 -248q0 -174 -52.5 -331.5t-146.5 -276t-234.5 -188.5t-305.5 -70q-259 0 -413 160.5t-154 445.5q0 169 54 326t148.5 276t234.5 190.5t302 71.5 q179 0 310 -76t196 -221q28 -4 41 -4q60 0 94.5 50t48.5 173zM719 63q148 0 273.5 64t209.5 172.5t131 252.5t47 304q0 257 -132 397t-363 140q-116 0 -221 -42.5t-184 -118t-137.5 -175.5t-89 -217.5t-30.5 -241.5q0 -254 133 -394.5t363 -140.5z" />
<glyph unicode="&#x1edb;" horiz-adv-x="1245" d="M961 1427l-265 -280h-82l258 280h89zM1194 1157h68l-25 -207q-19 -144 -73 -207t-138 -63h-22l-5 -4q5 -63 5 -78q0 -170 -60.5 -306.5t-178.5 -218t-273 -81.5q-183 0 -291.5 109.5t-108.5 304.5q0 119 36.5 227t102 189.5t163.5 130t214 48.5q144 0 243 -68t134 -196 q14 -4 39 -4q60 0 94.5 50t48.5 173zM494 57q194 0 318 149.5t124 387.5q0 164 -88 253t-240 89q-194 0 -320 -151t-126 -375q0 -165 89.5 -259t242.5 -94z" />
<glyph unicode="&#x1edc;" horiz-adv-x="1656" d="M1010 1634h-80l-197 281h86zM1606 1585h67l-24 -207q-19 -144 -73 -207t-138 -63h-17l-2 -2q37 -107 37 -248q0 -174 -52.5 -331.5t-146.5 -276t-234.5 -188.5t-305.5 -70q-259 0 -413 160.5t-154 445.5q0 169 54 326t148.5 276t234.5 190.5t302 71.5q179 0 310 -76 t196 -221q28 -4 41 -4q60 0 94.5 50t48.5 173zM719 63q148 0 273.5 64t209.5 172.5t131 252.5t47 304q0 257 -132 397t-363 140q-116 0 -221 -42.5t-184 -118t-137.5 -175.5t-89 -217.5t-30.5 -241.5q0 -254 133 -394.5t363 -140.5z" />
<glyph unicode="&#x1edd;" horiz-adv-x="1245" d="M725 1147h-80l-196 280h86zM1194 1157h68l-25 -207q-19 -144 -73 -207t-138 -63h-22l-5 -4q5 -63 5 -78q0 -170 -60.5 -306.5t-178.5 -218t-273 -81.5q-183 0 -291.5 109.5t-108.5 304.5q0 119 36.5 227t102 189.5t163.5 130t214 48.5q144 0 243 -68t134 -196 q14 -4 39 -4q60 0 94.5 50t48.5 173zM494 57q194 0 318 149.5t124 387.5q0 164 -88 253t-240 89q-194 0 -320 -151t-126 -375q0 -165 89.5 -259t242.5 -94z" />
<glyph unicode="&#x1ede;" horiz-adv-x="1656" d="M997 1886q-39 0 -76 -18t-61 -47l-33 37q80 84 181 84q62 0 96.5 -35t34.5 -90q-1 -32 -14 -59.5t-41 -52t-51.5 -40t-65.5 -39.5l-11 -45h-34q-13 23 -13 37q1 16 28 38.5t59.5 43t59.5 52t27 63.5q1 36 -24.5 53.5t-61.5 17.5zM1606 1585h67l-24 -207 q-19 -144 -73 -207t-138 -63h-17l-2 -2q37 -107 37 -248q0 -174 -52.5 -331.5t-146.5 -276t-234.5 -188.5t-305.5 -70q-259 0 -413 160.5t-154 445.5q0 169 54 326t148.5 276t234.5 190.5t302 71.5q179 0 310 -76t196 -221q28 -4 41 -4q60 0 94.5 50t48.5 173zM719 63 q148 0 273.5 64t209.5 172.5t131 252.5t47 304q0 257 -132 397t-363 140q-116 0 -221 -42.5t-184 -118t-137.5 -175.5t-89 -217.5t-30.5 -241.5q0 -254 133 -394.5t363 -140.5z" />
<glyph unicode="&#x1edf;" horiz-adv-x="1245" d="M690 1397q-38 0 -75.5 -18.5t-61.5 -47.5l-33 37q80 84 180 84q62 0 96.5 -35t34.5 -90q-1 -32 -14 -59t-41.5 -51.5t-51.5 -39.5t-65 -40l-10 -45h-35q-12 21 -12 36q1 16 28 38.5t59.5 43t59.5 52t27 63.5q1 37 -24.5 54.5t-61.5 17.5zM1194 1157h68l-25 -207 q-19 -144 -73 -207t-138 -63h-22l-5 -4q5 -63 5 -78q0 -170 -60.5 -306.5t-178.5 -218t-273 -81.5q-183 0 -291.5 109.5t-108.5 304.5q0 119 36.5 227t102 189.5t163.5 130t214 48.5q144 0 243 -68t134 -196q14 -4 39 -4q60 0 94.5 50t48.5 173zM494 57q194 0 318 149.5 t124 387.5q0 164 -88 253t-240 89q-194 0 -320 -151t-126 -375q0 -165 89.5 -259t242.5 -94z" />
<glyph unicode="&#x1ee0;" horiz-adv-x="1656" d="M844 1808q-80 0 -135 -125l-52 23q70 166 183 166q27 0 53 -11t41 -22t41 -33q27 -24 40.5 -35.5t37.5 -23.5t45 -12q36 0 69.5 31.5t57.5 93.5l51 -23q-32 -82 -78.5 -124t-95.5 -42q-11 0 -23 2.5t-21 5t-21.5 9.5t-18.5 10.5t-19 13.5t-16.5 13t-17 14.5t-15.5 13.5 q-62 55 -106 55zM1606 1585h67l-24 -207q-19 -144 -73 -207t-138 -63h-17l-2 -2q37 -107 37 -248q0 -174 -52.5 -331.5t-146.5 -276t-234.5 -188.5t-305.5 -70q-259 0 -413 160.5t-154 445.5q0 169 54 326t148.5 276t234.5 190.5t302 71.5q179 0 310 -76t196 -221 q28 -4 41 -4q60 0 94.5 50t48.5 173zM719 63q148 0 273.5 64t209.5 172.5t131 252.5t47 304q0 257 -132 397t-363 140q-116 0 -221 -42.5t-184 -118t-137.5 -175.5t-89 -217.5t-30.5 -241.5q0 -254 133 -394.5t363 -140.5z" />
<glyph unicode="&#x1ee1;" horiz-adv-x="1245" d="M537 1319q-81 0 -136 -125l-51 23q70 165 182 165q27 0 53 -10.5t42 -22t41 -32.5q28 -26 41 -36.5t37 -23t45 -12.5q36 0 69.5 31.5t57.5 93.5l51 -22q-32 -82 -78.5 -124t-95.5 -42q-11 0 -23 2.5t-21 5t-21.5 9.5t-18.5 10.5t-19 13.5t-16.5 13t-17 14.5t-15.5 13.5 q-62 55 -106 55zM1194 1157h68l-25 -207q-19 -144 -73 -207t-138 -63h-22l-5 -4q5 -63 5 -78q0 -170 -60.5 -306.5t-178.5 -218t-273 -81.5q-183 0 -291.5 109.5t-108.5 304.5q0 119 36.5 227t102 189.5t163.5 130t214 48.5q144 0 243 -68t134 -196q14 -4 39 -4 q60 0 94.5 50t48.5 173zM494 57q194 0 318 149.5t124 387.5q0 164 -88 253t-240 89q-194 0 -320 -151t-126 -375q0 -165 89.5 -259t242.5 -94z" />
<glyph unicode="&#x1ee2;" horiz-adv-x="1656" d="M1606 1585h67l-24 -207q-19 -144 -73 -207t-138 -63h-17l-2 -2q37 -107 37 -248q0 -174 -52.5 -331.5t-146.5 -276t-234.5 -188.5t-305.5 -70q-259 0 -413 160.5t-154 445.5q0 169 54 326t148.5 276t234.5 190.5t302 71.5q179 0 310 -76t196 -221q28 -4 41 -4 q60 0 94.5 50t48.5 173zM719 63q148 0 273.5 64t209.5 172.5t131 252.5t47 304q0 257 -132 397t-363 140q-116 0 -221 -42.5t-184 -118t-137.5 -175.5t-89 -217.5t-30.5 -241.5q0 -254 133 -394.5t363 -140.5zM678 -256q31 0 50.5 -21t19.5 -53q0 -34 -21 -55t-53 -21 q-31 0 -52.5 21t-21.5 53q0 31 23 53.5t55 22.5z" />
<glyph unicode="&#x1ee3;" horiz-adv-x="1245" d="M1194 1157h68l-25 -207q-19 -144 -73 -207t-138 -63h-22l-5 -4q5 -63 5 -78q0 -170 -60.5 -306.5t-178.5 -218t-273 -81.5q-183 0 -291.5 109.5t-108.5 304.5q0 119 36.5 227t102 189.5t163.5 130t214 48.5q144 0 243 -68t134 -196q14 -4 39 -4q60 0 94.5 50t48.5 173z M494 57q194 0 318 149.5t124 387.5q0 164 -88 253t-240 89q-194 0 -320 -151t-126 -375q0 -165 89.5 -259t242.5 -94zM453 -256q31 0 50 -21t19 -53q0 -34 -20.5 -55t-52.5 -21q-31 0 -52.5 21t-21.5 53q0 31 23 53.5t55 22.5z" />
<glyph unicode="&#x1ee4;" horiz-adv-x="1316" d="M1155 573q-35 -291 -179 -436t-384 -145q-211 0 -314.5 124t-103.5 345q0 39 8 125l107 868h73l-106 -870q-10 -56 -10 -119q0 -189 85.5 -295.5t262.5 -106.5q206 0 332.5 127.5t158.5 384.5l107 879h72zM551 -406q-31 0 -52.5 21t-21.5 53q0 31 23 53.5t55 22.5 q31 0 50.5 -21t19.5 -53q0 -34 -21 -55t-53 -21z" />
<glyph unicode="&#x1ee5;" horiz-adv-x="1056" d="M893 993h68l-121 -993h-68l35 281h-4q-72 -131 -180.5 -210t-223.5 -79q-156 0 -224 96t-42 307l76 598h67l-73 -596q-12 -80 -5 -139t22.5 -97.5t45.5 -61.5t64.5 -32.5t79.5 -9.5q93 0 187 68t161 184.5t82 247.5zM451 -256q31 0 50 -21t19 -53q0 -34 -21 -55t-53 -21 q-31 0 -52 21t-21 53q0 31 23 53.5t55 22.5z" />
<glyph unicode="&#x1ee6;" horiz-adv-x="1316" d="M713 1821l-33 37q80 84 180 84q62 0 96.5 -35t34.5 -90q-1 -32 -14 -59.5t-41 -52t-51.5 -40t-65.5 -39.5l-10 -45h-35q-12 21 -12 37q1 16 28 38.5t59.5 43t59.5 52t27 63.5q1 36 -24.5 53.5t-61.5 17.5q-39 0 -76 -18t-61 -47zM1155 573q-35 -291 -179 -436t-384 -145 q-211 0 -314.5 124t-103.5 345q0 39 8 125l107 868h73l-106 -870q-10 -56 -10 -119q0 -189 85.5 -295.5t262.5 -106.5q206 0 332.5 127.5t158.5 384.5l107 879h72z" />
<glyph unicode="&#x1ee7;" horiz-adv-x="1056" d="M643 1397q-39 0 -76 -18.5t-61 -47.5l-33 37q80 84 180 84q61 0 96 -35t35 -90q-1 -32 -14 -59t-41.5 -51.5t-51.5 -39.5t-65 -40l-10 -45h-35q-12 21 -12 36q1 16 28 38.5t59.5 43t59.5 52t27 63.5q1 37 -24.5 54.5t-61.5 17.5zM893 993h68l-121 -993h-68l35 281h-4 q-72 -131 -180.5 -210t-223.5 -79q-156 0 -224 96t-42 307l76 598h67l-73 -596q-12 -80 -5 -139t22.5 -97.5t45.5 -61.5t64.5 -32.5t79.5 -9.5q93 0 187 68t161 184.5t82 247.5z" />
<glyph unicode="&#x1ee8;" horiz-adv-x="1454" d="M1077 1915l-264 -281h-82l258 281h88zM1446 1585h67l-24 -207q-19 -144 -73 -207t-138 -63q-21 0 -57 4l-66 -539q-35 -291 -179 -436t-384 -145q-211 0 -314.5 124t-103.5 345q0 39 8 125l107 868h73l-106 -870q-10 -56 -10 -119q0 -189 85.5 -295.5t262.5 -106.5 q206 0 332.5 127.5t158.5 384.5l107 879h72l-35 -287q24 -6 47 -6q60 0 94.5 50t48.5 173z" />
<glyph unicode="&#x1ee9;" horiz-adv-x="1185" d="M893 1427l-264 -280h-82l258 280h88zM1147 1157h67l-24 -207q-19 -144 -73 -207t-138 -63q-23 0 -55 4l-84 -684h-68l35 281h-4q-72 -131 -180.5 -210t-223.5 -79q-156 0 -224 96t-42 307l76 598h67l-73 -596q-12 -80 -5 -139t22.5 -97.5t45.5 -61.5t64.5 -32.5 t79.5 -9.5q93 0 187 68t161 184.5t82 247.5l53 436h68l-31 -254q24 -6 47 -6q60 0 94.5 50t48.5 173z" />
<glyph unicode="&#x1eea;" horiz-adv-x="1454" d="M848 1634h-80l-197 281h86zM1446 1585h67l-24 -207q-19 -144 -73 -207t-138 -63q-21 0 -57 4l-66 -539q-35 -291 -179 -436t-384 -145q-211 0 -314.5 124t-103.5 345q0 39 8 125l107 868h73l-106 -870q-10 -56 -10 -119q0 -189 85.5 -295.5t262.5 -106.5 q206 0 332.5 127.5t158.5 384.5l107 879h72l-35 -287q24 -6 47 -6q60 0 94.5 50t48.5 173z" />
<glyph unicode="&#x1eeb;" horiz-adv-x="1185" d="M668 1147h-80l-197 280h86zM1147 1157h67l-24 -207q-19 -144 -73 -207t-138 -63q-23 0 -55 4l-84 -684h-68l35 281h-4q-72 -131 -180.5 -210t-223.5 -79q-156 0 -224 96t-42 307l76 598h67l-73 -596q-12 -80 -5 -139t22.5 -97.5t45.5 -61.5t64.5 -32.5t79.5 -9.5 q93 0 187 68t161 184.5t82 247.5l53 436h68l-31 -254q24 -6 47 -6q60 0 94.5 50t48.5 173z" />
<glyph unicode="&#x1eec;" horiz-adv-x="1454" d="M850 1886q-39 0 -76 -18t-61 -47l-33 37q80 84 180 84q62 0 96.5 -35t34.5 -90q-1 -32 -14 -59.5t-41 -52t-51.5 -40t-65.5 -39.5l-10 -45h-35q-12 21 -12 37q1 16 28 38.5t59.5 43t59.5 52t27 63.5q1 36 -24.5 53.5t-61.5 17.5zM1446 1585h67l-24 -207 q-19 -144 -73 -207t-138 -63q-21 0 -57 4l-66 -539q-35 -291 -179 -436t-384 -145q-211 0 -314.5 124t-103.5 345q0 39 8 125l107 868h73l-106 -870q-10 -56 -10 -119q0 -189 85.5 -295.5t262.5 -106.5q206 0 332.5 127.5t158.5 384.5l107 879h72l-35 -287q24 -6 47 -6 q60 0 94.5 50t48.5 173z" />
<glyph unicode="&#x1eed;" horiz-adv-x="1185" d="M643 1397q-39 0 -76 -18.5t-61 -47.5l-33 37q80 84 180 84q61 0 96 -35t35 -90q-1 -32 -14 -59t-41.5 -51.5t-51.5 -39.5t-65 -40l-10 -45h-35q-12 21 -12 36q1 16 28 38.5t59.5 43t59.5 52t27 63.5q1 37 -24.5 54.5t-61.5 17.5zM1147 1157h67l-24 -207 q-19 -144 -73 -207t-138 -63q-23 0 -55 4l-84 -684h-68l35 281h-4q-72 -131 -180.5 -210t-223.5 -79q-156 0 -224 96t-42 307l76 598h67l-73 -596q-12 -80 -5 -139t22.5 -97.5t45.5 -61.5t64.5 -32.5t79.5 -9.5q93 0 187 68t161 184.5t82 247.5l53 436h68l-31 -254 q24 -6 47 -6q60 0 94.5 50t48.5 173z" />
<glyph unicode="&#x1eee;" horiz-adv-x="1454" d="M696 1808q-80 0 -135 -125l-51 23q70 166 182 166q27 0 53 -11t41 -22t41 -33q27 -24 40.5 -35.5t37.5 -23.5t45 -12q36 0 69.5 31.5t57.5 93.5l51 -23q-32 -82 -78.5 -124t-95.5 -42q-13 0 -25.5 2t-25.5 8.5t-21.5 10.5t-22.5 15t-18.5 14t-20 17t-17.5 15 q-62 55 -107 55zM1446 1585h67l-24 -207q-19 -144 -73 -207t-138 -63q-21 0 -57 4l-66 -539q-35 -291 -179 -436t-384 -145q-211 0 -314.5 124t-103.5 345q0 39 8 125l107 868h73l-106 -870q-10 -56 -10 -119q0 -189 85.5 -295.5t262.5 -106.5q206 0 332.5 127.5 t158.5 384.5l107 879h72l-35 -287q24 -6 47 -6q60 0 94.5 50t48.5 173z" />
<glyph unicode="&#x1eef;" horiz-adv-x="1185" d="M489 1319q-80 0 -135 -125l-51 23q70 165 182 165q27 0 53 -10.5t42 -22t41 -32.5q57 -51 83 -63q20 -9 39 -9q36 0 69.5 31.5t57.5 93.5l52 -22q-32 -82 -78.5 -124t-95.5 -42q-11 0 -23 2.5t-21 5t-21.5 9.5t-18.5 10.5t-19 13.5t-16.5 13t-17 14.5t-15.5 13.5 q-62 55 -107 55zM1147 1157h67l-24 -207q-19 -144 -73 -207t-138 -63q-23 0 -55 4l-84 -684h-68l35 281h-4q-72 -131 -180.5 -210t-223.5 -79q-156 0 -224 96t-42 307l76 598h67l-73 -596q-12 -80 -5 -139t22.5 -97.5t45.5 -61.5t64.5 -32.5t79.5 -9.5q93 0 187 68 t161 184.5t82 247.5l53 436h68l-31 -254q24 -6 47 -6q60 0 94.5 50t48.5 173z" />
<glyph unicode="&#x1ef0;" horiz-adv-x="1454" d="M1446 1585h67l-24 -207q-19 -144 -73 -207t-138 -63q-21 0 -57 4l-66 -539q-35 -291 -179 -436t-384 -145q-211 0 -314.5 124t-103.5 345q0 39 8 125l107 868h73l-106 -870q-10 -56 -10 -119q0 -189 85.5 -295.5t262.5 -106.5q206 0 332.5 127.5t158.5 384.5l107 879h72 l-35 -287q24 -6 47 -6q60 0 94.5 50t48.5 173zM555 -256q31 0 50.5 -21t19.5 -53q0 -34 -21 -55t-53 -21q-31 0 -52.5 21t-21.5 53q0 31 23 53.5t55 22.5z" />
<glyph unicode="&#x1ef1;" horiz-adv-x="1185" d="M1147 1157h67l-24 -207q-19 -144 -73 -207t-138 -63q-23 0 -55 4l-84 -684h-68l35 281h-4q-72 -131 -180.5 -210t-223.5 -79q-156 0 -224 96t-42 307l76 598h67l-73 -596q-12 -80 -5 -139t22.5 -97.5t45.5 -61.5t64.5 -32.5t79.5 -9.5q93 0 187 68t161 184.5t82 247.5 l53 436h68l-31 -254q24 -6 47 -6q60 0 94.5 50t48.5 173zM451 -256q31 0 50 -21t19 -53q0 -34 -21 -55t-53 -21q-31 0 -52 21t-21 53q0 31 23 53.5t55 22.5z" />
<glyph unicode="&#x1ef2;" horiz-adv-x="1052" d="M721 1634h-80l-197 281h86zM1051 1454h86l-553 -795l-82 -659h-72l82 659l-356 795h77l318 -715h6z" />
<glyph unicode="&#x1ef3;" horiz-adv-x="1050" d="M662 1147h-80l-197 280h86zM889 993h67l-104 -860q-16 -130 -51 -228t-81 -157.5t-107 -97t-122.5 -51t-134.5 -13.5q-153 0 -307 80l23 66q142 -78 288 -78q63 0 114.5 11.5t104 44t91.5 85.5t69.5 140t44.5 204l17 142h-4q-72 -131 -180.5 -210t-225.5 -79 q-154 0 -222 96t-42 307l74 598h67l-71 -596q-10 -101 -3 -166.5t38.5 -104t71.5 -53.5t97 -16q69 0 141.5 39.5t132 105t102.5 156t57 187.5z" />
<glyph unicode="&#x1ef4;" horiz-adv-x="1052" d="M1051 1454h86l-553 -795l-82 -659h-72l82 659l-356 795h77l318 -715h6zM430 -256q31 0 50.5 -21t19.5 -53q0 -34 -21 -55t-53 -21q-31 0 -52.5 21t-21.5 53q0 31 23 53.5t55 22.5z" />
<glyph unicode="&#x1ef5;" horiz-adv-x="1050" d="M889 993h67l-104 -860q-16 -130 -51 -228t-81 -157.5t-107 -97t-122.5 -51t-134.5 -13.5q-153 0 -307 80l23 66q142 -78 288 -78q63 0 114.5 11.5t104 44t91.5 85.5t69.5 140t44.5 204l17 142h-4q-72 -131 -180.5 -210t-225.5 -79q-154 0 -222 96t-42 307l74 598h67 l-71 -596q-10 -101 -3 -166.5t38.5 -104t71.5 -53.5t97 -16q69 0 141.5 39.5t132 105t102.5 156t57 187.5zM389 -526q31 0 50.5 -21t19.5 -53q0 -34 -21 -55t-53 -21q-31 0 -52.5 21t-21.5 53q0 31 23 53.5t55 22.5z" />
<glyph unicode="&#x1ef6;" horiz-adv-x="1052" d="M711 1886q-39 0 -76.5 -18t-61.5 -47l-32 37q80 84 180 84q61 0 96 -35t35 -90q-1 -32 -14 -59.5t-41 -52t-51.5 -40t-65.5 -39.5l-10 -45h-35q-12 21 -12 37q1 16 28 38.5t59.5 43t59.5 52t27 63.5q1 36 -24.5 53.5t-61.5 17.5zM1051 1454h86l-553 -795l-82 -659h-72 l82 659l-356 795h77l318 -715h6z" />
<glyph unicode="&#x1ef7;" horiz-adv-x="1050" d="M641 1397q-39 0 -76 -18.5t-61 -47.5l-33 37q80 84 180 84q61 0 96 -35t35 -90q-1 -32 -14 -59t-41.5 -51.5t-51.5 -39.5t-65 -40l-10 -45h-35q-12 21 -12 36q1 16 28 38.5t59.5 43t59.5 52t27 63.5q1 37 -24.5 54.5t-61.5 17.5zM889 993h67l-104 -860q-16 -130 -51 -228 t-81 -157.5t-107 -97t-122.5 -51t-134.5 -13.5q-153 0 -307 80l23 66q142 -78 288 -78q63 0 114.5 11.5t104 44t91.5 85.5t69.5 140t44.5 204l17 142h-4q-72 -131 -180.5 -210t-225.5 -79q-154 0 -222 96t-42 307l74 598h67l-71 -596q-10 -101 -3 -166.5t38.5 -104 t71.5 -53.5t97 -16q69 0 141.5 39.5t132 105t102.5 156t57 187.5z" />
<glyph unicode="&#x1ef8;" horiz-adv-x="1052" d="M557 1808q-80 0 -135 -125l-51 23q70 166 182 166q27 0 53 -11t41 -22t41 -33q27 -24 40.5 -35.5t37.5 -23.5t45 -12q36 0 69.5 31.5t57.5 93.5l51 -23q-32 -82 -78.5 -124t-95.5 -42q-13 0 -25.5 2t-25.5 8.5t-21.5 10.5t-22.5 15t-18.5 14t-20 17t-17.5 15 q-62 55 -107 55zM1051 1454h86l-553 -795l-82 -659h-72l82 659l-356 795h77l318 -715h6z" />
<glyph unicode="&#x1ef9;" horiz-adv-x="1050" d="M487 1319q-80 0 -135 -125l-51 23q70 165 182 165q27 0 53 -10.5t41.5 -22t40.5 -32.5q28 -26 41 -36.5t37 -23t45 -12.5q36 0 69.5 31.5t57.5 93.5l52 -22q-32 -82 -79 -124t-96 -42q-13 0 -25.5 2t-25.5 8.5t-21.5 10.5t-22.5 15t-18.5 14t-20 17t-17.5 15 q-62 55 -107 55zM889 993h67l-104 -860q-16 -130 -51 -228t-81 -157.5t-107 -97t-122.5 -51t-134.5 -13.5q-153 0 -307 80l23 66q142 -78 288 -78q63 0 114.5 11.5t104 44t91.5 85.5t69.5 140t44.5 204l17 142h-4q-72 -131 -180.5 -210t-225.5 -79q-154 0 -222 96t-42 307 l74 598h67l-71 -596q-10 -101 -3 -166.5t38.5 -104t71.5 -53.5t97 -16q69 0 141.5 39.5t132 105t102.5 156t57 187.5z" />
<glyph unicode="&#x2000;" horiz-adv-x="994" />
<glyph unicode="&#x2001;" horiz-adv-x="1989" />
<glyph unicode="&#x2002;" horiz-adv-x="956" />
<glyph unicode="&#x2003;" horiz-adv-x="1912" />
<glyph unicode="&#x2004;" horiz-adv-x="663" />
<glyph unicode="&#x2005;" horiz-adv-x="497" />
<glyph unicode="&#x2006;" horiz-adv-x="331" />
<glyph unicode="&#x2007;" horiz-adv-x="331" />
<glyph unicode="&#x2008;" horiz-adv-x="248" />
<glyph unicode="&#x2009;" horiz-adv-x="38" />
<glyph unicode="&#x200a;" horiz-adv-x="110" />
<glyph unicode="&#x2010;" horiz-adv-x="776" d="M668 596h-535l8 70h535z" />
<glyph unicode="&#x2011;" horiz-adv-x="776" d="M668 596h-535l8 70h535z" />
<glyph unicode="&#x2012;" horiz-adv-x="776" d="M668 596h-535l8 70h535z" />
<glyph unicode="&#x2013;" horiz-adv-x="1198" d="M1087 575h-956l6 64h957z" />
<glyph unicode="&#x2014;" horiz-adv-x="2154" d="M2044 575h-1913l6 64h1913z" />
<glyph unicode="&#x2015;" horiz-adv-x="2445" d="M2335 575h-2204l6 64h2206z" />
<glyph unicode="&#x2018;" horiz-adv-x="350" d="M262 999h-80l140 455h59z" />
<glyph unicode="&#x2019;" horiz-adv-x="339" d="M283 1454h79l-139 -455h-59z" />
<glyph unicode="&#x201a;" horiz-adv-x="344" d="M104 193h80l-141 -455h-57z" />
<glyph unicode="&#x201c;" horiz-adv-x="532" d="M262 999h-80l140 455h61zM444 999h-79l139 455h59z" />
<glyph unicode="&#x201d;" horiz-adv-x="520" d="M283 1454h79l-139 -455h-59zM465 1454h80l-139 -455h-62z" />
<glyph unicode="&#x201e;" horiz-adv-x="520" d="M115 303h80l-140 -455h-59zM297 303h80l-139 -455h-62z" />
<glyph unicode="&#x2020;" horiz-adv-x="757" d="M715 1130l-195 9h-35l-28 -234l-29 -289l-39 -63l-24 63l41 289l28 234h-39l-196 -9l8 66l194 -4h37l27 209h59l-30 -209h32l197 2z" />
<glyph unicode="&#x2021;" horiz-adv-x="757" d="M385 778l23 140l26 221h-39l-196 -9l10 66l192 -4h37l25 209h63l-32 -209h34l195 2l-8 -64l-195 9h-35l-26 -221l-10 -140l-25 -135l-31 -252h35l197 6l-9 -63h-227l-20 -207h-64l29 207h-37l-197 -2l9 63l192 -4h41l31 252z" />
<glyph unicode="&#x2022;" horiz-adv-x="794" d="M420 825q75 0 125.5 -50t50.5 -126q0 -78 -53 -130t-131 -52q-75 0 -125.5 51t-50.5 127q0 77 52.5 128.5t131.5 51.5z" />
<glyph unicode="&#x2026;" horiz-adv-x="2048" d="M283 127q31 0 52 -22t21 -54q0 -31 -22.5 -52.5t-54.5 -21.5q-31 0 -50.5 20.5t-19.5 51.5q0 33 21 55.5t53 22.5zM965 127q31 0 52 -22t21 -54q0 -31 -22.5 -52.5t-54.5 -21.5q-31 0 -50.5 20.5t-19.5 51.5q0 33 21 55.5t53 22.5zM1649 127q31 0 52 -22t21 -54 q0 -31 -22.5 -52.5t-54.5 -21.5q-31 0 -50.5 20.5t-19.5 51.5q0 33 21 55.5t53 22.5z" />
<glyph unicode="&#x202f;" horiz-adv-x="397" />
<glyph unicode="&#x2030;" horiz-adv-x="2768" d="M1368 1448l-743 -1466l-60 24l744 1467zM559 1460q159 0 264 -100.5t105 -261.5q0 -182 -121 -304t-293 -122q-157 0 -259.5 102.5t-102.5 263.5q0 175 118.5 298.5t288.5 123.5zM557 1399q-142 0 -242 -105.5t-100 -255.5q0 -135 85.5 -220t215.5 -85q146 0 246 104.5 t100 260.5q0 134 -85.5 217.5t-219.5 83.5zM1405 780q160 0 264.5 -100t104.5 -260q0 -92 -33 -172t-88.5 -136t-131 -88t-159.5 -32q-158 0 -261.5 102.5t-103.5 263.5q0 175 119 298.5t289 123.5zM2290 780q158 0 262 -100t104 -260q0 -185 -119 -306.5t-292 -121.5 q-157 0 -260 102.5t-103 263.5q0 175 119 298.5t289 123.5zM1405 719q-144 0 -243 -105.5t-99 -255.5q0 -134 84.5 -219.5t214.5 -85.5q147 0 246.5 104.5t99.5 260.5q0 134 -85 217.5t-218 83.5zM2288 719q-142 0 -242 -105.5t-100 -255.5q0 -134 85.5 -219.5t215.5 -85.5 q146 0 246 104.5t100 260.5q0 134 -85.5 217.5t-219.5 83.5z" />
<glyph unicode="&#x2039;" horiz-adv-x="495" d="M332 31h-68l-182 469l297 467h67l-292 -467z" />
<glyph unicode="&#x203a;" horiz-adv-x="493" d="M49 31l295 469l-178 467h65l185 -467l-299 -469h-68z" />
<glyph unicode="&#x203d;" horiz-adv-x="800" d="M518 1516q134 0 214.5 -86.5t80.5 -219.5q0 -130 -55 -227.5t-166 -208.5q-9 -9 -40 -40.5t-40.5 -41.5t-33.5 -36t-33 -40.5t-22.5 -37t-20 -42.5t-9.5 -42l-18 -121h-58l99 893h80l-82 -594q26 31 125 135q73 74 112 125t64.5 119.5t25.5 150.5q0 118 -64.5 181 t-174.5 63q-81 0 -161 -44t-134 -126l-45 47q68 94 161.5 143.5t194.5 49.5zM319 127q31 0 52.5 -22t21.5 -54q0 -31 -23 -52.5t-55 -21.5q-30 0 -49.5 20.5t-19.5 51.5q0 33 20.5 55.5t52.5 22.5z" />
<glyph unicode="&#x2042;" horiz-adv-x="1576" d="M1063 958l-195 146l-26 -279h-58l41 279l-225 -148l-22 54l233 129l-205 133l35 51l195 -145l26 276h58l-43 -276l227 145l22 -51l-235 -131l205 -131zM598 272l-195 146l-26 -279h-58l41 279l-225 -148l-22 54l233 129l-205 133l35 51l195 -145l26 276h58l-43 -276 l227 145l23 -51l-236 -131l205 -131zM1393 272l-195 146l-27 -279h-57l41 279l-225 -148l-23 54l234 129l-205 133l35 51l194 -145l27 276h57l-43 -276l228 145l22 -51l-235 -131l204 -131z" />
<glyph unicode="&#x2044;" horiz-adv-x="395" d="M633 1448l-744 -1466l-59 24l745 1467z" />
<glyph unicode="&#x2051;" horiz-adv-x="782" d="M682 958l-195 146l-26 -279h-58l41 279l-225 -148l-22 54l233 129l-205 133l35 51l195 -145l26 276h58l-43 -276l227 145l22 -51l-235 -131l205 -131zM594 248l-195 143l-26 -276h-56l39 276l-225 -145l-22 53l233 129l-203 133l35 51l193 -143l28 276h56l-41 -276 l227 143l22 -51l-235 -133l205 -129z" />
<glyph unicode="&#x205f;" horiz-adv-x="497" />
<glyph unicode="&#x2070;" horiz-adv-x="722" d="M514 1743q119 0 189.5 -88.5t70.5 -249.5q0 -99 -24.5 -191.5t-68.5 -166t-113.5 -118t-153.5 -44.5q-119 0 -188.5 88t-69.5 248q0 100 24 192.5t68 166.5t113 118.5t153 44.5zM514 1681q-72 0 -129.5 -40t-93 -107t-54 -147.5t-18.5 -167.5q0 -132 53.5 -202.5 t145.5 -70.5q94 0 162.5 71t99.5 173.5t31 218.5q0 133 -53 202.5t-144 69.5z" />
<glyph unicode="&#x2074;" horiz-adv-x="663" d="M569 1106h123l-8 -59h-123l-18 -154h-64l19 154h-387l6 51l479 637h51zM506 1106l61 496l-368 -496h307z" />
<glyph unicode="&#x2075;" horiz-adv-x="628" d="M692 1675h-362l-49 -284q64 30 147 30q110 0 174 -60t64 -169q0 -136 -88 -221.5t-222 -85.5q-90 0 -154 38.5t-96 106.5l52 33q54 -117 196 -117q108 0 178 68t70 180q0 84 -49.5 128t-140.5 44q-96 0 -162 -51l-41 10l74 410h417z" />
<glyph unicode="&#x2076;" horiz-adv-x="651" d="M473 1421q98 0 155.5 -60t57.5 -159q0 -131 -87.5 -223t-221.5 -92q-104 0 -168 70.5t-64 191.5q0 133 62 266.5t171.5 230.5t235.5 121l4 -57q-130 -27 -233 -134.5t-149 -250.5l4 -2q45 45 106.5 71.5t126.5 26.5zM383 946q106 0 174 75.5t68 180.5q0 77 -45.5 119.5 t-128.5 42.5q-71 0 -138 -45.5t-102 -110.5q-4 -36 -4 -59q0 -96 49 -149.5t127 -53.5z" />
<glyph unicode="&#x2077;" horiz-adv-x="583" d="M193 1735h501l-8 -52l-440 -802l-64 16l432 778h-430z" />
<glyph unicode="&#x2078;" horiz-adv-x="665" d="M553 1350q58 -18 96.5 -70.5t38.5 -122.5q0 -121 -89.5 -196.5t-217.5 -75.5q-110 0 -177 58t-67 153q0 87 58.5 159t134.5 95q-40 13 -70.5 54t-30.5 97q0 107 76.5 174.5t183.5 67.5q96 0 152.5 -49t56.5 -131q0 -78 -45.5 -134.5t-99.5 -74.5v-4zM289 1507 q0 -60 43 -95.5t114 -35.5q79 0 135 51.5t56 128.5q0 62 -42 96t-114 34q-82 0 -137 -53.5t-55 -125.5zM391 944q100 0 167 62t67 153q0 74 -52 117t-141 43q-96 0 -163.5 -62.5t-67.5 -154.5q0 -77 52.5 -117.5t137.5 -40.5z" />
<glyph unicode="&#x2079;" horiz-adv-x="671" d="M494 1743q104 0 168.5 -72.5t64.5 -191.5q0 -133 -62.5 -266t-172 -228.5t-234.5 -118.5l-6 56q131 27 238 140t151 261l-2 2q-45 -50 -108.5 -79t-131.5 -29q-96 0 -154.5 59.5t-58.5 159.5q0 126 90.5 216.5t217.5 90.5zM412 1274q80 0 149 48t103 116q2 14 2 41 q0 93 -52 147.5t-129 54.5q-98 0 -167.5 -71.5t-69.5 -171.5q0 -76 45 -120t119 -44z" />
<glyph unicode="&#x207a;" horiz-adv-x="651" d="M674 1317l-8 -60h-215l-31 -243h-60l29 243h-219l8 60h219l29 246h61l-30 -246h217z" />
<glyph unicode="&#x207c;" horiz-adv-x="700" d="M713 1423h-498l8 58h496zM670 1081h-496l6 58h496z" />
<glyph unicode="&#x207d;" horiz-adv-x="284" d="M203 1165q0 -199 65 -381l-59 -26q-68 197 -68 397q0 188 57 378.5t160 342.5l45 -25q-94 -137 -147 -322.5t-53 -363.5z" />
<glyph unicode="&#x207e;" horiz-adv-x="286" d="M342 1475q0 -368 -205 -715l-49 20q195 329 195 682q0 225 -72 385l55 31q76 -169 76 -403z" />
<glyph unicode="&#x207f;" horiz-adv-x="651" d="M393 469q86 0 125.5 -59t24.5 -177l-49 -368h-62l47 366q23 179 -98 179q-92 0 -169 -75.5t-97 -189.5l-33 -280h-64l74 598h62l-17 -133h4q49 66 116 102.5t136 36.5z" />
<glyph unicode="&#x2080;" horiz-adv-x="722" d="M385 715q119 0 189.5 -88.5t70.5 -249.5q0 -99 -24.5 -191.5t-68.5 -166t-113.5 -118t-153.5 -44.5q-119 0 -188.5 88t-69.5 248q0 100 24 192.5t68 166.5t113 118.5t153 44.5zM385 653q-72 0 -129.5 -40.5t-93 -107t-54 -147.5t-18.5 -168q0 -132 53.5 -202t145.5 -70 q94 0 162.5 71t99.5 173.5t31 218.5q0 133 -53 202.5t-144 69.5z" />
<glyph unicode="&#x2081;" horiz-adv-x="446" d="M281 707h51l-105 -842h-63l94 756l-190 -134l-29 52z" />
<glyph unicode="&#x2082;" horiz-adv-x="618" d="M82 -70v-6h399l-8 -59h-502l6 49l330 299q81 74 123.5 138t42.5 141q0 75 -39.5 118t-111.5 43q-60 0 -121.5 -35.5t-94.5 -99.5l-47 39q40 71 114 114.5t153 43.5q93 0 152 -58t59 -157q0 -90 -46 -166t-133 -156z" />
<glyph unicode="&#x2083;" horiz-adv-x="622" d="M399 301q58 -23 88.5 -69.5t30.5 -110.5q0 -119 -81 -191.5t-204 -72.5q-98 0 -163 43.5t-88 115.5l59 23q40 -121 192 -121q99 0 159.5 57t60.5 148q0 66 -47.5 108.5t-133.5 42.5h-75l8 58h82q87 0 142.5 53t55.5 133q0 65 -42.5 100t-118.5 35q-124 0 -197 -96l-51 35 q88 123 250 123q98 0 159.5 -50t61.5 -139q0 -161 -148 -221v-4z" />
<glyph unicode="&#x2084;" horiz-adv-x="663" d="M440 78h123l-8 -60h-123l-18 -153h-64l19 153h-387l6 52l479 637h51zM377 78l61 495l-368 -495h307z" />
<glyph unicode="&#x2085;" horiz-adv-x="628" d="M563 647h-362l-49 -285q66 31 147 31q110 0 174 -60t64 -169q0 -136 -88 -221.5t-222 -85.5q-90 0 -154 38.5t-96 106.5l52 33q54 -117 196 -117q108 0 178 68t70 180q0 84 -49.5 128t-140.5 44q-96 0 -162 -51l-41 10l74 410h417z" />
<glyph unicode="&#x2086;" horiz-adv-x="651" d="M348 393q98 0 155.5 -60t57.5 -159q0 -131 -87.5 -223t-221.5 -92q-104 0 -168 70.5t-64 191.5q0 133 62 266.5t171.5 230.5t235.5 121l5 -57q-130 -27 -233.5 -134.5t-149.5 -250.5l4 -2q45 45 106.5 71.5t126.5 26.5zM258 -82q106 0 174 75.5t68 180.5 q0 77 -45.5 119.5t-128.5 42.5q-71 0 -138 -45.5t-102 -110.5q-4 -36 -4 -59q0 -96 49 -149.5t127 -53.5z" />
<glyph unicode="&#x2087;" horiz-adv-x="583" d="M66 707h501l-8 -52l-440 -802l-64 16l432 778h-430z" />
<glyph unicode="&#x2088;" horiz-adv-x="665" d="M424 322q58 -18 96.5 -70.5t38.5 -122.5q0 -121 -89.5 -196.5t-217.5 -75.5q-110 0 -177 58t-67 153q0 87 58.5 159t134.5 95q-40 13 -70.5 54t-30.5 97q0 107 76.5 174.5t183.5 67.5q96 0 152.5 -49t56.5 -131q0 -78 -45.5 -134.5t-99.5 -74.5v-4zM160 479 q0 -60 43 -95.5t114 -35.5q79 0 135 51.5t56 128.5q0 62 -42 95.5t-114 33.5q-82 0 -137 -53t-55 -125zM262 -84q100 0 167 62t67 153q0 74 -52 117t-141 43q-96 0 -163.5 -62.5t-67.5 -154.5q0 -77 52.5 -117.5t137.5 -40.5z" />
<glyph unicode="&#x2089;" horiz-adv-x="671" d="M365 715q104 0 168.5 -72.5t64.5 -191.5q0 -133 -62.5 -266t-172 -228.5t-234.5 -118.5l-6 56q131 27 238 140t151 261l-2 2q-45 -50 -108.5 -79.5t-131.5 -29.5q-96 0 -154.5 59.5t-58.5 160.5q0 126 90.5 216.5t217.5 90.5zM283 246q80 0 149 48t103 116q2 14 2 41 q0 93 -52 147.5t-129 54.5q-98 0 -167.5 -71.5t-69.5 -171.5q0 -76 45 -120t119 -44z" />
<glyph unicode="&#x208a;" horiz-adv-x="651" d="M547 274l-8 -59h-215l-31 -244h-62l31 244h-219l8 59h217l31 246h61l-30 -246h217z" />
<glyph unicode="&#x208b;" horiz-adv-x="653" d="M541 215h-498l8 61h498z" />
<glyph unicode="&#x208c;" horiz-adv-x="698" d="M586 399h-496l6 58h496zM545 57h-498l8 60h496z" />
<glyph unicode="&#x208d;" horiz-adv-x="290" d="M84 141q0 -197 66 -381l-60 -26q-67 194 -67 397q0 188 57 378.5t160 342.5l45 -25q-94 -138 -147.5 -323.5t-53.5 -362.5z" />
<glyph unicode="&#x208e;" horiz-adv-x="288" d="M225 446q0 -367 -205 -714l-49 20q195 329 195 682q0 225 -72 385l56 31q75 -167 75 -404z" />
<glyph unicode="&#x2090;" horiz-adv-x="686" d="M526 457h60l-74 -592h-57l16 145h-2q-45 -70 -110.5 -109.5t-139.5 -39.5q-96 0 -153.5 62.5t-57.5 176.5q0 151 86.5 257t229.5 106q55 0 106 -18.5t84 -49.5h4zM227 -80q96 0 175.5 83t91.5 204l16 123q-17 32 -67.5 52.5t-110.5 20.5q-116 0 -189 -85t-73 -216 q0 -85 41 -133.5t116 -48.5z" />
<glyph unicode="&#x2091;" horiz-adv-x="591" d="M246 -84q111 0 180 84l45 -37q-89 -106 -227 -106q-109 0 -174.5 66t-65.5 179q0 150 89.5 255.5t232.5 105.5q29 0 58 -6.5t58 -21t47.5 -43.5t18.5 -68q0 -54 -40.5 -97.5t-108 -70.5t-140 -43t-153.5 -23q5 -83 51.5 -128.5t128.5 -45.5zM324 406q-102 0 -173 -73 t-83 -188q172 17 276.5 66t104.5 111q0 39 -33.5 61.5t-91.5 22.5z" />
<glyph unicode="&#x2092;" horiz-adv-x="669" d="M332 459q106 0 170.5 -62.5t64.5 -179.5q0 -152 -85.5 -256t-221.5 -104q-108 0 -172.5 65t-64.5 182q0 146 86 250.5t223 104.5zM328 399q-104 0 -174 -83.5t-70 -206.5q0 -90 47 -141.5t131 -51.5q104 0 174 85t70 212q0 91 -46.5 138.5t-131.5 47.5z" />
<glyph unicode="&#x2093;" horiz-adv-x="550" d="M520 463l-252 -295l181 -303h-72l-148 248h-2l-207 -248h-73l250 303l-177 295h72l146 -246l208 246h74z" />
<glyph unicode="&#x20ab;" horiz-adv-x="1101" d="M1159 1255l-6 -59h-121l-145 -1196h-70l37 287h-4q-69 -133 -175.5 -214t-238.5 -81q-159 0 -250.5 111.5t-91.5 283.5q0 166 62.5 305.5t181.5 224t270 84.5q90 0 174.5 -31t135.5 -87h8l39 313h-281l8 59h279l30 252h68l-31 -252h121zM442 57q83 0 159.5 42.5 t133.5 114.5t97 163.5t57 191.5l26 228q-48 75 -137.5 107t-171.5 32q-130 0 -232 -76.5t-155 -201.5t-53 -273q0 -146 72 -237t204 -91zM8 -258l8 65h852l-8 -65h-852z" />
<glyph unicode="&#x20ac;" horiz-adv-x="1091" d="M784 1319q-190 0 -330.5 -132t-199.5 -349h600l-8 -60h-606q-18 -85 -21 -182h604l-8 -59h-596q9 -228 122.5 -352t281.5 -124q180 0 327 111l37 -57q-166 -123 -369 -123q-195 0 -328.5 141.5t-142.5 403.5h-114l8 59h106q3 93 21 182h-107l9 60h110q63 246 224 398.5 t380 152.5q195 0 334 -121l-47 -54q-120 105 -287 105z" />
<glyph unicode="&#x20ba;" horiz-adv-x="1060" d="M905 344l62 -27q-152 -317 -521 -317h-284l65 532l-135 -63l-16 59l160 76l20 160l-135 -64l-19 58l162 76l72 573h72l-68 -539l330 154l18 -57l-356 -166l-19 -160l328 154l18 -60l-356 -166l-61 -499h202q175 0 279 67t182 209z" />
<glyph unicode="&#x2116;" horiz-adv-x="2013" d="M1683 856q-109 0 -173 64.5t-64 181.5q0 94 37.5 174.5t108.5 130t161 49.5q108 0 173 -62.5t65 -179.5q0 -151 -85.5 -254.5t-222.5 -103.5zM1098 135l162 1319h71l-176 -1454h-74l-712 1317h-2l-162 -1317h-74l178 1454h70l715 -1319h4zM1751 1399q-103 0 -173.5 -84 t-70.5 -207q0 -91 48 -142t133 -51q104 0 172.5 83.5t68.5 211.5q0 91 -47 140t-131 49zM1395 668l4 61h497l-4 -61h-497z" />
<glyph unicode="&#x2122;" horiz-adv-x="1239" d="M150 1401l8 53h426l-9 -53h-186l-74 -608h-57l74 608h-182zM1202 1454h60l-82 -661h-58l68 550l-262 -413h-41l-164 413l-68 -550h-57l84 661h57l176 -450z" />
<glyph unicode="&#x2190;" horiz-adv-x="1280" d="M551 180l-551 367l461 368l41 -333h680l8 -70h-680z" />
<glyph unicode="&#x2191;" horiz-adv-x="1159" d="M946 680h-332v-680h-67v680h-336l369 506z" />
<glyph unicode="&#x2192;" horiz-adv-x="1280" d="M729 180l41 332h-680l8 70h680l41 333l461 -368z" />
<glyph unicode="&#x2193;" horiz-adv-x="1159" d="M946 506l-366 -506l-369 506h336v680h67v-680h332z" />
<glyph unicode="&#x2202;" horiz-adv-x="1042" d="M616 1415q84 0 148.5 -35t104.5 -92t65.5 -136.5t35 -160.5t9.5 -172q0 -108 -14 -208.5t-41 -193.5t-71 -169.5t-101 -133.5t-133.5 -88.5t-165.5 -31.5q-168 0 -269.5 104t-101.5 281q0 102 32.5 193.5t91 160t145.5 108.5t190 40q128 0 217.5 -63.5t136.5 -170.5h2 q8 73 8 170q1 83 -6.5 155t-28.5 143t-54.5 121t-88.5 81t-127 31q-69 0 -149 -26.5t-148 -72.5l-12 64q75 51 161.5 76.5t163.5 25.5zM461 63q111 0 198 64t140 167t80 241q-35 120 -121.5 199t-216.5 79q-114 0 -204 -60t-136.5 -156.5t-46.5 -207.5q0 -150 82.5 -238 t224.5 -88z" />
<glyph unicode="&#x2206;" horiz-adv-x="1177" d="M745 1454l318 -1393l-10 -61h-54h-985h-12l6 61l656 1393h81zM88 70h895l-285 1294h-6z" />
<glyph unicode="&#x220f;" horiz-adv-x="1269" d="M293 1454h919l-202 -1657h-72l195 1589h-777l-196 -1589h-72z" />
<glyph unicode="&#x2211;" horiz-adv-x="1087" d="M1137 1454l-9 -68h-813l326 -751l-506 -756h807l-6 -69h-901l8 61l514 764l-328 760l7 59h901z" />
<glyph unicode="&#x221a;" horiz-adv-x="1210" d="M1376 1683h68l-875 -1683h-59l-182 1022h-199l8 68h254l164 -975h6z" />
<glyph unicode="&#x221e;" horiz-adv-x="1433" d="M1081 870q109 0 180.5 -77t71.5 -195q0 -92 -43.5 -173.5t-118 -131t-159.5 -49.5q-89 0 -162.5 58t-132.5 190q-172 -248 -350 -248q-109 0 -180.5 77.5t-71.5 194.5q0 142 96 248t227 106q89 0 160.5 -57.5t132.5 -191.5q171 249 350 249zM371 307q73 0 148.5 58.5 t166.5 193.5q-98 248 -250 248q-103 0 -179.5 -87.5t-76.5 -201.5q0 -91 54 -151t137 -60zM1014 307q100 0 177 90t77 199q0 91 -54.5 151t-134.5 60q-73 0 -149.5 -58.5t-167.5 -193.5q48 -117 108 -182.5t144 -65.5z" />
<glyph unicode="&#x222b;" horiz-adv-x="385" d="M469 1360h-25q-35 0 -57 -2.5t-40 -14.5t-27 -23t-18.5 -42.5t-14 -58t-13.5 -82.5l-184 -1227q-18 -114 -48 -173t-85 -73q-35 -8 -121 -8l2 57h19q23 0 40 2.5t31.5 5t25.5 12t19 15.5t15 23.5t11.5 28.5t10 38t8.5 44.5t9 54.5l184 1220q18 119 48 179t85 73 q31 6 127 6z" />
<glyph unicode="&#x2236;" horiz-adv-x="378" d="M258 1137q31 0 52.5 -22t21.5 -54q0 -31 -23 -52.5t-55 -21.5q-31 0 -50.5 20.5t-19.5 51.5q0 33 21 55.5t53 22.5zM150 246q31 0 52 -22t21 -54q0 -31 -23 -52.5t-55 -21.5q-30 0 -49.5 20.5t-19.5 51.5q0 33 21 55.5t53 22.5z" />
<glyph unicode="&#x2248;" horiz-adv-x="1130" d="M801 758q60 0 108 27.5t99 74.5l16 -57q-52 -52 -105 -82.5t-122 -30.5q-66 0 -185 50.5t-188 50.5q-72 0 -134.5 -26t-99.5 -54l-18 53q42 33 110 62.5t146 29.5q70 0 134 -24.5t123 -49t116 -24.5zM745 317q42 0 83.5 18t64.5 35.5t59 49.5l19 -58 q-52 -51 -106.5 -80.5t-123.5 -29.5q-66 0 -184.5 49t-187.5 49q-72 0 -135 -26t-99 -56l-16 56q39 32 108.5 63t147.5 31q55 0 107.5 -16t87 -34.5t82 -34.5t93.5 -16z" />
<glyph unicode="&#x2260;" horiz-adv-x="1058" d="M995 762h-331l-213 -393h501l-8 -66h-530l-154 -285l-51 23l141 262h-258l8 66h287l213 393h-457l9 65h483l156 287l51 -22l-144 -265h306z" />
<glyph unicode="&#x2264;" horiz-adv-x="1067" d="M895 352l-8 -71l-750 428l6 49l854 430l-10 -74l-745 -383zM47 0l8 66h807l-8 -66h-807z" />
<glyph unicode="&#x2265;" horiz-adv-x="1085" d="M162 352l745 381l-651 381l6 74l750 -430l-6 -49l-854 -428zM922 -2h-807l8 65h807z" />
<glyph unicode="&#x25ca;" horiz-adv-x="817" d="M111 692l403 694l240 -694l-408 -692zM360 135l318 557l-178 559l-312 -559z" />
<glyph unicode="&#x25fc;" horiz-adv-x="993" d="M0 993h993v-993h-993v993z" />
<glyph unicode="&#x2780;" horiz-adv-x="1564" d="M885 1448q138 0 259 -50.5t207.5 -138.5t136.5 -210t50 -261q0 -162 -64 -312.5t-172 -260.5t-259.5 -176t-317.5 -66q-183 0 -331.5 85.5t-233 236.5t-84.5 336q0 161 66.5 312t176.5 261.5t259 177t307 66.5zM725 35q152 0 292 60t241 161.5t161 240.5t60 291 q0 126 -45.5 237t-124 190.5t-188.5 125t-236 45.5q-147 0 -285 -62t-240 -164t-163.5 -241.5t-61.5 -287.5q0 -126 45 -237t123 -189.5t187.5 -124t234.5 -45.5zM625 967l241 168h52l-105 -842h-63l94 756l-191 -134z" />
<glyph unicode="&#x2781;" horiz-adv-x="1564" d="M885 1448q138 0 259 -50.5t207.5 -138.5t136.5 -210t50 -261q0 -162 -64 -312.5t-172 -260.5t-259.5 -176t-317.5 -66q-183 0 -331.5 85.5t-233 236.5t-84.5 336q0 161 66.5 312t176.5 261.5t259 177t307 66.5zM725 35q152 0 292 60t241 161.5t161 240.5t60 291 q0 126 -45.5 237t-124 190.5t-188.5 125t-236 45.5q-147 0 -285 -62t-240 -164t-163.5 -241.5t-61.5 -287.5q0 -126 45 -237t123 -189.5t187.5 -124t234.5 -45.5zM895 606l-277 -248v-6h400l-8 -59h-502l6 49l330 299q81 74 123.5 138t42.5 141q0 75 -39.5 118t-112.5 43 q-60 0 -121 -35.5t-94 -99.5l-47 39q40 71 113.5 114.5t152.5 43.5q93 0 152 -58t59 -157q0 -90 -45.5 -166t-132.5 -156z" />
<glyph unicode="&#x2782;" horiz-adv-x="1564" d="M885 1448q138 0 259 -50.5t207.5 -138.5t136.5 -210t50 -261q0 -162 -64 -312.5t-172 -260.5t-259.5 -176t-317.5 -66q-183 0 -331.5 85.5t-233 236.5t-84.5 336q0 161 66.5 312t176.5 261.5t259 177t307 66.5zM725 35q152 0 292 60t241 161.5t161 240.5t60 291 q0 126 -45.5 237t-124 190.5t-188.5 125t-236 45.5q-147 0 -285 -62t-240 -164t-163.5 -241.5t-61.5 -287.5q0 -126 45 -237t123 -189.5t187.5 -124t234.5 -45.5zM1079 954q0 -162 -147 -221v-4q58 -23 88.5 -69.5t30.5 -110.5q0 -119 -81 -191.5t-204 -72.5 q-98 0 -163.5 43.5t-88.5 115.5l59 23q40 -121 193 -121q99 0 159 57t60 148q0 66 -47 108.5t-133 42.5h-76l8 58h82q87 0 143 53t56 133q0 65 -43 100t-119 35q-124 0 -197 -96l-51 35q88 123 250 123q98 0 159.5 -50t61.5 -139z" />
<glyph unicode="&#x2783;" horiz-adv-x="1564" d="M885 1448q138 0 259 -50.5t207.5 -138.5t136.5 -210t50 -261q0 -162 -64 -312.5t-172 -260.5t-259.5 -176t-317.5 -66q-183 0 -331.5 85.5t-233 236.5t-84.5 336q0 161 66.5 312t176.5 261.5t259 177t307 66.5zM725 35q152 0 292 60t241 161.5t161 240.5t60 291 q0 126 -45.5 237t-124 190.5t-188.5 125t-236 45.5q-147 0 -285 -62t-240 -164t-163.5 -241.5t-61.5 -287.5q0 -126 45 -237t123 -189.5t187.5 -124t234.5 -45.5zM997 1135l-77 -629h122l-8 -60h-123l-18 -153h-64l19 153h-387l6 52l479 637h51zM856 506l62 495l-369 -495 h307z" />
<glyph unicode="&#x2784;" horiz-adv-x="1564" d="M885 1448q138 0 259 -50.5t207.5 -138.5t136.5 -210t50 -261q0 -162 -64 -312.5t-172 -260.5t-259.5 -176t-317.5 -66q-183 0 -331.5 85.5t-233 236.5t-84.5 336q0 161 66.5 312t176.5 261.5t259 177t307 66.5zM725 35q152 0 292 60t241 161.5t161 240.5t60 291 q0 126 -45.5 237t-124 190.5t-188.5 125t-236 45.5q-147 0 -285 -62t-240 -164t-163.5 -241.5t-61.5 -287.5q0 -126 45 -237t123 -189.5t187.5 -124t234.5 -45.5zM608 725l74 410h418l-8 -60h-363l-49 -284q64 30 147 30q110 0 174 -60t64 -169q0 -136 -87.5 -221.5 t-221.5 -85.5q-90 0 -154 38.5t-96 106.5l51 33q54 -117 197 -117q108 0 177.5 68t69.5 180q0 84 -49.5 128t-140.5 44q-96 0 -162 -51z" />
<glyph unicode="&#x2785;" horiz-adv-x="1564" d="M885 1448q138 0 259 -50.5t207.5 -138.5t136.5 -210t50 -261q0 -162 -64 -312.5t-172 -260.5t-259.5 -176t-317.5 -66q-183 0 -331.5 85.5t-233 236.5t-84.5 336q0 161 66.5 312t176.5 261.5t259 177t307 66.5zM725 35q152 0 292 60t241 161.5t161 240.5t60 291 q0 126 -45.5 237t-124 190.5t-188.5 125t-236 45.5q-147 0 -285 -62t-240 -164t-163.5 -241.5t-61.5 -287.5q0 -126 45 -237t123 -189.5t187.5 -124t234.5 -45.5zM836 819q98 0 155.5 -60t57.5 -159q0 -131 -88 -223t-222 -92q-104 0 -167.5 70.5t-63.5 191.5 q0 133 62 266.5t171.5 230.5t235.5 121l4 -57q-130 -27 -233.5 -134.5t-149.5 -250.5l4 -2q45 45 107 71.5t127 26.5zM745 344q106 0 174 75.5t68 180.5q0 77 -45.5 119.5t-128.5 42.5q-71 0 -138 -45.5t-102 -110.5q-4 -36 -4 -59q0 -96 49 -149.5t127 -53.5z" />
<glyph unicode="&#x2786;" horiz-adv-x="1564" d="M885 1448q138 0 259 -50.5t207.5 -138.5t136.5 -210t50 -261q0 -162 -64 -312.5t-172 -260.5t-259.5 -176t-317.5 -66q-183 0 -331.5 85.5t-233 236.5t-84.5 336q0 161 66.5 312t176.5 261.5t259 177t307 66.5zM725 35q152 0 292 60t241 161.5t161 240.5t60 291 q0 126 -45.5 237t-124 190.5t-188.5 125t-236 45.5q-147 0 -285 -62t-240 -164t-163.5 -241.5t-61.5 -287.5q0 -126 45 -237t123 -189.5t187.5 -124t234.5 -45.5zM616 1075l9 60h501l-8 -52l-440 -802l-64 16l433 778h-431z" />
<glyph unicode="&#x2787;" horiz-adv-x="1564" d="M885 1448q138 0 259 -50.5t207.5 -138.5t136.5 -210t50 -261q0 -162 -64 -312.5t-172 -260.5t-259.5 -176t-317.5 -66q-183 0 -331.5 85.5t-233 236.5t-84.5 336q0 161 66.5 312t176.5 261.5t259 177t307 66.5zM725 35q152 0 292 60t241 161.5t161 240.5t60 291 q0 126 -45.5 237t-124 190.5t-188.5 125t-236 45.5q-147 0 -285 -62t-240 -164t-163.5 -241.5t-61.5 -287.5q0 -126 45 -237t123 -189.5t187.5 -124t234.5 -45.5zM1069 963q0 -78 -45.5 -134.5t-99.5 -74.5v-4q58 -18 96.5 -70.5t38.5 -122.5q0 -121 -89.5 -196.5 t-217.5 -75.5q-110 0 -177 58t-67 153q0 87 58 159t134 95q-40 13 -70 54t-30 97q0 107 76.5 174.5t183.5 67.5q96 0 152.5 -49t56.5 -131zM659 907q0 -60 43.5 -95.5t114.5 -35.5q79 0 135 51.5t56 128.5q0 62 -42 95.5t-114 33.5q-82 0 -137.5 -53t-55.5 -125zM995 559 q0 74 -51.5 117t-140.5 43q-96 0 -164 -62.5t-68 -154.5q0 -77 53 -117.5t138 -40.5q99 0 166 62t67 153z" />
<glyph unicode="&#x2788;" horiz-adv-x="1564" d="M885 1448q138 0 259 -50.5t207.5 -138.5t136.5 -210t50 -261q0 -162 -64 -312.5t-172 -260.5t-259.5 -176t-317.5 -66q-183 0 -331.5 85.5t-233 236.5t-84.5 336q0 161 66.5 312t176.5 261.5t259 177t307 66.5zM725 35q152 0 292 60t241 161.5t161 240.5t60 291 q0 126 -45.5 237t-124 190.5t-188.5 125t-236 45.5q-147 0 -285 -62t-240 -164t-163.5 -241.5t-61.5 -287.5q0 -126 45 -237t123 -189.5t187.5 -124t234.5 -45.5zM872 1143q104 0 169 -72.5t65 -191.5q0 -133 -62.5 -266t-172 -228.5t-234.5 -118.5l-6 56q131 27 238 140 t151 261l-2 2q-45 -50 -108.5 -79.5t-131.5 -29.5q-96 0 -154.5 59.5t-58.5 160.5q0 126 90 216.5t217 90.5zM1042 838q2 14 2 41q0 93 -51.5 147.5t-128.5 54.5q-98 0 -167.5 -71.5t-69.5 -171.5q0 -76 45 -120t119 -44q79 0 148 47.5t103 116.5z" />
<glyph unicode="&#x278a;" horiz-adv-x="1564" d="M725 -27q-183 0 -331.5 85.5t-233 236.5t-84.5 336q0 161 66.5 312t176.5 261.5t259 177t307 66.5q138 0 259 -50.5t207.5 -138.5t136.5 -210t50 -261q0 -162 -64 -312.5t-172 -260.5t-259.5 -176t-317.5 -66zM866 1135l-241 -168l28 -52l191 134l-94 -756h63l105 842 h-52z" />
<glyph unicode="&#x278b;" horiz-adv-x="1564" d="M725 -27q-183 0 -331.5 85.5t-233 236.5t-84.5 336q0 161 66.5 312t176.5 261.5t259 177t307 66.5q138 0 259 -50.5t207.5 -138.5t136.5 -210t50 -261q0 -162 -64 -312.5t-172 -260.5t-259.5 -176t-317.5 -66zM618 358l277 248q87 79 132.5 155t45.5 167q0 100 -59 157.5 t-152 57.5q-78 0 -151 -44t-113 -114l45 -39q35 64 95.5 99.5t119.5 35.5q73 0 112.5 -43t39.5 -118q0 -77 -42 -141.5t-122 -137.5l-332 -299l-4 -49h500l8 59h-400v6z" />
<glyph unicode="&#x278c;" horiz-adv-x="1564" d="M725 -27q-183 0 -331.5 85.5t-233 236.5t-84.5 336q0 161 66.5 312t176.5 261.5t259 177t307 66.5q138 0 259 -50.5t207.5 -138.5t136.5 -210t50 -261q0 -162 -64 -312.5t-172 -260.5t-259.5 -176t-317.5 -66zM932 729v4q70 27 109.5 84t39.5 137q0 88 -62.5 138.5 t-160.5 50.5q-160 0 -248 -123l52 -35q70 96 194 96q77 0 119.5 -35t42.5 -100q0 -80 -55.5 -133t-141.5 -53h-84l-8 -58h76q86 0 134 -42.5t48 -106.5q0 -92 -60.5 -149.5t-158.5 -57.5q-155 0 -195 121l-59 -23q23 -72 89 -115.5t165 -43.5q121 0 202 72.5t81 191.5 q0 133 -119 180z" />
<glyph unicode="&#x278d;" horiz-adv-x="1564" d="M725 -27q-183 0 -331.5 85.5t-233 236.5t-84.5 336q0 161 66.5 312t176.5 261.5t259 177t307 66.5q138 0 259 -50.5t207.5 -138.5t136.5 -210t50 -261q0 -162 -64 -312.5t-172 -260.5t-259.5 -176t-317.5 -66zM920 506l77 629h-51l-477 -637l-8 -52h389l-21 -153h64 l18 153h123l8 60h-122zM856 506l62 498l-369 -498h307z" />
</font>
</defs>
</svg>
